<?xml version="1.0" encoding="utf-8"?>
<!-- Generator: Adobe Illustrator 27.6.1, SVG Export Plug-In . SVG Version: 6.00 Build 0)  -->
<svg version="1.1" id="Layer_1" xmlns="http://www.w3.org/2000/svg" xmlns:xlink="http://www.w3.org/1999/xlink" x="0px" y="0px"
	 viewBox="0 0 388 357.8" style="enable-background:new 0 0 388 357.8;" xml:space="preserve">
<style type="text/css">
	.st0{opacity:0.15;enable-background:new    ;}
	.st1{fill:#161B38;}
	.st2{fill:#FAC4B3;}
	.st3{fill:#37787F;}
	.st4{fill:#FFB8A2;}
	.st5{fill:#B85C2D;}
	.st6{fill:#53B7D5;}
	.st7{fill:#42A9C1;}
	.st8{fill:#0E1010;}
	.st9{fill:#D7825B;}
	.st10{fill:#FFFFFF;}
	.st11{fill:#2B656B;}
	.st12{fill:#F7D046;}
	.st13{fill:#DEAF5A;}
</style>
<ellipse id="Ellipse_2" class="st0" cx="156.6" cy="323.8" rx="146.5" ry="34"/>
<path id="Path_303" class="st1" d="M123.9,171.6c5.3-4,8.4-6.3,11.2-9.9c-7-17.2-10.7-29.8-10.7-29.8l-35.6,5.6
	c0.7,7.1,2.6,14,5.6,20.6c2.2,4.8,7.2,11.7,12.9,18.9C113.2,177.1,119.1,175.2,123.9,171.6z"/>
<path id="Path_304" class="st2" d="M145,210.1c11.5,2.2,22.8,5.3,33.8,9.3c9,3.4,20.3,8.3,20.3,8.3c2.8-1.8,4.5-4.8,4.6-8.1
	c0.4-6.2,3.3-6.8,3.3-6.8s-26.2-16.7-34.7-21.1c-13.8-7.1-20.6-4.2-26.6-3.9c-3.9-9.8-7.5-18.6-10.6-26.2c-2.7,3.6-5.9,5.9-11.2,9.9
	c-4.8,3.6-10.6,5.5-16.6,5.3c7.4,9.2,16,18.7,20.7,24.1C136.2,210.4,136.3,208.6,145,210.1z"/>
<path id="Path_305" class="st2" d="M140.6,204.5c0,0,3.3-1.9,5.6,0c1.3,0.9,2.2,2.2,2.9,3.6C149.1,208.1,141.8,206.6,140.6,204.5z"
	/>
<path id="Path_306" class="st3" d="M202.3,210.3c0,0,2.1,7-1,9.2c-4.8,3.4-6,5.6-6,5.6c2.4,2.1,4.4,4.6,5.9,7.4
	c2.4,4.4,2.2,17.3,2.4,21.4c0.2,4.1,5,5.8,5,5.8s12.1-28.9,14.8-37.5s-5-10.7-5-10.7L202.3,210.3z"/>
<path id="Path_307" class="st1" d="M197.5,225.2c0,0-4.1-1.1-8.6-2.4c-4.5-1.4-5.6-1.7-5.6-1.7s-0.8,3.5,1.2,5.1s9.7,2.7,11.4,2.1
	c0.3-0.1,1.1-0.8,6,5.9c1.5,2,1.8,13.1,1.8,13.1s3.2-4.8,3.2-7.7C206.7,236.7,206.1,229,197.5,225.2z"/>
<path id="Path_308" class="st1" d="M218.5,211.4c-0.5,1.9-0.4,3.9,0.3,5.8c1.1,2.9,2.4,1.6,1.5,5.7c-1,4.2-6,16.3-6.9,18.8
	c-3.7,10.3-8.3,12.8-8.5,15.1s4.8,3.9,4.8,3.9s9.1-21.9,10.5-25.9c1.4-3.9,5.5-14.7,3.9-19.2C223.5,213.1,221.2,211.3,218.5,211.4z"
	/>
<path id="Path_309" class="st1" d="M133.7,124.5c-6.2-6.5-24.1,26.8-24.1,26.8s-4.2,10.7-8.9,22.8c8.8-1,17.7,1.3,24.9,6.6
	c2.4,1.7,4.3,4,5.7,6.6c2-3.9,9.5-16.1,11.1-20.4C153,139.7,140.6,131.8,133.7,124.5z"/>
<path id="Path_310" class="st2" d="M125.6,180.8c-7.2-5.3-16.1-7.7-24.9-6.6c-5.9,15.3-12.7,32.8-13,33.7
	c-1.4,4.5-3.6,23.5-5.8,39.8c-2.2,16.3-10.8,47.5-10.8,47.5L82.3,309c0,0,7.1-15.8,14.3-30.6c7.3-14.8,12.1-38.9,11.5-46.5
	s0.7-11.7,3.2-16c2-3.4,12.4-13.8,20-28.6C129.9,184.7,127.9,182.5,125.6,180.8z"/>
<path id="Path_311" class="st2" d="M89.8,215.9v7.6c1.5-1,2.5-2.8,2.5-4.6C92.2,215.9,89.8,215.9,89.8,215.9z"/>
<path id="Path_312" class="st1" d="M35.1,296.4c-1.4,0.6,1.6,5.7,10.4,11.8c8.8,6,11.5,8,18.7,13.1c7.2,5,10.1,2.6,11,1.6
	C76.2,321.9,53.6,289,35.1,296.4z"/>
<path id="Path_313" class="st1" d="M48.9,295.9c4.5,6.1,10.6,11.6,13.6,15.1s8.1,7.1,8.7,7l7.6-1.3c3.1-6.4,5.8-13.2,5.8-13.2
	s-5.6,1.9-5.1-4c0.5-6.5-7.7-7.5-7.7-7.5s-14,2.6-17.8-0.1s-11.9-4.1-14.4-2.3c-0.5,0.3-0.9,0.7-1.2,1.2
	C42.4,290.8,46.3,292.7,48.9,295.9z"/>
<path id="Path_314" class="st3" d="M35.1,296.4c0,0,8.8-0.7,26.3,19.2c5.7,6.5,12.8,9.9,14.7,6.3c0.9-1.6,1.7-3.3,2.6-5.1l-7.6,1.3
	c-0.7,0.1-5.8-3.4-8.7-7c-2.9-3.6-9.1-9.1-13.6-15.1c-2.5-3.2-6.4-5.1-10.6-5.1C37,292.5,35.9,294.4,35.1,296.4z"/>
<path id="Path_315" class="st3" d="M54.2,291.6c1.6,2.6,3.6,4.8,6,6.6c3.5,2.3,11.6,0.7,13.8-0.4c2.2-1.1,4.5-2.5,6.9-6.9
	s-4.2-10.9-7.2-6.1c-2.9,4.8-2.5,5.6-5.8,6.4C64.8,292.1,54.2,291.6,54.2,291.6z"/>
<path id="Path_316" class="st2" d="M96.2,46.9c-2.6-1.1-5.3-1.7-8.1-1.7c-2.9,0-6.1,3.2-8.8,8S61.4,78.7,61.4,78.7
	c-3.1-4.3-6.9-8-11.3-11C43,62.9,39.6,59.6,38.8,57c-0.8-2.6,2.5-6.9,0-9.5s-4.2-2.3-4.2-2.3s-1.1-6.5-9.3-1.7
	c-6.7,3.9-4.5,12-0.6,16.2s10.2,10.4,16.4,17.7s9.3,13.2,14.7,17.1s9.9,3.4,14.1,0s17-18.1,20.6-22.3S96.2,46.9,96.2,46.9z"/>
<path id="Path_317" class="st2" d="M90,128.6c14.9,6.7,32.9,7.8,44.4-0.7c-1.3-1.6-2.9-3.1-4.5-4.3c-4.7-3.5-8.3-11-8-14.4
	c0.9-10.4,4.1-27.6,8.2-37.7c2.4-6-10.7-14-14.7-19.7c-1.4,2-9.2-5.8-18.5-6.5c-2.7-0.2-4.7,4.3-7.1,8.2c-1,1.6-3.9,7.4-5.4,9.2
	c-13.3,15.7-5,20.6-2.3,30.1C84.5,101.5,86.5,113.3,90,128.6z"/>
<path id="Path_318" class="st4" d="M115.4,51.7c-1.5-2-2.5-4.3-2.8-6.8c-1-6.1,0-14.2,0-14.2l-17.9,3.7c0,0,0.2,10.5-4.8,18.9
	c0,2.3,0.5,4.9,4.9,4.8C104.3,57.9,114,53.7,115.4,51.7z"/>
<path id="Path_319" class="st2" d="M80.9,12.5c-6,9.6,3,36.4,14.6,35.8c7.5-0.4,16.4-9,17.4-22.5C113.7,14.4,92.2-5.6,80.9,12.5z"/>
<path id="Path_320" class="st5" d="M78.8,19.8c0,0,11,2.8,22.1-1.4c2,1.3,3,3.6,4.4,5.9c5.4-5.3,7.6,1.5,4.9,6c-0.6,1.9,1,7.6,1,7.6
	s6.6-4.6,6-19.3c-0.2-6.3-8-16.3-15.2-17.9C95.7-0.7,90.8,0,82.3,6.6C76.7,11,78.8,19.8,78.8,19.8z"/>
<path id="Path_321" class="st6" d="M125.7,109.9c-2.1-6.4-0.4-22.4-0.4-22.4s-9.9,5.9-17.7-2.1c-4.1-4.3,4.3-20.8,9.5-32.5
	c-0.9-0.6-1.6-1.3-2.2-2.2c-4.8,2.9-12.7,9.3-17.3,12.1c-6.4,3.8-10.1,2.4-10.6-0.4c-0.6-3.1,5.1-13,5.1-13s-12.5,17-16,21.7
	c-3.4,4.7-4.9,10.5-1.5,17.7c3.4,7.1,7.2,14.4,8.7,21.1c3.1,14.1,5.6,30.8,5.6,30.8c9.8,0.9,19.7,1.2,29.5,0.8
	c14-0.5,16.8-14.9,16.8-14.9S127.8,116.2,125.7,109.9z"/>
<path id="Path_322" class="st7" d="M82,71.9c0,0,5.7,3.4,10.2,2.1c2.6-0.7,5-2.1,7-4c-2.7,0.6-5.4,0.9-8.2,0.8
	C87.9,70.9,84.9,71.3,82,71.9z"/>
<path id="Path_323" class="st7" d="M79.5,86.4c2.7,3.5,5.2,7.2,7.4,10.9c3.2,5.5,5.3,8.7,5.3,8.7s-1.9-10.1-5.3-14.2
	C84.9,89.5,82.3,87.6,79.5,86.4z"/>
<path id="Path_324" class="st7" d="M91.8,94.5c0,0,2.9,10.7,7,14.3s7.6,4.1,7.6,4.1c-2.7-2.4-5.2-5.2-7.3-8.1
	C96.3,101,93.9,95.6,91.8,94.5z"/>
<path id="Path_325" class="st7" d="M129.7,124.7c0,0-3.9,6.1-8.5,7.8c-4.5,1.7-11.6,0.9-11.6,0.9c3.4-0.9,6.8-2.1,10.1-3.4
	C123.1,128.4,126.4,126.7,129.7,124.7z"/>
<path id="Path_326" class="st7" d="M107.8,124.7c2.7,1.6,6,2.2,9.1,1.7c5.5-0.8,7.4-2.9,7.4-2.9S114.2,125.7,107.8,124.7z"/>
<path id="Path_327" class="st2" d="M117.2,52.9c2.2,1.5,4.6,2.6,7.2,3.1c4.1,0.8,10,2.1,15.3,12.9s11,13.8,14.8,18.5
	s5.4,6.7,3.3,11.2c-0.8,1.7-6.2,7.4-12.1,11.1c-3.4,2.1-18.8,8.6-20.3,9.9s-2.2,8.6-5.7,11.6s-8.6,0.8-10.1,0
	c-1.4-0.8-5.7-8.4,0-13.5c-1.4-3.9,5.9-4,8.5-4.8c3.5-2,11-9,14.4-12c2.5-2,5.3-3.6,8.3-4.7l-19.1-13.7
	C121.7,82.5,111.6,71.7,117.2,52.9z"/>
<path id="Path_328" class="st2" d="M121.7,82.5c0,0-3.5-4.2-6.3-5s-5.9,6.4-5.9,6.4S117.1,90.5,121.7,82.5z"/>
<path id="Path_329" class="st5" d="M100,5.4c0,0,11.7-9.9,17.4-2.8c5.7,7,2,10.1,4.1,12.7s9.3-0.2,13.3,5.8s2.2,9.8,3.8,11.5
	c1.6,1.7,8.2,1.8,10.7,3.8s1.9,10.2,3.9,12.4c2,2.2,2.9-0.7,8.1,1.9c5.3,2.7,10.1,15.1,7.1,22.7c-2.2,5.6-8.7,3.2-8.7,3.2
	s9.5-3.7,1.7-6.9c-7.2-3-10.1-8.7-10.2-10.2c0-2.3-0.7-4.6-2.1-6.5c-1.8-2.3-10.4-1.1-12.8-6c-2.4-5,0.8-9.5-1.5-12s-8.4,1.2-11.8-4
	c-3.4-5.1-3.2-12.9-5.8-12.8c-2.6,0-6.9,3.4-10.1,1C103.9,16.6,100,5.4,100,5.4z"/>
<g id="Group_1927" transform="translate(107.526 16.147)">
	<path id="Path_6847" class="st8" d="M88.5,182.4c-3.5,3.4,7.1,4.5,14.7,8.3s24.6,13.2,24.5,4.5S104.1,167.2,88.5,182.4z"/>
	<path id="Path_6848" class="st9" d="M99.9,142.3c-3.3,8.3-5.2,17.2-5.6,26.1c-0.8,15-1.3,32.8-2.3,49.8s-5.9,73.2-5.9,73.2
		s6.1,2,9.9,2.9c2.2,0.5,4.5,0,6.3-1.4c0,0,12.7-38.3,13.6-50.5c1.1-14.9-2-18.8-1.1-23.9c0.9-5.1,15.1-34.2,15.9-52.9
		S99.9,142.3,99.9,142.3z"/>
	<path id="Path_6849" class="st8" d="M87.7,289.8c0,0-7.8,8.5-11.4,11.3s-9.1,8.1-13.9,11.4s-6.6,7.3-5.3,9.3
		c2.4,3.8,6.8,6.8,13.6,5.9c3.5-0.5,10.2-7.5,15.7-10.2s14-7.1,15-10.8c2.1-7.3,2.1-10.7,0.9-13.8c-1.3-0.5-3.7,3.3-5.3,1.7
		C93.6,291,91.1,289.4,87.7,289.8z"/>
	<path id="Path_6850" class="st10" d="M80.3,297.5c0,0,4.6,0.9,6.9,3.8s6.1,1.8,3.6-2.4c-1.5-2.5-4-4.3-6.9-5L80.3,297.5z"/>
	<path id="Path_6851" class="st10" d="M73.8,303.1c0,0,4.5,2.3,6.8,5.2c2.3,2.9,6,1.4,3.5-2.8c-1.5-2.5-3.7-4.4-6.4-5.6L73.8,303.1z
		"/>
	<path id="Path_6852" class="st10" d="M67.3,308.7c0,0,4.6,2,7,4.9c2.3,2.9,6,1.4,3.4-2.8c-1.5-2.5-3.7-4.4-6.4-5.6L67.3,308.7z"/>
	<path id="Path_6853" class="st11" d="M56.8,319.3c0,0,3.5-2.2,5.8,0.4c2.3,2.6,4.6,5.6,6.5,6.1c1.8,0.4,9.8-4.6,14.2-7.6
		c4.4-3,11.4-5.3,13.8-9.7c1.6-2.4,3.5-4.6,5.6-6.6c0,0,0.9,4.8-0.8,7.5c-1.8,2.7-4,4.7-7.5,5.3c-4.4,1.5-8.6,3.7-12.4,6.4
		c-1.8,1.5-6.9,6.9-12,8.3C63.7,331.2,52.8,326.1,56.8,319.3z"/>
	<path id="Path_6854" class="st11" d="M86.1,291.4l-0.5-4.2c0,0,2.9-1.6,7.4,0.4c2.6,1.1,5.6,4.3,5.6,4.3l-0.5,3
		C98.1,295,93.7,299.2,86.1,291.4z"/>
	<path id="Path_6855" class="st9" d="M239.1,154.9c0,0-20.4,3.2-33.5,8.1c-7.6,2.8-16.6,7.1-16.6,7.1s-23-26.3-26.5-30.7
		s-13.4,34.5-13.4,34.5s8.7,7.8,20.5,18.5c12.4,11.3,14.8,9.9,23.8,5.4s27.6-15.1,34.5-20.6c2.4-1.8,5-3.3,7.8-4.3
		C235.4,167.2,239.1,154.9,239.1,154.9z"/>
	<path id="Path_6856" class="st11" d="M101.3,131c-3.1,6.8-5.7,13.8-8,20.9c-2.3,7.1-4.8,30.5-4.8,30.5s6.9-2.6,18.7,2.3
		c7.1,3,14,6.5,20.6,10.5l9.7-25.1c0,0,11.4,13.2,19.9,17.8c8.4,0,20.7-5.4,19.9-21.6c8.3,2.1,11.8-9.7,11.8-9.7
		s-10.7-17.8-20.8-27.6c-10.1-9.9-19.2-10.9-19.2-10.9L101.3,131z"/>
	<path id="Path_6857" class="st10" d="M149.1,134.5c0,0,12.1,15.5,18.5,22.1c3.6,3.6,6.8,7.6,9.6,11.9l3-2.1
		c0,0-18.6-24.3-26.6-35.1S149.1,134.5,149.1,134.5z"/>
	<path id="Path_6858" class="st9" d="M92.3,35.6c-5.1,0.4-11,4.3-13.3,8.2c-4.1,6.9-3.9,11.4-4.1,17.9c-0.1,4.6-0.4,15.6-8.9,19.9
		c-4.3,2.2-29.4,22.9-29.4,22.9l7.6,8.8c0,0,23.9-11.3,28.7-13.5c6.9-3.1,12.6-11.1,14.5-15C91.5,76.4,97.9,57,97.9,57L92.3,35.6z"
		/>
	<path id="Path_6859" class="st12" d="M119.7,38c0,0,17.3,2.8,25.6,10.9c9.1,8.8,8.4,29.1,8.9,45c0.4,12.4,11.4,32.7,11.4,32.7
		s-18.4,20.3-37.1,20.3c-18.8,0-30.6-8.3-30.6-8.3s1.4-15.3-1.6-25.3c-3-10.1-5.6-21.6-10.2-29.3c-7.1-12-1-33.7,1.8-39
		c5.8-10.9,12.8-11.9,12.8-11.9L119.7,38z"/>
	<path id="Path_6860" class="st9" d="M98,53.5c-0.1-2.6-0.1-4.9,0-6.9c-0.2-6,0-14.1,0-14.1l17.9-15.8c0,0-1,12.2,3.8,21.3
		C121.7,43.4,117.5,68,98,53.5z"/>
	<path id="Path_6861" class="st13" d="M94.4,43.1c0,0-2.4,6.8,0,12.7s16.7,10,25,2.1c4.9-4.8,7.4-11.5,6.6-18.3l-6.3-1.4
		c0,0,0.4,12.4-7,16.7s-14.3-0.8-14.8-3.4c-0.5-2.6,0.3-7.3,0.3-7.3L94.4,43.1z"/>
	<path id="Path_6862" class="st9" d="M115.1,8.1c-4.9-5.5-21.8-9.9-29.1,3.4c-1.6,2.9-1.6,8.7-1.8,11.9c-0.8,12.3,7,24.9,13,23.4
		c4.3-1.1,13.8-6,17.5-13.4C118.7,25.1,121.4,15.3,115.1,8.1z"/>
	<path id="Path_6863" class="st8" d="M84.4,9.4c0,0,1.9,6.4,8.3,7.7c6.7,1.4,15.7-2.8,15.7-2.8s3.2,5,2.7,7.4c4-1.1,5.9,4.6,5.9,4.6
		s4.6-5.4,2.6-14.6c-0.9-4.2-2.7-10.3-8.8-12.6c-2.3-0.8-4.7-1.4-7.1-1.9c-3-0.8-5.6-2.3-7.8-4.5c0,0-0.8,1.7-0.6,5.6
		c-2.2-1.5-4.2-3.2-6.1-5.1c0,0-1.3,4.2-0.7,6.9c-1.5-0.9-3.2-1.4-4.9-1.5C83.7-1.4,83.4,6.7,84.4,9.4z"/>
	<path id="Path_6864" class="st9" d="M136.1,45c-8.8,6.5-7.9,19.8-7.1,25c0.7,4.5,2.5,10.3,5.3,13s13.6-0.8,14.7-7.7
		S144.8,38.6,136.1,45z"/>
	<path id="Path_6865" class="st9" d="M158,52.5c9.1,6.6,20.5,7.4,26.2,11.7c6.4,4.8,11.2,7.8,9.7,11.2c-2.8,6-3.6,12.9-7.1,19.4
		c-5.6,10.4-7,15.4-7.6,17.4c-1,2.9,2.3,8.2,2.3,14.2c0,5.4-4.1,16-7.5,20.5c-2.4,3.1-6.7-3.5-5.7-8.1s-0.6-15.8-0.6-15.8
		c-2.3,1-4.5,2.3-6.3,4c-2.4,2.2-4.1,0.3-0.9-3.3c2.6-2.9,7.4-8.8,8.9-12.8c1.2-3.4,1.8-12.3,1.6-16c-0.6-10.8,5.4-15.2,5.4-15.1
		c0,0-10.5,2.2-18.3-0.5c-3.9-1.4-16.5-2.2-16.5-2.2l-3.7-32.7C137.7,44.2,144.7,42.9,158,52.5z"/>
	<path id="Path_6866" class="st9" d="M148.1,77.8c-2.2-0.4-4.5-0.7-6.7-0.9c-2.7-0.1-3.7,7-3.7,7c2.2,0,4.4-0.6,6.3-1.8
		C147.5,79.8,148.1,77.8,148.1,77.8z"/>
	<path id="Path_6867" class="st8" d="M234,172.5c0,0,5.7,2.8,9.8,3.6c7,1.2,13.6,12,17.7,14.1c4.3,2.2,8-2.5,8-2.5
		c-0.2-9.5-4.4-18.5-11.6-24.7c-3.7-3.1-5-10.4-7.5-12.4c-2.3-2-5-3.5-7.9-4.4c0,0-13,7-12.1,10.6c0.3,1.4,5.1,0.7,6.9,2.5
		c0.7,0.8,0.9,1.9,0.5,2.8C236.7,165.5,235.5,169,234,172.5z"/>
	<path id="Path_6868" class="st11" d="M240.2,147.1c2.4,1.2,4.8,2.5,7,4.1c2.1,1.5,3.8,5.9,6,9c2.9,4.1,7.5,8.2,8.4,9.2
		c1.3,1.5,5.2,8.9,5.1,13.6c0,2.1-5.7,5-5.3,7s4.4,0.4,7.1-1c4.2-2.3,1.4-13.6-4-20.4c-5.3-6.8-8.7-7.6-9.5-11
		c-0.8-3.3,0-6.9-4.9-9.9S245.2,144.2,240.2,147.1z"/>
	<path id="Path_6869" class="st10" d="M242.2,175.7c0.2-1.9,0.8-3.7,1.6-5.5c1-2.4,4.2-2.1,3.2,0.4c-1.2,3.1-2.5,5.7-2.5,5.7
		L242.2,175.7z"/>
	<path id="Path_6870" class="st10" d="M246.9,177.2c0,0,1.8-3,2.9-4.7c1-1.7,4-0.8,2.6,1.7s-2.9,4.7-2.9,4.7L246.9,177.2z"/>
	<path id="Path_6871" class="st10" d="M251.5,180.6c0,0,2-3.3,3.1-4.7c1-1.4,3.5-0.3,2.1,1.8s-3.4,4.7-3.4,4.7L251.5,180.6z"/>
	<path id="Path_6872" class="st11" d="M237.8,174.2c0,0-4.9,0.6-6.3-0.1c-1.3-0.8-2.2-3.1,0.1-5.7s6.1-6.4,6.1-6.4
		S240.8,169,237.8,174.2z"/>
	<path id="Path_6873" class="st9" d="M96.1,220v9.6c1.9-1.3,3.1-3.5,3.1-5.8C99.1,220,96.1,220,96.1,220z"/>
	<path id="Path_6874" class="st9" d="M189,196.5c0,0-0.1-3.6,2.5-4.6c1.3-0.6,2.8-0.9,4.3-0.8C195.8,191.1,191.3,196.5,189,196.5z"
		/>
	<path id="Path_6875" class="st9" d="M42.4,101.8c-3.8,0.6-7.7,0.6-11.5,0c-5.3-1.1-9.8,0.5-12.4,0.5s-0.4,2.2,3,2.6
		c2.8,0.4,5.6,1,8.4,1.7c0,0-6.5,1.4-10.2,4.4c-3.8,3-5.6,5.7-8.8,10.7s4.7,8.6,10,5.7s16.9-6.3,20.3-9.7s14.6-9.8,14.6-9.8
		L42.4,101.8z"/>
	<path id="Path_6876" class="st13" d="M99.2,86.4c0,0,11.4,10.8,21,13.7s14.7,1.3,14.7,1.3s-9-4.1-15.5-7.3S99.2,86.4,99.2,86.4z"/>
	<path id="Path_6877" class="st13" d="M115.3,107.7c0,0,11.2,8.8,17.6,10.4c6.4,1.6,15.2-3.3,15.2-3.3S128.5,112.9,115.3,107.7z"/>
	<path id="Path_6878" class="st13" d="M111.7,137.5c0,0,12.4,1,20-3.4c4.4-2.5,8.2-5.9,11.2-10C142.9,124.1,120.5,136.4,111.7,137.5
		z"/>
</g>
</svg>
