<?xml version="1.0" encoding="utf-8"?>
<!-- Generator: Adobe Illustrator 27.6.1, SVG Export Plug-In . SVG Version: 6.00 Build 0)  -->
<svg version="1.1" id="Layer_1" xmlns="http://www.w3.org/2000/svg" xmlns:xlink="http://www.w3.org/1999/xlink" x="0px" y="0px"
	 viewBox="0 0 381.8 363.6" style="enable-background:new 0 0 381.8 363.6;" xml:space="preserve">
<style type="text/css">
	.st0{opacity:0.15;enable-background:new    ;}
	.st1{fill:#273267;}
	.st2{fill:#2B2C30;}
	.st3{fill:#F0C6B5;}
	.st4{fill:#3F4045;}
	.st5{fill:#EF424D;}
	.st6{fill:#535359;}
	.st7{fill:#A7A9AC;}
	.st8{fill:#222222;}
	.st9{fill:#121215;}
	.st10{fill:#E11E26;}
	.st11{fill:#9C2720;}
	.st12{fill:#2F3032;}
	.st13{fill:#5498A8;}
	.st14{fill:#373737;}
	.st15{fill:#939497;}
	.st16{fill:#D1D3D3;}
	.st17{fill:#B0B2B3;}
	.st18{fill:#8B8C8C;}
	.st19{fill:#C7A496;}
	.st20{fill:#2B656B;}
	.st21{fill:#3B2416;}
	.st22{fill:#F7D046;}
	.st23{fill:#211E1F;}
	.st24{fill:#F4F5F6;}
</style>
<ellipse transform="matrix(0.5 -0.866 0.866 0.5 -148.1917 300.5445)" class="st0" cx="186.2" cy="278.6" rx="36.4" ry="157.7"/>
<path id="Path_330" class="st1" d="M192.7,50.9c0,0,0.9,0.6,5.2,10.7c2.3,5.5,7.9,12.4,13.4,18.7L226,68.7
	c-3.1-5.9-7.8-14.1-13.8-23.8C210,44.1,192.7,50.9,192.7,50.9z"/>
<path id="Path_331" class="st2" d="M260.9,104.3l-2,0.4l-2.3-0.7l-3.4,2.3l-0.4,5.1l1.7,2.3c0.7,1.5,1.7,3,2.7,4.3
	c1.4,1.7,6.1,3.2,6.1,3.2l2.6-5.2l-0.9-5.7L260.9,104.3z"/>
<path id="Path_332" class="st3" d="M230.3,77.4c-0.5-1.3-2-4.3-4.3-8.7c0,0-4.6-0.6-9.4,3.5s-5.3,8.2-5.3,8.2
	c4.6,5.3,9.1,10.3,11.2,13.5c4.7,7,32,19.8,32,19.8s-1-6.3,4.3-8.9C252.1,99.6,235.9,80.8,230.3,77.4z"/>
<path id="Path_333" class="st4" d="M157.6,157.9l-7.2,0.7l18,59.1l0.1,0.5l0,0c0.2,0.4,0.5,0.7,0.9,0.9c1.6,0.8,3.6,0.8,5.2,0
	c0.7-0.3,1.1-0.9,1.1-1.6l0,0l-0.1-0.4L157.6,157.9z"/>
<path id="Path_334" class="st5" d="M156.5,156.7c-1.6-0.8-3.6-0.8-5.2,0c-1.4,0.8-1.4,2.2,0,3c1.6,0.8,3.6,0.8,5.2,0
	C158,158.9,158,157.5,156.5,156.7z"/>
<path id="Path_335" class="st6" d="M145.5,120.9l-5.3,0.5l11.2,36.9l0.1,0.4l0,0l0.7,0.6c1.2,0.6,2.6,0.6,3.8,0
	c0.5-0.2,0.8-0.7,0.8-1.2l-0.1-0.3L145.5,120.9z"/>
<path id="Path_336" class="st7" d="M144.7,120c-1.2-0.6-2.6-0.6-3.8,0c-1.1,0.6-1.1,1.6,0,2.2c1.2,0.6,2.6,0.6,3.8,0
	C145.7,121.6,145.7,120.6,144.7,120z"/>
<path id="Path_337" d="M141.7,109.1c-3.6-0.5-11.4,2.7-16,6.1l-3.7-0.9v5.4l0,0l0.1,0.7c1.3,4.2,32.5,13.6,37.9,10.5
	c0.6-0.4,1-1.1,1-1.8l0,0v-5.7l-2.7-0.6C154.3,116.8,146.2,109.7,141.7,109.1z"/>
<path id="Path_338" class="st8" d="M141.7,103.6c-5.5-0.7-21,7.1-19.6,11.3c1.3,4.2,32.5,13.7,37.9,10.6
	C165.4,122.3,149,104.5,141.7,103.6z"/>
<path id="Path_339" class="st9" d="M188.3,189.4l-12,5.8v3.2l12.9,7.4l12.4-7.2l0.8-4.6l-8.4-5.5L188.3,189.4z"/>
<path id="Path_340" d="M190,204.8l11-6.4v-2.1l-11,6.4V204.8z"/>
<path id="Path_341" class="st10" d="M190.4,204.4l0.3,0.1l10.3-7.6l-10.6,5.8V204.4z"/>
<path id="Path_342" class="st5" d="M190.4,202.8l0.3,0.1l0.3,0.5l9.8-5.2l0.2-1.2l-0.2-0.1L190.4,202.8z"/>
<path id="Path_343" class="st11" d="M190.6,204.5l10.3-5.9V197l-10.3,6V204.5z"/>
<path id="Path_344" d="M201.6,195.4v3.2l1-3.2v-3.2l-1.8,0.9L201.6,195.4z"/>
<path id="Path_345" class="st12" d="M198.4,193.6c0.6,0.4,0.5,1-0.3,1.5l-7.1,4.1c-0.8,0.4-1.7,0.5-2.5,0.1c-0.6-0.3-0.5-1,0.3-1.5
	l7.1-4.1C196.6,193.3,197.6,193.2,198.4,193.6z M182.1,195.6c-0.6-0.4-0.5-1,0.3-1.5l7.1-4.1c0.8-0.4,1.7-0.5,2.5-0.1
	c0.6,0.4,0.5,1-0.3,1.5l-7.1,4.1C183.9,195.9,182.9,195.9,182.1,195.6L182.1,195.6z M188.7,188l-12.4,7.2l12.9,7.4l12.4-7.2l1-3.2
	l-8.3-4.8L188.7,188z"/>
<path id="Path_346" class="st9" d="M185.5,195.6l0.5,0.3l6.1-3.5l2.3,1.3l0.5-0.3l-2.8-1.6L185.5,195.6z"/>
<path id="Path_347" class="st6" d="M186.1,195.9l2.3,1.3l6.1-3.5l-2.3-1.3L186.1,195.9z"/>
<path id="Path_348" class="st9" d="M177.4,201l6.2,3.6l0.3-3.5l-6.5-2.1V201z"/>
<path id="Path_349" d="M183.6,204.6l4.1-0.2v-2l-4.1,0.2V204.6z"/>
<path id="Path_350" class="st12" d="M177.4,199l6.2,3.6l4.1-0.2l-9.9-5.7L177.4,199z"/>
<path id="Path_351" class="st2" d="M174.3,85.1c-6.4-3.9-5.8-5.4-5.8-5.4l-11.8,4.6l-1.9,26.2c0,0,20.3,18.3,33.6,30.3l23.1-13.6
	C200.2,111.9,185.4,93.8,174.3,85.1z"/>
<path id="Path_352" class="st1" d="M191,182.5c-0.3-3.8-16.8-7.2-16.8-7.2s-4,3.5-3.8,7.8s6.2,8.7,7.6,9.1c1.4,0.4,3.6,1.1,3.6,1.1
	s6.6,7.9,8.3,10.2c4.4,6,10.6,8.3,11.7,7.8c6.4-2.6,5.9-8.9,3.7-13.3C203.2,193.6,191.8,186.9,191,182.5z"/>
<path id="Path_353" class="st13" d="M174.2,175.3c-1.9,11,12.9,11,16.1,7.8c2.4-2.1,4.9-4,7.5-5.8L184.5,166
	C181.5,169.5,178,172.7,174.2,175.3z"/>
<path id="Path_354" class="st3" d="M211.5,127.1c0,0-7.1-3.1-14.8,2.5s-8.3,11.1-8.3,11.1c5.9,5.3,10.5,9.4,11.2,10
	c-7.7,6.6-11.1,11.1-14.9,15.3c-1.3,3.4-0.6,7.2,1.8,10c4.1,5.1,11.4,1.3,11.4,1.3c6.4-4.4,13.1-8.3,20.1-11.7
	c3.9-1.8,12.7-7.8,10.3-14.1C227.5,149.6,220.6,139.3,211.5,127.1z"/>
<path id="Path_355" class="st1" d="M189.9,178.8c-2.7,1.9-4.1,4.6-3.2,5.9s3.9,0.8,6.6-1.1c2.7-1.9,4.1-4.6,3.2-5.9
	C195.5,176.4,192.6,176.8,189.9,178.8z"/>
<path id="Path_356" class="st6" d="M176.9,200.1l-6.4,26.1c-0.3,1.2,0.6,3.1,1.9,4.3h0.1c0.3,0.3,0.7,0.6,1.1,0.8l0.4,0.7l1.2-0.7
	l0.4-0.6l7.8-28.2l-5.4-3.1L176.9,200.1z"/>
<path id="Path_357" class="st7" d="M169.3,226.9c-0.3,1.1,0.5,3.1,1.9,4.3h0.1c1.4,1.3,2.8,1.3,3.1,0.2l7.9-28.2l-5.4-3.1
	L169.3,226.9z"/>
<path id="Path_358" class="st14" d="M172.2,226.8c-0.4,0.3-0.3,1.2,0.2,1.9s1.2,1.1,1.6,0.7c0.4-0.3,0.3-1.2-0.2-1.9
	C173.3,226.8,172.6,226.5,172.2,226.8z"/>
<path id="Path_359" class="st15" d="M128.2,136.5l-4.3-2.7l-1.7,2.7c2.5,0.8,4.9,2.1,6.9,3.8C129.6,139,129.2,137.5,128.2,136.5z"/>
<path id="Path_360" class="st9" d="M111.8,240.7c-25.7-9.9-50-44.2-54.2-76.3s13.2-50.1,38.9-40.1s50,44.2,54.2,76.2
	C155,232.7,137.5,250.7,111.8,240.7z M95.6,117.5c-28.7-11.1-48.2,9-43.5,44.9s31.9,74.1,60.6,85.3c28.7,11.1,48.2-9,43.5-44.9
	S124.3,128.6,95.6,117.5z"/>
<path id="Path_361" class="st6" d="M110.7,234.6c-11.3-4.4-22.5-14-31.8-27.1c-9-12.8-14.9-27.3-16.5-40.8
	c-3.4-28,12.2-44.5,34-36.1l0.6,0.3c23.3,9.5,44.6,39.3,48.3,67.9C149.2,227.4,133.6,243.5,110.7,234.6z M96.3,124.1l-0.7-0.3
	c-24.8-9.6-42.5,9-38.6,40.7c1.9,15.4,8.5,31.8,18.7,46.3c10.4,14.8,23.2,25.7,35.9,30.6c25.9,10.1,43.5-8.1,39.3-40.5
	S122.7,134.9,96.3,124.1z"/>
<path id="Path_362" class="st9" d="M108.7,242.6c-25.7-10-50-44.2-54.2-76.3s13.3-50.1,38.9-40.1c25.7,10,50,44.2,54.2,76.3
	C151.8,234.5,134.3,252.5,108.7,242.6z M92.5,119.3c-28.7-11.1-48.2,9-43.5,44.9s31.9,74.1,60.6,85.3c28.7,11.1,48.3-9,43.6-44.9
	C148.4,168.7,121.2,130.4,92.5,119.3z"/>
<path id="Path_363" class="st9" d="M96.4,189.5l-10.9,29.1l0.2,0.4h0.1l0.3-0.2L97,189.7l-0.2-0.4L96.4,189.5z"/>
<path id="Path_364" class="st9" d="M102.2,197.1l-1.6,33.3l0.3,0.3l0,0l0.3-0.3l1.6-33.3l-0.3-0.3L102.2,197.1z"/>
<path id="Path_365" class="st9" d="M94.5,186.4L65.8,187l-0.3,0.3l0.3,0.3l0,0l28.7-0.6l0.3-0.3L94.5,186.4L94.5,186.4z"/>
<path id="Path_366" class="st9" d="M70,195.8l-0.1,0.4l0.2,0.1l0.2-0.1l24.7-17l0.1-0.4l-0.4-0.1L70,195.8z"/>
<path id="Path_367" class="st9" d="M80,211.8l-0.1,0.4l0.2,0.1l0.2-0.1l24-16.6l0.1-0.4l-0.4-0.1L80,211.8z"/>
<path id="Path_368" class="st9" d="M103.1,197.2l-0.1,0.4l20.8,40.2l0.3,0.2h0.1l0.1-0.4l-20.8-40.2L103.1,197.2z"/>
<path id="Path_369" class="st9" d="M68.6,135.7l-0.1,0.4l21.6,39.5l0.3,0.2h0.1l0.1-0.4L69,135.9L68.6,135.7z"/>
<path id="Path_370" class="st9" d="M108.7,197.4l-0.2,0.3l6.6,39.3l0.3,0.2l0,0l0.2-0.3l-6.6-39.3L108.7,197.4z"/>
<path id="Path_371" class="st9" d="M64.3,141.9v0.4l27.6,29.9l0.2,0.1l0.2-0.1v-0.4l-27.6-29.9H64.3z"/>
<path id="Path_372" class="st9" d="M60.4,159.4l-0.4,0.1l0.1,0.4l30.3,17.4h0.1l0.3-0.1l-0.1-0.4L60.4,159.4z"/>
<path id="Path_373" class="st9" d="M74.8,203.9l-0.1,0.4l0.2,0.1l0.2-0.1L95,189.7l0.1-0.4l-0.4-0.1L74.8,203.9z"/>
<path id="Path_374" class="st9" d="M73.2,132l-0.1,0.4l20.3,38.4l0.2,0.2h0.1l0.1-0.4l-20.3-38.4L73.2,132z"/>
<path id="Path_375" class="st9" d="M109.3,197.2l-0.1,0.4l20.7,38.8l0.3,0.2h0.1l0.1-0.4l-20.7-38.8L109.3,197.2z"/>
<path id="Path_376" class="st6" d="M115,186.8c-1-7.5-6.7-15.5-12.7-17.8c-1.7-0.8-3.7-0.9-5.5-0.2l0,0l-0.1,0.1l-0.9,0.5l-3.1,1.8
	l0.8,1.4c-0.6,1.9-0.7,3.9-0.4,5.8c1,7.5,6.7,15.5,12.7,17.8c0.7,0.3,1.4,0.5,2.1,0.6l0.7,1.2l3.6-2.1l0,0
	C114.5,194.3,115.6,191.1,115,186.8z"/>
<path id="Path_377" class="st7" d="M99.2,170.8c-6-2.3-10.1,1.9-9.1,9.4s6.7,15.5,12.7,17.8s10.1-1.9,9.1-9.4
	S105.3,173.1,99.2,170.8z"/>
<path id="Path_378" class="st9" d="M104,171.8l-0.1,0.4l0.2,0.1l0.2-0.1l24.7-17l0.1-0.4l-0.4-0.1L104,171.8z"/>
<path id="Path_379" class="st9" d="M120.3,148.6l-10.9,29.1l0.2,0.4h0.1l0.3-0.2l10.9-29.1l-0.2-0.4L120.3,148.6z"/>
<path id="Path_380" class="st9" d="M103.7,136.9l-1.4,33.9l0.3,0.3l0,0l0.3-0.3l1.4-33.9l-0.3-0.3L103.7,136.9z"/>
<path id="Path_381" class="st9" d="M111.3,180.5l-0.3,0.3l0.3,0.3l0,0l28.7-0.6l0.3-0.3l-0.3-0.3L111.3,180.5z"/>
<path id="Path_382" class="st9" d="M113.2,188.2l-0.1,0.4l0.2,0.1h0.2l24.7-17l0.1-0.4l-0.4-0.1L113.2,188.2z"/>
<path id="Path_383" class="st9" d="M113.3,192.4l-0.1,0.4l23.2,39.4l0.3,0.1h0.1l0.1-0.4l-23.2-39.4L113.3,192.4z"/>
<path id="Path_384" class="st9" d="M80,128.8l-0.1,0.4l19.9,40.5l0.3,0.2h0.1l0.1-0.4L80.4,129L80,128.8z"/>
<path id="Path_385" class="st9" d="M88.8,130l-0.2,0.3l6.6,39.3l0.3,0.2l0,0l0.2-0.3l-6.6-39.3L88.8,130z"/>
<path id="Path_386" class="st9" d="M111.1,195.9v0.4l28.7,28.7l0.2,0.1l0.2-0.1v-0.4l-28.7-28.7L111.1,195.9L111.1,195.9z"/>
<path id="Path_387" class="st9" d="M113.6,190.1l-0.4,0.1l0.1,0.4l30.8,17.8h0.1l0.2-0.1l-0.1-0.4L113.6,190.1z"/>
<path id="Path_388" class="st9" d="M110.2,178.8l-0.1,0.4l0.2,0.1l0.2-0.1l20.7-14.3l0.1-0.4l-0.4-0.1L110.2,178.8z"/>
<path id="Path_389" class="st7" d="M107.6,236.4c-11.3-4.4-22.5-14-31.8-27.1c-9-12.8-14.9-27.3-16.5-40.8c-3.4-28,12.2-44.5,34-36
	l0.6,0.2c23.3,9.5,44.5,39.3,48.3,67.9S130.5,245.3,107.6,236.4z M93.2,125.9l-0.7-0.3c-24.8-9.6-42.5,9-38.6,40.7
	c1.8,15.4,8.5,31.8,18.7,46.3c10.4,14.8,23.2,25.7,35.9,30.6c25.9,10,43.5-8.1,39.3-40.5S119.6,136.7,93.2,125.9z"/>
<path id="Path_390" class="st16" d="M46.2,140.9c-0.3,4,4,7.1,4,7.1S61,87.1,122,142.4c1-3.6,4.4-6,6.2-5.9
	C70,78.8,46.8,133.8,46.2,140.9z"/>
<path id="Path_391" class="st4" d="M244.3,170.7l-86.7-4.6l4.7,11.9l68.1,5.6l-59,38.7c-1.5,1.7,4.7,10.7,4.7,10.7l75.7-47.9
	l-2.8-13.7L244.3,170.7z"/>
<path id="Path_392" class="st4" d="M175.6,223.7l-63-35.6l50.1-2.7l-0.3-1l2.2-0.1l-2.2-6.3l-61.8,3.4l-0.5-0.2v0.3h-0.5l0.3,1
	l-1.3,0.1l-0.5-0.3v0.3h-0.5l0.5,1.5v3.9l1.7,0.9l0,0l73.8,41.7v-2.2l1.9,1.1L175.6,223.7z"/>
<path id="Path_393" class="st2" d="M173,204l-72.9-28.4c-1.1-0.5-2.4-0.4-3.5,0.3l0,0l-3.3,2.2l0.7,2.5l1-0.3c0.4,3.5,2,6.7,4.6,9
	l73.3,55c3.5,2,6.8,2.7,9.5,2.2l0.3,0.7l2.9-2c2.9-1.9,4.7-5.7,4.7-11C190.5,216.2,182.7,209.6,173,204z"/>
<path id="Path_394" class="st17" d="M169.9,206.1L97,177.7c-2.9-1.1-5.1,0.6-5.1,4.1c0.2,3.7,1.9,7.1,4.6,9.6l73.3,55
	c9.6,5.6,17.5,1.1,17.5-10.1C187.4,218.3,179.6,211.7,169.9,206.1z"/>
<path id="Path_395" class="st2" d="M148.6,206.4l-26-10.1c-1-0.4-1.8,0.2-1.8,1.5c0.1,1.3,0.7,2.5,1.7,3.4l26.1,19.6
	c3.4,2,6.2,0.4,6.2-3.6C154.8,210.7,152,208.4,148.6,206.4z"/>
<path id="Path_396" d="M96.2,183c-0.7,0.6-0.5,2.1,0.3,3.3c0.9,1.2,2.1,1.8,2.7,1.2c0.7-0.6,0.5-2-0.3-3.3
	C98.1,183,96.9,182.4,96.2,183z"/>
<path id="Path_397" d="M173,222.6c-2.8-1.6-5-0.3-5,2.9c0.2,3.5,2.1,6.8,5,8.7c2.8,1.6,5,0.3,5-2.9
	C177.8,227.7,175.9,224.5,173,222.6z"/>
<path id="Path_398" class="st6" d="M173.5,225.5c-1-0.9-2-1.2-2.6-0.8l-1.1,0.7l0.4,0.8l-6.6,23.7l4.5,6.7l7.4-26.7
	C175.8,228.7,174.9,226.8,173.5,225.5L173.5,225.5z"/>
<path id="Path_399" class="st18" d="M172.4,226.1c-1.4-1.2-2.8-1.3-3.1-0.2l-6.8,24.5l4.5,6.7l7.4-26.7
	C174.8,229.4,173.9,227.4,172.4,226.1L172.4,226.1z"/>
<path id="Path_400" d="M170.9,227.2c-0.4,0.3-0.3,1.2,0.2,1.9s1.2,1.1,1.6,0.7c0.4-0.4,0.3-1.2-0.2-1.9S171.3,226.9,170.9,227.2z"/>
<path id="Path_401" d="M168.1,256.1v2l0.4-2.3v-2l-1.3,0.7L168.1,256.1z"/>
<path id="Path_402" class="st12" d="M158.2,250.4l9.9,5.7l0.4-2.3l-6.2-3.6L158.2,250.4z"/>
<path id="Path_403" class="st9" d="M146.2,255.7l-2.9,3.5v3.2l8.3,4.8l0.9-1.8l3.9-0.9l0.7,2.1l12.4-7.2v-3.2l-13.2-6.4L146.2,255.7
	z"/>
<path id="Path_404" d="M157.9,265.8l11-6.4v-2.1l-11,6.4V265.8z"/>
<path id="Path_405" class="st10" d="M158.3,265.4l0.3,0.1l10.3-7.5l-10.6,5.8C158.3,263.8,158.3,265.4,158.3,265.4z"/>
<path id="Path_406" class="st5" d="M158.3,263.8l0.3,0.1l0.3,0.5l9.8-5.2l0.3-1.2l-0.3-0.1L158.3,263.8z"/>
<path id="Path_407" class="st11" d="M158.5,265.5l10.3-5.9V258l-10.3,6V265.5z"/>
<path id="Path_408" d="M151.6,267.3l5.5-0.6v-3.2l-5.5,0.6V267.3z"/>
<path id="Path_409" class="st12" d="M157.1,253.7l-7.1,4.1c-0.8,0.4-1.7,0.5-2.5,0.2c-0.6-0.4-0.5-1,0.3-1.5l7.1-4.1
	c0.8-0.4,1.7-0.5,2.5-0.2C158,252.6,157.9,253.2,157.1,253.7z M163.8,255.9c0.6,0.4,0.5,1-0.3,1.5l-7.1,4.1
	c-0.8,0.4-1.7,0.5-2.5,0.2c-0.6-0.4-0.5-1,0.3-1.5l7.1-4.1C162,255.6,163,255.6,163.8,255.9L163.8,255.9z M144.3,256l-1,3.2l8.3,4.8
	l5.5-0.6l12.4-7.2l-12.9-7.4L144.3,256z"/>
<path id="Path_410" class="st9" d="M151,258l0.5,0.3l6.1-3.5l2.3,1.3l0.5-0.3l-2.8-1.6L151,258z"/>
<path id="Path_411" class="st6" d="M151.5,258.3l2.3,1.3l6.1-3.5l-2.3-1.3L151.5,258.3z"/>
<path id="Path_412" class="st2" d="M288.2,275.3l-20.6-68.1l-8.2-0.7l-2.5,1.4l23.1,66.8c-0.7,1.1-1,2.4-1,3.8
	c0.3,5.3,3.1,10.1,7.5,13c0.7,0.4,1.5,0.7,2.2,0.9l0.4,1.1l2.8-1.6l0,0c1.2-0.8,2-2.4,2-4.7C294.1,283,291.5,278.1,288.2,275.3z"/>
<path id="Path_413" class="st4" d="M285.7,276.7l-20.6-68.1l-8.2-0.7l20.7,68.2c-0.7,1.1-1.1,2.4-1,3.7c0.3,5.3,3.1,10.1,7.5,13
	c4.2,2.4,7.5,0.5,7.5-4.3C291.7,284.4,289.1,279.5,285.7,276.7z"/>
<path id="Path_414" d="M284,281.7c-1.2-0.7-2.1-0.1-2.1,1.2c0.1,1.5,0.9,2.9,2.1,3.7c1.2,0.7,2.1,0.1,2.1-1.2
	C286.1,283.9,285.3,282.5,284,281.7z"/>
<path id="Path_415" class="st9" d="M290.5,343c-25.7-9.9-50-44.1-54.2-76.3c-4.2-32.1,13.2-50.1,38.9-40.1s50,44.2,54.2,76.3
	C333.7,335,316.2,353,290.5,343z M274.3,219.7c-28.7-11.1-48.2,9-43.5,44.9s31.9,74.1,60.6,85.3s48.2-9,43.5-44.9
	C330.3,269.1,303.1,230.9,274.3,219.7z"/>
<path id="Path_416" class="st6" d="M289.5,336.8c-11.3-4.4-22.5-14-31.8-27c-9-12.8-14.9-27.3-16.5-40.8c-3.4-28,12.2-44.5,34-36
	l0.6,0.3c23.3,9.5,44.6,39.3,48.3,67.9C327.9,329.7,312.4,345.7,289.5,336.8z M275,226.4l-0.7-0.3c-24.8-9.6-42.5,9-38.6,40.7
	c1.9,15.4,8.5,31.8,18.7,46.3c10.4,14.8,23.2,25.7,35.9,30.6c25.9,10,43.5-8.1,39.3-40.5C325.4,270.9,301.4,237.1,275,226.4z"/>
<path id="Path_417" class="st9" d="M287.4,344.8c-25.7-9.9-50-44.2-54.2-76.3s13.2-50.1,38.9-40.1s50,44.2,54.2,76.3
	C330.6,336.8,313.1,354.8,287.4,344.8z M271.2,221.5c-28.7-11.1-48.2,9-43.5,44.9s31.9,74.1,60.6,85.3c28.7,11.1,48.3-9,43.6-44.9
	C327.2,270.9,300,232.7,271.2,221.5z"/>
<path id="Path_418" class="st9" d="M275.1,291.7l-10.9,29.1l0.2,0.4h0.1l0.3-0.2l10.9-29.1l-0.2-0.4L275.1,291.7z"/>
<path id="Path_419" class="st9" d="M280.9,299.3l-1.6,33.3l0.3,0.3l0,0l0.3-0.3l1.6-33.3l-0.3-0.3L280.9,299.3z"/>
<path id="Path_420" class="st9" d="M244.6,289.2l-0.3,0.3l0.3,0.3l0,0l28.7-0.6l0.3-0.3l-0.3-0.3L244.6,289.2z"/>
<path id="Path_421" class="st9" d="M248.8,298.1l-0.1,0.4l0.2,0.1l0.2-0.1l24.7-17l0.1-0.4l-0.4-0.1L248.8,298.1z"/>
<path id="Path_422" class="st9" d="M258.7,314l-0.1,0.4l0.2,0.1h0.2l24-16.6l0.1-0.4l-0.4-0.1L258.7,314z"/>
<path id="Path_423" class="st9" d="M281.9,299.4l-0.1,0.4l20.8,40.2l0.3,0.2h0.1l0.1-0.4l-20.8-40.2L281.9,299.4z"/>
<path id="Path_424" class="st9" d="M247.3,237.9l-0.1,0.4l21.6,39.5l0.3,0.1h0.1l0.1-0.4L247.7,238L247.3,237.9z"/>
<path id="Path_425" class="st9" d="M287.5,299.7l-0.2,0.3l6.6,39.3l0.3,0.2h0.1l0.2-0.3l-6.6-39.3L287.5,299.7z"/>
<path id="Path_426" class="st9" d="M243,244.1v0.4l27.6,29.9l0.2,0.1l0.2-0.1V274l-27.6-29.9H243z"/>
<path id="Path_427" class="st9" d="M239.2,261.6l-0.4,0.1l0.1,0.4l30.2,17.5h0.1l0.2-0.1l-0.1-0.4L239.2,261.6z"/>
<path id="Path_428" class="st9" d="M253.6,306.2l-0.1,0.4l0.2,0.1h0.2l19.9-14.5l0.1-0.4l-0.4-0.1L253.6,306.2z"/>
<path id="Path_429" class="st9" d="M251.9,234.2l-0.1,0.4l20.3,38.4l0.3,0.2h0.1l0.1-0.4l-20.3-38.4L251.9,234.2z"/>
<path id="Path_430" class="st9" d="M288.1,299.4l-0.1,0.4l20.7,38.8l0.3,0.2h0.1l0.1-0.4l-20.7-38.8L288.1,299.4z"/>
<path id="Path_431" class="st6" d="M293.8,289c-1-7.5-6.6-15.5-12.7-17.8c-1.7-0.8-3.7-0.9-5.5-0.2l0,0l-0.1,0.1l-0.9,0.5l-3.1,1.8
	l0.8,1.4c-0.6,1.9-0.7,3.9-0.4,5.8c1,7.5,6.7,15.5,12.7,17.8c0.7,0.3,1.4,0.5,2.1,0.6l0.7,1.2l3.6-2.1l0,0
	C293.2,296.6,294.3,293.3,293.8,289z"/>
<path id="Path_432" class="st7" d="M278,273c-6-2.3-10.1,1.9-9.1,9.4s6.7,15.5,12.7,17.8s10.1-1.9,9.1-9.4S284,275.3,278,273z"/>
<path id="Path_433" class="st9" d="M282.7,274l-0.1,0.4l0.2,0.1l0.2-0.1l24.7-17l0.1-0.4h-0.4L282.7,274z"/>
<path id="Path_434" class="st9" d="M299.4,250.6l-0.4,0.2l-10.9,29.1l0.2,0.4h0.1l0.3-0.2l10.9-29.1L299.4,250.6z"/>
<path id="Path_435" class="st9" d="M282.5,239.1l-1.4,33.9l0.3,0.3l0,0l0.3-0.3l1.4-33.9l-0.3-0.3L282.5,239.1z"/>
<path id="Path_436" class="st9" d="M290,282.8l-0.3,0.3l0.3,0.3l28.7-0.6l0.3-0.3l-0.3-0.3L290,282.8z"/>
<path id="Path_437" class="st9" d="M292,290.4l-0.1,0.4l0.2,0.1l0.2-0.1l24.7-17l0.1-0.4l-0.4-0.1L292,290.4z"/>
<path id="Path_438" class="st9" d="M292,294.7l-0.1,0.4l23.2,39.4l0.2,0.1h0.1l0.1-0.4l-23.1-39.4L292,294.7z"/>
<path id="Path_439" class="st9" d="M258.8,231.1l-0.1,0.4l19.9,40.5l0.3,0.2h0.1l0.1-0.4l-19.9-40.5L258.8,231.1z"/>
<path id="Path_440" class="st9" d="M267.5,232.3l-0.2,0.3l6.6,39.3l0.3,0.2h0.1l0.2-0.3l-6.6-39.3L267.5,232.3z"/>
<path id="Path_441" class="st9" d="M289.8,298.1v0.4l28.7,28.7l0.2,0.1l0.2-0.1v-0.4l-28.7-28.7H289.8z"/>
<path id="Path_442" class="st9" d="M292.3,292.3l-0.4,0.1l0.1,0.4l30.8,17.8h0.1l0.3-0.1l-0.1-0.4L292.3,292.3z"/>
<path id="Path_443" class="st9" d="M289,281l-0.1,0.4l0.2,0.1l0.2-0.1l20.7-14.3l0.1-0.4l-0.4-0.1L289,281z"/>
<path id="Path_444" class="st7" d="M286.4,338.6c-11.3-4.4-22.5-14-31.7-27.1c-9-12.8-14.9-27.3-16.5-40.8c-3.4-28,12.2-44.5,34-36
	l0.6,0.2c23.3,9.5,44.6,39.3,48.3,67.9C324.8,331.5,309.2,347.5,286.4,338.6z M271.9,228.2l-0.7-0.3c-24.8-9.6-42.5,9-38.6,40.7
	c1.9,15.4,8.5,31.8,18.7,46.3c10.4,14.8,23.2,25.7,35.9,30.6c25.9,10,43.5-8.1,39.3-40.5C322.3,272.7,298.3,238.9,271.9,228.2z"/>
<path id="Path_445" class="st16" d="M224.2,251c-0.2,2.6,1.5,4.9,4.1,5.6c0,0-0.6-29.6,25.1-34.7l0.8-5.2l-3.4-3.6
	C223,222.7,224.2,251,224.2,251z"/>
<path id="Path_446" class="st15" d="M307.7,237.6l-4.7-0.8c2.7,1.3,5,3.3,6.9,5.7c0.9-0.9,1.1-2.3,0.4-3.4L307.7,237.6z"/>
<path id="Path_447" class="st16" d="M261.1,211.7l-0.6,5.9l3.7,4.3c15.9,3.4,28.3,12.7,37.7,23.3c5.3-7.2,8.4-6.2,8.4-6.2
	C287.9,213.1,261.1,211.7,261.1,211.7z"/>
<path id="Path_448" class="st2" d="M281.5,279.1L260.9,211l-8.2-0.7l-2.4,1.4l23.1,66.8c-0.7,1.1-1,2.4-1,3.7
	c0.3,5.3,3.1,10.1,7.5,13c0.7,0.4,1.5,0.7,2.3,0.9l0.4,1.1l2.8-1.6c1.2-0.8,2-2.5,2-4.7C287.4,286.9,284.9,282,281.5,279.1z"/>
<path id="Path_449" class="st4" d="M279.1,280.6l-20.6-68.1l-8.2-0.7l20.7,68.3c-0.7,1.1-1.1,2.4-1,3.7c0.3,5.3,3.1,10.1,7.5,13
	c4.1,2.4,7.5,0.5,7.5-4.3C285,288.3,282.5,283.4,279.1,280.6z"/>
<path id="Path_450" d="M277.4,285.5c-1.2-0.7-2.2-0.1-2.2,1.2c0.1,1.5,0.9,2.9,2.2,3.7c1.2,0.7,2.1,0.1,2.1-1.2
	C279.4,287.7,278.6,286.4,277.4,285.5z"/>
<path id="Path_451" class="st2" d="M249.6,209.5l0.7,2.3l8.2,0.7l9.1-5.2l-0.7-2.3L249.6,209.5z"/>
<path id="Path_452" class="st4" d="M249.6,209.5l8.2,0.7l9.1-5.2l-8.2-0.7L249.6,209.5z"/>
<path id="Path_453" class="st6" d="M259.4,200.9l-5.3,0.5l1.6,5.3l0.1,0.4l0.7,0.7c1.2,0.6,2.6,0.6,3.8,0c0.5-0.2,0.8-0.7,0.8-1.2
	l0,0l-0.1-0.3L259.4,200.9z"/>
<path id="Path_454" class="st7" d="M258.7,200.1c-1.2-0.6-2.6-0.6-3.8,0c-1.1,0.6-1.1,1.6,0,2.2c1.2,0.6,2.6,0.6,3.8,0
	c0.6-0.2,0.9-0.9,0.7-1.5C259.3,200.4,259,200.2,258.7,200.1z"/>
<path id="Path_455" class="st4" d="M250.5,168.9l-7.2,0.7l9.9,31.9l0.2,0.5l0,0c0.2,0.4,0.5,0.7,0.9,0.9c1.6,0.8,3.5,0.8,5.2,0
	c0.7-0.3,1.1-0.9,1-1.6l0,0l-0.1-0.4L250.5,168.9z"/>
<path id="Path_456" class="st4" d="M249.5,167.7c-1.6-0.8-3.6-0.8-5.2,0c-1.4,0.8-1.4,2.2,0,3c1.6,0.8,3.6,0.8,5.2,0
	C250.9,169.8,250.9,168.5,249.5,167.7z"/>
<path id="Path_457" class="st6" d="M249.4,168.4l-7.7-25.2l-5.3,0.5l7.8,25.2l0.1,0.4l0.7,0.6c1.2,0.6,2.6,0.6,3.8,0
	c0.5-0.2,0.8-0.7,0.8-1.2l0,0L249.4,168.4z"/>
<path id="Path_458" class="st7" d="M240.9,142.3c-1.2-0.6-2.6-0.6-3.8,0c-0.6,0.2-0.9,0.9-0.7,1.5c0.1,0.3,0.4,0.6,0.7,0.7
	c1.2,0.6,2.6,0.6,3.8,0C242,143.9,242,143,240.9,142.3z"/>
<path id="Path_459" class="st2" d="M234.5,117l-7.2,0.7l9.9,32l0.2,0.5l0,0c0.2,0.4,0.5,0.7,0.9,0.9c1.6,0.8,3.6,0.8,5.2,0
	c0.7-0.3,1.1-0.9,1-1.6l0,0l-0.1-0.4L234.5,117z"/>
<path id="Path_460" class="st2" d="M233.4,115.8c-1.6-0.8-3.6-0.8-5.2,0c-1.4,0.8-1.4,2.2,0,3c1.6,0.8,3.6,0.8,5.2,0
	C234.9,118,234.9,116.6,233.4,115.8z"/>
<path id="Path_461" class="st16" d="M256.9,98.3c-1-0.5-2.2-0.3-3,0.3c-0.9,0.6,0.1,2.5,1.1,3c5.9,3.4,10.8,12,10.8,18.7
	c0,2.9-0.9,5-2.5,5.9s-3.9,0.6-6.4-0.8c-0.9-0.5-2.1-0.2-2.7,0.7l0,0c-0.5,0.9-0.2,2.1,0.7,2.7l0,0c1.9,1.2,4,1.8,6.2,1.9
	c1.4,0,2.8-0.3,4-1.1c2.8-1.6,4.4-5,4.4-9.3C269.6,112.2,264,102.5,256.9,98.3z"/>
<path id="Path_462" class="st16" d="M255,98.8c-0.3-0.2-0.8-0.3-1.1-0.1l0,0L232.5,111l2.2,3.8l21.1-12.2c0.5-0.2,0.8-0.6,0.7-1.1
	C256.5,100.4,255.9,99.4,255,98.8z"/>
<path id="Path_463" class="st2" d="M265.6,107.4c1.2,2.1,2.2,4.4,3,6.8c-0.5,2.6-4-0.8-5.2,1c-2.3,3.7,0,10.1,0.9,11.4
	c1.4,2.1,4.2,2.6,6.2,1.2c0.3-0.2,0.6-0.5,0.9-0.8c2.2-2.6,5.7-7.5,4.1-11.1C273.8,111.7,270.1,108.6,265.6,107.4z"/>
<path id="Path_464" class="st2" d="M263.3,112.2c-1.2,0.2-1.9,2.2-1.6,4.5s1.5,4.1,2.7,3.9c1.2-0.2,1.9-2.2,1.6-4.5
	C265.7,113.8,264.5,112.1,263.3,112.2z"/>
<path id="Path_465" class="st2" d="M227.7,119.3c0,0,5-0.7,5.9-3.4C230.2,115.9,227.7,119.3,227.7,119.3z"/>
<path id="Path_466" class="st2" d="M233.8,110.4c-0.4-0.3-0.9-0.3-1.4-0.1l0,0l-7.6,4.3l2.7,4.7l7.3-4.2c0.6-0.2,0.9-0.8,0.9-1.4
	C235.7,112.4,235,111.2,233.8,110.4z"/>
<path id="Path_467" class="st2" d="M226.3,114.8c-1.1-0.6-2-0.1-2,1.1c0.1,1.4,0.8,2.6,2,3.4c1,0.6,1.9,0.1,1.9-1.1
	C228.1,116.8,227.4,115.5,226.3,114.8z"/>
<path id="Path_468" class="st2" d="M213,135v2l3.9,6h3.6c0.6-2.6-0.1-5.4-1.8-7.5C216.8,133.2,213,135,213,135z"/>
<path id="Path_469" class="st16" d="M226.1,115.4c-0.3-0.2-0.8-0.3-1.1-0.1l0,0l-21.1,12.2l2.2,3.8l20.9-12.1
	c0.5-0.2,0.8-0.6,0.7-1.1C227.7,117,227.1,116,226.1,115.4z"/>
<path id="Path_470" class="st16" d="M206,127.7c-0.7-0.3-1.4-0.4-2.1-0.2c-1,0.7-1.2,2-0.5,2.9c0.2,0.3,0.4,0.5,0.7,0.6
	c5.9,3.4,10.8,12,10.8,18.7c0,2.9-0.9,5-2.5,5.9s-3.9,0.6-6.4-0.8c-0.9-0.5-2.1-0.2-2.7,0.7l0,0c-0.5,0.9-0.2,2.1,0.7,2.7l0,0
	c1.9,1.2,4,1.8,6.2,1.9c1.4,0,2.8-0.4,4-1.1c2.9-1.6,4.4-5,4.4-9.3C218.7,141.5,213.1,131.8,206,127.7z"/>
<path id="Path_471" class="st2" d="M165.1,87.4c0.5-3.7-35.8-20.5-35.8-20.5s-15.3,9.5-14.1,33.3c0.9,17.4,11.9,47.8,20.2,68
	l25.6-7.7c-2.1-14.5-5.2-28.8-9.5-42.9C151.5,117.6,164.7,107.8,165.1,87.4z"/>
<path id="Path_472" class="st1" d="M157.2,243.3c-4.3,0.4-15.2-3.6-15.2-3.6s-5.9,9.3-1.8,15c4.2,5.7,9.6,9.8,15.5,14.7
	s18.4,3.6,19.9,0.2c0.5-1-1.1-4.3-1.1-4.3S162,251.8,157.2,243.3z"/>
<path id="Path_473" class="st13" d="M157.1,228l-14.2-0.1c0.3,4,0,8-0.9,11.9c-0.7,7.3,14.6,9.6,15.2,3.6
	C156.7,238.2,156.6,233.1,157.1,228z"/>
<path id="Path_474" class="st1" d="M154.7,235.2c-2.1,0-3.8,2.7-3.8,6s1.7,6,3.8,6s3.8-2.7,3.8-6S156.8,235.2,154.7,235.2z"/>
<path id="Path_475" class="st3" d="M146.2,159.7c-9.4,2.8-10.7,8.5-10.7,8.5c4.7,11.3,8.5,19.3,9.1,20C134.3,203,142,213,143,227.9
	c0,0,1.5,3.3,6.7,3.4c2.9,0.1,5.7-1.1,7.5-3.2c1.4-17.2,6.7-33.8,6.6-38c-0.3-9.9-1.2-19.7-2.7-29.5
	C161,160.5,155.5,156.9,146.2,159.7z"/>
<path id="Path_476" class="st19" d="M187.5,28.2l-9.7,2.7l-7.4,10.3l1.2,11.1l12.8,9.4l10.9-0.5l5.2-8l1-8.2l-3.6-9.4L187.5,28.2z"
	/>
<path id="Path_477" class="st20" d="M190.8,57.8c-4.4,1.3-11.9-5.2-14.6-11.1c-2.6-5.9,7.2-12,7.2-12l0.4-5.1c0,0,2.1-4.2-3.1-3.2
	s-11.5,6.8-16.2,9.1s-8.3,3.3-16.5,8c-8.5,4.9-12.5,19.6-18.9,23.4c-1.4,2.3-3.8,11.2,3.6,20.6c7.4,9.3,18.6,7.2,18.6,7.2
	s8.4-1.6,13.1-4.7c8.8-5.7,20.5-7.8,26.2-13.8s11.6-19,11.6-19l-4.6-3.8C196,55.4,193.5,57,190.8,57.8z"/>
<path id="Path_478" class="st3" d="M199,9.9c-2.7-0.5-16,0.9-17.9,14.1c-1.8,13.2,5.7,18.8,5.7,18.8s-0.9,3.1,0.5,5.1
	s12.7,11,16,11.5c3.4,0.5,6-1.3,6.6-2.3c0.7-1.1,1.1-5.8,1.1-5.8s3.5-0.3,3.7-1.1c0.3-1-1.1-7.4-1.1-7.4l1.9-4.1
	c0,0,1.6-5.4,2.3-7.5C218.5,23.9,213.6,12.5,199,9.9z"/>
<path id="Path_479" class="st21" d="M220.3,29.1c-5.5-3.7,1-17.9-20.8-19.7c-24.3-2.1-19.8,22.4-19.3,24.4c0.7,3.3,3,4.2,3,4.2
	s-0.2-5.6,2.9-5.3c3.1,0.2,4.3,8.3,4.3,8.3l2.3,1.5c0,0-0.3-5.5,2.3-7.7c8,2.8,13.4,3.4,17.5,1.6c-1.7-0.2-2.8-2-2.5-2.1
	C209.9,34.2,214.9,35.2,220.3,29.1z"/>
<path id="Path_480" class="st6" d="M189.9,34.3c0.8,12.8,12.2,25.2,12.2,25.2l1.3-1.3c0,0-9.4-10.6-10.7-23.6
	C192.6,33.7,190,33.7,189.9,34.3z"/>
<path id="Path_481" class="st22" d="M187.2,0c-0.8,4.7-0.2,7-0.2,7l32.2,32.7C219.2,39.7,232.5,4.1,187.2,0z"/>
<path id="Path_482" d="M200.4,13.8c-2.6,1.7,2,5.4,6.1,10.3c3.8,4.5,7.4,9.4,8.9,8.6C219.5,30.9,206.8,9.6,200.4,13.8z"/>
<path id="Path_483" class="st6" d="M205.6,12.9h-5.5l-1.1,6.6l12.4,10.4c0,0,2.9-5.6-4-13.4C206.9,15.3,206.3,14.1,205.6,12.9z"/>
<path id="Path_484" class="st12" d="M199.9,15.3c-0.7,0.3,1.2,4.9,1.2,4.9l10,10C211.1,30.3,210.7,19.5,199.9,15.3z"/>
<path id="Path_485" class="st23" d="M187.2,0c-0.6,1.9-0.7,3.9-0.4,5.9c0.3,0.5,12,3.4,12,3.4C194.9,2.1,187.2,0,187.2,0z"/>
<path id="Path_486" class="st23" d="M178.8,30.4c1.3,4,2.1-0.1,8.6,1.2c-5.2-5.8-7.6-24-7.6-24S174.3,16.5,178.8,30.4z"/>
<path id="Path_487" d="M181,25.3c0.9-0.5-1.9-14.1-1.9-14.1S175.3,21.8,181,25.3z"/>
<path id="Path_488" d="M206,32.2c-2.5,0-9.4-4.5-12.4-8.9c-1.5-2.2-0.7-2.4-0.7-2.4c1.2-0.4,4.7,1.5,8.2,4.1
	c3.6,2.7,5.7,5.2,6.2,6.3C207.4,32.2,206.4,32.2,206,32.2z M192.7,18.7c-0.5,0-1,0.2-1.4,0.5c-0.6,0.7-0.7,1.6-0.2,2.4
	c1.7,3.9,11.9,12.3,15.9,12.3l0.9-0.2c1.1-0.3,1.7-1.4,1.5-2.5C208.6,27.2,196.6,18.7,192.7,18.7z"/>
<path id="Path_489" d="M192,29.6c-1.8-1.8-2.8-4.2-2.8-6.7c0-0.8,0.7-0.8,0.8-0.6c1.1,2.6,2.7,5,4.6,7
	C195.2,30.1,192.8,30.5,192,29.6z M190.4,20.4c-0.4-0.9-0.6-1.5-1.3-1.5c-0.7,0.2-1.2,0.8-1.4,1.5c-0.7,2.2,0.1,8.2,4.1,11.1
	c0.7,0.5,1.6,0.8,2.4,0.8c1.1,0,3.1-0.5,3.4-1.3c0.1-0.4,0-0.8-0.3-1.1C194.5,27.3,192.1,24.1,190.4,20.4z"/>
<path id="Path_490" d="M211.3,33.3c-1-0.9,2,3.8-3,1.6c2.8,3.1,8.8,4.3,9.4,3.9C218.3,38.5,213.2,34.9,211.3,33.3z"/>
<path id="Path_491" d="M201.4,34c5.2,4.8-3,0.7-2,1.6c2.1,1.9,7.2,2.6,7.4,2.1S204.2,36.2,201.4,34z"/>
<path id="Path_492" class="st22" d="M215.2,32.3c-1.5,0.8-4.3-4.1-8.1-8.6c-4.1-4.9-8.8-7.7-6.3-9.4
	C206.1,10.7,218.8,30.3,215.2,32.3z M216.8,38.3c-0.5,0.3-5.5-0.7-7.8-3.3c-0.4-0.5,1.6-2.1,2.5-1.3C213.1,35,217.3,38,216.8,38.3
	L216.8,38.3z M207.6,33c-3.4,1.3-17.8-10.9-15.6-13.1S213,31,207.6,33L207.6,33z M199.8,35.6c-0.8-0.8,0.9-2,1.7-1.4
	c2.4,1.8,4.6,2.6,4.5,3.1C205.8,37.8,201.6,37.2,199.8,35.6L199.8,35.6z M192.6,31c-4.7-3.4-4.8-11.3-3.3-11.3
	c0.9,0,0.7,4.1,7.6,10.5C197.8,31.1,194.6,32.4,192.6,31L192.6,31z M181.1,3.5c0,0-9.6,21.7,9.8,31.2c12.2,6,28.3,5,28.3,5
	S213.2,2.8,181.1,3.5z"/>
<path id="Path_493" class="st24" d="M181,3.4c-3.6,7.3-7.2,33.4,14.3,33.4c3.6,1.5,7.4,2.2,11.3,2.3c2,0.1-28.9-4.2-23.3-31.4
	c6.9-0.5,13.8,1.7,19.2,6.1c5,0.5,13.2,12.6,13.3,17c1.1,2.2,2.1,4.4,2.9,6.7C210,0,181.6,3.2,181,3.4z"/>
<path id="Path_494" class="st23" d="M184.4,8.9c-0.5,0.4-1.6,9.6,2.6,16c0,0,0-10.8,1-11.6c0,0,0.3-1-0.8-2.6
	C186.5,9.7,185.5,9.1,184.4,8.9z"/>
<path id="Path_495" d="M184.4,9c0.9,0.5,1.6,1.2,2.2,2c0.6,0.7,1.1,1.5,1.3,2.4c1-0.8,11.2,0.5,11.2,0.5C194,9.1,184.9,8.6,184.4,9z
	"/>
<path id="Path_496" d="M207.5,9.1c-1.7-1-5-1.1-4.2-0.4c4.3,3.3,7.8,7.4,10.4,12.2c1.1,2.2,2.8,2.4,2.8,1
	C216.6,20.5,214,12.7,207.5,9.1z"/>
<path id="Path_497" d="M216.4,26.3c-0.3,0,0.6,1.3,1.2,3.4c1.1,3.4,1.2,5.9,1.4,5.9c0.4,0,0.9-4.5,0-7
	C218.3,26.2,216.6,26.3,216.4,26.3z"/>
<path id="Path_498" class="st23" d="M192.6,1.5c0,0.2,3,1.9,5.8,3.2l1.3,0.2l0.5-0.5l-1-1.6C197.4,1.9,192.6,1.1,192.6,1.5z"/>
<path id="Path_499" d="M199.1,2.8l-0.8,2c1.3,0.7,2.7,1.3,4.1,1.8C203.6,6.5,199.8,3.1,199.1,2.8z"/>
<path id="Path_500" d="M203.4,4.1c-0.2,0.3,2.9,1.8,5.3,3.7c3.4,2.7,6.5,6.1,6.6,6C215.8,13.4,211.3,6.9,203.4,4.1z"/>
<path id="Path_501" d="M218.5,20.7c0.9,3.4,1.8,8.1,1.8,8.1s0-8.7-2.8-11.9C216.9,16.2,217.9,18.2,218.5,20.7z"/>
<path id="Path_502" class="st12" d="M202.9,58.1c-1,0.7-0.7,1.4-0.7,1.4s4.4,2.1,6.7,0.4c1.7-1.1,2.4-3.1,1.8-5
	C207.2,58.7,203.9,57.4,202.9,58.1z"/>
<path id="Path_503" class="st2" d="M217.1,141.2c-0.5,0.6-1.1,1.1-1.8,1.4c0,0-2.9-0.9-3.5-3.1c-0.6-2.2-4.1-5.6-4.1-5.6l-2.3,0.4
	h-4.5l-1.4,8.3l2.6,4.4c0,0,3.4,6,5.9,7.9c2.4,1.9,6.4,3.8,9.6,3.1c3.2-0.7,7.6-6.9,7.3-10.6C224.6,143.6,220.7,135.6,217.1,141.2z"
	/>
<path id="Path_504" class="st1" d="M150.3,45.6c-15.5,4.6-12.2,23.9-10.1,29.9c1.3,3.9,6,19.1,10.2,31.2l18.2-4.8
	c-1.3-11.4-3.5-22.7-6.6-33.8C165.6,50.8,155.1,45.1,150.3,45.6z"/>
<path id="Path_505" class="st3" d="M168.5,101.9c0,0-2.8-2.3-9.8-0.5c-8.3,2.1-8.3,5.3-8.3,5.3c2.2,6.5,4.3,12,5.7,14.4
	c8.5,16,46.1,25.9,46.1,25.9s-1.1-9.8,3.3-12.7c-11.8-4.2-20.3-14.5-35.6-21.9C169.5,110.5,169.1,106.8,168.5,101.9z"/>
</svg>
