<?xml version="1.0" encoding="utf-8"?>
<!-- Generator: Adobe Illustrator 27.6.1, SVG Export Plug-In . SVG Version: 6.00 Build 0)  -->
<svg version="1.1" id="Layer_1" xmlns="http://www.w3.org/2000/svg" xmlns:xlink="http://www.w3.org/1999/xlink" x="0px" y="0px"
	 viewBox="0 0 416.3 365.1" style="enable-background:new 0 0 416.3 365.1;" xml:space="preserve">
<style type="text/css">
	.st0{fill:#CBB9A0;}
	.st1{fill:#37787F;}
	.st2{fill:#2B656B;}
	.st3{fill:#5498A8;}
	.st4{fill:#F0332A;}
	.st5{fill-rule:evenodd;clip-rule:evenodd;fill:#F3A07C;}
	.st6{fill-rule:evenodd;clip-rule:evenodd;fill:#FABB99;}
	.st7{fill-rule:evenodd;clip-rule:evenodd;fill:#FAE9D6;}
	.st8{fill-rule:evenodd;clip-rule:evenodd;fill:#161B38;}
	.st9{clip-path:url(#SVGID_00000106148660939942217040000016345092833527816596_);}
	.st10{fill:#273267;}
	.st11{fill-rule:evenodd;clip-rule:evenodd;fill:#411D2E;}
	.st12{fill-rule:evenodd;clip-rule:evenodd;fill:#DEAF5A;}
	.st13{fill:#F7D046;}
	.st14{clip-path:url(#SVGID_00000010284236417544371840000003531772267246017934_);}
	.st15{fill:#8CB0CC;}
	.st16{fill:#202020;}
	.st17{fill:#ECD9D6;}
	.st18{fill:#C2B4B3;}
	.st19{fill:#53B7D5;}
	.st20{fill:#F16160;}
	.st21{fill:#FEDB93;}
	.st22{fill:#851817;}
	.st23{fill:#9C2020;}
	.st24{fill:#721612;}
	.st25{fill:#3628DA;}
	.st26{clip-path:url(#SVGID_00000090273642436764694830000000149194642149896104_);}
	.st27{fill-rule:evenodd;clip-rule:evenodd;fill:#53B7D5;}
	.st28{clip-path:url(#SVGID_00000176035295780929338660000007863453033181717912_);}
	.st29{clip-path:url(#SVGID_00000150782110295713548820000006824287148065568933_);}
	.st30{fill-rule:evenodd;clip-rule:evenodd;fill:#3628DA;}
	.st31{clip-path:url(#SVGID_00000067206354996978099790000007600115900727105958_);}
	.st32{clip-path:url(#SVGID_00000137094181656767534300000013321493347771641259_);}
	.st33{clip-path:url(#SVGID_00000040547768522508515590000006275561240401117851_);}
	.st34{clip-path:url(#SVGID_00000176759196172148749390000007063965719552451234_);}
	.st35{clip-path:url(#SVGID_00000106833990547297140010000006306913562382770620_);}
	.st36{opacity:0.15;fill-rule:evenodd;clip-rule:evenodd;enable-background:new    ;}
	.st37{fill:#81737C;}
	.st38{fill:#8BA5B3;}
	.st39{fill:#B09D98;}
	.st40{fill:#2A2B2F;}
	.st41{fill:#3F4045;}
	.st42{fill:#604120;}
	.st43{fill:#7BBF42;}
	.st44{fill:#528611;}
	.st45{fill:#3C3C3B;}
	.st46{fill:#BC6B46;}
	.st47{fill:#AA6140;}
	.st48{fill:#DEAF5A;}
	.st49{clip-path:url(#SVGID_00000114037501088662173580000015898160889019840896_);}
	.st50{fill:#CA7954;}
</style>
<path id="Path_7986" class="st0" d="M317.3,242.3l21.2,3.8v22.7l-24,14.1L317.3,242.3z"/>
<path id="Path_7987" class="st0" d="M211.8,0l13.3,109.8l16.2,74c0,5.2,3.6,11.4,8.1,14l83.4,70.4c4.5,2.6,8.1,0.5,8.1-4.7v-98
	c0-5.2-3.6-11.4-8.1-14l-72-42L252.6,42c-1.4-11.4-9.2-23.8-18.5-29.1L211.8,0z"/>
<path id="Path_7988" class="st0" d="M188.2,13.9l22.3,12.9c9.3,5.3,17.1,17.7,18.5,29.1l8.2,67.6l72,42c4.5,2.6,8.1,8.8,8.1,14v98
	c0,5.1-3.6,7.2-8.1,4.7l-83.4-70.4c-4.5-2.6-8.1-8.8-8.1-14l-16.2-74L188.2,13.9z"/>
<path id="Path_7989" class="st0" d="M195.7,341.6l108.6-63.7V217l-108.6,85V341.6z"/>
<path id="Path_7990" class="st0" d="M236,151.6l61.2,35.7c6.3,3.7,11.5,12.6,11.5,19.9V253l-56.5-54.9L236,151.6z"/>
<path id="Path_7991" class="st0" d="M200.1,315.7L308.7,253L236,151.6l-108.6,62.7L200.1,315.7z"/>
<path id="Path_7992" class="st0" d="M98.9,65v0.3l0.2-0.1L98.9,65z"/>
<path id="Path_7993" class="st0" d="M252.6,42c-1.4-11.4-9.2-23.8-18.5-29.1L211.8,0l-23.6,13.9l-89,51.2L99,65.2L75.3,78.9
	l34.7,77.6l14.3,32l23.6-13.9l24.1,13.9l53.1-30.6l10.8-6.3l1.3-28.1l23.6-13.9L252.6,42z"/>
<path id="Path_7994" class="st1" d="M317.3,242.3l21.2,3.8v22.7l-24,14.1L317.3,242.3z"/>
<path id="Path_7995" class="st1" d="M211.8,0l13.3,109.8l16.2,74c0,5.2,3.6,11.4,8.1,14l83.4,70.4c4.5,2.6,8.1,0.5,8.1-4.7v-98
	c0-5.2-3.6-11.4-8.1-14l-72-42L252.6,42c-1.4-11.4-9.2-23.8-18.5-29.1L211.8,0z"/>
<path id="Path_7996" class="st2" d="M188.2,13.9l22.3,12.9c9.3,5.3,17.1,17.7,18.5,29.1l8.2,67.6l72,42c4.5,2.6,8.1,8.8,8.1,14v98
	c0,5.1-3.6,7.2-8.1,4.7l-83.4-70.4c-4.5-2.6-8.1-8.8-8.1-14l-16.2-74L188.2,13.9z"/>
<path id="Path_7997" class="st2" d="M195.7,341.6l108.6-63.7V217l-108.6,85V341.6z"/>
<path id="Path_7998" class="st3" d="M236,151.6l61.2,35.7c6.3,3.7,11.5,12.6,11.5,19.9V253l-56.5-54.9L236,151.6z"/>
<path id="Path_7999" class="st3" d="M200.1,315.7L308.7,253L236,151.6l-108.6,62.7L200.1,315.7z"/>
<path id="Path_8000" class="st4" d="M98.9,65v0.3l0.2-0.1L98.9,65z"/>
<path id="Path_8001" class="st3" d="M252.6,42c-1.4-11.4-9.2-23.8-18.5-29.1L211.8,0l-23.6,13.9l-89,51.2L99,65.2L75.3,78.9
	l34.7,77.6l14.3,32l23.6-13.9l24.1,13.9l53.1-30.6l10.8-6.3l1.3-28.1l23.6-13.9L252.6,42z"/>
<path id="Path_8002" class="st5" d="M239.9,208.3c-5.2,3.1-6.7,4.4-11.9,7.2c2.1,10.3-0.2,9.8,4.8,19.4c4.4-5.3,5.7-6.4,11.9-9.6
	C243,219.8,241.3,213.8,239.9,208.3z"/>
<path id="Path_8003" class="st6" d="M240.8,208.5c-5.4,2.8-6.9,4-12.3,6.4c1.4,10.4-0.8,9.8,3.6,19.6c4.7-5,6.1-6,12.4-8.8
	C243.1,220.2,241.8,214.1,240.8,208.5z"/>
<path id="Path_8004" class="st5" d="M240.8,208.5c-3.1,1.6-4.9,2.7-6.9,3.8c-1,3.3,3.7,15,5.5,15.9c1.7-0.9,3.4-1.8,5.1-2.5
	C243.1,220.2,241.8,214.1,240.8,208.5z"/>
<path id="Path_8005" class="st7" d="M230.5,213.9c-0.3,3.8,2,12.3,5.2,17.4c-1.2,1.6-4.3,4.8-6.2,7.8c-4.6,7.1-10.2,17-14.9,23.1
	c-3.1,4-3.5,7.2-8.2,5.4c-3.1-1.1-5.2-6.4-4.1-12.1c1.8-9.2,5.2-16,9.2-25.6c0.3-2.4-1.1-6.2-0.9-8.7c0.5-6.7,8.2-8.6,12.6-6.8
	C225.2,215.2,227.4,215.3,230.5,213.9z"/>
<path id="Path_8006" class="st8" d="M234.6,209.4c0,5.4,4.6,12.8,9,18.1c15.3-8.7,55.4-18.2,77.8-30c5.3-2.8,12.3-11.2,7-17.4
	c-2.5-3-9.2-2.8-14.3-4.1c-16.6-4.3-28.2-2.7-37.7,1.4C263.3,183.2,247.9,200.4,234.6,209.4z"/>
<path id="Path_8007" class="st8" d="M239.9,138c3.4,3.4,6.6,7.1,9.4,11c24.1-1.6,56.1,6.7,75,23.1c4.2,3.7,6.3,7.4,6,12
	c-0.3,6.5-4.9,12-10,13.5c-11.4,3.4-23.4-6.5-34.9-9.9c-7.9-2.4-17-2.4-26.2-3.1c-24.8-2.1-32.9-8.1-44.1-23.9
	C227.8,154.5,233.3,148.8,239.9,138z"/>
<g>
	<g>
		<g>
			<defs>
				<path id="SVGID_1_" d="M193.9,151.6c0.5,2.9,3.9,5.8,2.8,12.1c-1.9,11-6.8,31,9.5,42.2c6.5,4.5,17,5.6,23.2,5.5
					c48.8,1.6,60.9,13.4,73.6,6.1c4.6-2.6,7.3-6.2,7.8-10.1c1-8.7-6.8-14.2-12.9-18.5c-6.6-4.7-14.9-9.9-20.4-12.1
					c-14.6-6-29-10.1-39.5-10.9c-5.8-3-10.6-5.7-15.5-10C212.9,161.3,204.2,147.6,193.9,151.6z"/>
			</defs>
			<clipPath id="SVGID_00000095326053629642191200000006989470601655448970_">
				<use xlink:href="#SVGID_1_"  style="overflow:visible;"/>
			</clipPath>
			<g id="Group_2003" style="clip-path:url(#SVGID_00000095326053629642191200000006989470601655448970_);">
				<g id="Group_2002" transform="matrix(0.654, -0.757, 0.757, 0.654, 158.528, -162.778)">
					<path id="Path_8008" class="st10" d="M-175.9,41.9L-1.4,243.8L-279.3,484l-174.5-201.9L-175.9,41.9z"/>
				</g>
			</g>
		</g>
	</g>
</g>
<path id="Path_8010" class="st11" d="M253.8,213.2c1.8,0.2,4,0.8,5.7,1.1c15.2-8.4,26.3-10.6,34.4-14.7
	C280.2,198.2,261.8,205,253.8,213.2z"/>
<path id="Path_8011" class="st12" d="M252.1,49.4c3,2,5.6,7.1,8.2,13.6c7.9,11.8,15.7,40.9,22.2,53.7c10.5,7,13.5,12.6,24.6,14.9
	l-4.1,9.3c-13.1,0.2-18.4-7.9-31.5-13.8c-12.8-18.1-23.2-42.4-33.2-62.6C232,51.8,246.3,45.5,252.1,49.4z"/>
<path id="Path_8012" class="st13" d="M231,63.2c-4.5,1.6-14.2,0.9-18.8-4.1c-0.6,0.9-1.4,1.8-2,2.7c-4,2.2-8.7,6.2-11.5,6.8
	c-10.5,2.3-17.8,5.8-18.3,24.8c-0.3,10,4.1,22.5,7.7,34.7c3.1,10.3,3.4,20.9,7.8,29.1c0.9,1.6,1.1,3.5,0.6,5.2
	c11.5,6.3,39.2,2,51.4-16.6c-0.1-1.3,0-2.5,0.4-3.8c0.2-2.4,0.8-4.7,0.6-7c-0.8-9.4-3.8-11.9,0-25.4c1.2-4.3,8.9-14.4,8.4-24.5
	c-0.3-7.2-5.5-13-5.4-24.5c0-2,5.6-12.3-3-13.6c-9,0.4-12.8,6.4-16.5,11.9C231.7,59.6,231.3,62.1,231,63.2z"/>
<path id="Path_8013" class="st6" d="M218.5,227.4c-5.4,2.8-6.9,4-12.3,6.4c1.4,10.4-0.8,9.8,3.6,19.6c4.7-5,6.1-6,12.4-8.8
	C220.9,239.1,219.6,233,218.5,227.4z"/>
<path id="Path_8014" class="st5" d="M218.5,227.4c-3.1,1.6-4.9,2.7-6.9,3.8c-1,3.3,3.7,15,5.5,15.9c1.7-0.9,3.4-1.8,5.1-2.5
	C220.9,239.1,219.6,233,218.5,227.4z"/>
<path id="Path_8015" class="st7" d="M208.2,232.8c-0.3,3.8,2,12.3,5.2,17.4c-1.2,1.6-4.3,4.8-6.2,7.8c-4.6,7.1-10.2,17-14.9,23.1
	c-3.1,4-3.5,7.2-8.2,5.4c-3.1-1.1-5.2-6.4-4.1-12.1c1.8-9.2,5.2-16,9.2-25.6c0.3-2.4-1.1-6.2-0.9-8.7c0.5-6.7,8.2-8.6,12.6-6.8
	C202.9,234.1,205.1,234.2,208.2,232.8z"/>
<path id="Path_8018" class="st0" d="M124.3,188.4l-14.3-32l2.2,18.3v86.5c0,5.2,3.6,11.4,8.1,14l99.6,57.9c4.5,2.6,8.1,0.5,8.1-4.7
	v-98c0-5.2-3.6-11.4-8.1-14l-72-42l0,0L124.3,188.4z"/>
<path id="Path_8019" class="st0" d="M204,307.4l21.2,3.8l0.4,22.6l-23.8,14L204,307.4z"/>
<path id="Path_8020" class="st0" d="M75.3,78.9l22.3,12.9c9.3,5.4,17.1,17.7,18.5,29.1l8.2,67.6l72,42c4.5,2.6,8.1,8.8,8.1,14v98
	c0,5.2-3.6,7.2-8.1,4.7l-99.6-57.9c-4.5-2.6-8.1-8.8-8.1-14v-86.5L75.3,78.9z"/>
<g>
	<g>
		<g>
			<defs>
				<path id="SVGID_00000164481925637777381280000008897067247714696366_" d="M213.2,228.2c-0.3,5.4,0.9,12,6.1,19.5
					c15.4-7.5,55.7-14.5,79.1-24.4c3.5-1.5,7.1-2.8,9.7-5.1c1.6-1.4,5.2-8.1,2.5-14.2c-2.3-3.2-10.8-2.1-15.7-3.8
					c-16.3-5.3-28.2-4.8-37.9-1.2C243.5,203.9,227,220,213.2,228.2z"/>
			</defs>
			<clipPath id="SVGID_00000087371014637585327840000003628678534707682988_">
				<use xlink:href="#SVGID_00000164481925637777381280000008897067247714696366_"  style="overflow:visible;"/>
			</clipPath>
			<g id="Group_2005" style="clip-path:url(#SVGID_00000087371014637585327840000003628678534707682988_);">
				<g id="Group_2004" transform="matrix(1, -0.017, 0.017, 1, 168.556, -143.109)">
					<path id="Path_8016" class="st10" d="M-95.7,139.3l266.8,4.5l-6.2,367.3l-266.8-4.5L-95.7,139.3z"/>
				</g>
			</g>
		</g>
	</g>
</g>
<path id="Path_8021" class="st1" d="M124.3,188.4l-14.3-32l2.2,18.3v86.5c0,5.2,3.6,11.4,8.1,14l99.6,57.9c4.5,2.6,8.1,0.5,8.1-4.7
	v-98c0-5.2-3.6-11.4-8.1-14l-72-42l0,0L124.3,188.4z"/>
<path id="Path_8022" class="st1" d="M204,307.4l21.2,3.8l0.4,22.6l-23.8,14L204,307.4z"/>
<path id="Path_8023" class="st2" d="M75.3,78.9l22.3,12.9c9.3,5.4,17.1,17.7,18.5,29.1l8.2,67.6l72,42c4.5,2.6,8.1,8.8,8.1,14v98
	c0,5.2-3.6,7.2-8.1,4.7l-99.6-57.9c-4.5-2.6-8.1-8.8-8.1-14v-86.5L75.3,78.9z"/>
<path id="Path_8024" class="st15" d="M275.9,146.5l0.2-0.6C276,146.1,276,146.3,275.9,146.5z"/>
<path id="Path_8025" class="st16" d="M276.5,122L276.5,122L276.5,122L276.5,122z"/>
<path id="Path_8026" class="st17" d="M293.4,138l0.8-0.1l21.1-6.4l-0.7-2.7l-16.2,5.4C296.3,134.8,294.5,136.2,293.4,138z"/>
<path id="Path_8027" class="st18" d="M295.3,137l-1.3,0.8l21.3-6l-0.3-1.3l-17.4,5.6C296.8,136.2,296,136.5,295.3,137z"/>
<path id="Path_8028" class="st19" d="M317.2,131.1l-20,6.1l-27.3,24.3l1.4-0.3l0.1-0.2l0.7-0.1v0.2l0.6-0.1l17.2-5.5L317.2,131.1z"
	/>
<path id="Path_8029" class="st20" d="M297.1,136.6l0.1,0.6l20-6.1l-0.1-0.6L297.1,136.6z"/>
<path id="Path_8030" class="st21" d="M249.6,151.7l25.2-22.2l15.4,8.7L265,160.4L249.6,151.7z"/>
<path id="Path_8031" class="st17" d="M292.2,139.2L271,126.4l3-2.3l17.2,9.8C293.7,135.2,294.4,137.9,292.2,139.2z"/>
<path id="Path_8032" class="st18" d="M292.7,138.5l-1.2,1.7l-21-13.8l3-0.4l18.5,10.8C292.4,137.2,292.7,137.8,292.7,138.5z"/>
<path id="Path_8033" class="st22" d="M295.7,138.2c0.5-0.2,1-0.5,1.4-0.8l-27.6,24.9c-0.1,0-1.1,0.6-1.5,0.7
	c-1.2,0.4-2.5,0.5-3.7,0.2c-0.6-0.1-1.1-0.4-1.5-0.8l-0.1-0.1l0,0l27.1-24.2c0.5,0.3,1.1,0.6,1.7,0.7
	C293,138.9,294.4,138.7,295.7,138.2z"/>
<path id="Path_8034" class="st23" d="M289.8,138.1c0.5,0.3,1.1,0.6,1.7,0.7l-27.2,24.4c-0.6-0.1-1.1-0.4-1.5-0.8l-0.1-0.1l0,0
	L289.8,138.1z"/>
<path id="Path_8035" class="st24" d="M297.2,137.2l-28,25.3c-0.4,0.2-0.8,0.4-1.2,0.5l27.5-24.6
	C295.9,138.3,296.7,137.2,297.2,137.2z"/>
<path id="Path_8036" class="st19" d="M269.5,125.1l17.9,10.7l0.5,0.4l1.6,1.4l-26.8,24.8l-3.1-2.7L241.7,149L269.5,125.1z"/>
<path id="Path_8037" class="st25" d="M291.2,137.7L290,138l-16.2-9.5l0.6-0.6L291.2,137.7z"/>
<path id="Path_8038" class="st20" d="M289.8,138.1l-0.1-0.2l1.3-0.4c2.1,0.5,4.3,0.2,6.1-0.9l0.1,0.6
	C295.3,139.2,292.2,139.6,289.8,138.1L289.8,138.1z"/>
<g>
	<g>
		<g>
			<defs>
				<path id="SVGID_00000123411716773334088960000005676008834571303084_" d="M270.4,161.5l1-0.2l0.1-0.2l27.2-24.3l-1.4,0.4
					c-0.1,0.1-0.1,0.1-0.2,0.2l-0.8,0.8L270.4,161.5z M272.2,161.1l0.6-0.1l1.4-0.5h0.1l8-2.6l7.7-2.5l2.3-2.1l11.7-10.4
					c-0.4,0.1,5.5-5.5,6.3-5.9c0.4-0.3,0.9-0.6,1.3-0.9c0.3-0.2,0.6-0.5,0.9-0.8l0.4-0.3l4.4-3.9l-5.6,1.7l-7.1,2.2l-5.8,1.8
					l0.6-0.1L272.1,161l27.3-24.3l0.2,0.1L272.2,161.1z"/>
			</defs>
			<clipPath id="SVGID_00000150799168581851346230000007498934393577748112_">
				<use xlink:href="#SVGID_00000123411716773334088960000005676008834571303084_"  style="overflow:visible;"/>
			</clipPath>
			<g id="Group_2006" style="clip-path:url(#SVGID_00000150799168581851346230000007498934393577748112_);">
				<path id="Path_8039" class="st27" d="M317.2,131.1l-9.7-8l-37.1,38.4l9.7,8L317.2,131.1z"/>
			</g>
		</g>
	</g>
</g>
<g>
	<g>
		<g>
			<defs>
				<polygon id="SVGID_00000183210023622499924480000011198758262017719193_" points="297.2,137.2 298.7,136.8 298.7,136.8 
					298.8,136.7 304.6,135 311.7,132.8 317.2,131.1 317.1,130.5 315.1,131.1 297.1,136.6 				"/>
			</defs>
			<clipPath id="SVGID_00000171679396050909592390000011117811655209774524_">
				<use xlink:href="#SVGID_00000183210023622499924480000011198758262017719193_"  style="overflow:visible;"/>
			</clipPath>
			<g id="Group_2007" style="clip-path:url(#SVGID_00000171679396050909592390000011117811655209774524_);">
				<path id="Path_8041" class="st27" d="M317.5,130.9l-8.2-6.8l-12.4,12.8l8.2,6.8L317.5,130.9z"/>
			</g>
		</g>
	</g>
</g>
<g>
	<g>
		<g>
			<defs>
				<path id="SVGID_00000183937883988682799660000003771811737889437116_" d="M264.3,163.2L264.3,163.2c1.2,0.3,2.5,0.2,3.7-0.2
					l27.4-24.5c-1.2,0.5-2.5,0.7-3.8,0.3L264.3,163.2z M296.2,138.2l0.8-0.8l0,0L296.2,138.2z"/>
			</defs>
			<clipPath id="SVGID_00000165939466498984801960000013311640974142105222_">
				<use xlink:href="#SVGID_00000183937883988682799660000003771811737889437116_"  style="overflow:visible;"/>
			</clipPath>
			<g id="Group_2008" style="clip-path:url(#SVGID_00000165939466498984801960000013311640974142105222_);">
				<path id="Path_8043" class="st30" d="M297,137.4l-4.3-3.6l-28.4,29.4l4.3,3.6L297,137.4z"/>
			</g>
		</g>
	</g>
</g>
<g>
	<g>
		<g>
			<defs>
				<path id="SVGID_00000075151114105407871240000013685928077284211874_" d="M262.7,162.4L262.7,162.4L262.7,162.4z M262.8,162.4
					c0.4,0.4,1,0.6,1.5,0.8l27.2-24.3c-0.6-0.1-1.1-0.4-1.6-0.7l0,0L262.8,162.4L262.8,162.4z"/>
			</defs>
			<clipPath id="SVGID_00000093167251462599422840000007088758282173279637_">
				<use xlink:href="#SVGID_00000075151114105407871240000013685928077284211874_"  style="overflow:visible;"/>
			</clipPath>
			<g id="Group_2009" style="clip-path:url(#SVGID_00000093167251462599422840000007088758282173279637_);">
				<path id="Path_8045" class="st30" d="M291.5,138.9l-3.4-2.8l-25.4,26.3l3.4,2.8L291.5,138.9z"/>
			</g>
		</g>
	</g>
</g>
<g>
	<g>
		<g>
			<defs>
				<path id="SVGID_00000142888274093126050380000001746296198652977334_" d="M267.9,163h0.1c0.4-0.1,0.8-0.2,1.1-0.4l0.2-0.2l1-0.9
					l25.8-23.3l0.8-0.7c-0.5,0.4-1.1,0.8-1.7,1.1L267.9,163z"/>
			</defs>
			<clipPath id="SVGID_00000142156399722292272800000014885072149538504072_">
				<use xlink:href="#SVGID_00000142888274093126050380000001746296198652977334_"  style="overflow:visible;"/>
			</clipPath>
			<g id="Group_2010" style="clip-path:url(#SVGID_00000142156399722292272800000014885072149538504072_);">
				<path id="Path_8047" class="st30" d="M297,137.4l-2.4-2L267.9,163l2.4,2L297,137.4z"/>
			</g>
		</g>
	</g>
</g>
<g>
	<g>
		<g>
			<defs>
				<path id="SVGID_00000152946944672684212480000004713597549217251971_" d="M241.7,148.9l4.7,2.9l12,7.3l0.4,0.3l1.5,0.9l0.5,0.4
					l27.6-23.7l-18.8-12l-1.2,1l-3.7,3.2l-3.9,3.3h0.1c0,0-1.7,1.9-2.6,2.8c-0.5,0.5-0.2,1,0.2,1.5c0.4,0.5,0.9,1,1.3,1.5
					c0.1,0.1,0.2,0.3,0.4,0.4c0.6,0.5,1.5,0.8,2.1,1.3l0,0c0.1,0.1,0.2,0.2,0.3,0.3c0.1,0.4-0.6,0.8-0.7,1.3c0,0.2,0,0.3-0.1,0.5
					c0,0.1-0.1,0.2-0.2,0.3c-0.2,0.2-0.4,0.4-0.5,0.7c-0.2,0.3-0.5,0.6-0.8,0.8c-0.2,0.1-0.4,0.2-0.7,0.3c-0.5,0.2-0.9,0.4-1.4,0.6
					c-1,0.3-1.7-0.2-2.4-0.7c-0.5-0.2-1.1-0.4-1.6-0.7c-0.4-0.2-0.8-0.5-1.2-0.8s-0.7-0.7-1-1s-0.6-0.7-0.9-1l-6.7,5.7L241.7,148.9z
					 M262.6,162.3l27.9-23.7h-0.1l-0.1-0.3l0,0l-0.9-0.6l-27.6,23.5l-0.5-0.5l0.2,0.6L262.6,162.3L262.6,162.3L262.6,162.3z"/>
			</defs>
			<clipPath id="SVGID_00000110458583853418228830000010561799560630718384_">
				<use xlink:href="#SVGID_00000152946944672684212480000004713597549217251971_"  style="overflow:visible;"/>
			</clipPath>
			<g id="Group_2011" style="clip-path:url(#SVGID_00000110458583853418228830000010561799560630718384_);">
				<path id="Path_8049" class="st27" d="M290.6,138.4l-21.5-17.8l-27.4,28.3l21.5,17.8L290.6,138.4z"/>
			</g>
		</g>
	</g>
</g>
<g>
	<g>
		<g>
			<defs>
				<polygon id="SVGID_00000066487819195167701460000006160481976234950787_" points="269.5,125.1 287.5,136.4 287.8,136.1 
					288.2,136.1 288.7,136.6 288.3,136.9 289.2,137.5 290.5,137.2 272.6,126.1 271.9,125.6 270.1,124.5 				"/>
			</defs>
			<clipPath id="SVGID_00000114032028578800065730000002859858228890981003_">
				<use xlink:href="#SVGID_00000066487819195167701460000006160481976234950787_"  style="overflow:visible;"/>
			</clipPath>
			<g id="Group_2012" style="clip-path:url(#SVGID_00000114032028578800065730000002859858228890981003_);">
				<path id="Path_8051" class="st30" d="M290.5,137.2l-18.2-15.1l-2.8,2.9l18.2,15.1L290.5,137.2z"/>
			</g>
		</g>
	</g>
</g>
<g>
	<g>
		<g>
			<defs>
				<path id="SVGID_00000140015337559852338410000001134698436465849263_" d="M289.8,138.1L289.8,138.1L289.8,138.1
					c0.6,0.4,1.1,0.6,1.7,0.7c1.3,0.3,2.6,0.2,3.8-0.3c0.6-0.3,1.2-0.6,1.7-1.1l0,0c0.1-0.1,0.1-0.1,0.2-0.2l-0.1-0.6
					c-0.5,0.3-1.1,0.5-1.6,0.7c-0.3,0.1-0.6,0.2-0.9,0.2c-0.2,0-0.3,0.1-0.5,0.1s-0.4,0.1-0.6,0.1l0,0c-0.3,0-0.5,0-0.8,0
					c-0.6,0-1.2-0.1-1.7-0.2h-0.1l-1.2,0.3l0,0L289.8,138.1z"/>
			</defs>
			<clipPath id="SVGID_00000005978794565023820680000004908773095979432099_">
				<use xlink:href="#SVGID_00000140015337559852338410000001134698436465849263_"  style="overflow:visible;"/>
			</clipPath>
			<g id="Group_2013" style="clip-path:url(#SVGID_00000005978794565023820680000004908773095979432099_);">
				<path id="Path_8053" class="st30" d="M297.5,137l-3.8-3.1l-4.1,4.2l3.8,3.1L297.5,137z"/>
			</g>
		</g>
	</g>
</g>
<path id="Path_8055" class="st36" d="M148.3,339.1c13.8,0,25,5.8,25,13s-11.2,13-25,13s-25-5.8-25-13S134.5,339.1,148.3,339.1z"/>
<path id="Path_8056" class="st37" d="M165,306.6c-10.8,6.2-27.1,6.9-36.4,1.5s-8.2-14.8,2.6-21s27.1-6.9,36.4-1.5
	C177,290.9,175.8,300.3,165,306.6z"/>
<path id="Path_8057" class="st38" d="M173.1,317.4L173.1,317.4l2.6-1.5l0,0L173.1,317.4z"/>
<path id="Path_8058" class="st39" d="M97.8,298.4c-3.2-1.1-6.6-1.7-10-1.8l0,0C91.3,296.7,94.6,297.3,97.8,298.4L97.8,298.4z"/>
<path id="Path_8059" class="st40" d="M145.5,361.3c-0.6,0-1.3,0-1.9-0.1c-3.2-0.1-6.3-1-9.1-2.5c-2-1-3.5-2.8-4.2-4.9
	c0,0.2,0.1,0.3,0.1,0.5l35.7-4.2l0,0c-0.3,2.7-2.4,5.4-6.2,7.6C155.5,360.1,150.5,361.3,145.5,361.3z"/>
<path id="Path_8060" class="st40" d="M130.4,354.2c0-0.2-0.1-0.3-0.1-0.5c-1.1-3.3-2-6.6-2.9-10c-0.9-3.3,0,0,0,0
	c-3.1-12.2-4.8-24.7-5.1-37.2c1.6,0.2,3.1,0.3,4.6,0.4c0.5,0.4,1.1,0.8,1.7,1.1c4.2,2.4,9.9,3.6,15.8,3.6c7.2,0.1,14.3-1.7,20.6-5.1
	c5.3-3,8.2-6.8,8.8-10.5h0.1v5.6c0,5.3-0.3,10.5-0.8,15.8l0,0c-0.5,4.9-1.2,9.7-2.2,14.6c-1.2,6.1-2.8,12.1-4.8,18l0,0l-23.2,4.1
	L130.4,354.2z"/>
<path id="Path_8061" class="st41" d="M144.4,311.7c-5.9,0-11.6-1.2-15.8-3.6c-0.6-0.3-1.1-0.7-1.7-1.1c0.5,0,1.1,0,1.6,0h0.3
	c3.2-0.1,6.3-0.4,9.4-0.9c2.4,0.7,4.8,1,7.2,1c5,0,9.8-1.2,14.2-3.5c2-1.1,3.8-2.7,5.1-4.6c1.4-0.3,2.8-0.6,4-1
	c1.7-0.5,3.4-1.2,5-1.9c-0.6,3.7-3.6,7.5-8.8,10.5C158.7,310,151.6,311.8,144.4,311.7z"/>
<path id="Path_8062" class="st42" d="M145.5,307.1c-2.4,0-4.9-0.3-7.2-1c3.8-0.6,7.5-1.4,9.8-1.9c1.2,0.5,1.9,0.8,1.9,0.8h0.1
	c0.2,0.1,0.3,0.1,0.5,0.1c0.6,0,1.1-0.4,1.4-0.9c0.2-0.4,0.1-0.9-0.2-1.3c0.2-0.7,0.1-1.4-0.3-2c4.5-0.4,8.9-1,13.3-1.9
	c-1.3,1.9-3,3.5-5.1,4.6C155.4,305.9,150.5,307.1,145.5,307.1z"/>
<path id="Path_8063" class="st43" d="M150.4,289.6c1.3-6.7,3-16.7,3-23.8c0-1.3,0-2.6-0.1-4c1.3-2.1,2.8-4.2,4.5-6.4
	c4.9-6.2,11-11.5,17.9-15.5c6.3-3.8,13.1-6.8,20.1-9.1c2.7-0.9,5.4-1.6,8.1-2.2c-1.4,1.4-2.7,3-3.8,4.7c-3.2,4.6-5.7,9.6-7.3,14.9
	c-2.9,9-7.1,17.5-12.6,25.2c-4.3,0.5-8.4,1.6-12.4,3.3c-3.1,1.4-6,3-8.8,4.9c0.5-0.9,0.9-1.9,1.4-2.9c1-2,2.1-4.1,3.2-6.2
	c0.6-1.1,1.1-2.1,1.7-3.1c0.6-1,1.2-2.1,1.9-3.1c1.3-2,2.6-4,4-6c0.7-1,1.4-1.9,2.1-2.8s1.5-1.8,2.2-2.7c2.9-3.5,5.8-6.7,8.4-9.3
	c2.8-2.9,5.8-5.7,8.9-8.3c-3.3,2.4-6.4,5-9.4,7.8c-2.7,2.5-5.8,5.5-8.9,8.9l-2.3,2.6c-0.8,0.9-1.5,1.8-2.3,2.8
	c-1.5,1.9-3,3.8-4.4,5.9c-0.7,1-1.4,2-2,3.1c-0.6,1.1-1.3,2.1-1.9,3.1c-1.3,2.1-2.5,4.1-3.6,6.1c-2,3.5-3.8,6.8-5.4,9.7
	C151.8,287.9,151.1,288.7,150.4,289.6L150.4,289.6z"/>
<path id="Path_8064" class="st44" d="M152.5,287.2c1.6-3,3.4-6.3,5.4-9.7c1.1-2,2.4-4,3.6-6.1c0.6-1,1.3-2.1,1.9-3.1
	c0.6-1,1.3-2.1,2-3.1c1.4-2.1,2.9-4,4.4-5.9l2.3-2.8c0.8-0.9,1.6-1.8,2.3-2.6c3.1-3.4,6.2-6.4,8.9-8.9c3-2.8,6.1-5.4,9.4-7.8
	c-3.1,2.6-6.1,5.4-8.9,8.3c-2.6,2.6-5.5,5.7-8.4,9.3c-0.7,0.9-1.4,1.8-2.2,2.7l-2.1,2.8c-1.4,1.9-2.8,3.9-4,6
	c-0.7,1-1.2,2.1-1.9,3.1c-0.6,1.1-1.2,2.1-1.7,3.1c-1.1,2.1-2.2,4.2-3.2,6.2c-0.5,1-1,1.9-1.4,2.9
	C156.6,283.3,154.4,285.1,152.5,287.2L152.5,287.2z"/>
<path id="Path_8065" class="st44" d="M151.5,300.8L151.5,300.8L151.5,300.8c0,0-0.3-0.3-0.7-0.8c1-0.8,2.3-1.8,3.8-2.9
	c2-1.5,4.4-3.3,7-5.1l4.1-2.8c0.7-0.5,1.4-0.9,2.1-1.4s1.4-0.9,2.2-1.3c1.4-0.8,3-1.6,4.4-2.3c1.5-0.7,3-1.4,4.5-2
	c2.9-1.2,5.8-2.2,8.2-2.9c2.7-0.8,5.5-1.6,8.2-2.1c-2.8,0.4-5.6,1-8.4,1.7c-6.1,1.5-12.1,3.6-17.7,6.4c-0.8,0.4-1.5,0.8-2.3,1.2
	s-1.5,0.8-2.2,1.3c-1.4,0.9-2.9,1.7-4.2,2.5c-2.7,1.7-5.2,3.3-7.4,4.8c-0.7,0.5-1.3,0.9-1.9,1.3c0-2.1-0.3-4.1-0.9-6.1
	c0.1-0.2,0.1-0.5,0.1-0.7c0.6-0.8,1.3-1.6,2-2.4c2-2.1,4.1-3.9,6.5-5.5c2.8-1.9,5.7-3.5,8.8-4.9c3.9-1.7,8.1-2.8,12.4-3.3
	c2.2-0.3,4.4-0.4,6.6-0.4c6.2,0,12.3,0.9,18.2,2.5c5.9,1.7-6.7,1.9-13.4,8.3c-4.7,4.5-10.1,8.3-15.9,11.2c-0.6,0.3-1.2,0.6-1.7,0.8
	h-0.1c-1.6,0.7-3.3,1.4-5,1.9c-1.2,0.4-2.6,0.7-4,1C160.4,299.8,155.9,300.4,151.5,300.8L151.5,300.8z"/>
<path id="Path_8066" class="st43" d="M150.8,300C150.7,300,150.7,300,150.8,300c0.2-1.2,0.4-2.4,0.4-3.6c0.6-0.4,1.3-0.9,1.9-1.3
	c2.1-1.4,4.7-3.1,7.4-4.8c1.4-0.8,2.8-1.7,4.2-2.5c0.7-0.4,1.5-0.9,2.2-1.3s1.5-0.8,2.3-1.2c5.7-2.8,11.6-4.9,17.7-6.4
	c2.8-0.7,5.5-1.3,8.4-1.7c-2.8,0.6-5.5,1.3-8.2,2.1c-2.4,0.7-5.3,1.7-8.2,2.9c-1.5,0.6-3,1.3-4.5,2s-3,1.5-4.4,2.3
	c-0.7,0.4-1.5,0.9-2.2,1.3s-1.4,0.9-2.1,1.4l-4.1,2.8c-2.6,1.8-5,3.6-7,5.1C153.1,298.2,151.8,299.2,150.8,300z"/>
<path id="Path_8067" class="st44" d="M150.3,290.3c-1.4-4.6-3.6-8.9-6.5-12.7c-0.5-1.4-1-2.9-1.4-4.4c-0.7-2.2-1.4-4.4-2.1-6.7
	c-0.4-1.2-0.7-2.3-1-3.5s-0.6-2.4-0.9-3.5c-0.5-2.3-1-4.7-1.3-7.1c-0.2-1.2-0.3-2.4-0.5-3.5c-0.1-1.2-0.2-2.3-0.4-3.4
	c-0.4-4.5-0.6-8.8-0.6-12.5c0-4.1,0.2-8.1,0.6-12.2c-0.6,4-1,8.1-1.2,12.2c-0.2,3.7-0.3,8-0.1,12.6c0.1,1.2,0.1,2.3,0.2,3.5
	c0.1,1.2,0.2,2.4,0.3,3.6c0.3,2.4,0.5,4.9,1,7.3c0.2,1.2,0.4,2.4,0.7,3.6c0.2,1.2,0.5,2.4,0.8,3.6c0.4,1.7,0.8,3.4,1.2,5
	c-3.6-3.7-7.5-7.1-11.8-10c-1-0.7-2-1.3-3-2c-0.1-0.6-0.2-1.2-0.2-1.8c-3.3-26.1,14-51.4,14-51.4s-0.2,9.9,5.8,21.8
	c5.3,10.3,8.5,21.6,9.4,33.1c0.1,1.3,0.1,2.7,0.1,4c0,7.1-1.7,17-3,23.8C150.4,289.8,150.4,290.1,150.3,290.3z"/>
<path id="Path_8068" class="st43" d="M143.8,277.6c-1.4-1.9-3-3.8-4.7-5.5c-0.4-1.6-0.8-3.3-1.2-5c-0.3-1.1-0.6-2.4-0.8-3.6
	c-0.2-1.2-0.5-2.4-0.7-3.6c-0.4-2.5-0.7-4.9-1-7.3c-0.1-1.2-0.2-2.4-0.3-3.6c-0.1-1.2-0.1-2.4-0.2-3.5c-0.2-4.6-0.1-8.9,0.1-12.6
	c0.2-4.1,0.6-8.1,1.2-12.2c-0.4,4-0.6,8.1-0.6,12.2c0,3.7,0.1,7.9,0.6,12.5c0.1,1.1,0.2,2.3,0.4,3.4c0.2,1.2,0.3,2.3,0.5,3.5
	c0.4,2.4,0.8,4.7,1.3,7.1c0.2,1.2,0.6,2.4,0.9,3.5c0.3,1.2,0.6,2.3,1,3.5c0.7,2.3,1.4,4.5,2.1,6.7
	C142.8,274.7,143.3,276.2,143.8,277.6z"/>
<path id="Path_8069" class="st43" d="M150.7,299.9c-0.4-0.4-0.9-1-1.5-1.7c-1.5-1.6-3.6-3.8-6.2-6.4c-2.6-2.6-5.7-5.6-9.1-8.7
	c-1.7-1.6-3.5-3.1-5.3-4.7c-0.9-0.8-1.8-1.6-2.8-2.4c-0.9-0.8-1.9-1.6-2.9-2.3c-2-1.5-4-2.9-6-4.3l-3-1.9c-1-0.6-2-1.2-3-1.8
	c-4-2.3-7.8-4.2-11.1-5.8c-3.7-1.7-7.5-3.3-11.3-4.6c3.8,1.5,7.4,3.3,11,5.2c3.2,1.7,6.9,3.8,10.7,6.3l2.9,1.9l2.9,2.1
	c1.9,1.4,3.8,2.9,5.6,4.5c0.9,0.8,1.8,1.6,2.7,2.4s1.7,1.6,2.6,2.5c1.7,1.7,3.4,3.3,5,5c1.5,1.5,2.8,2.9,4.2,4.3
	c-4-1.5-8.2-2.5-12.5-2.9c-1.5-0.2-2.9-0.3-4.4-0.3c-2.2,0-4.4,0.2-6.6,0.5c-5.4-3.9-10.3-8.4-14.7-13.4l0,0c-2.1-2.4-4.1-5-6-7.6
	c-7.4-10.6-16-15.1-16.5-15.4l0,0c0,0,2.9-0.3,7.5-0.3c5,0,10,0.4,15,1.1l0,0c8.4,1.3,18,3.9,26.5,9c1,0.6,2,1.3,3,2
	c4.2,2.9,8.2,6.3,11.8,10c1.7,1.7,3.2,3.6,4.7,5.5c2.9,3.8,5.2,8.1,6.5,12.7c0.6,2,0.9,4,0.9,6.1C151.2,297.6,151,298.8,150.7,299.9
	L150.7,299.9z"/>
<path id="Path_8070" class="st44" d="M151.8,302.8c-0.2-0.2-0.4-0.4-0.7-0.5l-0.8-0.3c-1-4.2-5.7-9.3-14.4-12.5
	c-1.3-1.4-2.7-2.9-4.2-4.3c-1.6-1.6-3.3-3.3-5-5c-0.9-0.9-1.7-1.7-2.6-2.5c-0.9-0.8-1.8-1.7-2.7-2.4c-1.8-1.6-3.7-3.1-5.6-4.5
	c-1-0.7-1.9-1.4-2.9-2.1l-2.9-1.9c-3.8-2.5-7.5-4.6-10.7-6.3c-3.6-1.9-7.3-3.7-11-5.2c3.8,1.3,7.6,2.9,11.3,4.6
	c3.3,1.5,7.2,3.5,11.1,5.8c1,0.6,2,1.2,3,1.8c1,0.6,2,1.3,3,1.9c2,1.4,4,2.8,6,4.3c1,0.7,1.9,1.5,2.9,2.3s1.9,1.6,2.8,2.4
	c1.8,1.6,3.6,3.2,5.3,4.7c3.4,3.1,6.5,6.1,9.1,8.7c2.6,2.6,4.7,4.8,6.2,6.4c0.6,0.7,1.2,1.3,1.5,1.7l0.1,0.1
	c0.4,0.5,0.7,0.8,0.7,0.8l0,0l0,0C151.9,301.4,152.1,302.2,151.8,302.8z"/>
<path id="Path_8071" class="st43" d="M128.5,307c-0.5,0-1.1,0-1.6,0c-1.5-0.1-3-0.2-4.6-0.4c-6.7-0.9-13.3-3-19.4-6
	c-1.6-0.8-3.4-1.5-5.1-2.1c-3.2-1.1-6.6-1.7-10-1.8h-0.2c3.2-2.1,6.6-3.9,10.2-5.4l0,0c4.7-2.1,9.6-3.5,14.7-4.3
	c2.2-0.3,4.4-0.5,6.6-0.5c1.5,0,2.9,0.1,4.4,0.3c4.3,0.5,8.5,1.4,12.5,2.9c8.6,3.3,13.4,8.3,14.4,12.5c-0.4-0.1-0.9-0.3-1.5-0.5
	c-1.4-0.5-3.5-1.2-5.9-1.9c-2.5-0.7-5.4-1.5-8.5-2.3c-1.6-0.4-3.2-0.8-4.8-1.2c-0.8-0.2-1.7-0.4-2.5-0.5c-0.8-0.1-1.7-0.3-2.5-0.5
	c-4.2-0.7-8.5-1-12.8-1c-2.2,0-4.2,0.1-6,0.2c-2.8,0.2-5.7,0.5-8.5,0.9c2.8-0.3,5.7-0.4,8.5-0.4h0.7c2.4,0,5.1,0.1,7.9,0.3
	c1.6,0.1,3.2,0.3,4.9,0.6c1.7,0.2,3.3,0.5,4.9,0.9c0.8,0.2,1.6,0.4,2.5,0.6s1.6,0.4,2.4,0.7c1.6,0.5,3.2,0.9,4.7,1.4
	c3,0.9,5.9,1.9,8.2,2.7c2.3,0.8,4.4,1.6,5.7,2.2c0.1,0,0.2,0.1,0.2,0.1c-2.3,0.5-6,1.3-9.8,1.9c-3.1,0.5-6.3,0.8-9.4,0.9L128.5,307z
	"/>
<path id="Path_8072" class="st44" d="M150.6,305.1c-0.2,0-0.4,0-0.5-0.1H150c0,0-0.7-0.3-1.9-0.8c-0.1,0-0.2-0.1-0.2-0.1
	c-1.4-0.6-3.3-1.3-5.7-2.2s-5.2-1.8-8.2-2.7c-1.5-0.5-3.1-0.9-4.7-1.4c-0.8-0.2-1.6-0.5-2.4-0.7s-1.6-0.4-2.5-0.6
	c-1.6-0.4-3.3-0.6-4.9-0.9c-1.7-0.2-3.3-0.4-4.9-0.6c-2.9-0.2-5.6-0.3-7.9-0.3H106c-2.8,0-5.7,0.2-8.5,0.4c2.8-0.4,5.6-0.7,8.5-0.9
	c1.8-0.1,3.8-0.2,6-0.2c4.3,0,8.6,0.3,12.8,1c0.9,0.1,1.7,0.3,2.5,0.5c0.8,0.2,1.7,0.3,2.5,0.5c1.6,0.4,3.2,0.8,4.8,1.2
	c3.1,0.8,6,1.6,8.5,2.3s4.5,1.4,5.9,1.9c0.6,0.2,1.1,0.4,1.5,0.5c0.5,0.2,0.8,0.3,0.8,0.3c0.3,0.1,0.5,0.3,0.7,0.5
	c0.3,0.4,0.3,0.9,0.2,1.3C151.8,304.8,151.2,305.1,150.6,305.1z"/>
<path id="Path_8073" class="st45" d="M229.9,29.8c1-3.5,2.8-6.7,5.2-9.4c2.6-2.6,6.3-4.2,9.8-3.5c0.4,0,0.7,0.2,1,0.5
	c0.3,0.4,0.5,0.8,0.5,1.3c0.7,5.6,0.7,11.2,0,16.8c-0.5,4.2-1.3,8.3-1.7,12.5c-0.6,4.2-0.3,8.5,0.8,12.6c0.5,1.4,0.9,2.9,1.2,4.4
	c0.1,0.4,0,0.9-0.1,1.3c-0.5,1.1-1.6,1.9-2.8,1.9c-3.3,0.6-6.6-0.8-9.6-2.1c-1.1-0.4-2.1-1-2.8-1.8c-0.4-0.6-0.7-1.2-0.9-1.9
	C226.9,51.8,226.7,40.4,229.9,29.8z"/>
<path id="Path_8074" class="st46" d="M233,63.7c0,0.4-0.1,0.7-0.2,1.1c-0.1,0.3-0.3,0.6-0.5,0.9c-0.8,1.2-5.8,2.1-7.1,2.6
	c-4.8,2.3-12.4,1.7-16.8-1.4c-2.2-1.5-3.2-3.4-3.1-5.1s1.4-3.4,3.9-4.6c1.2-0.5,2.4-0.9,3.6-1.1c0.5-0.1,1.1-0.2,1.7-0.2h0.4
	c1-0.1,2.1,0,3.1,0.1c2.8,0.2,9.4,1.1,11.8,2.7c0.7,0.5,1.3,1,1.8,1.6l0.2,0.3c0.4,0.5,0.6,1,0.8,1.5C233,62.6,233.1,63.1,233,63.7z
	"/>
<path id="Path_8075" class="st46" d="M232,28.2l-2.9,35.5l-23.7-1.9l2.9-35.5L232,28.2z"/>
<path id="Path_8076" class="st47" d="M222.4,63.2c-2.5-1.1-4.6-2.8-6.3-4.9c-0.6-0.7-1.1-1.5-1.5-2.3c-0.4-0.7-0.8-1.5-1.1-2.2
	c-0.8-2-1.4-4.1-1.7-6.3c-0.5-3.9-0.6-7.8-0.4-11.8c0.1-1.9,0.2-4.5,0.5-7.1c-0.1,1-0.1,2-0.1,2.9c-0.2,3.9-0.1,7.9,0.4,11.8
	c0.4,3.6,1.7,7.1,3.8,10.1l0.5,0.7c0.5,0.7,1.1,1.3,1.7,1.9c2.1,2,9.4,3.9,12.9,4.7c0.3,0.1,0.7,0.1,1,0.2c0.2,0,0.4,0.1,0.5,0.1
	l-0.3,3.2L222.4,63.2z"/>
<path id="Path_8077" class="st46" d="M210.4,34.7c-0.1,3.7,1,7.1,1.7,10.7c2.2,12.2,13.4,17.6,19,16.2c7.9-2,11.4-27.4,11.6-37.9
	c0.1-1.6,0-3.1-0.4-4.6c-0.9-4.3-4.5-7.6-8.8-8.3c-4.8-1-9.7,0-14.3,1.6c-1.3,0.4-2.5,1-3.5,1.7c-1,0.8-1.7,1.8-2.6,2.6
	C211.8,17.9,210.6,29.1,210.4,34.7z"/>
<path id="Path_8078" class="st45" d="M211.7,32.9c-0.1,0.2-2.5-1.8-3.5-2.4c1,0.6,1.4,9.1,1.5,10.3c0.1,2.5-0.2,17.5,7.5,33.4
	c0.4,0.8-27.7,2.3-18.9-32.4c0.8-3.3-0.1-6-0.4-9.3c-0.5-5.7,0-12.8,2.6-18c2.3-4.5,6.1-8.1,10.6-10.2c4.6-2.1,10.5-2.5,15.5-2.1
	c4.3,0.3,8.4,1.6,12,3.9s9.1,7.1,8.3,17.3c-0.1,1.8-7.3-5.7-13.1,3.4C222.6,44.5,211.8,32.8,211.7,32.9z"/>
<path id="Path_8079" class="st46" d="M208.9,30.1c1.4,0.1,2.6,0.9,3.3,2.1c0.6,1.3,0.9,2.7,0.9,4.1c0.1,1.8,0.2,3.6-0.7,5.2
	c-0.2,0.5-0.7,0.9-1.2,1.1c-0.9,0.2-1.9,0-2.6-0.6c-0.6-0.5-1-1.2-1.2-2c-0.7-2-1.1-4.1-1.3-6.2c-0.1-0.8,0-1.7,0.3-2.4
	C207,30.7,207.9,30.1,208.9,30.1z"/>
<path id="Path_8080" class="st48" d="M222.8,130l-0.2,0.1c-1.7,1.1-3.6,1.7-5.6,1.7c-3.4,0-6.5-1.7-8.4-4.5l-25.3-36.7
	c-1.1-1.7-1.7-3.6-1.7-5.6c0-3.4,1.7-6.5,4.5-8.3l0.2-0.1c1.7-1.1,3.6-1.7,5.6-1.7c3.4,0,6.5,1.7,8.3,4.5l25.9,40.5
	C229.4,124.5,227.4,126.9,222.8,130z"/>
<path id="Path_8081" class="st48" d="M224.6,70.2l10.8,1.7l-4.7,41.6c-0.5,5.5-0.3,11-11.4,18.3c0,0-9.9-5.7-6-20L224.6,70.2z"/>
<g>
	<g>
		<g>
			<defs>
				<path id="SVGID_00000119108533626998358760000016406198973314966937_" d="M240.4,71.8c0.6-0.7,1.1-1.4,1.5-2.2
					c0.5-0.9,1-1.9,1.3-2.8c0.9-1.4,1.9-2.6,1.3-4.4c-0.3-0.8-0.7-1.6-1-2.4c-0.1-0.4-0.3-0.8-0.5-1.1c-0.4-0.5-0.9-1-1.5-1.3
					l-1.2-0.8c-0.2-0.1-0.4-0.2-0.6-0.3c-0.3-0.1-0.6,0-0.9,0c-0.9-0.1-1.5-1.2-2.3-1c-0.3,0.1-0.5,0.3-0.6,0.5l-0.1,0.1
					c-1,1.2-1.6,2.8-2.6,3.9c-0.2,0.3-0.5,0.5-0.7,0.7c-1,0.8-1.9,1.7-2.8,2.5c-0.9,0.8-2,1.4-2.9,0.6c-1.6-1.4-5.1-4.2-5.1-4.2v0.2
					c0.1,1.4,0.4,2.9,0.9,4.2c0.4,0.7,0.7,1.6,0.8,2.4s0,1.6,0,2.3c-0.1,0.8,0.6,2.6,4.4,5.5c1.9,1.4,3.9,2.6,6.1,3.4
					c1-0.7,1.9-1.5,2.7-2.4c0.6-0.6,1.2-1.1,1.9-1.6C239.2,73.1,239.8,72.5,240.4,71.8z"/>
			</defs>
			<clipPath id="SVGID_00000044858732547247681170000001299866221600323491_">
				<use xlink:href="#SVGID_00000119108533626998358760000016406198973314966937_"  style="overflow:visible;"/>
			</clipPath>
			<g id="Group_2014" style="clip-path:url(#SVGID_00000044858732547247681170000001299866221600323491_);">
				<path id="Path_8082" class="st50" d="M22.2,71.6L177.9-114L427.2,95.1L271.5,280.7L22.2,71.6z"/>
			</g>
		</g>
	</g>
</g>
</svg>
