<?xml version="1.0" encoding="utf-8"?>
<!-- Generator: Adobe Illustrator 27.6.1, SVG Export Plug-In . SVG Version: 6.00 Build 0)  -->
<svg version="1.1" id="Layer_1" xmlns="http://www.w3.org/2000/svg" xmlns:xlink="http://www.w3.org/1999/xlink" x="0px" y="0px"
	 viewBox="0 0 375.1 348.4" style="enable-background:new 0 0 375.1 348.4;" xml:space="preserve">
<style type="text/css">
	.st0{opacity:0.15;enable-background:new    ;}
	.st1{opacity:0.15;fill:#020202;enable-background:new    ;}
	.st2{fill:#2B2C30;}
	.st3{fill:#3F4045;}
	.st4{fill:#AC7E74;}
	.st5{fill:#2B656B;}
	.st6{fill:#E6D6B6;}
	.st7{fill:#5498A8;}
	.st8{fill:#53B7D5;}
	.st9{fill:#2CA2B5;}
	.st10{fill:#FFCFB3;}
	.st11{fill:#FFBE99;}
	.st12{fill:#76CEE2;}
	.st13{fill:#6AC6DB;}
	.st14{fill:#94DCED;}
	.st15{fill:#F7D046;}
	.st16{fill:#593720;}
	.st17{fill:#130708;}
	.st18{fill:none;}
	.st19{fill:#EAB200;}
	.st20{clip-path:url(#SVGID_00000039122712814300392660000013808139998254163638_);fill:#F7D046;}
	.st21{clip-path:url(#SVGID_00000105399429487837118300000015977076671281636268_);fill:#F7D046;}
	.st22{clip-path:url(#SVGID_00000181779550917937024360000002138067216478670505_);fill:#F7D046;}
	.st23{clip-path:url(#SVGID_00000137826221503335692730000004321095295507681177_);fill:#F7D046;}
	.st24{clip-path:url(#SVGID_00000089560563151596346190000016071149136500326813_);fill:#F7D046;}
	.st25{clip-path:url(#SVGID_00000088852002716436360530000013271458378255362735_);fill:#F7D046;}
	.st26{clip-path:url(#SVGID_00000160182424646768290280000017553510400216839570_);fill:#F7D046;}
	.st27{clip-path:url(#SVGID_00000019656168186755900910000010610668149392795008_);fill:#F7D046;}
	.st28{clip-path:url(#SVGID_00000102502961522052561210000000276772074549730484_);fill:#F7D046;}
	.st29{clip-path:url(#SVGID_00000003105151647194634460000004186505627028530563_);fill:#F7D046;}
	.st30{clip-path:url(#SVGID_00000061429705256682666280000017837282395735108264_);fill:#F7D046;}
	.st31{clip-path:url(#SVGID_00000061432184554235610930000003300229699155796148_);fill:#F7D046;}
	.st32{clip-path:url(#SVGID_00000168091688278537727670000013005763547051387824_);fill:#F7D046;}
	.st33{clip-path:url(#SVGID_00000136391702976504389200000009465136504778779325_);fill:#F7D046;}
	
		.st34{clip-path:url(#SVGID_00000089566626083436605860000003793233033052864181_);fill-rule:evenodd;clip-rule:evenodd;fill:#EDD588;}
	.st35{clip-path:url(#SVGID_00000131366420532560557250000011977522633529116859_);fill:#F7D046;}
	.st36{clip-path:url(#SVGID_00000064325775379602411670000010240448870459605426_);fill:#F7D046;}
	.st37{clip-path:url(#SVGID_00000013916113499713730690000011333220034097595326_);fill:#F7D046;}
	.st38{clip-path:url(#SVGID_00000143604493160747407690000013946081479146110353_);fill:#F7D046;}
	.st39{clip-path:url(#SVGID_00000112597413660533828730000004728745416901151421_);fill:#F7D046;}
	.st40{clip-path:url(#SVGID_00000056395753052216623840000016700105938832983196_);fill:#F7D046;}
	.st41{clip-path:url(#SVGID_00000125581276803952368970000017736768982286081667_);fill:#F7D046;}
	.st42{clip-path:url(#SVGID_00000046305079327402242560000014409256018222183353_);fill:#F7D046;}
	.st43{clip-path:url(#SVGID_00000109733145274318072740000017224498353406186120_);fill:#E7C036;}
</style>
<path id="Path_6522" class="st0" d="M162.5,332.8c-6,0.1-11.9-1.3-17.2-4.1c2.7,1.1,5.6,1.7,8.5,1.7c6.8,0,13.3-3.1,17.6-8.4
	c0.6-0.8,1.2-1.5,1.7-2.4s1-1.7,1.4-2.7c0.2-0.4,0.3-0.8,0.5-1.2c-0.1,3-0.8,5.9-2.2,8.6c-1.7,3.2-4.1,6.1-7,8.3
	C164.7,332.7,163.6,332.8,162.5,332.8z M169.6,332.2c2-2,3.8-4.3,5.1-6.9c2.6-5,3.1-10.7,1.6-16.1c0-0.4,0-0.8,0-1.2
	c0-0.1,0-0.2,0-0.3c0-0.2,0-0.4,0-0.5c1.1,0.4,2.2,1,3.2,1.6c9.6,5.5,9.6,14.5,0.1,20C176.5,330.4,173.1,331.6,169.6,332.2
	L169.6,332.2z"/>
<path id="Path_6523" class="st1" d="M110.9,312.2c-9.4,0.2-18.7-1.5-27.4-5c-2.9-1.2-5.7-2.7-8.2-4.6c-1.5-1.2-2.9-2.6-4-4.2
	c-1.1-1.6-2.1-3.6-4-4.4c-1-0.3-2.1-0.5-3.1-0.5c-1-0.1-2-0.2-2.9-0.5c0.2-5,1-9.9,2.4-14.7c4.6-2.7,9.9-4.9,12-6.3
	c4.6-3,8.9-6.3,13.3-9.5c2.2-1.6,4.4-3.2,6.7-4.7c1.1-0.6,2.2-1,3.4-1.3c0.7,0.9,1.7,1.7,2.8,2c0.7,0.2,1.4,0.3,2.1,0.3
	c1.2,0,2.3-0.2,3.5-0.5c1.7-0.3,3.4-0.8,4.9-1.7l0.3-0.2c1.8-1.5,3.1-3.3,3.9-5.5c2.2-4.9,3.7-10.1,4.3-15.4
	c6.1-2.8,12-5.9,17.8-9.3l10.5,4.2c1.7,0.7,3.4,1,5.2,1c1.7,0,3.5-0.3,5.1-1c24.5-9.6,44.1-22.2,59.7-36.2l45.6,21.2l1.8-3.8l0,0
	l1.9-4.1L226,188c1.3-1.3,2.6-2.7,3.9-4c11.8,4.1,36,14.6,43.3,15.4c1.1,0.1,2.1,0.2,3.2,0.2c6.4,0,11.6-2.2,16.7-6.5
	c4-3.3,8-6.7,12-10c2.6-2.2,6.1-4.3,9.2-4.3c1.3,0,2.7,0.5,3.6,1.4c1.8,1.7,2.1,4.6,1.4,7c-0.9,2.3-2.2,4.5-4,6.3
	c-20.2,24.2-43.8,45.3-70.1,62.8c-11.8,7.9-24.3,15-37.8,19.2c-7.3,2.3-14.9,3.5-22.6,3.5c-2.4,0-4.7-0.1-7.1-0.4l-0.3-0.1
	c0.1,3-0.5,6-1.8,8.7c-1.1,2.3-2.7,4.2-4.6,5.8l-0.1-0.1c-0.5-0.6-1.1-1.2-1.6-1.7c-7.7-7.2-19.4-8.1-28.2-2.2
	c-0.2,0.1-0.4,0.3-0.6,0.4c-0.6,0.5-1.2,0.9-1.8,1.5c-0.3,0.3-0.6,0.5-0.9,0.8c-0.6,0.6-1.1,1.2-1.6,1.8c-0.3,0.4-0.6,0.8-0.9,1.2
	c-0.2,0.2-0.3,0.5-0.5,0.7c-0.5,0.7-0.9,1.5-1.3,2.3c-0.2,0.3-0.3,0.7-0.5,1c-0.1,0.2-0.2,0.4-0.3,0.6c-0.4,0.9-0.7,1.9-0.9,2.9
	c-0.4,1.6-0.6,3.1-0.7,4.8c0,0.3,0,0.5,0,0.8c0,0.6,0,1.2,0.1,1.8c0,0.3,0,0.5,0.1,0.8C124.5,311.5,117.7,312.2,110.9,312.2z
	 M59.2,292.1c-0.9-0.5-1.7-1.1-2.3-1.9c-3-3.7-0.2-7.2,4.1-10.3C60,284,59.4,288.1,59.2,292.1z M97.2,247.8c-1.5-1-3-2.1-4.4-3.2
	c-1-0.7-1.8-1.6-2.5-2.6c1.5,0.2,3,0.3,4.5,0.3c0.9,0,1.8,0,2.7-0.1c0,1.1-0.1,2.2-0.1,3.3C97.3,246.2,97.2,247,97.2,247.8
	L97.2,247.8z"/>
<path id="Path_6524" class="st2" d="M264.7,215.7l-73.1-34l3.7-7.9l73.1,34L264.7,215.7z"/>
<path id="Path_6525" class="st3" d="M195.3,178.7l71.2,33.1l1.9-4.1l-73.1-34l-3.7,7.9l1.9,0.9L195.3,178.7z"/>
<path id="Path_6526" class="st2" d="M94.8,242.2c-4.9,0.1-9.8-1-14.3-3.1c-7.6-3.7-13-10.7-15.6-20.2c-3.7-13.7-0.5-30.5,9.3-48.6
	c9.3-17.5,23.2-32,40.1-42.2c3.4-2,6.9-3.9,10.4-5.6c5.6-2.6,11.4-4.8,17-7c5.7-2.2,11.6-4.4,17-7c15.4-7.4,26.1-19,31.8-34.5
	c6-16.2,6.9-33.8,2.7-50.6c-0.2-0.8-0.4-1.5-0.6-2.3c-0.8-2.6,0.6-5.3,3.1-6.2h0.1c2.6-0.9,5.5,0.4,6.4,3c0,0.1,0.1,0.2,0.1,0.3
	c0.3,0.9,0.5,1.8,0.7,2.7c4.7,18.7,3.7,38.5-3,56.6c-6.6,17.8-19.3,31.6-36.9,40.1c-5.9,2.8-12,5.1-17.8,7.4
	c-5.4,2.1-11,4.2-16.3,6.7c-3.2,1.5-6.4,3.2-9.5,5.1c-15.4,9.2-28,22.5-36.5,38.3c-6,11-12.3,27.1-8.5,41.2
	c1.8,6.7,5.3,11.4,10.2,13.8c7,3.4,17.5,2.5,29.4-2.6c10-4.3,19.5-9.6,28.4-15.9c22.4-15.4,41.7-35.2,60-55.2
	c4.2-4.6,8.3-9.2,12.4-13.9c2.4-2.7,7.8-7.2,11.2-2.7c2,2.7,0.3,4.9-1.4,6.9c-2.2,2.5-4.4,5-6.7,7.5c-4.5,5.1-9.1,10.1-13.8,15.1
	c-9.3,10-18.9,19.8-29.1,29c-8.5,7.8-17.4,14.9-26.9,21.5S128.6,232,118,236.6C109.7,240.4,101.9,242.2,94.8,242.2z"/>
<path id="Path_6527" class="st4" d="M193.3,23.2c0.6-1,1.5-1.7,2.5-2.1h0.1c2.6-0.9,5.5,0.4,6.4,3c0,0.1,0.1,0.2,0.1,0.3
	c0.3,0.9,0.5,1.8,0.7,2.7c1.7,6.6,2.6,13.4,2.8,20.2c0.3-8.9-0.7-17.7-2.8-26.3c-0.2-0.9-0.5-1.8-0.7-2.7c-0.8-2.7-3.6-4.2-6.2-3.4
	c-0.1,0-0.2,0.1-0.3,0.1h-0.1c-2.5,0.9-3.9,3.6-3.1,6.2C192.9,21.8,193.1,22.5,193.3,23.2z"/>
<path id="Path_6528" class="st3" d="M142.7,211.7c-8.9,6.2-18.5,11.5-28.4,15.8c-11.9,5.1-22.4,6-29.4,2.6c-5-2.4-8.4-7.1-10.2-13.8
	c-0.5-2-0.9-4-1-6.1c-0.4,4.1,0,8.2,1,12.2c1.8,6.7,5.3,11.4,10.2,13.8c7,3.4,17.5,2.5,29.4-2.6c10-4.3,19.5-9.6,28.4-15.8
	c22.4-15.4,41.7-35.2,60-55.2c4.2-4.6,8.3-9.2,12.4-13.9c2.3-2.6,7.4-6.8,10.7-3.2c1.3-1.7,2-3.6,0.4-5.7c-3.4-4.5-8.7,0-11.2,2.7
	c-4.1,4.6-8.2,9.3-12.4,13.9C184.4,176.5,165.2,196.3,142.7,211.7z"/>
<path id="Path_6529" class="st3" d="M74.2,176.5c9.3-17.5,23.2-32,40.1-42.2c3.4-2,6.9-3.9,10.4-5.6c5.6-2.6,11.4-4.8,17-7
	c5.7-2.2,11.6-4.4,17-7c15.4-7.4,26.1-19,31.8-34.5c3.9-10.5,5.6-21.7,5.2-32.9c-0.3,9.1-2.1,18.2-5.2,26.7
	c-5.7,15.5-16.4,27.1-31.8,34.5c-5.5,2.6-11.4,4.9-17,7s-11.4,4.3-17,7c-3.5,1.7-7,3.5-10.4,5.6c-17,10.2-30.8,24.7-40.1,42.2
	c-7.8,14.5-11.4,28.1-10.7,40C64.2,200,67.7,188.5,74.2,176.5z"/>
<path id="Path_6530" class="st5" d="M182.4,20.8c-1.5,32.4-15.1,127.1-119,169.2c-1.6,0.7-2.4,2.5-1.7,4.1c0.3,0.8,0.9,1.4,1.7,1.7
	l85.8,34.8c3.3,1.3,7,1.4,10.3,0.1c108-42.5,120.1-141.2,121.2-171.9c0.2-5.5-3.1-10.5-8.1-12.6L193.1,14c-4-1.6-8.5,0.3-10.1,4.3
	C182.6,19.1,182.4,19.9,182.4,20.8z"/>
<path id="Path_6531" class="st6" d="M96.8,209.3l-5.7-2.3L96.8,209.3z M235.7,31.2l-22.9-9.3l0,0l8.1,3.3l11.1,4.5
	C233.2,30.2,234.5,30.7,235.7,31.2z"/>
<path id="Path_6532" class="st7" d="M139.3,226.6l-17.7-7.2c3.8-2.6,7.5-5.4,11.1-8.4c0.7-0.6,1.3-1.1,2-1.7
	c0.7-0.2,1.4-0.4,2.1-0.6c11.3-2.9,22.4-6.8,33.5-10.4c7.7-2.5,15.5-5.3,22.4-9.6c6.3-4,11.8-9.3,15.9-15.5c3.4-5,5.7-10.7,7.7-16.5
	c1-2.8,1.9-5.6,2.7-8.5c0.5,0.2,1,0.4,1.5,0.6c2,0.8,4,1.5,6.1,2.2c1.4,0.5,2.8,0.8,4.3,0.9c0.2,0,0.5,0,0.7,0
	c1.9-0.4,3.5-1.5,4.6-3.1c4.8-5.9,5.3-14.6,6.2-21.9c0.7-5.8,1.1-11.6,1.1-17.4c0-2.3-0.1-4.5-0.2-6.8c-0.1-5.3-1-10.7-2.6-15.8
	c-1.2-3.4-3-8.3-5.8-11.3c-0.9-1.2-1.8-2.3-2.7-3.5c-0.5-0.7-1.1-1.4-1.6-2l0,0c0.1,0,0.1,0,0.2,0l0.4-0.4c0.7-1.1,1-2.3,1-3.6
	c0-0.2,0-0.5,0-0.7c-0.2-3.4-2.1-5.7-3.3-8.7c-0.6-1.6-0.4-3.3-0.7-5c-0.7-3.8-3.6-6.8-7.1-8.5c-3.1-1.4-6.4-2.1-9.8-2
	c0-0.2,0.1-0.4,0.1-0.6c0,0.1,0,0.2,0,0.3c0.2-0.7,0.4-1.3,0.8-1.9c0.2-0.6,0.5-1.3,0.7-2c0.4-1.3,0.7-2.6,1-3.9
	c0.2-1.3,0.4-2.7,0.4-4c0-0.6,0-1.2-0.1-1.8c-0.2-1.9-0.6-3.7-1.2-5.4l22.9,9.3c2.9,1.3,5.5,3,5.9,6.6c0.2,2.6,0.1,5.1-0.2,7.7
	c-0.8,10.6,0.1,21.6,4.4,31.4c1.5,3.5,3.5,6.7,5.2,10.1c6.5,13.4,8.3,27.9,2.8,42c-2.3,5.8-5.8,11.1-9.2,16.3
	c-15,22.7-31,46.3-55.2,58.9c-10.5,5.5-22.1,8.6-32.9,13.4C150.6,220.3,144.9,223.4,139.3,226.6z M120.1,217.8c0-0.2,0-0.5,0-0.7
	s0-0.3,0-0.5c0-3.1,0.8-6.2,2.9-8.4c1.2-1.3,2.7-2.2,4.4-2.8c-0.3,0.5-0.5,1-0.5,1.6c0,0.5,0.2,1,0.5,1.3c0.8,1,2,1.5,3.3,1.6
	C127.3,212.6,123.8,215.3,120.1,217.8z M96.8,209.3l-5.7-2.3c2.1-5.3,4.9-10.3,8.3-14.8c-0.4,0.9-0.7,1.8-0.9,2.8
	c-0.8,3.7-1.3,7.4-1.5,11.2C96.9,207.2,96.8,208.2,96.8,209.3z"/>
<path id="Path_6533" class="st8" d="M187.8,63c-3.4,9.3-10.3,17-18.3,22.8c-1,0.7-2,1.4-3.1,2c-2,1.3-4,2.3-6.2,3.1H160
	c0,2.3,0,4.6-0.2,6.8v0.1c-0.1,1.1-0.3,2.2-0.7,3.3c-1.2,3-4.9,4.5-8,3.8c-3.1-0.6-5.4-3-6.8-5.8c-1-2-0.9-5.1-0.6-7.3
	c0.3-2.7,1.2-5.3,2.6-7.6c2.1-3.8,13.4-17.2,16.1-20.6c2.8-3.7,5.9-7.2,9.3-10.4c1.5-1.3,3.2-2.3,4.9-3.2c1.8-1,3.9-1.6,5.9-1.7
	c1-0.1,2.1,0.1,3,0.5c1.6,0.8,2.8,2.3,3.3,4C189.7,56.2,188.9,60,187.8,63z"/>
<path id="Path_6534" class="st9" d="M158.8,97.4c-0.6-0.4-1.2-0.8-1.8-1.2c-1.4-0.8-3-1.3-4.6-1.3c-1.3,0-2.6,0.3-3.8,0.9
	c0.9-2,2.4-3.8,4.3-5c1.1-0.8,2.9-1.4,3.6-2.6c0.8-1.6,1.2-3.4,2-5c0.9-1.9,1.4-4.1,2.2-6.1c1.6-4.1,3.5-8.1,5.5-12
	c1.1-2.3,2.5-4.3,4.3-6.1c-0.1,0.1-0.1,0.3-0.2,0.4c-3.5,6.4-5.6,13.5-7.5,20.5c-1,3.7-1.9,7.4-2.7,11.1l0,0v0.1
	C159.5,93.3,159.1,95.4,158.8,97.4z"/>
<path id="Path_6535" class="st10" d="M110,196.5c-2.3,4-4.9,7.7-6.6,12c-3.1,7.8-2.8,16.6-4.5,24.8c-0.8,3.8-2,7.5-2.4,11.3
	c-0.2,2.5-0.2,5.4-2.2,7c-0.8,0.6-1.8,1-2.8,1c-1.2,0-2.5-0.3-3.5-1c-1.8-1.4-3.2-3.2-4-5.3c-2.2-5.2-3-10.9-3.6-16.5
	c-1.1-8.4-1.6-16.9-1.6-25.4c0.1-8.3-0.3-16.8,4.3-24.1c0.2-0.3,0.4-0.7,0.7-1c2.1-3,4.9-5.5,8-7.3c3.4-2,7.3-3,11.3-2.6
	c2.4,0.2,4.7,0.9,6.7,2.2c3.8,2.6,5.4,7.5,5,12.1C114.4,188.3,112.3,192.5,110,196.5z"/>
<path id="Path_6536" class="st11" d="M110,196.5c-2.3,4-4.9,7.7-6.6,12c-3.1,7.8-2.8,16.6-4.5,24.8c-0.8,3.8-2,7.5-2.4,11.3
	c-0.2,2.5-0.2,5.4-2.2,7c-0.8,0.6-1.8,1-2.8,1c0-1.4,0-2.9,0.1-4.3c0.2-7.7,0.2-15.5,0-23.2c-0.2-7.6-0.5-15.2,0.3-22.7
	c0.9-7.5,3.1-15.1,7.6-21.2c0.8-0.9,1.4-2,1.8-3.2c0.5-2.4-1.4-4.5-3.5-5.4c-1.5-0.6-3.9-0.4-5.9-0.6c3.4-2,7.3-3,11.3-2.6
	c2.4,0.2,4.7,0.9,6.7,2.2c3.8,2.6,5.4,7.5,5,12.1C114.4,188.3,112.3,192.5,110,196.5z"/>
<path id="Path_6537" class="st12" d="M100,266.1c-0.6,2.8-1.9,5.5-3.7,7.8c-2.9,3.4-7.3,5.2-11.2,7.5c-4.9,3-9.1,7-14.2,9.6
	c-2,1.1-4.2,1.7-6.5,1.9c-1,0-2-0.1-3-0.4c-1.2-0.3-2.3-1-3.2-1.9c-2.8-2.9-2.3-7.8-0.1-11.1c2.2-3.4,5.6-5.7,8.7-8.1
	c2-1.5,3.9-3.1,5.7-4.8c1.5-1.3,2.8-2.8,3.7-4.5c0.8-1.7,1.3-3.5,1.5-5.3c0.7-4.6,1.1-9.2,1.3-13.8c0.1-1.2,0.2-2.5,0.2-3.8
	c0.1-0.9,0.1-1.8,0.2-2.7c0-0.5,0.2-1.2,0.7-1.4c0.7-0.2,1.1,0.6,1.5,1.1c0.9,0.9,2.1,1.6,3.4,1.9c2.2,0.7,4.4,1,6.6,1
	c2.2,0.1,4.5-0.5,6.4-1.5c0.5-0.4,1.2-0.6,1.8-0.5c0.5,0.3,0.8,0.9,0.9,1.5c0.5,2.5,0.8,5,0.8,7.5c0.1,2.4,0,4.8-0.1,7.2
	C101.5,257.6,101,261.9,100,266.1z"/>
<path id="Path_6538" class="st12" d="M100,266.1c-0.6,2.8-1.9,5.5-3.7,7.8c-2.9,3.4-7.3,5.2-11.2,7.5c-4.9,3-9.1,7-14.2,9.6
	c-2,1.1-4.2,1.7-6.5,1.9c-1,0-2-0.1-3-0.4c0.8-0.9,1.6-1.8,2.4-2.7c3.5-4.3,6.3-9.1,9.9-13.3c3.2-3.7,6.9-7,9.9-10.8
	c1.7-2.2,3.2-4.5,4.4-7c1.7-3.5,2.9-7.2,3.5-11c3.5,0.3,7-0.1,10.2-1.4c0.1,2.4,0,4.8-0.1,7.2C101.5,257.6,101,261.9,100,266.1z"/>
<path id="Path_6539" class="st13" d="M101.7,246.1c-9.8,3.6-18.1-0.2-22.7-3.1c0.1-1.2,0.2-2.5,0.2-3.8c0.1-0.9,0.1-1.8,0.2-2.7
	c0-0.5,0.2-1.2,0.7-1.4c0.7-0.2,1.1,0.6,1.5,1.1c0.9,0.9,2.1,1.6,3.4,1.9c4.3,1.3,9.2,1.7,13.1-0.5c0.5-0.4,1.2-0.6,1.8-0.5
	c0.5,0.3,0.8,0.9,0.9,1.5C101.4,241.1,101.7,243.6,101.7,246.1z"/>
<path id="Path_6541" class="st10" d="M121,225.6c0.8,8.7-0.7,17.5-4.4,25.4c-0.8,2.1-2.2,4-3.9,5.5l-0.3,0.2
	c-1.5,0.9-3.2,1.4-4.9,1.7c-1.8,0.5-3.7,0.6-5.5,0.2c-2.4-0.8-3.9-3.2-4.5-5.7c-0.4-2.5-0.4-5-0.1-7.5c0.5-9.2-0.8-18.4-0.9-27.6
	c0-3.9,0.2-7.8,0.5-11.7c0.1-3.8,0.6-7.5,1.5-11.2c0.5-2,1.3-3.9,2.3-5.6c2.6-4.6,6.6-8.2,10.9-11.4c2.1-1.6,4.2-3,6.3-4.4
	c-0.5,0.3,0.5,3,0.7,3.4c0.5,1.3,1.3,1.6,2.3,2.5c5.1,4.1,8.4,9.9,10.9,15.9c1.2,2.7,2.4,5.7,5,7c-4.6,2.1-10.4,2.1-13.8,5.8
	c-2.1,2.2-2.9,5.4-2.9,8.4C120.2,219.6,120.5,222.6,121,225.6z"/>
<path id="Path_6543" class="st14" d="M115.7,275.8c-0.6,2.6-2.7,4.7-5,6.2s-4.8,2.6-7,4.1c-2.6,1.8-4.6,4.2-6.9,6.3
	c-1,0.9-1.8,2.1-2.7,3.2c-2.6,2.7-6,5.1-9.6,6c-3.3,0.8-6.8,1-10.1,0.5c-0.7-0.1-1.5-0.3-2.2-0.6c-0.8-0.3-1.6-0.7-2.4-1.1
	c-1.4-0.9-2.4-2.2-3-3.7c-0.9-2.6-0.1-5.6,1.5-7.9c1.7-2.2,3.7-4.2,6-5.8c5.1-4.3,10.1-9.1,13.6-14.8c3.4-5.5,5.9-11.5,7.3-17.7
	c0.2-0.6,0.3-1.3,0.4-1.9c0.2-0.9,0.4-1.9,0.5-2.8c0.1-0.4,0.2-2.7,0.7-2.5l0.5,0.5c0.2,0.3,0.3,0.6,0.5,0.9
	c1.1,1.9,2.1,3.6,4.1,4.6c3.5,1.6,7.5,1.8,11.1,0.6c1.5-0.5,2.8-1.3,4.1-2.2c0.4-0.3,1-0.7,1.4-0.3c0.2,0.2,0.3,0.5,0.2,0.8
	c-0.1,1.4-0.4,2.8-0.9,4.2c-0.2,1.1-0.5,2.2-0.8,3.2c-0.2,0.6-0.3,1.1-0.5,1.7c-1,3.2-1.5,6.5-1.4,9.9
	C115.4,269.9,116.5,272.9,115.7,275.8z"/>
<path id="Path_6544" class="st14" d="M115.7,275.8c-0.6,2.6-2.7,4.7-5,6.2s-4.8,2.6-7,4.1c-2.6,1.8-4.6,4.2-6.9,6.3
	c-1,0.9-1.8,2.1-2.7,3.2c-2.6,2.7-6,5.1-9.6,6c-3.3,0.8-6.8,1-10.1,0.5c-0.7-0.1-1.5-0.3-2.2-0.6c1.7-0.5,3.4-1.1,5-1.8
	c6.8-2.6,12.8-6.9,17.4-12.4c2.5-3.1,4.4-6.6,6.8-9.7c1.9-2.4,4.1-4.7,5.8-7.2c1.5-2.3,2.6-4.7,3.4-7.3c0.7-2.2,1.2-4.5,1.6-6.9
	c1.6-0.2,3.3-0.5,4.9-0.9c-0.2,0.6-0.3,1.1-0.5,1.7c-1,3.2-1.5,6.5-1.4,9.9C115.4,269.9,116.5,272.9,115.7,275.8z"/>
<path id="Path_6545" class="st13" d="M117.9,252.1c-0.2,1.1-0.5,2.2-0.8,3.2c-12.1,3-18.7-1.2-21.9-4.9c0.2-0.6,0.3-1.3,0.4-1.9
	c0.2-0.9,0.4-1.9,0.5-2.8c0.1-0.4,0.2-2.7,0.7-2.5l0.5,0.5c0.2,0.3,0.3,0.6,0.5,0.9c1.1,1.9,2.1,3.6,4.1,4.6
	c5,2.3,10.8,1.7,15.2-1.6c0.4-0.3,1-0.7,1.4-0.3c0.2,0.2,0.3,0.5,0.2,0.8C118.7,249.4,118.4,250.8,117.9,252.1z"/>
<path id="Path_6547" class="st8" d="M240.5,88.8c-0.6,2.5-2.1,3.9-3.7,5.8c-1.8,2.1-2.7,5.3-3.8,7.8c-0.7,1.6-1.3,3.2-1.9,4.8
	c-6.1,16.1-9,33.4-14.7,49.6c-2,5.7-4.3,11.4-7.7,16.5c-4.2,6.2-9.6,11.5-15.9,15.5c-6.9,4.3-14.7,7.1-22.4,9.6
	c-11.1,3.5-22.2,7.4-33.5,10.4c-1.8,0.5-3.7,1.3-5.6,1.2c-1.5,0-2.8-0.6-3.8-1.7c-0.9-1.2-0.4-2.3,0.2-3.4c0.6-1.3,0.8-2.7,0.6-4.1
	c0-0.6-0.1-1.2-0.2-1.8c-0.3-2-0.9-3.9-1.7-5.7c-1.8-3.8-4.2-7.3-7-10.4c-3.6-4.1-7.7-8-12.6-10.5c-4.1-2.1-8.7-2.8-13-1
	c-0.8,0.4-1.6,0.7-2.5,0.8c-1.2-0.1-2.2-1-2.5-2.2c-0.8-3.7,3.9-7.7,6.3-10c3.2-2.9,39.8-24.2,51.8-36c2.8-2.6,5.1-5.6,7.1-9
	c0.3-0.6,0.6-1.2,0.9-1.8c1.1-2.6,2-5.4,2.5-8.2c0.4-1.8,0.7-3.7,1-5.6c1.1-6.6,2.5-13.1,4.3-19.5c2-7,4.1-14.1,7.5-20.5
	c1.7-3.1,3.9-6,6.5-8.4c2.8-2.7,7.8-3.2,11.5-4.1c0.8-0.2,1.5-0.4,2.3-0.5c4.4-0.9,9-1.2,13.2,0.5c1.7,0.7,3.2,1.6,4.7,2.6
	c2,1.3,4,2.5,5.9,3.8c3.3,2.3,6.2,5,8.8,8.1c3.1,3.5,6.1,7.1,9,10.7c2.6,3.3,5.3,6.7,6.9,10.6C239.8,84.5,240.8,86.9,240.5,88.8z"/>
<path id="Path_6548" class="st9" d="M130.7,209.8c-1.3-0.1-2.5-0.7-3.3-1.6c-0.3-0.4-0.5-0.9-0.5-1.3c0.1-0.7,0.3-1.4,0.8-2.1
	c0.5-0.9,0.7-1.9,0.6-2.8c0-0.4,0-0.8,0-1.3c0-0.6-0.1-1.2-0.2-1.8c9.1-4.2,17.9-9.1,26.3-14.7c-6.5,9.4-14.2,17.9-23,25.2
	C131.1,209.5,130.9,209.7,130.7,209.8z M134.7,209.3c9.6-8.3,17.8-17.9,24.5-28.6c8-5.8,15.2-12.7,21.6-20.3c3.3-4,6.5-8.8,6.2-14
	c-0.2-4.9-3.4-9-7.3-12c0.5-2.2,0.8-4.4,0.9-6.7c0.2,0.1,0.5,0.1,0.8,0.2c0.1,0,0.2,0,0.3,0.1c-0.1,0-0.2,0.1-0.4,0.1l-0.5,0.1
	l-0.1,0.7l0.5,0.5c1.1,0.8,25.8,14,37.8,18.9c-0.8,2.8-1.7,5.7-2.7,8.5c-2,5.7-4.3,11.4-7.7,16.5c-4.2,6.2-9.6,11.5-15.9,15.5
	c-6.9,4.3-14.7,7.1-22.4,9.6c-11.1,3.6-22.2,7.4-33.5,10.4C136.1,208.9,135.4,209.1,134.7,209.3L134.7,209.3z M216.6,124.1
	c-0.7-0.1-1.5-0.3-2.2-0.6c-1.5-0.6-3.1-1.1-4.7-1.6c-0.8-0.3-1.5-0.5-2.3-0.7c-0.6-0.2-1.2-0.4-1.8-0.5c-0.1-3.6,0.1-7.3,0.6-10.9
	c1.2-8.8,4-21.2,10.4-27.9c0.4-0.4,0.9-0.8,1.3-1.2c-1.2,1.9-2.1,4-2.7,6.1c-3.2,11.9-1.1,23.7,1.8,35.4
	C217.6,123.7,217.3,124.1,216.6,124.1L216.6,124.1z M160.1,106.5l-0.7-0.5l0.8,0.4C160.1,106.4,160.1,106.4,160.1,106.5z"/>
<path id="Path_6549" class="st15" d="M147.4,97.4c0.1,0.9,0.2,1.8,0.2,2.8c1.1,26.2-22.5,45.5-43.4,56.9l33,23.7
	c21-11.4,44.5-30.7,43.4-56.9c0-0.9-0.1-1.8-0.2-2.8L147.4,97.4z"/>
<path id="Path_6550" class="st15" d="M120.3,348.4c-10.6,0.1-21.1-2-30.8-6.3c-12.9-5.7-22.9-16.5-27.4-29.8
	c-6.7-19.3-1.4-42.9,13.6-60.1c7.3-8.4,15.7-15.6,25.1-21.6c2.1-1.3,4.1-2.7,6.2-4c8.2-5.3,16.7-10.8,24.4-17.2
	c11.5-9.6,21.2-21.2,28.7-34.2c6.7-11.8,10.5-23.2,11.3-34c0.9-12.7-2.7-24.9-9.8-33.5l1.7-1.4c7.5,9,11.2,21.8,10.3,35
	c-0.8,11.1-4.7,22.8-11.6,34.9c-7.5,13.3-17.4,25.1-29.2,34.8c-7.8,6.4-16.3,12-24.6,17.4c-2.1,1.3-4.1,2.7-6.2,4
	c-9.2,5.8-17.5,13-24.6,21.2c-14.5,16.6-19.7,39.4-13.2,58c4.4,12.8,13.9,23.1,26.3,28.6c17.7,8.1,41.4,8.1,61.9,0
	c10.3-4,17-9.2,20.5-15.9c3.8-7.2,2.8-18.3-4.7-22.7l1.1-1.9c8.7,5,9.9,17.3,5.6,25.6c-3.8,7.1-10.8,12.6-21.6,16.9
	C142.6,346.3,131.5,348.4,120.3,348.4z"/>
<path id="Path_6551" class="st16" d="M161.1,100.7h-0.2l-4.5-0.2l-8.1-0.4c-2.8-0.1-5.6-0.3-8.5-0.4l-3.3-0.2c-0.4,0-0.9,0-1.3-0.1
	c-0.3-0.1-0.7-0.1-1,0.1c-0.3,0.2-0.4,0.7-0.2,1l0,0c0.4,0.5,1,0.9,1.7,0.9l25.2,0.9L161.1,100.7z"/>
<path id="Path_6552" class="st16" d="M175.7,140c0.2,0.5,0.5,1.7,0,2.1c-0.3,0.3-0.9,0.3-1.2,0c-0.1-0.1-0.1-0.2-0.2-0.3
	c-0.4-0.9-0.7-1.9-0.9-2.9c-0.4-1.2-0.8-2.4-1.2-3.7c-1-3-2-5.9-2.9-8.9c-1.1-3.2-2.1-6.4-3.2-9.7c-1-3-2-5.9-2.9-8.9l-2.1-6.5
	c-0.3-0.8-0.6-1.7-0.8-2.5l0.8-0.9L175.7,140z"/>
<path id="Path_6553" class="st10" d="M163.5,101.1c-0.6,1.3-1.5,2.4-2.6,3.3c-0.5,0.4-1,0.8-1.6,0.6l-0.3-0.3v-0.3
	c0-1.1,0.3-2.2,0.9-3.1l0,0c0.2-0.3,0.4-0.6,0.6-0.9l0.2-0.3l0.1-0.2v-0.6l0,0l-0.1-0.4c-0.2-0.5-0.6-1.2-1.1-1.2
	c-0.3,0-0.6,0.1-0.8,0.4c-0.4,0.6-0.6,1.3-0.5,2c0,0.6,0,1.2,0,1.8c0,0.6,0,1.2,0.1,1.8c0.1,0.4,0.1,0.9,0.1,1.3s-0.2,0.9-0.5,1.2
	c-0.5,0.4-1.3,0.2-1.7,0.7l-0.2,0.4c-0.4,0.3-0.9,0.3-1.3,0c-0.3-0.4-0.6-0.8-0.8-1.2c-0.4-0.8-0.8-1.5-1.4-2.1l-0.6-0.3l-0.3,0.2
	c-0.3,0.3-0.7,0.5-1.1,0.6l-0.4,0.1l-0.5,0.9c-0.3,0.3-0.8,0.1-1.1-0.1c-1.4-0.9-2.5-2.2-2.9-3.8c-0.4-1-0.5-2.1-0.5-3.2l0,0
	c0-0.3,0-0.6,0.1-0.8c0.2-0.4,0.5-0.9,0.8-1.2c0.4-0.5,0.8-1,1.2-1.4c0.8-0.9,1.6-1.8,2.6-2.6c1-0.8,2.1-1.2,3.3-1.3
	c0.5,0,0.9,0,1.4,0.1c1.4,0.2,2.9,0.4,4.4,0.6s2.7,1.9,3.5,3.1c0.5,0.6,0.8,1.3,1.1,2C163.8,97.9,163.9,99.5,163.5,101.1z"/>
<path id="Path_6554" class="st11" d="M158.7,97.9c-0.4,0.6-0.6,1.3-0.5,2c0,0.6,0,1.2,0,1.8c0,0.6,0,1.2,0.1,1.8
	c0.1,0.4,0.1,0.9,0.1,1.3s-0.2,0.9-0.5,1.2c-0.5,0.4-1.3,0.2-1.7,0.7l-0.2,0.4c-0.4,0.3-0.9,0.3-1.3,0c-0.3-0.4-0.6-0.8-0.8-1.2
	c-0.4-0.8-0.8-1.5-1.4-2.1l-0.6-0.3l-0.3,0.2c-0.3,0.3-0.7,0.5-1.1,0.6l-0.4,0.1l-0.5,0.9c-0.3,0.3-0.8,0.1-1.1-0.1
	c-1.4-0.9-2.5-2.2-2.9-3.8c-0.4-1-0.5-2.1-0.5-3.2c0.1,0.8,0.5,1.5,1.1,2c0.7,0.6,1.6,0.8,2.5,0.6c0.4,0,0.8-0.2,1.2-0.2
	c1.2-0.1,2.2,1,3.4,1.4l0.6,0.1c0.4-0.1,0.7-0.3,1-0.6c0.6-0.8,1.1-1.7,1.3-2.6c0.3-1,1-1.7,2-2.1c1.2-0.2,2.4,0.6,2.7,1.9l0.1,0.7
	l-0.1-0.4c-0.2-0.5-0.6-1.2-1.1-1.2C159.2,97.5,158.9,97.6,158.7,97.9z"/>
<path id="Path_6555" class="st10" d="M185.8,129.1c-0.5-0.1-1-0.3-1.5-0.5c-0.9-0.3-1.9-0.4-2.9-0.6c-1.4-0.3-2.8-0.7-4.1-1.3
	c-1.6-0.9-3.1-1.9-4.4-3.2c-1.4-1.2-3-2-4.8-2.3c-1-0.1-2.1,0.1-3-0.4c-0.7-0.4-1.1-1.1-1.3-1.9l-0.2-0.6c0-0.3-0.1-0.6-0.2-0.8
	c-0.2-0.3-0.4-0.6-0.6-0.8c-0.9-1-1.2-2.4-1-3.7v-0.7l-0.4-0.5c-0.7-0.8-0.8-2.1-0.3-3c-0.4-0.1-0.8-0.4-1-0.8
	c-0.1-0.4-0.1-0.9,0-1.3c0.3-1.2,1.2-2.2,2.3-2.7s2.4-0.7,3.6-0.6c3.3,0.2,6.5,1.4,9.1,3.5c1.1,0.8,2.1,1.6,2.9,2.6s1.5,2.2,2.3,3.3
	c0.8,1.1,1.7,2,2.8,2.8c1.5,1.1,3,2.1,4.6,3c0.3,0.2,0.6,0.4,0.7,0.7l-0.1,0.5c-0.7,2-0.9,4.1-0.5,6.1
	C188.1,127.6,187.9,129.4,185.8,129.1z"/>
<path id="Path_6556" class="st11" d="M185.8,129.1c-0.5-0.1-1-0.3-1.5-0.5c-0.9-0.3-1.9-0.4-2.9-0.6c-1.4-0.3-2.8-0.7-4.1-1.3
	c-1.6-0.9-3.1-1.9-4.4-3.2c-1.4-1.2-3-2-4.8-2.3c-1-0.1-2.1,0.1-3-0.4c-0.7-0.4-1.1-1.1-1.3-1.9c0.7,0,1.4,0,2.1-0.1
	c0.8-0.2,1.6-0.3,2.4-0.3c1.7,0.1,3.4,0.7,4.8,1.7c1.4,1,3,1.8,4.7,2.3c1.7,0.3,3.7-0.1,4.6-1.6c1-1.7,0.2-3.6,0.7-5.3
	c1.5,1.1,3,2.1,4.7,3c0.3,0.2,0.6,0.4,0.7,0.7l-0.1,0.5c-0.7,2-0.9,4.1-0.5,6.1C188.1,127.6,187.9,129.4,185.8,129.1z"/>
<path id="Path_6557" class="st8" d="M236.2,148.9c-1.1,1.6-2.8,2.7-4.6,3.1c-1.7,0.2-3.4-0.4-5-0.9c-2-0.6-4.1-1.4-6.1-2.2
	c-11.4-4.4-38.2-18.6-39.3-19.5l-0.5-0.5l0.1-0.7l0.5-0.1c0.8-0.3,1.6-0.8,2.1-1.5l0.4-0.5c0.7-1,1.2-2,1.5-3.2
	c0.4-1.9,0.2-3.8-0.7-5.5c-0.2-0.3-0.3-0.8-0.3-1.2c0.2-0.7,0.7-0.6,1.3-0.5c1.8,0.4,3.6,0.7,5.4,1.1c1.9,0.5,3.7,0.9,5.5,1.4
	c3.7,0.9,7.4,2,11,3.1c0.7,0.2,1.5,0.5,2.3,0.7c1.6,0.5,3.1,1,4.7,1.6s3.5,1.5,2.8-1.2c-2.9-11.7-5-23.5-1.8-35.4
	c1.5-5.9,5.7-11.6,11.7-13.4l0.3-0.1c7.7-2,11.3,7.8,13.4,13.6c1.6,5.1,2.5,10.4,2.6,15.8c0.4,8.1,0.1,16.2-0.9,24.3
	C241.5,134.3,241,143,236.2,148.9z"/>
<path id="Path_6558" class="st9" d="M230.9,152.1c-1.5-0.1-2.9-0.4-4.3-0.9c-2-0.6-4.1-1.4-6.1-2.2c-0.5-0.2-1-0.4-1.5-0.6
	c-12-5-36.8-18.1-37.8-18.9l-0.5-0.5l0.1-0.7l0.5-0.1c0.8-0.3,1.6-0.8,2.1-1.5c6.3,1.9,12.2,5.2,18.2,8.1c6.7,3.2,13.7,6.2,21.1,6.4
	c0.2,0,0.4,0,0.6,0c0.9,0.1,1.9-0.2,2.7-0.6c3.7-2.4-2.1-7-3.7-8.7l-0.3-0.6c0-0.3,0.3-0.6,0.6-0.6h0.1c0.3,0,0.5,0.1,0.8,0.2
	c1.4,0.8,2.7,1.8,3.8,3s2.4,2.1,4,2.6c0.4,0.1,0.8,0.2,1.2,0.2c3.6,0,3.7-5,4-7.8c0.5-4.9,0.6-9.9,0.5-14.9c-0.1-4.8,0-9.6-0.4-14.3
	c-0.6-6.7-1.1-14-4.3-20.1c-1.2-2.3-2.9-4.3-4.9-6c0.6-0.2,1.3-0.3,2-0.3c6.3,0,9.5,8.6,11.4,13.9c1.6,5.1,2.5,10.4,2.6,15.8
	c0.1,2.3,0.2,4.5,0.2,6.8c0,5.8-0.4,11.7-1.1,17.4c-0.9,7.3-1.4,16-6.2,21.9c-1.1,1.6-2.8,2.7-4.6,3.1
	C231.4,152.1,231.1,152.1,230.9,152.1z"/>
<path id="Path_6559" class="st9" d="M231.1,69.8l-0.4,0.4c-0.4,0.2-0.8-0.2-1.1-0.5c-1.6-1.1-3.7-1.5-5.5-0.8
	c-1.8,0.6-3.6,1.4-5.3,2.4c-5,2.5-10.4,4-16,4.2c-3.6,0.2-7.2-0.1-10.7-1c-2.3-0.5-4.5-1.4-6.5-2.8c-0.3-0.2-0.6-0.5-0.9-0.8
	c-2.6-2.6-2.9-6.2-1.7-9.8c0.5-1.4,1.4-2.6,1.8-4c0.6-2.1,0.8-4.2,2.1-6c1.3-1.7,3-3.1,4.8-4.2c2.5-1.7,5.2-3.2,8.1-4.2
	c1.5-0.5,3-0.9,4.6-1.1c1.8-0.3,3.7-0.4,5.5-0.4c3.8-0.2,7.6,0.5,11.1,2.1c3.4,1.7,6.3,4.7,7.1,8.5c0.3,1.6,0.1,3.4,0.7,5
	c1.2,3.1,3.1,5.3,3.3,8.7C232.3,67,231.9,68.5,231.1,69.8z"/>
<path id="Path_6560" class="st9" d="M202.8,75.5c1.2-1.6,2-3.4,2.2-5.4c0.1-1.6-0.2-3.3-0.8-4.8c-0.2-0.5-0.4-0.9-0.7-1.3l0.7-0.1
	c2.4-0.5,4.7-1.4,6.9-2.4c1.9-0.9,3.8-2,4.7-3.9c0.2-0.4,0.3-0.8,0.3-1.2c-0.1-1.4-0.8-2.7-1.9-3.6c-0.8-0.7-1.5-1.5-2.2-2.3
	c-1.1-1.7-2-3.4-2.7-5.3c0.7-0.7,1.3-1.6,1.7-2.5c0.2-0.4,0.3-0.8,0.4-1.2c3.4,0,6.7,0.7,9.8,2c3.4,1.7,6.3,4.7,7.1,8.5
	c0.3,1.6,0.1,3.4,0.7,5c1.2,3.1,3.1,5.3,3.3,8.7c0,0.2,0,0.5,0,0.7c0,1.3-0.3,2.5-1,3.6l-0.4,0.4c-0.1,0-0.1,0-0.2,0l0,0
	c-0.4-0.1-0.7-0.2-0.9-0.5c-1-0.8-2.2-1.2-3.5-1.1c-0.7,0-1.4,0.1-2.1,0.3c-1.8,0.6-3.6,1.4-5.3,2.4
	C213.8,73.8,208.4,75.2,202.8,75.5z"/>
<path id="Path_6561" class="st10" d="M215.7,57.4c-0.8,1.9-2.8,3.1-4.7,3.9c-2.2,1.1-4.5,1.9-6.9,2.4l-0.8,0.2
	c-1.9,0.4-3.8,0.5-5.7,0.3c-0.9,0-1.9-0.3-2.7-0.8c-0.3-0.2-0.5-0.4-0.6-0.7c0-0.3,0-0.6,0-0.9c0.2-0.8,0.2-1.5,0.1-2.3
	c-0.2-0.7-0.3-1.5-0.3-2.3c0.2-1,0.8-2,1.6-2.6c0.8-0.7,1.7-1.3,2.5-1.8c2.2-1.5,4.2-3.4,5.8-5.5c1.1-1.4,2-2.8,2.8-4.4
	c0.3-0.6,0.5-1.2,0.8-1.8c-0.1,0.4,0,0.9,0.1,1.3c0.2,0.7,0.5,1.3,0.9,1.9c1,2,1.7,4.2,3,5.9c0.7,0.8,1.4,1.6,2.2,2.3
	C215.4,53.8,216.5,55.7,215.7,57.4z"/>
<path id="Path_6563" class="st10" d="M210.8,42.4c-0.7,1.4-1.7,2.7-2.9,3.8c-0.8,0.6-1.4,1.4-1.8,2.2c-0.4,1.1-0.1,2.4-0.5,3.6
	c-0.3,1-0.6,1.9-1.2,2.8c-0.5,0.7-1.2,1.4-1.9,1.9c-3.9,3.3-8.2,6.3-13.1,7.6c-0.8,0.3-1.7,0.4-2.6,0.3c-0.5,0-1-0.2-1.5-0.4
	c-0.5-0.3-0.9-0.7-1.2-1.1c-1-1-1.9-1.9-2.9-2.8c-0.8-0.7-1.1-1.7-2.1-2.2c-0.9-0.4-2-0.2-2.8-0.7c-0.7-0.5-1-1.3-1-2.1
	s0.1-1.6,0.4-2.4c0.5-1.9,0.4-4-0.4-5.8c-0.7-1.5-2.1-2.6-2.8-4.2c-0.5-1.3-0.7-2.6-0.7-3.9c-0.1-2.9,0.2-5.8-0.2-8.7
	c-0.3-2.6,0.5-4.2,2.9-5.3c5.6-2.4,11.8-2.9,17.7-1.4c2.4,0.5,4.6,1.4,6.6,2.7c1.4,0.9,2.5,2.2,3.3,3.6c0.4,0.6,0.7,1.3,0.9,2
	c0.4,1.4,0.6,3.1,1.9,3.7c0.6,0.2,1.2,0.3,1.8,0.3c0.7,0.1,1.4,0.3,2,0.5c0.7,0.2,1.5-0.1,2.1,0.5c0.2,0.3,0.4,0.6,0.5,0.9
	C211.6,39.4,211.4,41,210.8,42.4z"/>
<path id="Path_6565" class="st17" d="M212,15.8c-0.4,1.1-1,2-1.8,2.8c-0.7,0.7-1.4,1.2-2.2,1.8l-0.7,0.5c-2.4,1.5-5.2,2.4-8.1,2.6
	c-1.7,0.1-3.4-0.1-5-0.7c-2-0.9-3.9-3.5-4.8-5.4c-0.4-0.9-0.6-1.8-0.7-2.7c-0.1-0.8-0.2-1.7-0.1-2.5V12c0-0.6,0.1-1.1,0.2-1.7
	c0.2-1.3,0.7-2.5,1.3-3.6c2.5-5,8.1-7.6,13.5-6.4c1.1,0.2,2.1,0.6,3.1,1l0.7,0.4c1.6,1,3,2.4,3.9,4.1c0.5,0.9,0.9,1.9,1.1,3
	C213.1,11,212.9,13.6,212,15.8z"/>
<path id="Path_6566" class="st17" d="M210.8,18c-0.3-0.4-0.6-0.9-1-1.3l-0.2-0.2c-3.5-4-8.2-6.7-13.5-7.5l-0.4-0.1
	c1.8-0.4,3.5-1,5.1-1.9c1.8-1,3.3-2.3,4.6-3.8l0.5-0.7c0.3-0.4,0.6-0.9,0.9-1.3l0.7,0.4c1.6,1,3,2.4,3.9,4.1c0.5,0.9,0.9,1.9,1.1,3
	c0.2,0.9,0.3,1.7,0.3,2.6c0,1.6-0.3,3.1-0.9,4.6C211.7,16.6,211.3,17.4,210.8,18z"/>
<path id="Path_6567" d="M213.7,33.2c-0.2,1.3-0.6,2.6-1,3.9c-0.2,0.6-0.5,1.3-0.7,2c-0.3,0.6-0.6,1.2-0.8,1.9
	c0.3-1.3-0.2-2.7-1.3-3.6c-1-0.5-2.3-0.4-3.2,0.3c-1.2,1-2,2.4-2.2,3.9c-0.3,1.7-0.3,3.5-0.6,5.2c-1.9-2.8-4.4-5.2-7.4-6.8
	c-1.4-0.8-3-1.5-3.6-2.9c-0.3-0.8-0.4-1.6-0.7-2.3c-0.3-0.6-0.7-1.1-1.2-1.5c-1.3-0.9-2.9-1.2-4.4-1c-2.2,0.3-4.2,1.4-6.3,2
	s-4.7,0.6-6.3-0.9c-0.4-0.5-0.8-0.9-1.3-1.3l-0.2-0.1c-0.4-0.2-1-0.2-1.3-0.6s-0.2-1-0.1-1.5c0-2.4,0.5-4.8,1.4-7.1
	c0.8-2.1,1.9-4,3.1-5.8c2.3-3.2,5.4-5.7,9-7.2c3.7-1.3,7.7-1.6,11.5-0.8c5.2,0.9,10,3.6,13.5,7.5l0.2,0.2c2.4,3,3.9,6.7,4.2,10.6
	C214.2,29.3,214.1,31.3,213.7,33.2z"/>
<path id="Path_6568" d="M204,46.9c-1.9-2.8-4.4-5.2-7.4-6.8c-1.4-0.8-3-1.5-3.6-2.9c-0.3-0.8-0.4-1.6-0.7-2.3
	c-0.3-0.6-0.7-1.1-1.2-1.5c2.7-0.1,5.4-0.8,7.9-1.9l0.5-0.2c3.2-1.5,5.9-4,7.7-7.1c1.2-2.4,2-4.9,2.5-7.5l0.2,0.2
	c2.4,3,3.9,6.7,4.2,10.6c0.1,0.6,0.1,1.2,0.1,1.8c0,1.3-0.1,2.7-0.4,4c-0.2,1.3-0.6,2.6-1,3.9c-0.2,0.6-0.5,1.3-0.7,2
	c-0.3,0.6-0.6,1.2-0.8,1.9c0-0.3,0.1-0.5,0.1-0.8c0.1-1.1-0.4-2.2-1.3-2.8c-0.4-0.2-0.9-0.3-1.3-0.3c-0.7,0-1.3,0.2-1.9,0.7
	c-1.2,1-2,2.4-2.2,3.9C204.2,43.4,204.3,45.1,204,46.9z"/>
<path id="Path_6569" class="st2" d="M176.3,274.1c-4.9,0.1-9.8-1-14.3-3.1c-7.6-3.7-13-10.7-15.6-20.2c-3.7-13.7-0.5-30.5,9.3-48.6
	c9.3-17.5,23.2-32,40.1-42.2c3.4-2,6.9-3.9,10.4-5.6c5.6-2.6,11.4-4.8,17-7c5.7-2.2,11.6-4.4,17-7c15.4-7.4,26.1-19,31.8-34.5
	c6-16.2,6.9-33.8,2.7-50.6c-0.2-0.8-0.4-1.5-0.6-2.3c-0.8-2.6,0.6-5.3,3.1-6.2h0.1c2.6-0.9,5.5,0.4,6.4,3c0,0.1,0.1,0.2,0.1,0.3
	c0.3,0.9,0.5,1.8,0.7,2.7c4.7,18.7,3.7,38.5-3,56.6c-6.6,17.8-19.3,31.7-36.9,40.1c-5.9,2.8-12,5.1-17.8,7.4
	c-5.4,2.1-11,4.2-16.3,6.7c-3.2,1.5-6.4,3.2-9.5,5.1c-15.4,9.2-28,22.5-36.5,38.3c-6,11-12.3,27.1-8.5,41.2
	c1.8,6.7,5.3,11.4,10.2,13.8c7,3.4,17.5,2.5,29.4-2.6c10-4.3,19.5-9.6,28.4-15.8c22.4-15.4,41.7-35.2,60-55.2
	c4.2-4.6,8.3-9.2,12.4-13.9c2.4-2.7,7.8-7.2,11.2-2.7c2,2.7,0.3,4.9-1.4,6.9c-2.2,2.5-4.4,5-6.7,7.5c-4.5,5.1-9.1,10.1-13.8,15.1
	c-9.3,10-18.9,19.8-29.1,29c-8.5,7.8-17.4,14.9-26.9,21.5c-9.5,6.6-19.6,12.2-30.2,16.8C191.2,272.3,183.3,274.1,176.3,274.1z"/>
<path id="Path_6570" class="st3" d="M274.8,55c0.6-1,1.5-1.7,2.5-2.1h0.1c2.6-0.9,5.5,0.4,6.4,3c0,0.1,0.1,0.2,0.1,0.3
	c0.3,0.9,0.5,1.8,0.7,2.7c1.7,6.6,2.6,13.4,2.8,20.2c0.3-8.9-0.7-17.7-2.8-26.3c-0.2-0.9-0.5-1.8-0.7-2.7c-0.8-2.7-3.6-4.2-6.2-3.4
	c-0.1,0-0.2,0.1-0.3,0.1h-0.1c-2.5,0.9-3.9,3.6-3.1,6.2C274.4,53.7,274.6,54.3,274.8,55z"/>
<path id="Path_6571" class="st3" d="M224.2,243.5c-8.9,6.2-18.5,11.5-28.4,15.8c-11.9,5.1-22.4,6-29.4,2.6c-5-2.4-8.4-7.1-10.2-13.8
	c-0.5-2-0.9-4-1-6.1c-0.4,4.1,0,8.2,1,12.2c1.8,6.7,5.3,11.4,10.2,13.8c7,3.4,17.5,2.5,29.4-2.6c10-4.3,19.5-9.6,28.4-15.8
	c22.4-15.4,41.7-35.2,60-55.2c4.2-4.6,8.3-9.2,12.4-13.9c2.3-2.6,7.4-6.8,10.7-3.2c1.3-1.7,2-3.6,0.4-5.7c-3.4-4.5-8.7,0-11.2,2.7
	c-4.1,4.6-8.2,9.3-12.4,13.9C265.9,208.4,246.6,228.1,224.2,243.5z"/>
<path id="Path_6572" class="st3" d="M155.7,208.3c9.3-17.5,23.2-32,40.1-42.2c3.4-2,6.9-3.9,10.4-5.6c5.6-2.6,11.4-4.8,17-7
	c5.7-2.2,11.6-4.4,17-7c15.4-7.4,26.1-19,31.8-34.5c3.9-10.5,5.6-21.7,5.2-32.9c-0.3,9.1-2.1,18.2-5.2,26.7
	c-5.7,15.5-16.4,27.1-31.8,34.5c-5.5,2.6-11.4,4.9-17,7s-11.4,4.3-17,7c-3.5,1.7-7,3.5-10.4,5.6c-17,10.2-30.8,24.7-40.1,42.2
	c-7.8,14.5-11.4,28.1-10.7,40C145.6,231.8,149.2,220.4,155.7,208.3z"/>
<path class="st18" d="M176.4,307.7c0,12.5-10.1,22.6-22.6,22.6s-22.6-10.1-22.6-22.6s10.1-22.6,22.6-22.6l0,0
	C166.2,285.1,176.4,295.2,176.4,307.7z"/>
<path id="Path_6573" class="st19" d="M176.4,307.7c0,12.5-10.1,22.6-22.6,22.6s-22.6-10.1-22.6-22.6s10.1-22.6,22.6-22.6l0,0
	C166.2,285.1,176.4,295.2,176.4,307.7z"/>
<g>
	<g>
		<g>
			<defs>
				<path id="SVGID_1_" d="M176.4,307.7c0,12.5-10.1,22.6-22.6,22.6s-22.6-10.1-22.6-22.6s10.1-22.6,22.6-22.6l0,0
					C166.2,285.1,176.4,295.2,176.4,307.7z"/>
			</defs>
			<clipPath id="SVGID_00000023974554900355218790000013526326655335530629_">
				<use xlink:href="#SVGID_1_"  style="overflow:visible;"/>
			</clipPath>
			<path id="Path_6574" style="clip-path:url(#SVGID_00000023974554900355218790000013526326655335530629_);fill:#F7D046;" d="
				M152.2,302.8c-7.4,0-14.7-1.8-21.3-5.2l1.1-2.1c10.9,5.5,23.5,6.5,33.7,2.5c7.6-3,13.9-8.5,19.8-13.9l1.6,1.7
				c-6,5.5-12.5,11.2-20.5,14.3C161.9,302,157.1,302.9,152.2,302.8z"/>
		</g>
	</g>
	<g>
		<g>
			<defs>
				<path id="SVGID_00000010297750085983742800000010507566873704243341_" d="M176.4,307.7c0,12.5-10.1,22.6-22.6,22.6
					s-22.6-10.1-22.6-22.6s10.1-22.6,22.6-22.6l0,0C166.2,285.1,176.4,295.2,176.4,307.7z"/>
			</defs>
			<clipPath id="SVGID_00000092448617989049417050000011934645767207680658_">
				<use xlink:href="#SVGID_00000010297750085983742800000010507566873704243341_"  style="overflow:visible;"/>
			</clipPath>
			<path id="Path_6575" style="clip-path:url(#SVGID_00000092448617989049417050000011934645767207680658_);fill:#F7D046;" d="
				M151.4,299.1c-7.4,0.3-14.8-1.1-21.5-4.1l0.9-2.1c11.2,5,23.8,5.3,33.8,0.8c7.4-3.4,13.5-9.2,19-14.9l1.7,1.6
				c-5.7,5.8-11.9,11.8-19.8,15.4C161,297.8,156.2,298.9,151.4,299.1z"/>
		</g>
	</g>
	<g>
		<g>
			<defs>
				<path id="SVGID_00000164503052011959555380000014409407307304380341_" d="M176.4,307.7c0,12.5-10.1,22.6-22.6,22.6
					s-22.6-10.1-22.6-22.6s10.1-22.6,22.6-22.6l0,0C166.2,285.1,176.4,295.2,176.4,307.7z"/>
			</defs>
			<clipPath id="SVGID_00000044156668647010922810000015102338728471026619_">
				<use xlink:href="#SVGID_00000164503052011959555380000014409407307304380341_"  style="overflow:visible;"/>
			</clipPath>
			<path id="Path_6576" style="clip-path:url(#SVGID_00000044156668647010922810000015102338728471026619_);fill:#F7D046;" d="
				M150.8,308.8c-7.4,0-14.7-1.8-21.3-5.2l1-2.1c10.9,5.5,23.5,6.5,33.7,2.5c7.6-3,13.9-8.5,19.8-13.9l1.6,1.7
				c-6,5.5-12.5,11.2-20.5,14.3C160.5,307.9,155.7,308.8,150.8,308.8z"/>
		</g>
	</g>
	<g>
		<g>
			<defs>
				<path id="SVGID_00000075870334969945095640000012344512699858337200_" d="M176.4,307.7c0,12.5-10.1,22.6-22.6,22.6
					s-22.6-10.1-22.6-22.6s10.1-22.6,22.6-22.6l0,0C166.2,285.1,176.4,295.2,176.4,307.7z"/>
			</defs>
			<clipPath id="SVGID_00000011004417401047018890000008755541858483748496_">
				<use xlink:href="#SVGID_00000075870334969945095640000012344512699858337200_"  style="overflow:visible;"/>
			</clipPath>
			<path id="Path_6577" style="clip-path:url(#SVGID_00000011004417401047018890000008755541858483748496_);fill:#F7D046;" d="
				M148.6,313.8c-7.4-0.4-14.6-2.5-21-6.2l1.1-2c10.7,6.1,23.2,7.6,33.6,4.1c7.7-2.6,14.3-7.8,20.4-12.9l1.5,1.8
				c-6.3,5.2-13,10.6-21.2,13.3C158.3,313.5,153.4,314.1,148.6,313.8z"/>
		</g>
	</g>
	<g>
		<g>
			<defs>
				<path id="SVGID_00000050624231203398307470000004884427581273150141_" d="M176.4,307.7c0,12.5-10.1,22.6-22.6,22.6
					s-22.6-10.1-22.6-22.6s10.1-22.6,22.6-22.6l0,0C166.2,285.1,176.4,295.2,176.4,307.7z"/>
			</defs>
			<clipPath id="SVGID_00000138536102565677540590000005844796339101034163_">
				<use xlink:href="#SVGID_00000050624231203398307470000004884427581273150141_"  style="overflow:visible;"/>
			</clipPath>
			<path id="Path_6578" style="clip-path:url(#SVGID_00000138536102565677540590000005844796339101034163_);fill:#F7D046;" d="
				M148.1,318.8c-7.4-0.4-14.6-2.5-21-6.2l1.2-2c10.7,6.1,23.2,7.6,33.6,4.1c7.7-2.6,14.3-7.8,20.4-12.9l1.5,1.8
				c-6.3,5.2-13,10.6-21.2,13.3C157.9,318.4,153,319.1,148.1,318.8z"/>
		</g>
	</g>
	<g>
		<g>
			<defs>
				<path id="SVGID_00000005239009035885479980000004943569242651680699_" d="M176.4,307.7c0,12.5-10.1,22.6-22.6,22.6
					s-22.6-10.1-22.6-22.6s10.1-22.6,22.6-22.6l0,0C166.2,285.1,176.4,295.2,176.4,307.7z"/>
			</defs>
			<clipPath id="SVGID_00000121241124948753159360000016430234410630967723_">
				<use xlink:href="#SVGID_00000005239009035885479980000004943569242651680699_"  style="overflow:visible;"/>
			</clipPath>
			<path id="Path_6579" style="clip-path:url(#SVGID_00000121241124948753159360000016430234410630967723_);fill:#F7D046;" d="
				M149.5,323.4c-7.4-0.4-14.6-2.5-21-6.2l1.1-2c10.7,6.1,23.2,7.6,33.6,4.1c7.7-2.6,14.3-7.8,20.4-12.9l1.5,1.8
				c-6.3,5.2-13,10.6-21.2,13.3C159.3,323,154.4,323.7,149.5,323.4z"/>
		</g>
	</g>
	<g>
		<g>
			<defs>
				<path id="SVGID_00000166670268575698252480000005487774163973923247_" d="M176.4,307.7c0,12.5-10.1,22.6-22.6,22.6
					s-22.6-10.1-22.6-22.6s10.1-22.6,22.6-22.6l0,0C166.2,285.1,176.4,295.2,176.4,307.7z"/>
			</defs>
			<clipPath id="SVGID_00000169549538890312469270000006875404760088926384_">
				<use xlink:href="#SVGID_00000166670268575698252480000005487774163973923247_"  style="overflow:visible;"/>
			</clipPath>
			<path id="Path_6580" style="clip-path:url(#SVGID_00000169549538890312469270000006875404760088926384_);fill:#F7D046;" d="
				M149.5,328.2c-7.4-0.4-14.6-2.5-21-6.2l1.1-2c10.7,6.1,23.2,7.6,33.6,4.1c7.7-2.6,14.3-7.8,20.4-12.9l1.5,1.8
				c-6.3,5.2-13,10.6-21.2,13.3C159.3,327.9,154.4,328.5,149.5,328.2z"/>
		</g>
	</g>
	<g>
		<g>
			<defs>
				<path id="SVGID_00000059268115716097133120000005045997437531409536_" d="M176.4,307.7c0,12.5-10.1,22.6-22.6,22.6
					s-22.6-10.1-22.6-22.6s10.1-22.6,22.6-22.6l0,0C166.2,285.1,176.4,295.2,176.4,307.7z"/>
			</defs>
			<clipPath id="SVGID_00000057149334549337226860000017768518852450667665_">
				<use xlink:href="#SVGID_00000059268115716097133120000005045997437531409536_"  style="overflow:visible;"/>
			</clipPath>
			<path id="Path_6581" style="clip-path:url(#SVGID_00000057149334549337226860000017768518852450667665_);fill:#F7D046;" d="
				M146.6,305.1c-5.8-4.6-10.4-10.5-13.5-17.3l2.1-1c5.2,11.1,14.5,19.6,24.9,22.8c7.8,2.4,16.2,2,24.1,1.3l0.2,2.3
				c-8.1,0.6-16.8,1.1-25-1.4C154.8,310.5,150.4,308.1,146.6,305.1z"/>
		</g>
	</g>
	<g>
		<g>
			<defs>
				<path id="SVGID_00000155861100602499841270000011598869911139997066_" d="M176.4,307.7c0,12.5-10.1,22.6-22.6,22.6
					s-22.6-10.1-22.6-22.6s10.1-22.6,22.6-22.6l0,0C166.2,285.1,176.4,295.2,176.4,307.7z"/>
			</defs>
			<clipPath id="SVGID_00000024001989125115859850000006163871937471736461_">
				<use xlink:href="#SVGID_00000155861100602499841270000011598869911139997066_"  style="overflow:visible;"/>
			</clipPath>
			<path id="Path_6582" style="clip-path:url(#SVGID_00000024001989125115859850000006163871937471736461_);fill:#F7D046;" d="
				M137.9,317c-5.8-4.6-10.4-10.5-13.5-17.3l2.1-1c5.2,11.1,14.5,19.6,24.9,22.8c7.8,2.4,16.2,2,24.1,1.3l0.2,2.3
				c-8.1,0.6-16.8,1.1-25-1.4C146.1,322.4,141.7,320,137.9,317z"/>
		</g>
	</g>
	<g>
		<g>
			<defs>
				<path id="SVGID_00000179620887923969780950000001828305189864647589_" d="M176.4,307.7c0,12.5-10.1,22.6-22.6,22.6
					s-22.6-10.1-22.6-22.6s10.1-22.6,22.6-22.6l0,0C166.2,285.1,176.4,295.2,176.4,307.7z"/>
			</defs>
			<clipPath id="SVGID_00000177486460210280430760000001243580663151840650_">
				<use xlink:href="#SVGID_00000179620887923969780950000001828305189864647589_"  style="overflow:visible;"/>
			</clipPath>
			<path id="Path_6583" style="clip-path:url(#SVGID_00000177486460210280430760000001243580663151840650_);fill:#F7D046;" d="
				M143.3,308.3c-5.8-4.6-10.4-10.5-13.5-17.3l2.1-1c5.2,11.1,14.5,19.6,24.9,22.8c7.8,2.4,16.2,2,24.1,1.3l0.2,2.3
				c-8.1,0.6-16.8,1.1-25-1.4C151.5,313.6,147.1,311.3,143.3,308.3z"/>
		</g>
	</g>
	<g>
		<g>
			<defs>
				<path id="SVGID_00000103230423980212550110000014532518199705767599_" d="M176.4,307.7c0,12.5-10.1,22.6-22.6,22.6
					s-22.6-10.1-22.6-22.6s10.1-22.6,22.6-22.6l0,0C166.2,285.1,176.4,295.2,176.4,307.7z"/>
			</defs>
			<clipPath id="SVGID_00000052808424742145232370000011678856216261311115_">
				<use xlink:href="#SVGID_00000103230423980212550110000014532518199705767599_"  style="overflow:visible;"/>
			</clipPath>
			<path id="Path_6584" style="clip-path:url(#SVGID_00000052808424742145232370000011678856216261311115_);fill:#F7D046;" d="
				M141.9,313.3c-5.8-4.6-10.4-10.5-13.5-17.3l2.1-1c5.2,11.1,14.5,19.6,24.9,22.8c7.8,2.4,16.2,2,24.1,1.3l0.2,2.3
				c-8.1,0.6-16.8,1.1-25-1.4C150.1,318.6,145.7,316.3,141.9,313.3z"/>
		</g>
	</g>
	<g>
		<g>
			<defs>
				<path id="SVGID_00000123420497898643408850000000736632698831060879_" d="M176.4,307.7c0,12.5-10.1,22.6-22.6,22.6
					s-22.6-10.1-22.6-22.6s10.1-22.6,22.6-22.6l0,0C166.2,285.1,176.4,295.2,176.4,307.7z"/>
			</defs>
			<clipPath id="SVGID_00000155824948199060525440000013842915550665383340_">
				<use xlink:href="#SVGID_00000123420497898643408850000000736632698831060879_"  style="overflow:visible;"/>
			</clipPath>
			<path id="Path_6585" style="clip-path:url(#SVGID_00000155824948199060525440000013842915550665383340_);fill:#F7D046;" d="
				M136.6,322.4c-6-4.4-10.8-10.1-14.1-16.8l2.1-1.1c5.6,10.9,15.2,19.1,25.7,21.9c7.9,2.1,16.3,1.4,24.1,0.5l0.3,2.3
				c-8.1,0.9-16.7,1.7-25-0.5C144.9,327.4,140.5,325.3,136.6,322.4z"/>
		</g>
	</g>
	<g>
		<g>
			<defs>
				<path id="SVGID_00000013904057837103552100000005361209701286055342_" d="M176.4,307.7c0,12.5-10.1,22.6-22.6,22.6
					s-22.6-10.1-22.6-22.6s10.1-22.6,22.6-22.6l0,0C166.2,285.1,176.4,295.2,176.4,307.7z"/>
			</defs>
			<clipPath id="SVGID_00000002375324557345350550000017986795279542452381_">
				<use xlink:href="#SVGID_00000013904057837103552100000005361209701286055342_"  style="overflow:visible;"/>
			</clipPath>
			<path id="Path_6586" style="clip-path:url(#SVGID_00000002375324557345350550000017986795279542452381_);fill:#F7D046;" d="
				M148.6,301.6c-5.8-4.6-10.4-10.5-13.5-17.3l2.1-1c5.2,11.1,14.5,19.6,24.9,22.8c7.8,2.4,16.2,2,24.1,1.3l0.2,2.3
				c-8.1,0.6-16.8,1.1-25-1.4C156.7,307,152.4,304.7,148.6,301.6z"/>
		</g>
	</g>
	<g>
		<g>
			<defs>
				<path id="SVGID_00000031886471306892201590000009439106959042994609_" d="M176.4,307.7c0,12.5-10.1,22.6-22.6,22.6
					s-22.6-10.1-22.6-22.6s10.1-22.6,22.6-22.6l0,0C166.2,285.1,176.4,295.2,176.4,307.7z"/>
			</defs>
			<clipPath id="SVGID_00000135665824854124675360000003278691183510506134_">
				<use xlink:href="#SVGID_00000031886471306892201590000009439106959042994609_"  style="overflow:visible;"/>
			</clipPath>
			<path id="Path_6587" style="clip-path:url(#SVGID_00000135665824854124675360000003278691183510506134_);fill:#F7D046;" d="
				M149.5,297.2c-6-4.4-10.8-10.2-14-16.9l2.1-1.1c5.5,11.1,15,19.3,25.7,22.1c7.9,2.1,16.4,1.3,24.3,0.3l0.2,2.3
				c-8.2,1-16.9,1.8-25.2-0.4C157.9,302.3,153.4,300.1,149.5,297.2z"/>
		</g>
	</g>
	<g>
		<g>
			<defs>
				<path id="SVGID_00000022560850693007058700000011250361567639631256_" d="M176.4,307.7c0,12.5-10.1,22.6-22.6,22.6
					s-22.6-10.1-22.6-22.6s10.1-22.6,22.6-22.6l0,0C166.2,285.1,176.4,295.2,176.4,307.7z"/>
			</defs>
			<clipPath id="SVGID_00000031887557080775554050000003731736420751169714_">
				<use xlink:href="#SVGID_00000022560850693007058700000011250361567639631256_"  style="overflow:visible;"/>
			</clipPath>
			
				<path id="Path_6588" style="clip-path:url(#SVGID_00000031887557080775554050000003731736420751169714_);fill-rule:evenodd;clip-rule:evenodd;fill:#EDD588;" d="
				M153.3,314.3c-1.1,0-2.3-0.1-3.4-0.4c0.2,0,0.5,0,0.7,0c0.7,0,1.4,0,2-0.1c0.4,0.1,0.7,0.3,1.1,0.4
				C153.6,314.3,153.4,314.3,153.3,314.3z M158.5,313.3c-0.1,0-0.3-0.1-0.4-0.1c0.5-0.1,0.9-0.2,1.4-0.3
				C159.1,313.1,158.8,313.2,158.5,313.3L158.5,313.3z M153.1,311.5c-1.8-0.8-3.6-1.7-5.2-2.8c1,0.1,2,0.1,2.9,0.1
				c0.4,0,0.9,0,1.3,0c1.6,0.9,3.2,1.6,4.9,2.3C155.7,311.3,154.4,311.4,153.1,311.5z M148,311.5c-1.3-0.1-2.5-0.2-3.8-0.4
				c-1.2-0.9-2.2-2.1-3-3.3c0.6,0.1,1.3,0.3,1.9,0.4c0.1,0.1,0.1,0.1,0.2,0.2C144.8,309.4,146.3,310.5,148,311.5L148,311.5z
				 M161.3,310c-0.4-0.1-0.8-0.2-1.2-0.3c-1.2-0.4-2.4-0.8-3.6-1.3c1-0.1,2-0.3,3-0.5c0.6,0.2,1.2,0.4,1.8,0.6
				c0.8,0.3,1.7,0.5,2.5,0.7c-0.6,0.2-1.1,0.4-1.7,0.6C161.9,309.8,161.6,309.9,161.3,310L161.3,310z M165.8,307.1
				c-0.7-0.1-1.4-0.3-2.1-0.5c0.5-0.2,0.9-0.3,1.4-0.5s1-0.4,1.5-0.6C166.4,306.1,166.1,306.6,165.8,307.1L165.8,307.1z
				 M152.7,306.4c-1.9-1.1-3.8-2.4-5.5-3.9c1,0.1,1.9,0.2,2.9,0.2c1.8,1.3,3.6,2.4,5.6,3.4C154.7,306.3,153.7,306.4,152.7,306.4z
				 M148.3,306.4c-1.4-0.1-2.8-0.2-4.3-0.5c-1.9-1.5-3.6-3.2-5.2-5.1c1.4,0.4,2.7,0.8,4.1,1c1.2,1.1,2.4,2.2,3.7,3.2
				C147.2,305.5,147.8,306,148.3,306.4L148.3,306.4z M159.8,305.4c-1.9-0.7-3.7-1.6-5.4-2.7c1.5-0.1,3-0.2,4.5-0.5
				c1.2,0.5,2.5,0.9,3.8,1.2c0.6,0.2,1.2,0.3,1.8,0.4l-0.2,0.1C162.8,304.6,161.3,305.1,159.8,305.4z M167.6,302.1
				c-1.4-0.2-2.8-0.5-4.2-0.8c1-0.3,2.1-0.7,3.1-1c0.5-0.2,0.9-0.4,1.4-0.6v0.1C167.8,300.5,167.8,301.3,167.6,302.1L167.6,302.1z
				 M152.2,300.5c-0.4,0-0.9,0-1.3,0c-0.6-0.4-1.1-0.9-1.7-1.3c0.7,0,1.4,0,2.2-0.1c0.3,0,0.6,0,0.9-0.1c0.8,0.5,1.6,0.9,2.4,1.4
				C153.9,300.5,153,300.5,152.2,300.5z M146.8,300.1c-0.9-0.1-1.8-0.3-2.7-0.4c-0.3-0.3-0.6-0.6-0.9-1c0.8,0.1,1.6,0.2,2.3,0.2
				C145.9,299.4,146.3,299.8,146.8,300.1L146.8,300.1z M159.2,299.9c-1-0.4-1.9-0.8-2.9-1.3c3.2-0.5,6.3-1.5,9.2-2.8
				c0.5-0.2,1-0.5,1.5-0.7c0.2,0.7,0.4,1.4,0.6,2.2c-0.7,0.3-1.3,0.6-2,0.8C163.5,298.9,161.4,299.5,159.2,299.9L159.2,299.9z
				 M140.1,298.8c-0.4-0.1-0.8-0.2-1.2-0.4c0-0.1,0-0.3,0-0.4l0.7,0.2C139.7,298.4,139.9,298.6,140.1,298.8z M149.1,296.8
				c-0.8,0-1.7,0-2.6-0.1c-1.8-1.8-3.4-3.7-4.9-5.7c0.2-0.2,0.4-0.5,0.6-0.7C144.3,292.8,146.6,294.9,149.1,296.8z M153,296.7
				c-3.4-2.2-6.5-4.9-9.1-8c2.6-2.2,6-3.5,9.4-3.5c5.4,0,10.3,3,12.8,7.7c-0.5,0.3-1,0.5-1.6,0.8C160.9,295.3,157,296.3,153,296.7z
				 M143,296.4c-0.7-0.1-1.4-0.2-2.1-0.4c-0.4-0.5-0.8-1-1.1-1.5c0.2-0.5,0.4-0.9,0.6-1.4C141.2,294.3,142,295.4,143,296.4z"/>
		</g>
	</g>
	<g>
		<g>
			<defs>
				<path id="SVGID_00000074426034799491104980000017165790954089493662_" d="M176.4,307.7c0,12.5-10.1,22.6-22.6,22.6
					s-22.6-10.1-22.6-22.6s10.1-22.6,22.6-22.6l0,0C166.2,285.1,176.4,295.2,176.4,307.7z"/>
			</defs>
			<clipPath id="SVGID_00000111871245308233293000000003445315872318033314_">
				<use xlink:href="#SVGID_00000074426034799491104980000017165790954089493662_"  style="overflow:visible;"/>
			</clipPath>
			<path id="Path_6589" style="clip-path:url(#SVGID_00000111871245308233293000000003445315872318033314_);fill:#F7D046;" d="
				M150.1,302.8c-1,0-1.9-0.1-2.9-0.2c-1.1-0.9-2.1-1.8-3.1-2.8c0.9,0.2,1.8,0.3,2.7,0.4c0.6,0.5,1.2,1,1.8,1.5
				C149.1,302,149.6,302.4,150.1,302.8z M154.3,302.8c-1.2-0.7-2.3-1.5-3.4-2.3c0.4,0,0.9,0,1.3,0c0.8,0,1.7,0,2.5-0.1
				c1.3,0.7,2.7,1.3,4.1,1.9C157.3,302.5,155.8,302.7,154.3,302.8L154.3,302.8z M143,301.9c-1.4-0.3-2.7-0.6-4.1-1c0,0,0,0-0.1-0.1
				c0-0.3,0-0.7,0-1c0-0.5,0-0.9,0.1-1.4c0.4,0.1,0.8,0.3,1.2,0.4C141,299.8,141.9,300.9,143,301.9L143,301.9z M163.4,301.3
				L163.4,301.3c-1.5-0.4-2.9-0.8-4.2-1.4c2.2-0.4,4.4-1,6.5-1.8c0.7-0.3,1.3-0.5,2-0.8c0.1,0.8,0.2,1.6,0.2,2.5
				c-0.4,0.2-0.9,0.4-1.4,0.6C165.5,300.6,164.4,301,163.4,301.3L163.4,301.3z"/>
		</g>
	</g>
	<g>
		<g>
			<defs>
				<path id="SVGID_00000022529944879912407320000010022779211062853054_" d="M176.4,307.7c0,12.5-10.1,22.6-22.6,22.6
					s-22.6-10.1-22.6-22.6s10.1-22.6,22.6-22.6l0,0C166.2,285.1,176.4,295.2,176.4,307.7z"/>
			</defs>
			<clipPath id="SVGID_00000003789150421548849480000008000305251762361227_">
				<use xlink:href="#SVGID_00000022529944879912407320000010022779211062853054_"  style="overflow:visible;"/>
			</clipPath>
			<path id="Path_6590" style="clip-path:url(#SVGID_00000003789150421548849480000008000305251762361227_);fill:#F7D046;" d="
				M149.2,299.2c-0.9-0.8-1.8-1.6-2.7-2.4c0.9,0.1,1.7,0.1,2.6,0.1l0.4,0.3c0.9,0.7,1.8,1.3,2.8,1.9c-0.3,0-0.6,0-0.9,0.1
				C150.6,299.1,149.9,299.2,149.2,299.2z M145.5,299c-0.8-0.1-1.6-0.1-2.3-0.2c-0.8-0.9-1.6-1.8-2.3-2.7c0.7,0.1,1.4,0.3,2.1,0.4
				C143.8,297.3,144.6,298.2,145.5,299L145.5,299z M156.3,298.6c-1.1-0.6-2.2-1.2-3.3-1.9c4-0.4,7.9-1.4,11.6-3
				c0.5-0.2,1.1-0.5,1.6-0.8c0.4,0.7,0.7,1.4,0.9,2.1c-0.5,0.3-1,0.5-1.5,0.7C162.6,297.1,159.5,298,156.3,298.6z M139.6,298.2
				l-0.7-0.2c0-0.2,0.1-0.4,0.1-0.6C139.1,297.7,139.4,297.9,139.6,298.2L139.6,298.2z"/>
		</g>
	</g>
	<g>
		<g>
			<defs>
				<path id="SVGID_00000170993486542416427370000000896868426324154539_" d="M176.4,307.7c0,12.5-10.1,22.6-22.6,22.6
					s-22.6-10.1-22.6-22.6s10.1-22.6,22.6-22.6l0,0C166.2,285.1,176.4,295.2,176.4,307.7z"/>
			</defs>
			<clipPath id="SVGID_00000086662221243664713010000017438005635948222089_">
				<use xlink:href="#SVGID_00000170993486542416427370000000896868426324154539_"  style="overflow:visible;"/>
			</clipPath>
			<path id="Path_6591" style="clip-path:url(#SVGID_00000086662221243664713010000017438005635948222089_);fill:#F7D046;" d="
				M150.8,308.8c-1,0-2,0-2.9-0.1c-1.3-0.8-2.6-1.8-3.8-2.8c1.4,0.2,2.8,0.4,4.3,0.5c1.2,0.9,2.5,1.7,3.8,2.4
				C151.7,308.8,151.2,308.8,150.8,308.8z M156.6,308.4c-1.3-0.6-2.6-1.2-3.9-2c1,0,2-0.1,3-0.3c1.3,0.6,2.6,1.2,3.9,1.7
				C158.6,308.1,157.6,308.2,156.6,308.4z M143.1,308.1c-0.6-0.1-1.3-0.2-1.9-0.4c-0.5-0.8-1-1.6-1.3-2.5
				C140.9,306.3,142,307.2,143.1,308.1z M163.7,306.7c-0.6-0.1-1.1-0.3-1.7-0.5c-0.8-0.2-1.6-0.5-2.3-0.8c1.5-0.4,3-0.8,4.5-1.4
				l0.2-0.1c0.9,0.2,1.8,0.3,2.6,0.5c-0.1,0.4-0.3,0.8-0.4,1.1c-0.5,0.2-1,0.4-1.5,0.6C164.6,306.4,164.2,306.5,163.7,306.7z"/>
		</g>
	</g>
	<g>
		<g>
			<defs>
				<path id="SVGID_00000078038309057781290340000001714405761133894562_" d="M176.4,307.7c0,12.5-10.1,22.6-22.6,22.6
					s-22.6-10.1-22.6-22.6s10.1-22.6,22.6-22.6l0,0C166.2,285.1,176.4,295.2,176.4,307.7z"/>
			</defs>
			<clipPath id="SVGID_00000012459645365253385300000007880602535789215113_">
				<use xlink:href="#SVGID_00000078038309057781290340000001714405761133894562_"  style="overflow:visible;"/>
			</clipPath>
			<path id="Path_6592" style="clip-path:url(#SVGID_00000012459645365253385300000007880602535789215113_);fill:#F7D046;" d="
				M150.6,313.9c-0.2,0-0.5,0-0.7,0c-2.1-0.5-4.1-1.5-5.8-2.8c1.3,0.2,2.5,0.3,3.8,0.4c1.5,0.9,3.1,1.7,4.7,2.4
				C152,313.9,151.3,313.9,150.6,313.9z M158,313.2c-0.4-0.1-0.8-0.2-1.2-0.4c-1.3-0.4-2.5-0.8-3.7-1.4c1.3-0.1,2.6-0.2,3.9-0.4
				c0.8,0.3,1.7,0.6,2.5,0.9c0.4,0.1,0.8,0.2,1.2,0.3c-0.4,0.2-0.8,0.5-1.3,0.7C158.9,313,158.5,313.1,158,313.2L158,313.2z
				 M163.1,310.5c-0.6-0.1-1.2-0.3-1.8-0.4c0.3-0.1,0.6-0.2,0.9-0.3c0.6-0.2,1.1-0.4,1.7-0.6l0.4,0.1
				C163.9,309.6,163.5,310.1,163.1,310.5z"/>
		</g>
	</g>
	<g>
		<g>
			<defs>
				<path id="SVGID_00000049191248161733042180000002780012938711878296_" d="M176.4,307.7c0,12.5-10.1,22.6-22.6,22.6
					s-22.6-10.1-22.6-22.6s10.1-22.6,22.6-22.6l0,0C166.2,285.1,176.4,295.2,176.4,307.7z"/>
			</defs>
			<clipPath id="SVGID_00000050656490920540314790000006493819788020145329_">
				<use xlink:href="#SVGID_00000049191248161733042180000002780012938711878296_"  style="overflow:visible;"/>
			</clipPath>
			<path id="Path_6593" style="clip-path:url(#SVGID_00000050656490920540314790000006493819788020145329_);fill:#F7D046;" d="
				M160.7,312.3c-0.4-0.1-0.8-0.2-1.2-0.3c-0.8-0.3-1.7-0.5-2.5-0.9c-1.7-0.6-3.3-1.4-4.9-2.3c-1.3-0.7-2.5-1.5-3.8-2.4
				c-0.6-0.4-1.1-0.8-1.7-1.3c-1.3-1-2.5-2.1-3.7-3.2c-1-1-2-2-2.9-3.1c-0.2-0.2-0.3-0.4-0.5-0.6c-0.2-0.3-0.4-0.5-0.6-0.8
				c0.2-1,0.4-1.9,0.8-2.8c0.4,0.5,0.7,1,1.1,1.5c0.7,0.9,1.5,1.9,2.3,2.7c0.3,0.3,0.6,0.6,0.9,1c1,1,2,1.9,3.1,2.8
				c1.7,1.4,3.6,2.7,5.5,3.9c1.3,0.7,2.6,1.4,3.9,2c1.2,0.5,2.3,0.9,3.6,1.3c0.4,0.1,0.8,0.2,1.2,0.3c0.6,0.2,1.2,0.3,1.8,0.4
				C162.4,311.1,161.6,311.7,160.7,312.3z"/>
		</g>
	</g>
	<g>
		<g>
			<defs>
				<path id="SVGID_00000093882604946288691990000003604111924666685108_" d="M176.4,307.7c0,12.5-10.1,22.6-22.6,22.6
					s-22.6-10.1-22.6-22.6s10.1-22.6,22.6-22.6l0,0C166.2,285.1,176.4,295.2,176.4,307.7z"/>
			</defs>
			<clipPath id="SVGID_00000137843431403715232520000009935801338404132263_">
				<use xlink:href="#SVGID_00000093882604946288691990000003604111924666685108_"  style="overflow:visible;"/>
			</clipPath>
			<path id="Path_6594" style="clip-path:url(#SVGID_00000137843431403715232520000009935801338404132263_);fill:#F7D046;" d="
				M153.7,314.3c-0.4-0.1-0.7-0.3-1.1-0.4c-1.6-0.7-3.2-1.5-4.7-2.4c-1.6-1-3.2-2-4.7-3.2c-0.1-0.1-0.1-0.1-0.2-0.2
				c-1.1-0.9-2.2-1.8-3.2-2.8c-0.6-1.4-0.9-2.9-1-4.5c0,0,0,0,0.1,0.1c1.6,1.8,3.3,3.5,5.2,5.1c1.2,1,2.5,1.9,3.8,2.8
				c1.7,1.1,3.4,2,5.2,2.8c1.2,0.5,2.5,1,3.7,1.4c0.4,0.1,0.8,0.2,1.2,0.4c0.1,0,0.3,0.1,0.4,0.1C157,313.9,155.3,314.2,153.7,314.3
				z"/>
		</g>
	</g>
	<g>
		<g>
			<defs>
				<path id="SVGID_00000035525535967694662060000011042170642465994378_" d="M176.4,307.7c0,12.5-10.1,22.6-22.6,22.6
					s-22.6-10.1-22.6-22.6s10.1-22.6,22.6-22.6l0,0C166.2,285.1,176.4,295.2,176.4,307.7z"/>
			</defs>
			<clipPath id="SVGID_00000170968884098872061790000002325921286335026110_">
				<use xlink:href="#SVGID_00000035525535967694662060000011042170642465994378_"  style="overflow:visible;"/>
			</clipPath>
			<path id="Path_6595" style="clip-path:url(#SVGID_00000170968884098872061790000002325921286335026110_);fill:#F7D046;" d="
				M164.3,309.2l-0.4-0.1c-0.8-0.2-1.7-0.4-2.5-0.7c-0.6-0.2-1.2-0.4-1.8-0.6c-1.3-0.5-2.6-1.1-3.9-1.7c-2-1-3.8-2.1-5.6-3.4
				c-0.5-0.4-1-0.7-1.5-1.1c-0.6-0.5-1.2-1-1.8-1.5c-0.4-0.4-0.8-0.7-1.2-1.1c-0.9-0.8-1.7-1.7-2.6-2.6c-0.9-1-1.8-2.1-2.6-3.2
				c0.4-0.7,0.8-1.5,1.3-2.1c1.5,2,3.1,3.9,4.9,5.7c0.9,0.8,1.7,1.6,2.7,2.4c0.5,0.5,1.1,0.9,1.7,1.3c1.1,0.8,2.2,1.6,3.4,2.3
				c1.7,1,3.6,1.9,5.4,2.7c0.8,0.3,1.5,0.6,2.3,0.8c0.6,0.2,1.1,0.3,1.7,0.5c0.7,0.2,1.4,0.3,2.1,0.5
				C165.4,307.9,164.9,308.6,164.3,309.2z"/>
		</g>
	</g>
	<g>
		<g>
			<defs>
				<path id="SVGID_00000060737307841601977090000017740345255315560064_" d="M176.4,307.7c0,12.5-10.1,22.6-22.6,22.6
					s-22.6-10.1-22.6-22.6s10.1-22.6,22.6-22.6l0,0C166.2,285.1,176.4,295.2,176.4,307.7z"/>
			</defs>
			<clipPath id="SVGID_00000109021906191708368890000015979426975331630989_">
				<use xlink:href="#SVGID_00000060737307841601977090000017740345255315560064_"  style="overflow:visible;"/>
			</clipPath>
			<path id="Path_6596" style="clip-path:url(#SVGID_00000109021906191708368890000015979426975331630989_);fill:#F7D046;" d="
				M167.1,304.4c-0.9-0.1-1.8-0.3-2.6-0.5c-0.6-0.1-1.2-0.3-1.8-0.4c-1.3-0.3-2.6-0.7-3.8-1.2c-1.4-0.5-2.8-1.2-4.1-1.9
				c-0.8-0.4-1.6-0.9-2.4-1.4c-0.9-0.6-1.9-1.2-2.8-1.9l-0.4-0.3c-2.5-1.9-4.8-4.1-6.9-6.5c0.5-0.6,1.1-1.2,1.7-1.7
				c2.6,3.1,5.7,5.8,9.1,8c1.1,0.7,2.2,1.3,3.3,1.9c0.9,0.5,1.9,0.9,2.9,1.3c1.3,0.5,2.7,1,4.1,1.4h0.1c1.4,0.4,2.8,0.6,4.2,0.8
				C167.5,302.9,167.3,303.7,167.1,304.4z"/>
		</g>
	</g>
	<g>
		<g>
			<defs>
				<path id="SVGID_00000151533410326625147300000004191473219409639854_" d="M176.4,307.7c0,12.5-10.1,22.6-22.6,22.6
					s-22.6-10.1-22.6-22.6s10.1-22.6,22.6-22.6l0,0C166.2,285.1,176.4,295.2,176.4,307.7z"/>
			</defs>
			<clipPath id="SVGID_00000027572466572138649570000016607497305325324170_">
				<use xlink:href="#SVGID_00000151533410326625147300000004191473219409639854_"  style="overflow:visible;"/>
			</clipPath>
			<path id="Path_6597" style="clip-path:url(#SVGID_00000027572466572138649570000016607497305325324170_);fill:#E7C036;" d="
				M163.9,290.5c0,2.8-4.3,5.1-9.6,5.1c-5.3,0-9.6-2.3-9.6-5.1s4.3-5,9.6-5C159.6,285.4,163.9,287.7,163.9,290.5z"/>
		</g>
	</g>
</g>
</svg>
