<?xml version="1.0" encoding="utf-8"?>
<!-- Generator: Adobe Illustrator 27.6.1, SVG Export Plug-In . SVG Version: 6.00 Build 0)  -->
<svg version="1.1" id="Layer_1" xmlns="http://www.w3.org/2000/svg" xmlns:xlink="http://www.w3.org/1999/xlink" x="0px" y="0px"
	 viewBox="0 0 369.2 344.3" style="enable-background:new 0 0 369.2 344.3;" xml:space="preserve">
<style type="text/css">
	.st0{fill:#5498A8;}
	.st1{fill:#2B656B;}
	.st2{fill:#1D1D1D;}
	.st3{fill:#CC7952;}
	.st4{fill:#D7825B;}
	.st5{fill:#F7D046;}
	.st6{fill:#53B7D5;}
	.st7{fill:#42A9C1;}
</style>
<path id="Path_6775" class="st0" d="M102.2,341.4l25.4-14.7L362,191.4l-95-54.8L7.2,286.6L102.2,341.4z"/>
<path id="Path_6776" class="st1" d="M7.2,286.6v2.9l95,54.8v-2.9L7.2,286.6z"/>
<path id="Path_6777" class="st1" d="M362,191.4v2.9l-259.8,150v-2.9L362,191.4z"/>
<path id="Path_6778" class="st2" d="M153.6,67.9c0,0,2.8-4,7.5-3s7.3,2.8,6.3,7.2s0,7.7,1.6,9.4c1.6,1.7,2.6,7.2,0.9,10.6
	c3.6,3.2,5.1,8.8,1.4,12.3c1.4,3.5,4,9.8-0.9,14.8c3.9,9.2-0.8,10.9,0,13.6c0.8,2.8,5.6,1,5.6,1s-4.6,5.8-9.5,2.1
	c-4-3-2.2-13.6-0.3-17c-3.1-2.3-3.9-9.4-0.8-14.5c-1.9-2.1-1.1-10.8-0.8-12.3C162.8,90,153.6,67.9,153.6,67.9z"/>
<path id="Path_6779" class="st3" d="M153,2.7c0,0,0-4.4-3.4-2.1c-3.7,2.5-6.8,18.4-8.7,23.9c-1.2,3.4-14.7,28.2-17.4,34
	c-2.7,5.8-0.5,29.8,1.8,39.5s6,21.1,6,21.1l12.8-6.7c0,0-3-24.3-3.6-29.2c-1-7.8-2.6-20.7-2.6-20.7s6.3-17.6,7.4-23.7
	c1.1-6.1,6.4-10.9,7.2-13.3S153,2.7,153,2.7z"/>
<path id="Path_6780" class="st4" d="M171.2,124.9c2.1-5.2-9.2-12-12.6-17c-1.2,1.7-7.9-4.9-15.9-5.6c-2.3-0.2-4,3.7-6.1,7
	c-0.8,1.4-3.4,6.3-4.7,7.9c-11.5,13.7-4.3,17.9-2,26c2.2,7.8,4,18.5,7.3,32.5c2.9,12.2,10.6,25.4,10.6,25.4l32.8-17.7
	c0,0-2.8-8.8-9.6-13.8c-4-3-7.1-9.4-6.9-12.4C165,148.3,167.7,133.5,171.2,124.9z"/>
<path id="Path_6781" class="st3" d="M158.6,107.9c-0.6-0.9-1.2-1.8-1.6-2.8c-2-4.8,0-11.8,0-11.8l-15,3.1c0.3,4.6-0.9,9.2-3.3,13.1
	c0,1.9,0.2,3.1,3.8,3C150.5,112.4,157.5,109.6,158.6,107.9z"/>
<path id="Path_6782" class="st4" d="M135.8,72.4c-6.5,6.8-3.9,30.3,5.7,31.8c6.2,1,15-4.5,18.1-15.4
	C162.3,79.7,148.2,59.5,135.8,72.4z"/>
<path id="Path_6783" class="st2" d="M132.8,78c5.7,2.6,12.1,3.5,18.3,2.7c1.4,1.4,1.8,3.5,2.6,5.6c5.3-3.4,5.9,2.5,2.9,5.8
	c-0.9,1.5,0,6.4,0,6.4s5.7-2.7,7.8-14.7c0.9-5.2-3.7-14.7-9.4-17.3c-4.8-2.2-9-2.6-17.1,1.4C132.7,70.4,132.8,78,132.8,78z"/>
<path id="Path_6784" class="st4" d="M152.4,1.2c-3.3,2.5-3,13.4-2.3,21c0.8,7.6,3.5,6.9,5.7,13.3s3.5,16.8,5.5,26.1
	c1.1,5.3,2.7,10.5,4.9,15.4c0,0-3,22.4-8.3,29.4c-2.5,3.5-3.9,7.7-3.9,12l10.2,19.4c0,0,8.1-13.4,10.8-22.2c0.9-3,6.6-34.1,5.7-41.1
	S165.1,37.1,164.3,31c-1.3-7.7-3.4-15.3-6.1-22.6C156.4,4.2,155.5-1.2,152.4,1.2z"/>
<path id="Path_6785" class="st4" d="M154.5,133c0,0,1.8-7,5.4-8.1c3.5-1.2,4.5-2.8,4.7-1.7c0.7,3.6-2.3,3.6-4.7,8.2
	C158.6,133.8,154.6,139.2,154.5,133z"/>
<path id="Path_6786" class="st4" d="M108,254.8c0.3,1.8,0.5,3.7,0.4,5.6c-0.2,1.1-1.5,2.1-4.9,5.4c-2.5,2.5-8.2,6.7-10.6,8.7
	c-2.4,2.1-2.1,4.9-1.3,10s4.4,5.1,7.6,3.3c3.2-1.8,8.1-4.1,10.5-7.2s7.8-6.9,13.2-9.2c5.4-2.3,6.5-5.8,4.5-11.1
	c-1.3-3.4-2.3-6.9-2.9-10.5L108,254.8z"/>
<path id="Path_6787" class="st4" d="M255.6,188.1c2.8-2.5,4.2-8.5,8.6-8.5c4.4,0,6.9,3.6,11.3,1.8s3.6-4.4,9.8-4
	c6.2,0.4,8.7,1.1,10.9,2.5s0.3,4.6-5.3,6.7c-5.6,2-17.1,11.8-26.5,14.7C255.1,204.3,252.7,190.8,255.6,188.1z"/>
<path id="Path_6788" class="st5" d="M256.8,186.7c-8.7,4.5-17.6,8.5-26.7,12c-7.1,2.6-13.2,7.5-17.5,13.8c0,0-12.8-23.7-24.7-32.2
	c-9.5-6.8-15.8-10.7-15.8-10.7s-8.4,7-12.4,9.2c-4.1,2.2-22.1-1.5-22.1-1.5s-18.1,2.1-29.3,3.7c-4.7,0.6-8.8,3.5-10.9,7.8
	c-1.7,3.2-2.6,6.9-2.6,10.5c-0.2,8.3,10.1,44.7,13.4,56.9c11.6,4.3,16.4-5.3,16.4-5.3s-0.1-14.6-1-23c-0.7-7.1-2.1-14.1-4.1-20.9
	c0,0,24.4,5.8,45.2,1.9c6.1,5.8,19.5,14.2,32,21.9c7.3,4.5,14.4,7.7,18,6.5c3.7-1.3,8.8-5,14-10.3c4.8-4.9,28.6-20.4,38.5-26.6
	C267.6,193,265.6,186.7,256.8,186.7z"/>
<path id="Path_6789" class="st6" d="M137.4,108.2c0,0-8.4,12.4-11.4,16.4c-3,4-4.2,9.1-1.2,15.2c2.9,5.7,5.1,11.7,6.5,18
	c1.2,5.8,4.4,20.4,4.4,20.4s12.6,10.9,24,7.3c6.9-2.3,12.8-6.9,16.6-13.1c0,0-7-8-8.9-13.5s-0.2-20.6-0.2-20.6s-7.6,5.5-14.3-1.4
	c-3.9-4,0.8-20.6,4.9-30.6c-3.4-0.2-6.4,5.5-12,8.8c-5.5,3.3-9.7,2.4-10.2,0C135.3,112.5,137.4,108.2,137.4,108.2z"/>
<path id="Path_6790" class="st7" d="M129.9,125.4c0,0,4.9,2.9,8.7,1.8c2.3-0.6,4.3-1.8,6-3.5c-2.3,0.5-4.7,0.7-7.1,0.7
	C135,124.5,132.5,124.8,129.9,125.4z"/>
<path id="Path_6791" class="st7" d="M127.8,137.8c2.3,3,4.4,6.1,6.4,9.4c2.7,4.7,4.5,7.5,4.5,7.5s-1.6-8.7-4.5-12.2
	C132.4,140.4,130.2,138.8,127.8,137.8z"/>
<path id="Path_6792" class="st7" d="M138.4,144.7c0,0,2.4,9.2,6,12.3s6.6,3.5,6.6,3.5c-2.3-2.1-4.4-4.4-6.3-6.9
	C142.2,150.3,140.2,145.7,138.4,144.7z"/>
<path id="Path_6793" class="st7" d="M170.9,170.7c0,0-3.4,5.2-7.3,6.7c-3.9,1.5-10,0.8-10,0.8c2.9-0.8,5.8-1.8,8.6-2.9
	C165.2,173.9,168.1,172.4,170.9,170.7z"/>
<path id="Path_6794" class="st7" d="M152.1,170.7c2.4,1.4,5.1,1.9,7.8,1.5c4.7-0.7,6.3-2.5,6.3-2.5S157.6,171.6,152.1,170.7z"/>
</svg>
