<?xml version="1.0" encoding="utf-8"?>
<!-- Generator: Adobe Illustrator 27.6.1, SVG Export Plug-In . SVG Version: 6.00 Build 0)  -->
<svg version="1.1" id="Layer_1" xmlns="http://www.w3.org/2000/svg" xmlns:xlink="http://www.w3.org/1999/xlink" x="0px" y="0px"
	 viewBox="0 0 383.1 327.3" style="enable-background:new 0 0 383.1 327.3;" xml:space="preserve">
<style type="text/css">
	.st0{opacity:0.15;fill-rule:evenodd;clip-rule:evenodd;enable-background:new    ;}
	.st1{fill-rule:evenodd;clip-rule:evenodd;fill:#383934;}
	.st2{fill-rule:evenodd;clip-rule:evenodd;fill:#42A9C1;}
	.st3{fill:#383934;}
	.st4{fill:#FFCC03;}
	.st5{fill-rule:evenodd;clip-rule:evenodd;fill:#53B7D5;}
	.st6{fill-rule:evenodd;clip-rule:evenodd;fill:#353631;}
	.st7{fill-rule:evenodd;clip-rule:evenodd;fill:#D7825B;}
	.st8{fill-rule:evenodd;clip-rule:evenodd;fill:#FACB95;}
	.st9{fill-rule:evenodd;clip-rule:evenodd;fill:#EDEDED;}
	.st10{fill-rule:evenodd;clip-rule:evenodd;fill:#201E1E;}
	.st11{fill-rule:evenodd;clip-rule:evenodd;fill:#130901;}
	.st12{fill:#58371A;}
	.st13{fill:#4D3014;}
	.st14{fill:#61401F;}
	.st15{fill:#1C1C1B;}
	.st16{fill:#3E2810;}
	.st17{fill:#2B2C30;}
	.st18{fill:#D7825B;}
	.st19{fill:#D6774C;}
</style>
<path id="Path_6660" class="st0" d="M187.1,259.5c75.1,0,136.1,14.8,136.1,33.1s-61,33.1-136.1,33.1S51,310.9,51,292.6
	S111.8,259.5,187.1,259.5z"/>
<path id="Path_6661" class="st1" d="M85.1,254c0,0-6.8,10.7-9.1,5.3c-1-2.3-3.9,1.5-4.9,2.8c-0.7,1.6,1.7,9.3,2.8,10.3
	c1.1,1,2.1,1,2.1,2.9s-1.4,2.7-1,5.4c0.3,2.4,3.5,10.8,11.4,13.7c3.4,1.2,5.4,1.7,6.9-1.6c0.5-1-2.7-10.7-3.6-13.4
	c-2.3-6.9,0.5-13.7,1.1-15.2c0.7-1.5,2.6-6.3,2.6-6.3S91.9,255.3,85.1,254z"/>
<path id="Path_6662" class="st2" d="M85.1,254c-3.1,0.8-8.1,2.2-11.2,6.4c-0.7,1.5,0.9,9.3,1.9,10.2c2.5,2.3,0.9,5.4,1.2,8.4
	c0.5,5,4.4,13,13.6,14.6c2.2,0.1,3.3-2.4,3.5-3.9c0.3-2.6-3.5-7.6-4.4-10.3c-2.9-7.8,2.2-15.5,2.8-17c0.5-1.5,0.8-3,0.9-4.5
	C93.4,258,91.9,255.3,85.1,254z"/>
<path id="Path_6663" class="st3" d="M84.5,279.6c-0.2,0.1-0.3,0.3-0.2,0.5c0,0.2,0.2,0.3,0.4,0.3l0,0c1.1-0.5,2.4-0.7,3.6-0.5
	c1,0.2,1.8,0.8,2.5,1.6c0.1,0.1,0.3,0.1,0.4,0.1c0,0,0,0,0.1-0.1c0.1-0.2,0.1-0.4,0-0.5c-0.7-0.9-1.7-1.5-2.8-1.8
	C87.1,278.9,85.7,279,84.5,279.6z"/>
<path id="Path_6664" class="st3" d="M84.3,277.4c-0.2,0.1-0.2,0.3-0.2,0.4s0.2,0.2,0.3,0.2l0,0c1-0.4,2-0.6,3.1-0.4
	c0.8,0.2,1.6,0.7,2.1,1.3c0.1,0.1,0.2,0.1,0.3,0.1l0,0c0.1-0.1,0.1-0.3,0-0.5c-0.6-0.8-1.5-1.3-2.4-1.5
	C86.5,276.8,85.4,277,84.3,277.4z"/>
<path id="Path_6665" class="st3" d="M84.2,275.3c-0.1,0.1-0.2,0.2-0.2,0.4c0,0.1,0.2,0.2,0.3,0.2l0,0c1-0.4,2-0.6,3.1-0.4
	c0.8,0.2,1.6,0.7,2.1,1.3c0.1,0.1,0.2,0.1,0.3,0.1l0,0c0.1-0.1,0.1-0.3,0-0.5c-0.6-0.8-1.5-1.3-2.4-1.5
	C86.4,274.6,85.2,274.8,84.2,275.3z"/>
<path id="Path_6666" class="st3" d="M84,273.1c-0.2,0.1-0.2,0.3-0.2,0.4s0.2,0.2,0.3,0.2l0,0c1-0.4,2-0.6,3.1-0.4
	c0.8,0.2,1.6,0.7,2.1,1.3c0.1,0.1,0.2,0.1,0.3,0.1l0,0c0.1-0.1,0.1-0.3,0-0.5c-0.6-0.8-1.5-1.3-2.4-1.5
	C86.2,272.5,85.1,272.6,84,273.1z"/>
<path id="Path_6667" class="st3" d="M83.9,270.9c-0.2,0.1-0.2,0.3-0.2,0.4s0.2,0.2,0.3,0.2l0,0c1-0.4,2-0.6,3.1-0.4
	c0.8,0.2,1.6,0.7,2.1,1.3c0.1,0.1,0.2,0.1,0.3,0l0,0c0.1-0.1,0.1-0.3,0-0.5c-0.6-0.8-1.5-1.3-2.4-1.5
	C86.1,270.3,84.9,270.4,83.9,270.9z"/>
<path id="Path_6668" class="st3" d="M83.7,268.7c-0.1,0.1-0.2,0.2-0.2,0.4c0,0.1,0.2,0.3,0.3,0.2l0,0c1-0.4,2-0.6,3.1-0.4
	c0.8,0.2,1.6,0.7,2.1,1.3c0.1,0.1,0.2,0.1,0.3,0l0,0c0.1-0.1,0.1-0.3,0-0.5c-0.6-0.8-1.5-1.3-2.4-1.5
	C85.9,268.1,84.8,268.3,83.7,268.7z"/>
<path id="Path_6669" class="st4" d="M83.6,266.6c-0.2,0.1-0.2,0.3-0.2,0.4s0.2,0.2,0.3,0.2l0,0c1-0.4,2-0.6,3.1-0.4
	c0.8,0.2,1.6,0.7,2.1,1.3c0.1,0.1,0.2,0.1,0.3,0l0,0c0.1-0.1,0.1-0.3,0-0.5c-0.6-0.8-1.5-1.3-2.4-1.5
	C85.8,265.9,84.6,266.1,83.6,266.6z"/>
<path id="Path_6670" class="st1" d="M155.5,269.5c0,0,2.7,12.4-2.7,10.2c-2.3-0.9-1.7,3.8-1.5,5.5c0.6,1.6,7.8,5.4,9.2,5.3
	c1.5-0.1,2.2-0.8,3.6,0.6c1.4,1.3,0.9,2.8,3.1,4.6c1.9,1.5,10.1,5.2,17.8,1.7c3.3-1.5,5-2.6,3.8-6c-0.4-1.1-9.5-5.7-12-7
	c-6.5-3.2-9.3-10-9.9-11.6c-0.6-1.5-2.6-6.3-2.6-6.3S161.2,265.7,155.5,269.5z"/>
<path id="Path_6671" class="st2" d="M155.5,269.5c-1.6,2.8-4.2,7.3-3.5,12.5c0.6,1.6,7.2,6,8.6,5.9c3.4-0.2,4.5,3.2,6.8,5.1
	c3.9,3.2,12.3,6.1,19.9,0.8c1.6-1.5,0.6-4-0.3-5.2c-1.6-2.1-7.8-2.9-10.4-4.2c-7.6-3.5-9.4-12.5-10-14.1c-0.7-1.4-1.5-2.6-2.5-3.8
	C164.2,266.6,161.2,265.7,155.5,269.5z"/>
<path id="Path_6672" class="st3" d="M173.1,288.1c-0.1,0.2,0,0.4,0.2,0.5c0.1,0.1,0.3,0.1,0.4-0.1l0,0c0.4-1.1,1.2-2.1,2.2-2.8
	c0.8-0.5,1.8-0.8,2.8-0.6c0.2,0,0.3-0.1,0.3-0.2v-0.1c0-0.2-0.2-0.4-0.4-0.4c-1.1-0.1-2.3,0.1-3.2,0.7
	C174.4,285.8,173.6,286.9,173.1,288.1z"/>
<path id="Path_6673" class="st3" d="M171.4,286.8c-0.1,0.2,0,0.3,0.2,0.4c0.1,0.1,0.3,0.1,0.4-0.1l0,0c0.4-1,1-1.8,1.9-2.5
	c0.7-0.5,1.6-0.7,2.5-0.5c0.1,0,0.3-0.1,0.3-0.2c0,0,0,0,0-0.1c0-0.2-0.2-0.3-0.3-0.3c-1-0.1-2,0.1-2.8,0.6
	C172.6,284.8,171.9,285.7,171.4,286.8z"/>
<path id="Path_6674" class="st3" d="M169.8,285.3c-0.1,0.2,0,0.3,0.2,0.4c0.1,0.1,0.3,0.1,0.4-0.1l0,0c0.4-1,1-1.8,1.9-2.5
	c0.7-0.5,1.6-0.7,2.5-0.5c0.1,0,0.3-0.1,0.3-0.2c0,0,0,0,0-0.1c0-0.2-0.2-0.3-0.3-0.3c-1-0.1-2,0.1-2.8,0.6
	C170.9,283.3,170.2,284.3,169.8,285.3z"/>
<path id="Path_6675" class="st3" d="M168.2,283.9c-0.1,0.2,0,0.3,0.2,0.4c0.1,0.1,0.3,0.1,0.4-0.1l0,0c0.4-1,1-1.8,1.9-2.5
	c0.7-0.5,1.6-0.7,2.5-0.5c0.1,0,0.3-0.1,0.3-0.2c0,0,0,0,0-0.1c0-0.2-0.2-0.3-0.3-0.3c-1-0.1-2,0.1-2.8,0.6
	C169.3,281.9,168.6,282.8,168.2,283.9z"/>
<path id="Path_6676" class="st3" d="M166.5,282.4c-0.1,0.2,0,0.3,0.2,0.4c0.1,0.1,0.3,0.1,0.4-0.1l0,0c0.4-1,1-1.8,1.9-2.5
	c0.7-0.5,1.6-0.7,2.5-0.5c0.1,0,0.3-0.1,0.3-0.2c0,0,0,0,0-0.1c0-0.2-0.2-0.3-0.3-0.3c-1-0.1-2,0.1-2.8,0.6
	C167.7,280.5,166.9,281.4,166.5,282.4z"/>
<path id="Path_6677" class="st3" d="M164.9,281c-0.1,0.2,0,0.3,0.2,0.4c0.1,0.1,0.3,0.1,0.4-0.1l0,0c0.4-1,1-1.8,1.9-2.5
	c0.7-0.5,1.6-0.6,2.5-0.5c0.1,0,0.3-0.1,0.3-0.2l0,0c0-0.2-0.2-0.3-0.3-0.3c-1-0.1-2,0.1-2.8,0.6C166,279,165.3,279.9,164.9,281z"/>
<path id="Path_6678" class="st3" d="M163.2,279.6c-0.1,0.2,0,0.3,0.2,0.4c0.1,0.1,0.3,0.1,0.4-0.1l0,0c0.4-1,1-1.8,1.9-2.5
	c0.7-0.5,1.6-0.7,2.5-0.5c0.1,0,0.3-0.1,0.3-0.2c0,0,0,0,0-0.1c0-0.2-0.2-0.3-0.3-0.3c-1-0.1-2,0.1-2.8,0.6
	C164.4,277.6,163.7,278.5,163.2,279.6z"/>
<path id="Path_6679" class="st2" d="M152.9,49.9c-11.1,2.8-9.7,12.9-3.5,20.5c0.4,0.3,9.7,31,27.3,44.2c7.9,8,15.8-2.1,7.9-14.7
	c-2-3.4-6.8-22.3-12.1-32.6C169.8,51.1,165.1,42.1,152.9,49.9z"/>
<path id="Path_6680" class="st2" d="M176.6,114.6c8.6,11.7,22.8,21.9,25.3,23.8c4.4,0.4,11.2-7.8,7.4-10.5
	c-7.5-5.3-11.7-19.8-24.8-28C177.6,93.7,172.8,109.7,176.6,114.6z"/>
<path id="Path_6681" class="st5" d="M208.6,129c-3.4-0.2-7,3.7-7.9,7.2c2.3,2.4,1.7,1.6,4,3.9c3.1,0.2,7-5.1,7.4-8.2
	C209.3,129.9,211.4,130.9,208.6,129z"/>
<path id="Path_6682" class="st2" d="M131.8,38c-24.7,8.4-26.3,23.3-17.8,29.6c11.4,8.5,26.4,24.8,34.2,5.2c3.8-9.5,9.7-22,0.6-30.4
	C144.5,38.5,132.8,38.3,131.8,38z"/>
<path id="Path_6683" class="st5" d="M128.2,40.6c-2.4,2.5-13.7,8.1-13.7,12.8c0,7.1,21.9,0.2,25.5-2.6
	C149.3,43.5,131.9,36.4,128.2,40.6z"/>
<path id="Path_6684" class="st1" d="M132.2,161.7c2.7,8.1,4.6,15.8,6.6,24.1c3.3,10.3,10.7,23.1,9.5,35.4c-2.2,22.3,4,36.4,3.5,56
	c4.7,0.7,14.8,0.1,16-5.4c-1.9-23.6,2.7-49.8,2-57.3c-0.1-1-0.7-6.9-0.7-10.3c0.5-20.5-4.4-60.3-6.7-67.6c0,0-18.7,1.9-33.3,4.9
	C112.3,151.9,131.8,160.6,132.2,161.7z"/>
<path id="Path_6685" class="st6" d="M113.6,230.7c0.9,2.6-3.5,4.5-5.7,5.6c-10.5,5.5-12.6,8.2-29.4,19.8
	c2.1,6.3,10.7,14.5,13.9,10.7c5.1-5.2,23.3-11,36.8-17.8c3-1.5,5.3-4.2,6.2-7.4c9.1-20.8,7.3-27.6,14.2-64.5
	c5.5-3.6,7.9-29.8-3.7-32.1c-6.3-1.3-15.1-0.4-22.5-0.5c-4,0.5-4.4-1.1-6.1,1.1c-7.1,14.2-5.9,28.9-2.4,31.9
	c-4.2,18.5,3.9,38.5-0.6,50.1C113.9,228.3,113.8,229.8,113.6,230.7z"/>
<path id="Path_6686" class="st7" d="M213.8,134.5c2,0.1,4.3,0.7,4.9,2.5c3.3,4.7,3,11.1,3.1,11.7c-2.9,2.1-4.7,2.3-9.8,1.8
	c-1.4-0.1-2.3-3.2-2.7-4.1c-1-2.6-0.9-2.8-0.8-5.5l-3.4-3.2c0.2-2.6,2.2-4.3,5.2-5.9L213.8,134.5z"/>
<path id="Path_6687" class="st5" d="M131.6,52.8c-1.3,0.3-17.3,8.6-23.2,15.3c-4.4,5-1.3,15.2-1.3,16.7c-2,16.4,3.3,34.7,4.1,45.4
	c0.6,7.8-2.6,15.9-3.4,36.3c21.5,25,58.9,8.5,62.6-7.6c-2.9-13.9-1.1-51.4-0.4-74.9c0.2-5.7,1.2-27.8-7.3-35.3
	c-2.2-1.9-6.5-3.2-9.2-3C144.2,46.1,133.2,52.5,131.6,52.8z"/>
<path id="Path_6688" class="st2" d="M115.7,66.8c-9.1-6.9-21.1,10.6-23.2,20.1c0,0.5-9.9,15.8-9,35.4c1,11.6,14.8,6.4,18.6-2.5
	c4.2-9.1,11.9-20.3,14.2-23.7C120.2,90.5,126.5,72.3,115.7,66.8z"/>
<path id="Path_6689" class="st2" d="M92.5,135.2c10.4,10.2,20.1,16.5,24.6,20.5c4.5-0.3,12.8-10,9.9-12.6
	c-2.5-3.2-16.8-14.6-24-25.3c-2.8-1.8-14.3-3.7-17.8,0C84,119.8,79.4,123.4,92.5,135.2z"/>
<path id="Path_6690" class="st2" d="M112,64.7c5-2.5,12.3-2.6,18.3,3.8c8.6,9.2,12.9,12.2,21.5,29c6.4-21,8.8-25.6,6-46.5
	C155.9,35.6,117,59.9,112,64.7z"/>
<path id="Path_6691" class="st8" d="M171.8,92.9v0.2C172.3,93,171.8,92.9,171.8,92.9z"/>
<path id="Path_6692" class="st9" d="M144.3,49.1c0,0,5.2-5.4,8.2,4.2c2.9,9.3,3.8,15.4-1.2,40c-4.6-15-11.4-26.2-19.9-33.4
	c-2.4-2-4.5-6,3.8-9.9L144.3,49.1z"/>
<path id="Path_6693" class="st7" d="M131,37.3c0,5.2,0.6,10.5,0.6,15.5c0,4,4.4,5.8,6.6,6.9c9.1,5.3,12.6-1.5,12.2-4.3
	c-0.4-2.3-0.4-6.9-1.2-9.2c-0.9-2.5-6.4-0.3-6.4-2.9L131,37.3z"/>
<path id="Path_6694" class="st7" d="M157.3,12.3c0.5,3,1.9,5.6,3.1,8.4c1.8,3.1-2.2,4.8,1.7,8.9c1,3.3,0.6,9.5,0.2,13
	c-0.3,2.7-0.6,6.6-2.6,8.6c-5.1,4.9-12.2,0.3-18.4-0.7c-6.1-1-6.8-8-9.5-12.5c-4.8-8.1-4.5-20.7,4.4-26.1c4-2.4,10.9-4.5,15.5-3.6
	C153.4,8.6,156.9,9.2,157.3,12.3z"/>
<path id="Path_6695" class="st10" d="M124.1,34.3l0.2,0.4C124.2,34.6,124.1,34.5,124.1,34.3z"/>
<path id="Path_6696" class="st11" d="M139.2,28.5c-1.8,1.1-2.1,4.9-1.7,6.7c0.1,0.9-8.8-3.7-6.3,8.9c-8.3-5.2-24.2-26.5-9.1-29.4
	c10.8-1.1,13.5-2,18.6,3.2C142.3,19.5,142.9,26.3,139.2,28.5z"/>
<path id="Path_6697" class="st11" d="M153.3,0c9.6-0.4,13.3,11.8,5.2,15.2c-0.8,0.3-1.6,1.7-3.6,2.6c-2.6-1.1-5.2-3.7-11.3-1.5
	c-1,0.6-2.3,0.6-3.4,0.1c-4.5-2-9-2.5-19.5-1.4c-4.3-8.4,3.5-12.7,12.7-11.6C143.4,4.5,154.5,7.2,153.3,0z"/>
<path id="Path_6698" class="st7" d="M130.1,39.5c1.8,2.9,4.2,4.6,5.5,3.9c1.3-0.8,2.2-4,0.5-6.9c-1.8-2.9-5.6-4.4-6.9-3.6
	C127.9,33.6,128.3,36.6,130.1,39.5z"/>
<path id="Path_6699" class="st2" d="M132.8,140.9c-4,8.3-9.8,15.2-18.1,19.8c1.2,1,2.4,2.1,3.5,3.1c9-4.6,14.7-11.4,18.6-19.5
	C135.5,143.1,134.2,142,132.8,140.9z"/>
<path id="Path_6700" class="st2" d="M151.2,96.2c4.7,29.5,3.2,53.5,3.3,78.9l3.3-1.7c-0.5-25.9,0.8-50.9-4.8-79.5
	C152.4,94.6,151.8,95.4,151.2,96.2z"/>
<path id="Path_6701" class="st1" d="M151.8,277.2c10.5,4.8,16.9-0.4,16.7-5.1c-0.1-1.6-0.9-4.1-1-5.8c0.6,6.1-9.5,9.1-16.1,5.5
	C151.6,273.1,151.7,276,151.8,277.2z"/>
<path id="Path_6702" class="st1" d="M78.6,256c1.1,11.5,8.8,14.5,12.8,11.9c1.4-0.9,3.1-2.9,4.5-3.8c-4.9,3.6-12.7-3.6-12.8-11.2
	C82,253.7,79.6,255.2,78.6,256z"/>
<path id="Path_6703" class="st12" d="M312.4,243.1c-1.7,0.3-3.1,1.3-3.8,2.9c-0.7,1.5-1.1,3.2-1.2,4.8c-0.6,4.7-1.3,9.3-1.9,14
	c-0.3,1.9-0.5,4,0.3,5.8c0.9,1.9,3,3,4.9,4c1.2,0.7,2.5,1.2,3.8,1.5c1.4,0.3,2.8-0.1,3.8-1c1.2-1.2,1.4-3.1,1.4-4.8
	c0-5-0.5-10-1.4-14.9c-0.3-1.4-0.5-2.9-0.5-4.4s0.7-2.9,1.8-3.9L312.4,243.1z"/>
<path id="Path_6704" class="st13" d="M263.2,286.1c-0.3-1.9-2.6-2.8-3.9-4.2c-1.7-1.8-1.8-4.5-1.8-7c-0.1-4.4-0.1-8.9-0.1-13.3
	c-3.2-1.6-6.4-3.1-9.6-4.7c-0.2,5.2,0.1,10.5,0.9,15.7c0.9,5.2,3,10.2,6.5,14c1.1,1.4,2.8,2.4,4.6,2.6
	C261.5,289.4,263.5,287.9,263.2,286.1z"/>
<path id="Path_6705" class="st13" d="M278.7,295.7c1.6,0.3,3.3,0.2,4.9-0.1c2.3-0.7,4.3-2.2,5.7-4.2s2.5-4.1,3.4-6.3
	c-2.5-1-5-2-7.5-3c0.1,2.4-1.3,4.6-3.5,5.5c-1.5,0.4-3,0.6-4.5,0.7c-1.5,0.3-3.1,1.1-3.6,2.5c-0.3,1.3,0.3,2.7,1.4,3.5
	C276.1,295.1,277.3,295.6,278.7,295.7z"/>
<path id="Path_6706" class="st14" d="M303.9,325c-1,0.7-2.2,1-3.4,0.6l-3-1.9c-0.9-0.6-1.6-1.4-2-2.4l-14.1-35.2
	c-8.3-4.5-15.8-9.6-19-16.7c-3.6-4.1-8.1-7.2-13.2-9.1c-7.5,6-17.6,7.7-26.7,4.4l-1.4,8.1l1.6,2.3c1.5,3.2,1,4.3-2.4,4.3
	c-0.6,0-1.3-0.2-1.8-0.6l-1.8-1.5c-1.3-1.1-2.2-2.6-2.4-4.3c-0.2-3.9,0-7.8,0.6-11.6c-0.4-2.3,4.2-5.8,8.9-9.5
	c2.6-1.9,4.3-4.9,4.6-8.1c0.4-5.6,2.3-11.1,5.5-15.7l-1.8-8.5c0.1-3.6,4.1-4,6.2-1.1l4.1,7.6c7.9,1.7,14.8,4.8,20.4,9.8
	c13,4.5,26.5,9,31.5,13.1c0.4,0.3,0.7,0.6,1,1l7.9,0.3c0,0,0.2,2.5,0.4,5.8c0.4,5.5,0.9,13.1,0.8,13.4c-1.4,1.7-2.9,3.3-4.5,4.8
	l-0.1,0.1c-1.5,1.5-2.8,2.7-2.8,2.7c-1.1,5.8-1.3,11.8-0.7,17.7c0.6,6.8,3.4,14.2,5.3,21.9l3.5,3.7
	C306.4,321.6,305.5,323.7,303.9,325z"/>
<path id="Path_6707" class="st14" d="M331.9,273.2c-0.1,0.5-0.4,1-0.7,1.4c-2,2.4-5.2,3.5-8.3,2.9c-2.8-0.7-5.2-2.4-7.8-3.5
	c-4.6-2.1-10.4-3.6-15.2,0.3l-0.1,0.1c-0.5,0.4-0.9,0.8-1.3,1.3l-2.4-5.6l-7.6-17.8l-0.6,0.1c2.4-0.5,4.6-1.6,6.4-3.2
	c1.9-1.7,4-3.2,6.1-4.6c3.9-2.2,8.6-2.7,12.9-1.3c4.2,1.4,8.3,3.7,10,7.8c1.1,2.5,1,6.4,2.2,8.9c1.3,2.4,2.9,4.7,4.8,6.7
	C331.9,268.4,332.5,270.9,331.9,273.2z"/>
<path id="Path_6708" class="st15" d="M332,270.7c0-0.5-0.4-1-0.9-1.1l-0.7,0.1c-1.2,0.3-2.1,1.1-2.7,2.2c-0.3,0.4-0.3,1-0.1,1.5
	c0.3,0.4,0.8,0.6,1.3,0.4c0.5-0.1,0.9-0.3,1.3-0.6c0.1,0.8,0.2,1.7,0.1,2.5c0.3-0.9,0.4-1.9,0.4-2.9c0.3-0.2,0.5-0.4,0.7-0.6
	C331.8,271.7,332,271.2,332,270.7z"/>
<path id="Path_6709" class="st16" d="M301.7,325.8c-0.4,0-0.8,0-1.2-0.1l-3-1.9c-0.9-0.6-1.6-1.4-2-2.4l-10.6-26.3l-3-7.5l-0.6-1.4
	c-8.3-4.5-15.8-9.6-19-16.7c-1.5-1.7-3.2-3.2-4.9-4.6c-2.5-1.9-5.3-3.4-8.3-4.6c-0.5,0.4-0.9,0.7-1.4,1c-4.7,3.3-10.2,5-15.9,5
	c-3.2,0-6.4-0.6-9.3-1.6l-1.4,8.1l1.6,2.3c0.4,1.1,0,1.6-0.6,1.6c-0.8-0.1-1.5-0.4-2-1c-2.2-2-0.6-6.7,0.6-13.2
	c3.1,0.8,6.4,1.2,9.6,1.3c8.1,0,13.7-3.3,17.3-9.1c5.9,4.5,11.6,8.1,17,9.4c5.4,10,12.4,16.6,21.8,18.6c-1,8.9,4.1,22.3,10.4,36.4
	c1.1,3.2,3.6,5.1,7.2,5.9C303.3,325.5,302.5,325.8,301.7,325.8z"/>
<path id="Path_6710" class="st16" d="M296.4,294.8l-2.9-15l2.7-9.7l2.4,5.6c0.4-0.5,0.8-0.9,1.3-1.3c-1.5,1.5-2.8,2.7-2.8,2.7
	c-0.7,3.6-1,7.3-1,11C296.1,290.2,296.2,292.5,296.4,294.8z"/>
<path id="Path_6711" class="st16" d="M324.6,277.7c-0.6,0-1.1-0.1-1.6-0.2c-1.8-0.5-3.4-1.2-5-2.1c-0.9-0.5-1.8-1-2.8-1.4
	c-2.6-1.3-5.4-2-8.3-2.1c-0.1,0-0.2,0-0.3,0c-2.4,0-4.7,0.9-6.6,2.4l-0.1,0.1c-0.5,0.4-0.9,0.8-1.3,1.3l-2.4-5.6l0.7-2.4l6.9-11.6
	l2.5-4.3c-0.9,5.4,0.2,11,3.3,15.6c3.9,3.9,10.1,7.9,15.9,7.9c1.7,0,3.4-0.4,5-1.2c0,0.5,0,1,0,1.4
	C328.8,276.9,326.7,277.7,324.6,277.7z M330.4,275.5c0.2-0.5,0.3-1.1,0.3-1.6c0.4-0.2,0.8-0.5,1.2-0.8c-0.1,0.5-0.4,1-0.7,1.4l0,0
	C331,274.9,330.7,275.3,330.4,275.5z"/>
<path id="Path_6712" class="st17" d="M294.4,249c-4.7,7-0.6,12.8,3.8,14.9l-2.9,2c-7-2-8.3-12.2-4-16.5L294.4,249z"/>
<path id="Path_6713" class="st13" d="M299.6,248.5c-1.7,0.3-3.1,1.3-3.8,2.9c-0.7,1.5-1.1,3.2-1.2,4.8c-0.6,4.7-1.3,9.3-1.9,14
	c-0.3,1.9-0.5,4,0.3,5.8c0.9,1.9,3,3,4.9,4c1.2,0.7,2.5,1.2,3.8,1.5c1.4,0.3,2.8-0.1,3.8-1c1.2-1.2,1.4-3.1,1.4-4.8
	c0-5-0.5-10-1.4-14.9c-0.3-1.4-0.5-2.9-0.5-4.4c0-1.1,0.4-2.1,1-3c0.6-0.8,0.5-1.9-0.1-2.7C304.5,249.1,302.5,248.2,299.6,248.5z"/>
<path id="Path_6714" class="st18" d="M207.6,140.2l2.7,12.4l8.7,2.7l3.2-6.2l-5.9-10.6l-8.7-2.9V140.2z"/>
<path id="Path_6715" class="st17" d="M205.1,156.9c-0.2,0.7-0.4,1.5-0.3,2.3c0.7-0.7,1.1-1.7,1.2-2.7c0.2-1.6,0.5-3.3,1-4.9
	C206.2,153.3,205.6,155.1,205.1,156.9z M220.3,154.4c-2.5-1.6-4.3-3-5.6-3.9c-2.2-1.6-3-2.2-3.9-2.1l0.5,0.5c-2.1,2-2.7,3-3.3,7.9
	c-0.3,2.1-1.4,4-2.8,4.5c-0.6,0.2-1.3,0.1-1.7-0.3c-0.8-0.7-0.9-2.2-0.3-4.6c1.4-5,2.9-7.9,4.4-8.8c3.7-2.1,4.5-1.4,8.2,1.3
	c1.3,1,3.1,2.3,5.5,3.9c8.4,5.5,72.2,94,72.3,97h-1.3l-0.6,0.4C289.8,246.4,229.9,160.7,220.3,154.4L220.3,154.4z"/>
<path id="Path_6716" class="st18" d="M208.3,137.1l2.1,6.2c2,2.9,3.3,2.2,7,3.7l1.3,3.4l-0.1,4.4c0.2,2,2.3,2,2.4,0l1.5-5.5
	l-1.2-3.8c-0.8-2.4-0.6-3.6-2.5-5.9l-5.6-4.9L208.3,137.1z"/>
<path id="Path_6717" class="st19" d="M209,151.5l-0.3-2.5c0.1-1,0.9-1.7,1.9-1.7c0.2,0,0.4,0.1,0.6,0.1l4.5,0.6
	c1.7,0.8,3.8,1.7,3.9,3.5l0.1,2.2l0.6,1.8l-1.6,0.3c-1,0.2-2.1,0-3-0.5l-5.5-2L209,151.5z"/>
</svg>
