<?xml version="1.0" encoding="utf-8"?>
<!-- Generator: Adobe Illustrator 27.6.1, SVG Export Plug-In . SVG Version: 6.00 Build 0)  -->
<svg version="1.1" id="Layer_1" xmlns="http://www.w3.org/2000/svg" xmlns:xlink="http://www.w3.org/1999/xlink" x="0px" y="0px"
	 viewBox="0 0 327.5 307" style="enable-background:new 0 0 327.5 307;" xml:space="preserve">
<style type="text/css">
	.st0{fill:#2CA2B5;}
	.st1{fill:#FFFFFF;}
	.st2{fill:#53B7D5;}
	.st3{opacity:0.15;enable-background:new    ;}
	.st4{fill:#C7A496;}
	.st5{fill:#535359;}
	.st6{fill:#121215;}
	.st7{fill:#BCBEC0;}
	.st8{fill:#F0C6B5;}
	.st9{fill:#DEAF5A;}
	.st10{fill:#F7D046;}
	.st11{fill:#5F3A16;}
	.st12{fill:#3B2416;}
	.st13{fill:#B96227;}
</style>
<path id="Path_6796" class="st0" d="M98.5,83.8c0,0-0.2,6.4,5.5,5.6l5-11.2l-8-0.6C98.8,78.9,98.5,83.8,98.5,83.8z"/>
<path id="Path_6797" class="st1" d="M98.8,82.1l0.3,2.4l10.3-2.6l-0.9-6.8l-4.8-0.5l-3.2,3.8L98.8,82.1z"/>
<path id="Path_6798" class="st2" d="M108.6,77c-9.5-1.5-10.1,6.8-10.1,6.8s0-7.2,6.2-17.5l3.4,5.4L108.6,77z"/>
<path id="Path_6799" class="st3" d="M180.4,307c-13.7,0-33.9-5.6-52.8-15.4c-27-14-41.1-31.2-31.5-38.4c2.9-2.2,7.5-3.2,13.3-3.2
	c7,0.2,14,1.2,20.7,3c5.6-3.3,14.6-4.9,25.4-4.9c14.7,0.2,29.3,2.6,43.3,6.9c31,9.6,49,25.5,40.1,35.5c-4.6,5.2-15.4,7.8-29,7.8
	c-4.4,0-8.9-0.3-13.3-0.7c0.2,2.5-1,4.8-3,6.3C190.9,305.9,186.3,307,180.4,307z"/>
<path id="Path_6800" class="st4" d="M170.1,32.6l-0.2,1.6l-0.8,7.6l2.4,6.7l2.4,5.9l7.2,0.6l9.3-11.9l-8.3-13.5l-9.2,1.1L170.1,32.6
	z"/>
<path id="Path_6801" class="st2" d="M161.8,37.6c-8.3-1.8-19.9,1.2-25.6,1.5c-5.7,0.3-7.3,20.7-7.3,20.7s17.1-1.5,21-0.6L160.8,48
	C160.7,47.9,164.7,40.3,161.8,37.6z"/>
<path id="Path_6802" class="st5" d="M216.4,294.7c0.4,0.7,1.1,1.1,1.9,1.3c10.2,1,14-5.1,14.4-12.3c0.3-6.8,0.1-13.6-0.6-20.4
	c-0.1-0.6-0.7-1.3-1.6-1.9L216.4,294.7z"/>
<path id="Path_6803" class="st6" d="M215.2,265.1c2,8.1-2.9,29.5,2,30c10.2,1,14-5.1,14.4-12.3c0.3-6.8,0.1-13.6-0.6-20.4
	c-0.2-1.7-4.5-6.5-4.5-6.5S216.2,263.5,215.2,265.1z"/>
<path id="Path_6804" class="st0" d="M151.4,120.3l-1.3,34.7l24.6,43.7l8-53.9L151.4,120.3z"/>
<path id="Path_6805" class="st2" d="M151.4,120.7c9.2,26.3,23,30.6,24.6,31.8c5.3,33.6,12.5,62.8,14.8,67.2
	c7.8,14.9,12.7,22.4,21.9,43.9c3.2,7.5,19.2-0.5,15.7-9.7c-7.4-19.3-7.9-27.9-18.9-46.4c0-2.5,0.2-51.6-2.9-72.7
	c-1.6-4.8-17.5-31.4-17.5-31.4l-24.5-6l-7.9,7.6C156.7,105.1,151.3,117.8,151.4,120.7z"/>
<path id="Path_6806" class="st1" d="M165.6,42.7l4,0.3l5.1,10.7l14.9-5.7v12l-8,60.3l-12.7-10.5l-11.9,3.5l-2.9-56.6L165.6,42.7z"/>
<path id="Path_6807" class="st7" d="M174.8,53.6c-1.4,1.9-2.4,4.1-2.9,6.4c-0.6,2.3-1,4.6-1.2,7c-0.5,4.7-0.6,9.5-0.6,14.2
	c-0.1,4.8,0,9.5-0.1,14.3c-0.1,4.8-0.3,9.5-0.8,14.2c0.3-4.7,0.4-9.5,0.4-14.2V81.2c0-4.8,0.3-9.5,0.8-14.3c0.3-2.4,0.7-4.7,1.4-7
	C172.2,57.6,173.3,55.5,174.8,53.6z"/>
<path id="Path_6808" class="st7" d="M170.2,44.4c0,0,3.7,7.8,4.6,9.2c-6.9-1.5-7.7-8.6-7.7-8.6l1.9-2.6L170.2,44.4z"/>
<path id="Path_6809" class="st0" d="M151.3,120.6c0,0,9.8-9.9,10.6-8.8C162.4,124.3,151.3,120.6,151.3,120.6z"/>
<path id="Path_6810" class="st0" d="M147.1,58.9H145c0,0,1.1-5.8,4.6-8.4v6.3L147.1,58.9z"/>
<path id="Path_6811" class="st2" d="M169.6,42.9c-2.9,4.9-5.1,10.2-6.6,15.7c-3.1,11.3,0.8,46.2-1.6,55.5c-1.3,5.1-7.8,7.5-10.8,6.3
	c1.4-27.4-4.4-41.7-3.7-60c0.6-11.3,11-23.5,15.5-22.8c6.1,0.9,7,0,7,0L169.6,42.9z"/>
<path id="Path_6812" class="st7" d="M174.8,53.6c8.5,2.9,12.1-2.4,12.7-5L174.8,53.6z"/>
<path id="Path_6813" class="st1" d="M174.8,53.6l3.3-7.4c1.8-0.4,5.6-1.5,7.8-4.4l1.6,5.4C184.2,56.5,174.8,53.6,174.8,53.6z"/>
<path id="Path_6814" class="st1" d="M169.9,34.2c0,0-3.1,9-0.7,14.5c1.1,2.3,3.2,4.1,5.6,4.8l-0.5-8.5
	C170.3,41.8,169.9,34.2,169.9,34.2z"/>
<path id="Path_6815" class="st0" d="M178,117.2c1.9,18.3,26.7,20.9,28.7,18.8C206.7,136,180.3,116.1,178,117.2z"/>
<path id="Path_6816" class="st2" d="M208.1,53.5c-5.6-3.2-10.4-7.7-14-13.1c0,0-15.2,13-16.1,31.4c-0.8,18.1-1.7,44.7,0.8,48.5
	c8.4,12.4,26.9,17.8,28.8,15.3c-0.7-13.2-8.6-25.2-8.6-28.4c0-5.8,14.4-29.5,14.4-29.5S207.2,60.6,208.1,53.5z"/>
<path id="Path_6817" class="st2" d="M204.4,79.3c0,0-12.2-20,0.8-25.6c7.9-3.4,21.1,18.5,41.4,33.2c3.5,2.5-12.7,9.7-12.7,9.7
	l-20.6-9.4L204.4,79.3z"/>
<path id="Path_6818" class="st0" d="M223.8,85c-0.3,3.9,19.6,0.9,19.6,0.9S229.2,82.7,223.8,85z"/>
<path id="Path_6819" class="st8" d="M197.1,18.5c0,0,0.6,5.3-0.4,7.7c0.5,8.8-1.7,13.4-2.4,18.5c-0.7,5-8.5,4.9-10.9,3.2
	s-8.1-5.6-10.4-7.6c-2.3-2-2.1-6.7-2.1-6.7s-3.2,0.4-4.3-4.8c-0.9-0.8-1.4-1.9-1.6-3.1l-0.4-8.6l17.2-10.8l12.1,6.2L197.1,18.5z"/>
<path id="Path_6820" class="st8" d="M183.6,288.1c-0.9-5.1-2.3-10.1-4.2-15l-6.4,0.3l-4.9,2.9l8,13.1l7.4,2.9L183.6,288.1z"/>
<path id="Path_6821" class="st9" d="M173.7,275.4c6.6,13.8,9.9,12.8,9.9,12.8s1.8,6.3,9,11.9c-5.1,1.7-12.1-1.4-15.6-5.9
	c-6.6-8.4-11.4-8.8-15.7-13.8c-4.4-5,2-9.4,2-9.4l5.9,1C169.2,272,173.6,273.9,173.7,275.4z"/>
<path id="Path_6822" class="st4" d="M84.2,45.4c7.5,0.3,14.5,3.1,21.8,2.3c0.2,1.5,0,6.8,0,6.8L94.3,54l-7.2-3L84.2,45.4z"/>
<path id="Path_6823" class="st8" d="M102.8,67.9c-2.1-2.1-4.6-3.9-7.3-5.3c-7.3-3.6-17.7-6.3-18-10.9c-0.3-4.9,4.7-7.2,8.7-6.1
	s9.4,3.6,11.9,3.8s6.5-0.2,7.8,0.3l-0.9,6.5l-1.7,5.8L102.8,67.9z"/>
<path id="Path_6824" class="st8" d="M103.7,71.8c2.1,8,5.1,15.7,9,22.9l3.5,6.1l1.3,3.2l1.6,11.2l6.9,5.1h9.9l0.7-10.7l-3.5-10.8
	c0,0,12.1-23.7,11.6-24.8c-3.7-4-7.8-7.5-12.2-10.6c0.3-2,0.9-4,1.8-5.8l0.5-4.4l-20.3-3.7l-11.9,10v5.6
	C102.6,67.4,103,69.6,103.7,71.8z"/>
<path id="Path_6825" class="st4" d="M134.3,57.6l-0.4-2.4h-13.2c0.3,0.9,0.7,1.7,1.3,2.5C130.3,59.8,134.3,57.6,134.3,57.6z"/>
<path id="Path_6826" class="st9" d="M103.7,71.8c0,0-6.1-13.4,1.7-19.6l4.7,2.7C101.7,58.6,103.7,71.8,103.7,71.8z"/>
<path id="Path_6827" class="st9" d="M132.5,63.4c0,0,9.8,7.9,10.8,11.9c0.6,2.4,1.7,4.7,3.2,6.7c0,0,5.7,3.8,5.7,2.2
	C148.5,72.1,132.5,63.4,132.5,63.4z"/>
<path id="Path_6828" class="st10" d="M160.7,158.4c0,0,19.4,36.9,19.2,50.4c-0.6,44,2.8,55.4,1.4,60.3
	c-5.7,20.3-51.5,11.4-51.5,11.4s-40.5-8.3-33.1-21.9c16.2-29.7,10.6-116.6,10.6-116.6l12.8-3.1l25.1-6.2
	C150.2,142,160.7,158.4,160.7,158.4z"/>
<path id="Path_6829" class="st9" d="M132,74c-4.3,2.3-6,8.2-6,15.2c0,6,3,18.8,4.1,24.1c0.8,3.8-2.3,5.6-5.6,3.2s-4-5-5.2-8.7
	c-1.2-3.7-2.6-10.1-6.7-13.1c3.8,7.7,5.2,11.1,4.4,13.9c-1,3.7-11.4,19.6-9.8,33.4c1.4,12.6,9.8,22.9,10.4,40
	c8.3-18.2,20.6-32.5,30.4-35.3c3.3-1.2,12.7,11.7,12.7,11.7c-2.8-7-6.1-11-7.5-16.9c-2-8.8-3.6-21.9-3.3-26.3
	c0.4-6.6,3.4-26.5,2.8-29.2C152.2,83.4,142.6,68.3,132,74z"/>
<path id="Path_6830" class="st4" d="M145.8,85.9c0,5.5-3.6,9.9-7.9,9.9c-4.3,0-8-4.5-8-9.9c0-5.5,3.6-9.9,8-9.9
	C142.3,76,145.8,80.4,145.8,85.9z"/>
<path id="Path_6831" class="st11" d="M134,23.7c4,2.8,3.6,10.2,3.6,10.2l-9.1-6.7l1.8-3.2L134,23.7z"/>
<path id="Path_6832" class="st8" d="M133.1,25.7c0,0,3.5,2,4.7,9.6c4.1,6.3,5.1,15.6,5.4,17.2s-0.8,3.4-5.9,4.7
	c-6.9,1.7-15.4-1.3-15.4-1.3l-4.7-15.4l8.9-19.3L133.1,25.7z"/>
<path id="Path_6833" class="st11" d="M128.1,31.5c0,0-3.7-0.1-2.5,6.8c1.8,10.3-3.4,19.4,4.3,26.1c0,0-2.5,0.1-3.8-1.3
	c-0.8,4.7,4.7,8,4.7,8s-20.5,5.1-27.8-12.2c-2.2-5.1-3.9-29.2,1.7-31c3.1-10.9,12.4-10.3,17.2-9.3c8,1.6,12.1,5.1,12.1,5.1l-0.8,2
	C130.5,24.8,128.1,31.5,128.1,31.5z"/>
<path id="Path_6834" class="st12" d="M126,29c-8.9-2.5-19.1-1.7-19.1-1.7C113.3,25.6,120,26.2,126,29z"/>
<path id="Path_6835" class="st0" d="M223.8,85c0,0-3.7-0.7-5.1,5.5c-1.6,7.1,1.8,8,1.8,8l7.6,0.6l1.6-13.2L223.8,85z"/>
<path id="Path_6836" class="st7" d="M220.8,96.1c0,0-2.4-0.3-2.6-4.6c-0.4-6.9,3.7-6.5,3.7-6.5l3.4,7.2l-2,4.4L220.8,96.1z"/>
<path id="Path_6837" class="st8" d="M203.2,87.1c0.3-1.4,0.9-2.8,1.7-4l8.8,7.2c-1.5,1.7-3.4,3.1-5.5,4l-5.8-1L203.2,87.1z"/>
<path id="Path_6838" class="st4" d="M203.9,84.9c-0.6,3.9,5.7,6.9,7.9,7.2l-1.3-3.2l-4.2-3.9L203.9,84.9z"/>
<path id="Path_6839" class="st8" d="M203.8,79c1.8-4.3,11.4-3.9,13.2-2.6s5,8.6,5,8.6l5.5,2.1l-1.5,8.5l-5.1-0.2
	c0,0-6.7,0.6-8.6-2.8C211.4,91,200.5,87,203.8,79z"/>
<path id="Path_6840" class="st8" d="M132.5,78.3c-9.6,11.4,10.6,18.5,10.6,18.5s24.4,15.6,32.1,17.3s33-19.8,33-19.8l-5-7.2
	c-13.7,7.6-20.9,9.3-27.5,13.8c0,0-12.6-11-23-16.1C150.2,82.5,139.7,69.6,132.5,78.3z"/>
<path id="Path_6841" class="st4" d="M106.6,81.2c0,0,5,2.6,5.5,4.4c0.4,1.5-0.4,1.8-0.4,1.8s7.8,4.7,6.7,7.6
	c-0.5,1.5-3.2,2.4-3.2,2.4l-9.2-4.7l-1.1-6.5L106.6,81.2z"/>
<path id="Path_6842" class="st8" d="M99.1,84.5c0,5.3,4.2,12.9,7.4,14c2.6,0.9,10.6-0.2,11.1-3.8c0.3-2.2-8-7.5-8-7.5
	c0.7,0,1.4-0.5,1.4-1.3c0-0.1,0-0.1,0-0.2c0.1-1.1-2.2-2.4-3.9-4.2C105.4,79.8,99.1,82,99.1,84.5z"/>
<path id="Path_6843" class="st11" d="M166.6,29.1c0,0-1.5-6.1,0.4-5.4c3.4,1.4,3.5,5.4,4.4,5.1c0.9-0.3,1.2-2.4,2.2-3.9
	s2.6-1.5,4.4-7.9c2-1.2,13.3,6.4,19.7,1c5.5-4.6-13.7-27-28-14c-3.7-0.6-7.3,4.1-7.3,11.6C162.4,28.3,166.6,29.1,166.6,29.1z"/>
<path id="Path_6844" class="st13" d="M170.1,5c1.4-0.9,6.2,9.1,6.2,9.1S168.8,6,170.1,5z"/>
<path id="Path_6845" class="st1" d="M221.9,85c2.4,0.5,4.8,0.8,7.3,1l-2,12.6c-2-1.1-4.2-1.9-6.4-2.5
	C225.4,96.2,225.7,86.5,221.9,85z"/>
<path id="Path_6846" class="st0" d="M223.8,85c9.2,0.9,17.1,0.2,20.7,1.1c3.6,0.8,6.9,4.2,5,11.1c-0.9,4.2-4.9,6.9-9.1,6.3
	c-6.7-1-13.4-2.6-19.8-4.8C227,98.6,229.9,86.4,223.8,85z"/>
</svg>
