<?xml version="1.0" encoding="utf-8"?>
<!-- Generator: Adobe Illustrator 27.6.1, SVG Export Plug-In . SVG Version: 6.00 Build 0)  -->
<svg version="1.1" id="Layer_1" xmlns="http://www.w3.org/2000/svg" xmlns:xlink="http://www.w3.org/1999/xlink" x="0px" y="0px"
	 viewBox="0 0 427.3 399.8" style="enable-background:new 0 0 427.3 399.8;" xml:space="preserve">
<style type="text/css">
	.st0{fill:none;stroke:#707070;}
	.st1{opacity:0.15;enable-background:new    ;}
	.st2{fill:#121215;}
	.st3{fill:#F0C6B5;}
	.st4{fill:#94DCED;}
	.st5{fill:#C7A496;}
	.st6{fill:#19204A;}
	.st7{fill:#2F3032;}
	.st8{fill:#33417E;}
	.st9{fill:#F7D046;}
	.st10{fill:#525353;}
	.st11{fill:#F59B9E;}
	.st12{fill:#BCBEC0;}
	.st13{fill:#939497;}
	.st14{fill:#2F2F2D;}
	.st15{fill:#2B656B;}
	.st16{fill:#DEAF5A;}
	.st17{fill:#53B7D5;}
	.st18{fill:#DCDBDA;}
	.st19{fill:#D0D1D1;}
	.st20{fill:#B0B0B0;}
	.st21{fill:#5498A8;}
	.st22{fill:#05091E;}
	.st23{fill:#7D8A90;}
	.st24{fill:#3F4045;}
	.st25{fill:#42444A;}
	.st26{fill:#2B2C30;}
	.st27{fill:#4D4E53;}
	.st28{opacity:0.15;}
	.st29{fill:#756A61;}
	.st30{fill:#232429;}
	.st31{fill:#070709;}
	.st32{fill:none;stroke:#707070;stroke-linecap:round;}
</style>
<path id="Path_301" class="st0" d="M138.5,265.4c0,0-67.9,104.3-72.7,20.4c-0.5-6.3,11.7-83.4,158-25.1c1.1,0.7,38.5,12.3,34.8,41.8
	c-2.6,14.9-81.8-6.6,14.1-37.1"/>
<ellipse id="Ellipse_1" class="st1" cx="157" cy="360.8" rx="87.5" ry="39"/>
<path id="Path_1" class="st2" d="M119.9,129.5l4.9,70.3l1.7-2.4l5.5,1.6l-4.7-66L119.9,129.5z"/>
<path id="Path_2" class="st3" d="M245.3,128.9c-1.3-1-4,6.4-12.6,12.9c-4.5-1.5-30.1-19.1-37.8-20.9c-0.1-2.3-1.4-10-2.9-13
	c-1.4-3.1-7.8,3.4-7.8,3.4s-5.3,18.8-2.6,23c14.5,8.7,33.7,11.8,46.1,18.1c0.2-0.7,0.5-1.3,0.9-1.9l2.4,2.3l14.8-18.1
	C245.9,134.7,247.5,130.6,245.3,128.9z"/>
<path id="Path_3" class="st4" d="M170.9,58.8c-23,3.2-8.7,28.9-8.7,28.9s4.6,19.5,7,25.5c16,6.6,25.7-6.9,25.7-6.9L185,78.6
	C185,78.6,181.5,57.3,170.9,58.8z"/>
<path id="Path_4" class="st3" d="M109.1,340.8l0.6,4l-2.4,3.7l-10.1-3l-5-3.7l-2.5-7.2l2.2-6.7l2.5-1.6l5.7,1.2l4.6,6.5l3.3,2.4
	L109.1,340.8z"/>
<path id="Path_5" class="st3" d="M192.4,354.3l-1.7-3.4l-7.4-2.7l-8.6,0.5l-4.3,0.2l-0.6,3.2l2.1,5.7l9.4,3.8l7.3-0.8l1.4-2.2
	L192.4,354.3z"/>
<path id="Path_6" class="st3" d="M137.3,153.1c9,10.2,0,26.2,0,26.2l8.8,8.3l19.3-2.5l28-15.1l3.7-9.7c0,0-5.3-12.7-6.6-24
	c-0.9-2.7-34.2,1.6-34.2,1.6S135.6,150.6,137.3,153.1z"/>
<path id="Path_7" class="st5" d="M129.9,53.4c-0.3,5.2-1.7,10.2-4,14.8l2.9,4.8l17.8,11.7l13-2.4l4.2-11.1l-2.6-17.7l-10-19.7
	L131.4,33C131.4,32.8,129.5,50.7,129.9,53.4z"/>
<path id="Path_8" class="st6" d="M165,217.6c0,0,7.5,26.8,17.9,64.3c-5.6,8.6-7.8,10.4-9.8,17.1c-4,13.6,1.2,34.8-2.6,49.9
	c5.5,7.8,18.3,2.9,20.2,2c-1.4-28,15.1-59.2,15.9-69.2c-0.9-32.5,2.8-67.3-7.2-115c-6.7,6.9-43,20.5-43,20.5L165,217.6z"/>
<path id="Path_9" class="st6" d="M133,181.9c-2.8,4.2-4.8,8.8-6,13.7c-3.5,14.7-4.3,86.5-4.3,86.5c-4.8,1.7-9.2,4.4-12.9,7.9
	c-6.3,6.1-8.9,23.9-15.4,36.2c0.6,2.6,1.4,13.6,14.7,14.4c8.9-32.6,32.6-39.6,36.1-51.4c2.8-8.7,20.8-36.1,23.9-75
	c0,0,25.1-16.5,30.3-47.7C166.4,193.6,134.6,187.4,133,181.9z"/>
<path id="Path_10" class="st2" d="M131,181.7l1.2,15.1l-5.9,2.3l-0.8-13.4L131,181.7z"/>
<path id="Path_11" class="st7" d="M134.1,177.1c25,21.4,63-16.8,63-16.8l2.2,6.3c0,0-32.8,39.4-67.7,17.7L134.1,177.1z"/>
<path id="Path_12" class="st4" d="M154.3,76.7c-6.2,3.7-28.5-10.1-28.5-10.1s-7,14.3-13,18.5s4.1,41,8.6,48.8s13.6,18,15.8,19.3
	c22.7,11.7,53.2-16.8,53.2-16.8v-18.7c0,0,5.8-4.3,5.2-13.8s-20.8-29-28.6-42.4c-1.3-3.5-11.9,0.2-11.9,0.2S160.5,72.9,154.3,76.7z"
	/>
<path id="Path_13" class="st2" d="M157.1,58.7c26.2,38.1,31.6,96.2,31.6,96.2l5.9-4.7c0,0-3.6-51-30-93.7
	C162,53.9,156.1,50.3,157.1,58.7z"/>
<path id="Path_14" class="st3" d="M177.9,29.8c-0.5,2.3-1.9,4.3-3.8,5.7c-0.4,4.4-0.1,8.8,1,13.1c-0.9,1.5-3.5,1.7-3.5,1.7
	s-2.1,6.1-4.1,14c-4.4,2.7-20.9-3-23.6-8.1c-1.4-2.7-0.8-10.6-0.8-10.6c-2.2-0.7-3.9-2.5-4.3-4.8c-0.9-3.5,0.9-11,0.9-11l15.4-11.7
	H174C174,18.1,178.6,26.2,177.9,29.8z"/>
<path id="Path_15" class="st8" d="M287.2,96.8l-9.5,4.4l-13.5,16.1l2.4,8.8l15.3-9.6l6.8-18.8L287.2,96.8z"/>
<path id="Path_16" class="st9" d="M208.7,199.4l-6.5-3.8l0,0c-2.8-1.9-12.4,8.5-16.2-4.9l3.2-9c-2-7.3-1.4-15.1,1.9-21.9l2.8,3.9
	l10.2-14.2l-6.8-4c-2.5-1.4-19,11.6-24.6,17.1c-8.7,8.4-11.2,18.2-15.5,22c-5.8,5.2-14.3-1.7-29.6,11.9
	c-22.9,20.4-12.1,50.8-12.1,50.8s2.8,13.7,10.6,18.5l0,0l7.2,4.2l1.3-2.9c3.1-0.7,6.6-2.6,10.6-6.2c15.2-13.6,17.4-29.9,23.2-35.1
	c4.3-3.8,10.5-1.5,18.8-9.7c4.2-3.9,8.6-7.9,11.7-11.4l2.7,2L208.7,199.4z"/>
<path id="Path_17" class="st10" d="M154.5,213.7h-0.6l0.3-0.9h0.6L154.5,213.7z"/>
<path id="Path_18" class="st10" d="M155.2,216.3h-0.6l0.3-0.9h0.6L155.2,216.3z"/>
<path id="Path_19" class="st10" d="M155.9,218.9h-0.6l0.3-0.9h0.6L155.9,218.9z"/>
<path id="Path_20" class="st10" d="M156.5,221.3h-0.6l0.3-0.8h0.6L156.5,221.3z"/>
<path id="Path_21" class="st10" d="M157.2,223.8h-0.6l0.3-0.8h0.6L157.2,223.8z"/>
<path id="Path_22" class="st10" d="M150.1,220.8h-0.6l0.3-0.9l0.6,0.1L150.1,220.8z"/>
<path id="Path_23" class="st10" d="M150.9,223.4l-0.6-0.1l0.3-0.8h0.6L150.9,223.4z"/>
<path id="Path_24" class="st10" d="M151.5,225.7h-0.6l0.3-0.8l0.6,0.1L151.5,225.7z"/>
<path id="Path_25" class="st10" d="M152.2,228.3h-0.6l0.3-0.9l0.6,0.1L152.2,228.3z"/>
<path id="Path_26" class="st10" d="M174.5,195.9h-0.6l0.3-0.9l0.6,0.1L174.5,195.9z"/>
<path id="Path_27" class="st10" d="M175.2,198.5l-0.6-0.1l0.3-0.8h0.6L175.2,198.5z"/>
<path id="Path_28" class="st10" d="M176,201.1l-0.6-0.1l0.3-0.8h0.6L176,201.1z"/>
<path id="Path_29" class="st10" d="M176.6,203.4H176l0.3-0.8h0.6L176.6,203.4z"/>
<path id="Path_30" class="st10" d="M177.3,206l-0.6-0.1l0.3-0.8h0.6L177.3,206z"/>
<path id="Path_31" class="st10" d="M169.5,200.3h-0.6l0.3-0.9l0.6,0.1L169.5,200.3z"/>
<path id="Path_32" class="st10" d="M170.2,202.9l-0.6-0.1l0.3-0.9l0.6,0.1L170.2,202.9z"/>
<path id="Path_33" class="st10" d="M170.9,205.5h-0.6l0.3-0.8h0.6L170.9,205.5z"/>
<path id="Path_34" class="st10" d="M171.6,207.9H171l0.3-0.9l0.6,0.1L171.6,207.9z"/>
<path id="Path_35" class="st10" d="M172.3,210.4l-0.6-0.1l0.3-0.8h0.6L172.3,210.4z"/>
<path id="Path_36" class="st11" d="M170,229.5c-2,2.6-9.3,20.5-14.7,26C161.6,247.4,166.1,234,170,229.5z"/>
<path id="Path_37" class="st12" d="M276.4,101.5l0.2-0.6l-0.8-0.5h-0.2l-2.5,2.9l-0.1,0.3l0.8,1.4l0.8,0.5l0.5-1.2l0.4,0.8l0.8,0.5
	l-0.9-2.3l0.1-0.3l0.8-0.9l0.1-0.3L276.4,101.5z"/>
<path id="Path_38" class="st13" d="M277.4,102.3l-0.8-1.4h-0.2l-2.5,2.9l-0.1,0.3l0.8,1.4l0.2-0.1l0.9-1l0.7,1.2l0.6-0.7l-0.7-1.2
	l0,0l1-1.1L277.4,102.3z"/>
<path id="Path_39" class="st12" d="M272.9,105.4l0.2-0.6l-0.8-0.5l-0.2,0.1l-2.5,2.9l-0.1,0.3l0.8,1.4l0.8,0.5l0.5-1.2l0.4,0.8
	l0.8,0.5l-0.9-2.3l0.1-0.3l0.8-0.9l0.1-0.3L272.9,105.4z"/>
<path id="Path_40" class="st13" d="M274,106.2l-0.8-1.4l-0.2,0.1l-2.5,2.8l-0.1,0.3l0.8,1.4h0.2l0.9-1l0.7,1.2l0.6-0.7l-0.7-1.2
	l1-1.1L274,106.2z"/>
<path id="Path_41" class="st12" d="M269.4,109.5l0.2-0.6l-0.9-0.5h-0.2l-2.5,2.9l-0.1,0.3l0.8,1.4l0.9,0.5l0.5-1.2l0.4,0.8l0.8,0.5
	l-0.9-2.3l0.1-0.3l0.8-0.9l0.1-0.3L269.4,109.5z"/>
<path id="Path_42" class="st13" d="M270.5,110.3l-0.8-1.4h-0.2l-2.5,2.9l-0.1,0.3l0.8,1.4h0.2l0.9-1l0.7,1.2l0.6-0.7l-0.7-1.2l1-1.1
	L270.5,110.3z"/>
<path id="Path_43" class="st12" d="M282.1,119.6l-0.9-0.5l0,0H281l-0.4,0.3l0.2-0.6l-0.9-0.5l-0.7,0.4l0.1,1.6l0,0l-1,0.6l-0.2,0.3
	l0.1,2l0.1,0.1l0.8,0.6l1.3-1.9l0.7-0.5l0.2-0.3v-0.5L282.1,119.6z"/>
<path id="Path_44" class="st13" d="M282.2,119.7l-0.2-0.1l-1.1,0.7l0,0l-0.1-1.6l-0.7,0.4l0.1,1.6l-1,0.6l-0.2,0.3l0.1,2l0.2,0.1
	l2.8-1.8l0.2-0.3L282.2,119.7z"/>
<path id="Path_45" class="st12" d="M278.2,122.1l-0.9-0.5l0,0h-0.2l-0.4,0.3l0.2-0.6l-0.9-0.5l-0.7,0.4l0.1,1.6l-1,0.7l-0.2,0.3
	l0.1,2l0.1,0.1l0.8,0.6l1.3-1.9l0.7-0.5l0.2-0.3v-0.5L278.2,122.1z"/>
<path id="Path_46" class="st13" d="M278.3,122.2l-0.2-0.1l-1.1,0.7l-0.1-1.6l-0.7,0.4l0.1,1.6l0,0l-1,0.7l-0.2,0.3l0.1,2l0.2,0.1
	l2.8-1.8l0.2-0.3L278.3,122.2z"/>
<path id="Path_47" class="st12" d="M274.4,124.7l-0.9-0.5l0,0h-0.2l-0.4,0.3l0.2-0.6l-0.9-0.6l-0.7,0.5l0.1,1.6l-1,0.6l-0.2,0.3
	l0.1,2l0.1,0.1l0.8,0.6l1.3-1.9l0.7-0.5l0.2-0.3v-0.5L274.4,124.7z"/>
<path id="Path_48" class="st13" d="M274.5,124.8l-0.2-0.1l-1.1,0.7l0,0l-0.1-1.6l-0.7,0.4l0.1,1.6l0,0l-1,0.7l-0.2,0.3l0.1,2
	l0.2,0.1l2.7-1.8l0.2-0.3V124.8z"/>
<path id="Path_49" class="st14" d="M291.2,106.4l-2.4-8.8l-9.5,4.4l-13.5,16.1l2.4,8.8l15.3-9.6L291.2,106.4z"/>
<path id="Path_50" class="st15" d="M279.3,102l-13.5,16.1l2.4,8.8l15.3-9.6L279.3,102z"/>
<path id="Path_51" class="st16" d="M179.5,166.5c-8.7,8.4-11.2,18.3-15.5,22.1c-5.8,5.2-14.3-1.6-29.6,11.9
	c-22.9,20.4-12.1,50.8-12.1,50.8s6.8,34,29.7,13.6c15.2-13.6,17.4-29.9,23.2-35.1c4.3-3.8,10.5-1.5,18.8-9.7
	c7.5-7,15.6-14.3,15.8-18.2c0.1-8.6-12.5,8.5-17-7.2l3.2-9c-5.9-21.4,12.6-34,8-36.2C201.5,148,185,161.1,179.5,166.5z"/>
<path id="Path_52" class="st17" d="M180,168.8c-6.9,6.7-10.3,19.8-15.5,24.5c-4.6,4.1-11.4-1.3-23.6,9.5
	c-18.2,16.2-9.6,40.5-9.6,40.5s5.4,27,23.7,10.8c12.1-10.8,13.9-23.8,18.5-27.9c3.4-3,13.9-1.8,20.3-7.6c6-5.6,12-10.6,12.2-13.7
	c0.2-6.1-10.8,5.8-14.4-8.7l1.8-12.3c-4.7-17,9.2-27.6,5.6-29.3C196.9,153.5,184.4,164.5,180,168.8z"/>
<path id="Path_53" class="st8" d="M265.4,118.6l-1.5-0.9l-77.6,66.2c-0.9,0.8-1.4,2-1.2,3.3l2.6,9.6l0.5,0.7l1.5,0.9l0.2-1.3l0,0
	L265.4,118.6z"/>
<path id="Path_54" class="st18" d="M265,118.8l-1.5-0.9l0.8-0.7l1.5,0.9L265,118.8z"/>
<path id="Path_55" class="st14" d="M189.3,197.7l-2.6-9.6c-0.2-1.2,0.2-2.5,1.2-3.3l77.6-66.1l2.3,8.5L191.4,198
	C190.5,198.8,189.6,198.7,189.3,197.7z"/>
<path id="Path_56" class="st19" d="M191.4,198l-3.6-13.2l0.6-0.6l3.6,13.2L191.4,198z"/>
<path id="Path_57" class="st19" d="M210.5,180.3l-3.3-12l0.6-0.5l3.3,12L210.5,180.3z"/>
<path id="Path_58" class="st19" d="M229.5,162.6l-3-10.9l0.6-0.6l3,10.9L229.5,162.6z"/>
<path id="Path_59" class="st19" d="M248.5,144.9l-2.6-9.7l0.6-0.6l2.6,9.6L248.5,144.9z"/>
<path id="Path_60" class="st18" d="M267.4,127.6l-2.4-8.8l0.8-0.7l2.4,8.8L267.4,127.6z"/>
<path id="Path_61" class="st8" d="M172.4,213.3l-2.9-10.7c-0.4-1.4,0.5-3.6,1.9-4.9l5.1-4.6c1.4-1.3,2.9-1.2,3.3,0.3l2.9,10.7
	c0.4,1.4-0.5,3.6-1.9,4.9l-5.1,4.6C174.3,214.9,172.8,214.8,172.4,213.3z"/>
<path id="Path_62" class="st17" d="M177.9,208.6l-3-11c-0.3-0.9,0.5-2.5,1.7-3.6h0.1c1.2-1.1,2.4-1.2,2.6-0.3l3,11
	c0.3,0.9-0.5,2.6-1.7,3.6l0,0C179.4,209.4,178.2,209.5,177.9,208.6z"/>
<path id="Path_63" class="st17" d="M173.1,212.9l-3-11c-0.3-0.9,0.5-2.5,1.6-3.5l0,0c1.1-1,2.2-1.1,2.5-0.1l3,11
	c0.3,0.9-0.5,2.5-1.6,3.5l0,0C174.4,213.8,173.3,213.8,173.1,212.9z"/>
<path id="Path_64" class="st8" d="M152.3,231.2l-2.9-10.7c-0.4-1.4,0.5-3.6,1.9-4.9l5.1-4.6c1.4-1.3,2.9-1.2,3.3,0.3l2.9,10.7
	c0.4,1.4-0.5,3.6-1.9,4.9l-5.1,4.6C154.2,232.8,152.7,232.7,152.3,231.2z"/>
<path id="Path_65" class="st17" d="M157.9,226.4l-3-11c-0.3-0.9,0.5-2.6,1.7-3.6l0,0c1.2-1.1,2.4-1.2,2.6-0.3l3,11
	c0.3,0.9-0.5,2.5-1.7,3.6l0,0C159.3,227.2,158.1,227.4,157.9,226.4z"/>
<path id="Path_66" class="st17" d="M153,230.8l-3-11c-0.3-0.9,0.4-2.5,1.6-3.5l0,0c1.1-1,2.2-1.1,2.5-0.1l3,11
	c0.3,0.9-0.5,2.5-1.6,3.5l0,0C154.4,231.6,153.2,231.7,153,230.8z"/>
<path id="Path_67" class="st8" d="M131,251.6l-3.6-13c-0.4-1.4,0.5-3.6,1.9-4.9l5.1-4.6c1.4-1.3,2.9-1.2,3.3,0.3l3.6,13
	c0.4,1.4-0.5,3.6-1.9,4.9l-5.1,4.6C132.9,253.1,131.4,253,131,251.6z"/>
<path id="Path_68" class="st20" d="M128.9,236.8l-0.1-0.5l23-19.4l25.1-22.3l11.6-9.1l82.3-70.6l0.1,0.5L188.5,186l-11.6,9.1
	l-25.1,22.3L128.9,236.8z"/>
<path id="Path_69" class="st20" d="M128.6,240l-0.1-0.5l24.4-20.6l24.2-21.5l97.7-84.7l0.1,0.5l-97.7,84.6L153,219.3L128.6,240z"/>
<path id="Path_70" class="st20" d="M129.3,243.8l-0.1-0.5l49.1-43.7L279,110.5l0.1,0.5l-105.8,93.6L129.3,243.8z"/>
<path id="Path_71" class="st20" d="M129.9,246.1l23.9-21.6l25.1-22.4l100.4-90l0.1,0.5L179,202.7L153.9,225L130,246.6L129.9,246.1z"
	/>
<path id="Path_72" class="st20" d="M130.7,249.1l23.3-21.8l25.5-22.7l96.3-87.7l0.2,0.5L179.7,205l-25.5,22.8l-23.3,21.8
	L130.7,249.1z"/>
<path id="Path_73" class="st20" d="M131.6,252.2l23.1-22.4l25.6-22.8l11.1-10.8l81.1-74.9l0.2,0.5l-81.1,74.9l-11.1,10.8l-25.6,22.8
	l-23.1,22.4L131.6,252.2z"/>
<path id="Path_74" class="st10" d="M156.9,213.1h-0.6l0.3-0.9h0.6L156.9,213.1z"/>
<path id="Path_75" class="st10" d="M157.6,215.6l-0.6-0.1l0.3-0.9h0.6L157.6,215.6z"/>
<path id="Path_76" class="st10" d="M158.3,218.1h-0.6l0.3-0.9h0.6L158.3,218.1z"/>
<path id="Path_77" class="st10" d="M159,220.8h-0.6l0.3-0.9l0.6,0.1L159,220.8z"/>
<path id="Path_78" class="st10" d="M159.7,223.1h-0.6l0.3-0.8h0.6L159.7,223.1z"/>
<path id="Path_79" class="st10" d="M160.4,225.7h-0.6l0.3-0.9h0.6L160.4,225.7z"/>
<path id="Path_80" class="st10" d="M151.9,217.6l-0.6-0.1l0.3-0.9l0.6,0.1L151.9,217.6z"/>
<path id="Path_81" class="st10" d="M152.6,220H152l0.3-0.9l0.6,0.1L152.6,220z"/>
<path id="Path_82" class="st10" d="M153.3,222.6h-0.6l0.3-0.9l0.6,0.1L153.3,222.6z"/>
<path id="Path_83" class="st10" d="M154,225.2l-0.6-0.1l0.3-0.9l0.6,0.1L154,225.2z"/>
<path id="Path_84" class="st10" d="M154.7,227.6l-0.6-0.1l0.3-0.8h0.6L154.7,227.6z"/>
<path id="Path_85" class="st10" d="M155.4,230.1l-0.6-0.1l0.3-0.9l0.6,0.1L155.4,230.1z"/>
<path id="Path_86" class="st10" d="M177,195.2h-0.6l0.3-0.8h0.6L177,195.2z"/>
<path id="Path_87" class="st10" d="M177.7,197.7h-0.6l0.3-0.9h0.6L177.7,197.7z"/>
<path id="Path_88" class="st10" d="M178.4,200.3h-0.6l0.3-0.8h0.6L178.4,200.3z"/>
<path id="Path_89" class="st10" d="M179.1,202.9l-0.6-0.1l0.3-0.8l0.6,0.1L179.1,202.9z"/>
<path id="Path_90" class="st10" d="M179.8,205.2h-0.6l0.3-0.8h0.6L179.8,205.2z"/>
<path id="Path_91" class="st10" d="M180.5,207.8h-0.6l0.3-0.8l0.6,0.1L180.5,207.8z"/>
<path id="Path_92" class="st10" d="M172,199.7l-0.6-0.1l0.3-0.8h0.6L172,199.7z"/>
<path id="Path_93" class="st10" d="M172.7,202.2h-0.6l0.3-0.9l0.6,0.1L172.7,202.2z"/>
<path id="Path_94" class="st10" d="M173.4,204.7l-0.6-0.1l0.3-0.9l0.6,0.1L173.4,204.7z"/>
<path id="Path_95" class="st10" d="M174.1,207.4h-0.6l0.3-0.9l0.6,0.1L174.1,207.4z"/>
<path id="Path_96" class="st10" d="M174.7,209.7h-0.6l0.3-0.9h0.6L174.7,209.7z"/>
<path id="Path_97" class="st10" d="M175.4,212.3h-0.6l0.3-0.9h0.6L175.4,212.3z"/>
<path id="Path_98" class="st2" d="M279.6,113.2l-1.1-0.1l0.7-1.6l1.1,0.2L279.6,113.2z"/>
<path id="Path_99" class="st2" d="M279.2,111.6l-1.1-0.2l0.7-1.6l1.1,0.2L279.2,111.6z"/>
<path id="Path_100" class="st2" d="M275,113.9l-1.1-0.1l0.6-1.6l1.1,0.1L275,113.9z"/>
<path id="Path_101" class="st2" d="M271.1,115.9l-1.1-0.1l0.7-1.6l1,0.1L271.1,115.9z"/>
<path id="Path_102" class="st2" d="M272.8,122.4l-1.1-0.1l0.7-1.6l1.1,0.1L272.8,122.4z"/>
<path id="Path_103" class="st2" d="M276.1,118l-1.1-0.2l0.7-1.6l1.1,0.1L276.1,118z"/>
<path id="Path_104" class="st21" d="M125.6,239.2v-0.1c-0.1-0.9,0.2-1.8,0.9-2.3l8.3-7.4c0.7-0.6,1.4-0.5,1.6,0.1v0.1
	c0.1,0.9-0.2,1.7-0.9,2.3l-8.3,7.4C126.5,239.9,125.8,239.8,125.6,239.2z"/>
<path id="Path_105" class="st21" d="M126.4,242.2v-0.1c-0.1-0.9,0.2-1.7,0.9-2.3l8.3-7.4c0.7-0.6,1.4-0.6,1.6,0.1v0.1
	c0.1,0.9-0.2,1.7-0.9,2.3l-8.3,7.4C127.3,242.9,126.6,242.8,126.4,242.2z"/>
<path id="Path_106" class="st21" d="M127.2,245.2v-0.1c-0.1-0.9,0.2-1.7,0.9-2.3l8.3-7.4c0.7-0.6,1.4-0.6,1.6,0.1v0.1
	c0.1,0.9-0.2,1.7-0.9,2.3l-8.3,7.4C128.1,245.9,127.4,245.9,127.2,245.2z"/>
<path id="Path_107" class="st21" d="M128,248.2v-0.1c-0.1-0.9,0.2-1.7,0.9-2.3l8.3-7.4c0.7-0.6,1.4-0.6,1.6,0.1v0.1
	c0.1,0.9-0.2,1.7-0.9,2.3l-8.3,7.4C128.9,248.9,128.2,248.8,128,248.2z"/>
<path id="Path_108" class="st21" d="M128.8,251.1V251c-0.1-0.9,0.2-1.8,0.9-2.3l8.3-7.4c0.7-0.6,1.4-0.5,1.6,0.1v0.1
	c0.1,0.9-0.2,1.8-0.9,2.3l-8.3,7.4C129.7,251.9,129,251.8,128.8,251.1z"/>
<path id="Path_109" class="st21" d="M129.7,254.1L129.7,254.1c-0.1-1,0.2-1.9,0.9-2.4l8.3-7.4c0.7-0.6,1.4-0.6,1.6,0.1v0.1
	c0.1,0.9-0.2,1.7-0.9,2.3l-8.3,7.4C130.6,254.9,129.8,254.8,129.7,254.1z"/>
<path id="Path_110" d="M135.7,38.6c0,0,2.7,2.5,2.2,5.5c7-4.7,7.8-9.1,7.8-9.1c1.4,1.5,1.8,3.6,1,5.5c5.4-3,8.5-1.1,11-6.5
	c7.4-0.1,10.5-8,10.5-8s3,4.2-3.3,11.3c11.3-4,12-8.4,12-8.4s0.4,0.5-0.6,4.5c5.8-4.3,3.1-13.7,3.1-13.7S171-3.2,145.8,0.4
	c-22.7,3.2-21.7,30.8-21.7,30.8s1.9,23.6,5.8,22.1C137.2,50.2,135.7,38.6,135.7,38.6z"/>
<path id="Path_111" class="st3" d="M120.4,139.9c0,0-3.5,12.8-5,14.3c9.6,5.6,23.8,23.2,39.7,31.5c1.3,0.6,10.4-0.6,13.2,1.3
	c1.7,1.2,1.4,4.9,1.4,4.9s11.7,8.7,7.1,15.2c-4.6,6.6-16.9,1.3-19.1,0.3c-2.2-1-7.5-7.2-11-12.6c-15.9-11-45-22.5-49.7-29.7
	c-1.4-2.8,1.2-28.7,1.2-28.7L120.4,139.9z"/>
<path id="Path_112" class="st4" d="M123,85.8c-22-7.5-20.8,21.8-20.8,21.8s-4.7,21.5-5.2,27.9c4.5,12.6,26,5.4,26,5.4l3.7-31.2
	C126.7,109.8,133.2,89.3,123,85.8z"/>
<path id="Path_113" class="st4" d="M142.7,126.7c4.3,14.7,22.9,3.4,22.9,3.4S150.1,135.2,142.7,126.7z"/>
<path id="Path_114" class="st22" d="M169.9,352c0,0,7.2,9.1,22.5,2.3c6.5,6.1,13.9,11.3,21.9,15.2c2.4,1.2,3.5,8,1.3,10.1
	c-3.7,3.8-14.7,0.9-19.2-1.6s-12-8.9-12-8.9s-12.8-0.9-14.6-4.1C168,361.8,169.9,352,169.9,352z"/>
<path id="Path_115" class="st22" d="M91.9,327.9c-1,19.1,17.7,16.9,17.7,16.9s4.9,10.6,13.4,17.4c1.8,2.1,2.1,7.2,1,8.1
	c-3,2.4-15.4,4.6-22.7-2.2c-5.6-5.2-10.7-20.1-10.7-20.1s-6.3-6.8-6.1-10.5C84.8,333.8,91,328.7,91.9,327.9z"/>
<path id="Path_116" class="st3" d="M239.6,153.3l6-5.6c-0.7-2.4-0.5-5,0.3-7.4c1-2.5,3.3-8.1,6.9-8c5.8,0.1,6.6,6.7,5.6,9
	C252.6,153.5,239.6,153.3,239.6,153.3z"/>
<path id="Path_299" class="st23" d="M139.1,264.3c-0.8,0.4-1.4,1.1-1.5,2c-0.1,0.8,0.4,1.2,1.2,0.9c0.8-0.4,1.4-1.1,1.5-2
	C140.3,264.4,139.8,264,139.1,264.3z"/>
<path id="Path_118" class="st24" d="M362,307.6l-53.8,31v-96.4l53.8-31V307.6z"/>
<path id="Path_119" class="st25" d="M357.5,307l-44.9,25.9v-65.7l44.9-25.9V307z"/>
<path id="Path_120" class="st26" d="M350.8,278.8c0,10.7-7.6,23.7-16.9,29.1S317,309,317,298.3s7.6-23.7,16.9-29.1
	S350.8,268.1,350.8,278.8z"/>
<path id="Path_121" class="st27" d="M357.5,302l-44.9,26v-0.7l44.9-25.9V302z"/>
<path id="Path_122" class="st27" d="M357.5,295.4l-44.9,25.9v-0.7l44.9-25.9V295.4z"/>
<path id="Path_123" class="st27" d="M357.5,288.8l-44.9,25.9V314l44.9-25.9V288.8z"/>
<path id="Path_124" class="st27" d="M357.5,282.2l-44.9,25.9v-0.7l44.9-25.9V282.2z"/>
<path id="Path_125" class="st27" d="M357.5,275.6l-44.9,25.9v-0.7l44.9-25.9V275.6z"/>
<path id="Path_126" class="st27" d="M357.5,268.9l-44.9,25.9v-0.7l44.9-25.9V268.9z"/>
<path id="Path_127" class="st27" d="M357.5,262.3l-44.9,25.9v-0.7l44.9-25.9V262.3z"/>
<g id="Group_2" transform="translate(321 399.996)" class="st28">
	<path id="Path_300" d="M-35.2-75.2l-21.4-1L-74.5-85l28.6-22.7L-35.2-75.2z"/>
</g>
<path id="Path_128" class="st27" d="M357.5,255.7l-44.9,25.9v-0.7l44.9-25.9V255.7z"/>
<path id="Path_129" class="st27" d="M357.5,249.1L312.6,275v-0.7l44.9-25.9V249.1z"/>
<path id="Path_130" class="st29" d="M357.5,242.9l-44.9,25.9v-0.7l44.9-25.9V242.9z"/>
<path id="Path_131" class="st26" d="M314.2,270l43.3-25v-3.7l-44.9,25.9v65.7l1.6-0.9V270z"/>
<path id="Path_132" class="st26" d="M354.5,243.1v62.8l-41.9,24.2v2.9l44.9-25.9v-65.7L354.5,243.1z"/>
<path id="Path_133" class="st27" d="M357.5,236.9l-44.9,25.9v-18.2l44.9-25.9V236.9z"/>
<path id="Path_134" class="st30" d="M342.1,236.2l-26.7,15.4v-6.4l26.7-15.4V236.2z"/>
<path id="Path_135" class="st26" d="M357.5,218.7l-15.4,11.2l-26.7,15.4l-2.8-0.7L357.5,218.7z"/>
<path id="Path_136" class="st26" d="M342.1,236.2l15.4,0.7l-44.9,25.9l2.8-11.2L342.1,236.2z"/>
<path id="Path_137" class="st27" d="M332.1,253.3h2.4v-22h-2.4V253.3z"/>
<path id="Path_138" class="st27" d="M332.1,233.4l-2.6,1.5l-1.3,3v6.4l4,7.4v-18.3L332.1,233.4L332.1,233.4z"/>
<path id="Path_139" class="st26" d="M272.2,317.7l36,20.9v-96.4l-36-20.9V317.7z"/>
<path id="Path_140" class="st26" d="M273.8,222.2V318l34.6,19.5l-0.3,1.1l-36-20.9v-96.4L273.8,222.2z"/>
<path id="Path_141" class="st27" d="M284.1,278.4l10.4,6v-21.1l-10.4-6V278.4z"/>
<path id="Path_142" class="st31" d="M284.1,257.3l4.7,6v7.9l5.8,0.2v-8.1L284.1,257.3z"/>
<path id="Path_143" class="st27" d="M284.1,269.7l10.4,6v-4.2l-10.4-6V269.7z"/>
<path id="Path_144" class="st27" d="M272.2,221.2l36,20.9l53.8-31l-36-20.9L272.2,221.2z"/>
<path id="Path_145" class="st26" d="M325.5,190.7l32.9,20l-49.5,29.7l-35.6-18.5l34.9,20.3l53.8-31l-36-21L325.5,190.7z"/>
<path id="Path_161" class="st31" d="M284.1,269.1v2.5l10.4,6v-2.5L284.1,269.1z"/>
<path id="Path_162" class="st31" d="M284.1,278.4l10.4,6v-6.8l-6.8-4L284.1,278.4z"/>
<path id="Path_302" class="st32" d="M99.8,310.3c0,0,26.7-19.8,39.3-45"/>
</svg>
