<?xml version="1.0" encoding="utf-8"?>
<!-- Generator: Adobe Illustrator 27.6.1, SVG Export Plug-In . SVG Version: 6.00 Build 0)  -->
<svg version="1.1" id="Layer_1" xmlns="http://www.w3.org/2000/svg" xmlns:xlink="http://www.w3.org/1999/xlink" x="0px" y="0px"
	 viewBox="0 0 398.7 370.5" style="enable-background:new 0 0 398.7 370.5;" xml:space="preserve">
<style type="text/css">
	.st0{opacity:0.15;}
	.st1{fill:#A88055;}
	.st2{fill:#DCDBDA;}
	.st3{fill:#343334;}
	.st4{fill:#252525;}
	.st5{fill:#5498A8;}
	.st6{fill:#2B656B;}
	.st7{fill:#FEDC4C;}
	.st8{fill:#C63026;}
	.st9{fill:#2A2A2A;}
	.st10{fill:#191718;}
	.st11{fill:#E0DFEF;}
	.st12{fill:#CDCDD6;}
	.st13{fill:#1E170E;}
	.st14{fill:#FED8A6;}
	.st15{fill:#EABB86;}
	.st16{fill:#2CA2B5;}
	.st17{fill:#53B7D5;}
	.st18{fill:#F7D046;}
	.st19{fill:#DEAF5A;}
	.st20{fill:#61573A;}
	.st21{opacity:0.15;fill:#020202;}
	.st22{fill:#3E4144;}
	.st23{fill:#666A6B;}
	.st24{fill:#535658;}
	.st25{fill:#808485;}
	.st26{fill:#211A14;}
	.st27{fill:#B76742;}
	.st28{fill:#B46E56;}
	.st29{fill:#37787F;}
	.st30{fill:#273267;}
	.st31{fill:#F5A380;}
	.st32{fill:#46451C;}
	.st33{fill:#B1623E;}
	.st34{fill:#FBC6A4;}
	.st35{fill:#EC9674;}
	.st36{fill:#152057;}
	.st37{fill:#673D26;}
	.st38{fill:#E7B7A6;}
	.st39{fill:#E37F5F;}
	.st40{fill:#602D18;}
	.st41{fill:#FCD2B9;}
	.st42{fill:#D2CAC1;}
	.st43{fill:#944A1F;}
	.st44{fill:#877D88;}
	.st45{fill:#F49131;}
	.st46{fill:#F05531;}
	.st47{fill:#F2A729;}
	.st48{fill:#FDE37C;}
</style>
<path id="Path_6657" class="st0" d="M0,144.5L166.9,249L335,144.8l-27.7-17.7L0,144.5z"/>
<path id="Path_6600" class="st1" d="M138.5,165.8c-13.9,0-27.9-3.1-38.5-9.2c-18-10.4-20.8-26.2-8.4-38.2h15.9l59.3,36.1l-18.9,10.9
	C144.7,165.6,141.6,165.8,138.5,165.8z"/>
<path id="Path_6601" class="st2" d="M181.1,25l-0.8-0.5C171.8,5.2,166.1,6,166,6c-0.4,0.1-0.9-0.1-1-0.5l0,0c-0.1-0.4,0.1-0.9,0.5-1
	l0,0c0.7-0.2,7-1.5,16.4,19.3c0.2,0.4,0,0.9-0.4,1.1l0,0L181.1,25z"/>
<path id="Path_6602" class="st3" d="M2.4,146.9L2.4,146.9c-0.6-1.1-0.2-2.4,0.8-3l0,0l9.2-2.6c1.1-0.6,2.4-0.2,3,0.9l0,0l0,0
	c0.6,1.1,0.2,2.4-0.9,3l-9.2,2.6C4.3,148.3,2.9,147.9,2.4,146.9L2.4,146.9z"/>
<path id="Path_6603" class="st4" d="M166.9,249.1L166.9,249.1c-1.2-0.1-2.1-1.1-2-2.3l0,0l1.2-13.8l4.4,0.3l-1.2,13.8
	C169.1,248.3,168.1,249.2,166.9,249.1z"/>
<path id="Path_6604" class="st5" d="M169.2,20.3L168.5,225L12.1,134.8C42.8,73,129.6,22,129.6,22L169.2,20.3z"/>
<path id="Path_6605" class="st6" d="M325,135.1l-158.2,91.3c-5.1-36.7-19.7-144.2,2.3-181.6c2.8-4.7-12.3-20.2-3.4-24.5
	c10.6-5.2,45.3,1.1,45.3,1.1S288.7,51.1,325,135.1z"/>
<path id="Path_6606" class="st7" d="M163.6,58c-12.1-38.8-34-36-34-36s35.6-22.5,81.5-0.6C211,21.4,181.7,13.7,163.6,58z"/>
<path id="Path_6607" class="st5" d="M189.4,186.6c-0.9-3.7-22.6-90.6,8-122c2.9-3,6.4-5.5,10.2-7.3c4.7-2.3,9.9-3.4,15.2-3.4
	c38.4,0,74.9,62.3,78.9,69.4c0.3,0.6,0.5,0.9,0.5,0.9l1,1.9l-113.1,63.4L189.4,186.6z"/>
<path id="Path_6608" class="st8" d="M299.8,124.3c-5-8.8-49.8-84.7-91.2-65c-3.6,1.7-6.8,4-9.6,6.9c-30.1,30.9-7.5,120-7.5,120
	l108.7-61C300.3,125.1,300.1,124.9,299.8,124.3z"/>
<path id="Path_6609" class="st9" d="M300.3,125.1l-108.7,61c0,0-22.6-89.1,7.5-120l100.8,58.2C300.1,124.9,300.3,125.1,300.3,125.1z
	"/>
<path id="Path_6610" class="st10" d="M299.8,124.3L199,66.1c2.7-2.8,6-5.2,9.6-6.9l0,0l78.4,45.3C293.8,114,298.4,121.8,299.8,124.3
	z"/>
<path id="Path_6611" class="st5" d="M287,104.5l-78.4-45.3C238.3,45.2,269.8,80.3,287,104.5z"/>
<path id="Path_6612" class="st11" d="M158,163.6l-3.7-1.1c0,0,2.2-74.7-36.2-95.5s-87.8,42.8-87.8,42.8l-2.7-1.5c0,0,3-4.9,8.6-12.5
	c2.3-3.1,5-6.7,8.2-10.6c6.5-8.1,13.5-15.9,20.9-23.2c3.1-3,6.3-6.1,9.6-9.1c8.9-8,18.4-15.2,28.5-21.6c3.7-2.3,7.4-4.5,11.3-6.5
	c10.6-5.6,22-9.8,33.7-12.4c3.4-0.8,6.9-1.4,10.5-1.8c2.6-0.3,5.2-0.5,7.8-0.7C153.4,49.2,156.5,134.7,158,163.6z"/>
<path id="Path_6613" class="st12" d="M312.1,107.4l-5.2,2.4c0,0-37.3-71.9-88.9-45s-53.8,97.7-53.8,97.7l-4.5,1.6l-1.7-0.5
	c-1.5-29-4.5-114.4,8.6-153.8c1.1-0.1,2.2-0.1,3.3-0.1c1.6,0,3.2,0,4.9,0c4.2,0.1,8.3,0.4,12.4,0.9c11.5,1.5,22.7,4.7,33.3,9.4
	c4,1.7,7.9,3.7,11.9,6c10.5,5.9,20.3,13,29.3,21c3.3,2.9,6.6,6,9.9,9.3c9.2,9.2,17.7,19.1,25.5,29.5c2.5,3.3,5.1,6.8,7.6,10.4
	C307,99.8,309.5,103.5,312.1,107.4z"/>
<path id="Path_6614" class="st3" d="M166.8,224.1l1.9,7.4l-0.4,5.6L10.1,143.9c0.5-3.4,1.2-6.7,2-9.9L166.8,224.1z"/>
<path id="Path_6615" class="st4" d="M328.3,144.8l-159.9,92.3c0,0-0.6-6.2-1.6-13l158.2-89C326.2,138.3,327.3,141.5,328.3,144.8z"/>
<path id="Path_6616" class="st2" d="M4.8,146.9c-0.4,0-0.8-0.4-0.8-0.8c-0.3-15.1,16.8-49.5,46-81c20.2-22,62.3-59,115.7-60.7
	c62.6-2,105.4,36,130.1,68.2c16.4,21.6,29.6,45.5,39,71c0.2,0.4-0.1,0.9-0.5,1.1c-0.4,0.2-0.9-0.1-1.1-0.5c0,0,0,0,0-0.1
	c-9.4-25.3-22.5-49.1-38.8-70.5C270,41.7,227.7,4.1,165.8,6.1C112.9,7.8,71.3,44.5,51.2,66.2C22.6,97,5.3,131.6,5.6,146.1
	C5.6,146.5,5.2,146.9,4.8,146.9L4.8,146.9L4.8,146.9z"/>
<path id="Path_6617" class="st2" d="M166.8,247.8c-0.4,0-0.7-0.3-0.8-0.7c-21.7-134.2-1.3-241-1.1-242.1c0.1-0.4,0.5-0.7,1-0.6l0,0
	c0.4,0.1,0.7,0.5,0.6,1c-0.2,1.1-20.6,107.6,1.1,241.5c0.1,0.4-0.2,0.9-0.7,0.9l0,0L166.8,247.8z"/>
<path id="Path_6618" class="st6" d="M44.2,85.1c-3.1,3.9-5.9,7.5-8.2,10.6l-7.3-4.3l7.9-10.9L44.2,85.1z"/>
<path id="Path_6619" class="st6" d="M74.7,52.8c-3.4,3-6.6,6.1-9.6,9.1l-7.3-5.4L68,47.2L74.7,52.8z"/>
<path id="Path_6620" class="st6" d="M114.6,24.7c-3.9,2-7.7,4.2-11.3,6.5l-3.9-6.7l11.7-6.1L114.6,24.7z"/>
<path id="Path_6621" class="st6" d="M158.7,10.5c-3.5,0.4-7.1,1-10.5,1.8l-1.5-6.1l11.1-1.4L158.7,10.5z"/>
<path id="Path_6622" class="st6" d="M187.9,5l-0.8,5.6c-4.1-0.5-8.3-0.9-12.4-0.9l0.5-5.9L187.9,5z"/>
<path id="Path_6623" class="st6" d="M235.3,19.7l-3,6.3c-4-2.2-8-4.2-11.9-6l2.4-5.8L235.3,19.7z"/>
<path id="Path_6624" class="st6" d="M277.5,51l-6.1,5.2c-3.3-3.3-6.6-6.4-9.9-9.3l6.1-5.3L277.5,51z"/>
<path id="Path_6625" class="st6" d="M309.7,91.6l-5.9,3.6c-2.5-3.6-4.4-6.2-6.9-9.5l6.5-3.5L309.7,91.6z"/>
<path id="Path_6626" class="st3" d="M165.8,12.4c-2.4,0-4.4-2-4.4-4.4l0,0V4.4c0-2.4,2-4.4,4.4-4.4s4.4,2,4.4,4.4V8
	C170.1,10.4,168.2,12.4,165.8,12.4z"/>
<path id="Path_6627" class="st6" d="M158.3,58.5h2.3l-1,10.4l-2.2,0.3L158.3,58.5z"/>
<path id="Path_6628" class="st6" d="M156.2,103.5l2.3-0.2l-0.2,10.5l-2.2,0.5L156.2,103.5z"/>
<path id="Path_6629" class="st6" d="M156.2,143.4l2.3-0.2l-0.2,10.5l-2.2,0.5L156.2,143.4z"/>
<path id="Path_6630" class="st6" d="M162.6,19.6l2.3,0.2L163,30.1l-2.2,0.1L162.6,19.6z"/>
<path id="Path_6631" class="st0" d="M213.5,275.3c-8.9,0-17.8-2-24.6-5.9c-13.6-7.9-13.6-20.6,0-28.4c6.8-3.9,15.7-5.9,24.6-5.9
	s17.8,2,24.6,5.9c13.6,7.9,13.6,20.6,0,28.4C231.4,273.3,222.4,275.3,213.5,275.3z"/>
<path id="Path_6632" class="st13" d="M211.2,251.9c0.7,2.9,1.1,5.8,1.1,8.7c-0.1,1.2-0.3,2.4-0.7,3.6c-1.2,1.3-2.9,1.9-4.7,1.6
	c-3-0.4-5.5-1.9-5.9-2.4c-1.3-2-8.3-4.2-10.2-4.9c-1.7-0.7-3.1-1.9-4.1-3.6c-0.7-1.5-1.8-5.1,0.5-7.2c1.6-1.5,5.4,0.6,9.8,0.4
	c11-0.5,12.7,1.9,13.7,3.5L211.2,251.9z"/>
<path id="Path_6633" class="st13" d="M237,245c0.7,2.9,1.1,5.8,1.1,8.7c-0.1,1.2-0.3,2.4-0.7,3.6c-1.2,1.3-2.9,1.9-4.7,1.6
	c-3-0.4-5.5-1.9-5.9-2.4c-1.3-2-8.2-4.2-10.2-4.9c-1.7-0.7-3.2-1.9-4.1-3.6c-0.7-1.5-1.8-5.1,0.5-7.2c1.6-1.5,5.4,0.6,9.8,0.4
	c11-0.5,12.7,1.9,13.7,3.5L237,245z"/>
<path id="Path_6634" class="st14" d="M178.8,102.7c0.6,0.2,1.2,0.4,1.7,0.7c0.5,0.3-0.3,2.2-0.3,2.2L178.8,102.7z"/>
<path id="Path_6635" class="st15" d="M245.8,164.3c0-0.6,0.1-1.3,0.2-2c0.1-0.7,0.2-1.3,0.2-2v-0.1c0.9-2.4,0.3-6.3,0.5-8.2
	l-5.4-0.8c-1.4,1.2-2.6,2.4-3.7,3.8c-0.7,0.5-1.2,1.3-1.4,2.1c-0.2,1-0.3,1.9-0.3,2.9c0,0.9-0.6,1.8-0.6,2.7c0,0.8,0.2,2.1,1.4,1.6
	c0.7-0.3,0.9-2.1,1-2.7c0.2-0.6,0.4-1.1,0.7-1.7l0.6,0.4c0,0.5,0,0.9-0.1,1.4c0,0.5,0,0.9-0.1,1.4c0,0.6,0.2,1.2-0.2,1.7
	c-0.8,1.1-1.4,2.2-2,3.4c-0.2,0.5,0.1,1.5,0.9,1.2c0.4-0.1,0.6-0.5,0.8-0.8c0.3-0.3,0.6-0.6,0.9-0.9l0.2-0.2l-0.5,0.9
	c-0.3,0.5-0.9,1.4-0.9,2c0.1,0.9,1,0.9,1.6,0.4l0.5-0.5v0.3c0,0.2,0.2,0.7,0.6,0.7l0.7-0.6c0.3-0.4,0.6-0.8,1-1.1
	c0.3-0.3,0.6-0.7,0.8-1.1c0,0.4,0,0.9,0.4,0.9l0.6-0.4l0.4-0.7c0.4-0.8,0.8-1.6,1.1-2.5C245.8,165.3,245.8,164.8,245.8,164.3z"/>
<path id="Path_6636" class="st16" d="M240,162.3c-1.1,6.1-0.4,12.3-1,18.5c-0.7,7.3,0.9,15.9-2.4,22.8c-1,2.1-4.2,5.5-8.3,5.2
	c-2.4-0.2-7.5-0.8-7.1-2.4c0.3-1.7-1.1-4.7-1-6.3c0.1-2.8-0.3-19.8-0.6-25.3c-0.2-4.5-0.2-7.2-0.3-12.2c0,0-1.5-5.3,9.3-4.1
	C239.3,159.9,240.2,161.4,240,162.3z"/>
<path id="Path_6637" class="st16" d="M238,204.6c-0.7-3.9-0.3-7.1-0.4-11.5c-0.1-3.2-17.1,0.6-17.3,8.4c0,0,3.7,30.4,1.7,40.1
	l-0.3,1.6c0,0,0.2,3.6,5,6.4c3.2,1.8,9.8,2.7,11.2,0C241.2,243.3,240.2,217.8,238,204.6z"/>
<path id="Path_6638" class="st17" d="M225.9,168.1c-2,5.9-1.6,12.6-3.1,18.6c-1.8,7.1-1.5,15.8-5.7,22.2c-1.3,1.9-5,4.8-9,3.9
	c-2.3-0.5-6.4-1.8-6.7-3.4c-0.3-2.1-0.4-4.2-0.1-6.3c0.5-2.8,2.7-19.6,3.2-25.1c0.4-4.4,1.7-15.9,3.7-22.2c0,0-3,5.3,7.6,7.5
	C224.7,165.1,226.2,167.3,225.9,168.1z"/>
<path id="Path_6639" class="st17" d="M218.3,215c-0.1-4,0.8-7,1.3-11.4c0.4-3.2-16.9-5.2-18.2,2.5c0,0-0.3,32.2-3.8,41.5l-0.5,1.6
	c-0.6,1.1-0.7,2.5-0.1,3.6c0.7,1.9,2.2,3.3,4.1,4.1c2.9,1.1,9.2,2.1,10.3-0.8C214.6,246.5,218.6,228.4,218.3,215z"/>
<path id="Path_6640" class="st15" d="M246.6,94.9c2.3,11.9,5.2,27.4,0.8,28.3c-1.6,0.3-8.2,0.8-8.8-3c-1.4-9-5.8-16.4-7.3-23.8
	C229,84.5,231.7,81.8,236,81C240.4,80.1,244.3,83,246.6,94.9z"/>
<path id="Path_6641" class="st18" d="M232.8,82c0,0,5.5-3.2,9.2,0.3s6.9,24,7.4,26.1s-1,5.3-5.6,6.4s-2.5-2.8-2.5-2.8L232.8,82z"/>
<path id="Path_6642" class="st15" d="M249.7,125c1,10.3-3.6,19.9-3,27.8c0.1,1.4-6.3,2.6-7.1-0.6c-1.3-5,0.3-18-1.1-28.6
	c-0.3-2.3,1.2-4.3,4.8-4.6C246.9,118.7,248.9,117.7,249.7,125z"/>
<path id="Path_6643" class="st19" d="M216,88.1c-4.2,1.8-7.9,4.6-10.7,8.2c-3,3.9-2.8,12.6-2.7,13.8c0.4,3.7,4.7,39.1,4.1,42.4
	c-1.4,7.1-1.7,20.3-1.7,20.3c5.9,2,14.8-1.2,17.3-1.6c8.2-1,16.9-6.8,17.8-10.8c1.4-6.1-1.8-11-1.8-18.4c0.1-8.9,0.9-17.8,2.3-26.6
	c0.8-4.1,4.8-23.5-0.6-31.1c-1.4-1.7-3.6-2.7-5.8-2.5C227.2,82.6,217.1,87.7,216,88.1z"/>
<path id="Path_6644" class="st14" d="M212.6,112.4c-5.7,11.2-12.6,26.5-16.5,24.5c-1.5-0.7-7.7-5.1-5.7-8.6
	c4.5-8.3,5.8-17.1,9.3-24.1c5.7-11.2,9.4-11.8,13.4-9.8C217,96.3,218.2,101.2,212.6,112.4z"/>
<path id="Path_6645" class="st14" d="M210.9,56.9c0.1,1.9-1.4,4.3-1.8,6.2c-0.4,0.9-0.3,2,0.1,2.9c0.6,1.7,0.7,3.5,0.1,5.2
	c-0.5,2.1,0.1,4.4,0.7,6.5c0.5,1.6,0.7,3.6,2.2,4.6c3.7,2.5,7.9,1,11.7-0.3c3.7-1.3,3.1-7.9,4.3-11c2.1-5.6,0.5-13.4-5.6-15.8
	c-2.7-1.1-7.3-1.6-10.1-0.5c-1,0.4,1.4,1.3,2.3,2.3L210.9,56.9L210.9,56.9z"/>
<path id="Path_6646" class="st14" d="M216,79.4c0,0,1.6,7.9,1,10.2c-0.3,1,2.6,2.8,5.6,2.8c4.8,0.1,10.3-2.5,8.6-6.4
	c-0.9-2.1-3.1-4.2-1.7-12.8C230,70.5,216,79.4,216,79.4z"/>
<path id="Path_6647" class="st20" d="M230,51.6c-5.8-3.9-13.6-3.4-17.3,1c-1.3,1.6-2.1,3.6-2.2,5.7c-0.7,1.1,2.5,1,3.3,5.5
	c3.9,23.6,14.9,15.1,15.3,14.3c2.8-6.7,4.7-5.2,6-9.2C237.1,62.7,238.1,57.1,230,51.6z"/>
<path id="Path_6648" class="st14" d="M217.5,72.7c-0.8,2.1-1.3,4-2.2,3.6s-1.9-2.3-1.1-4.4c0.8-2.1,1.2-4,2.2-4.1
	C218.3,67.8,218.3,70.6,217.5,72.7z"/>
<path id="Path_6649" class="st14" d="M191.5,135.8c-6.2-4.7-12-15.5-14.4-18.5c-0.9-1.1,5.1-5.9,5.8-3.6c1.1,3.8,12,9.6,15.9,14.6
	c1.1,1.4,5,1.9,2.5,5C198.8,136.5,195.9,139.1,191.5,135.8z"/>
<path id="Path_6650" class="st19" d="M206.7,152.5c0.3-1-0.6-5-0.7-10.6c1.5,1.8,5.6,6.4,11.7,1.2c5.8-5,5.7-21.7,5.7-22.9v-0.1
	l0.1-0.1l-0.1,0.1c0-1.3-2.4-22.6-9.1-26.7c-2.3-1.4-4.6-2-5.6-0.9c0,0,2.7-3.2,4.4-3.1c2.3,0.1,4.4,1.2,5.8,2.9
	c3.6,4.4,8.2,16.7,10.3,24.2c1.6-4,7.5-22.4,6.1-29.5c-0.7-3.7-5.6-4.4-5.6-4.4c0.6,0,2.5-1.5,4.7-1.2s3.9,3,4.4,4.3
	c2.1,5.9-0.1,16.9-2.3,25.3l0,0c-0.9,4.1-1.4,8.2-1.5,12.4v0.3c0,1.9,0.2,3.8,0.8,5.7c0.4,0.9,1,1.7,1.6,2.4c0.7,0.6,1,0.9,0.9,1
	l0.4,0.3c-0.2,2.9-0.3,5.9-0.3,8.9c-0.1,7.4,3.1,13.6,1.8,19.7c-0.9,4-9.6,9.4-17.8,10.4c-2.5,0.3-11.5,4-17.5,2
	C204.9,174.1,204.9,160.1,206.7,152.5z"/>
<path id="Path_6651" class="st18" d="M212.3,93.7c0,0,4.9,0.5,4.5,6.2s-7.8,22.1-8.7,22.7s-2.8,0.5-5.2-0.4s-8.8-5-8.4-7.6
	S204.6,88.9,212.3,93.7z"/>
<path id="Path_6652" class="st14" d="M180.6,104.8c-0.3-0.9,0.3-1.5,0.8-1.1c0.8,0.5,1.3,1.3,1.3,2.2c0.3,0.8,0.6,1.6,1.1,2.3
	c0.3,0.7,0.3,1.4,0.2,2.2l-3.2-3.2C181,106.4,180.9,105.5,180.6,104.8z"/>
<path id="Path_6653" class="st14" d="M173,109.8c-0.3-0.4-0.8-0.6-0.6-1.1s0.4-1.1,0.8-1.1c-0.6-0.2-1-0.8-0.9-1.4
	c0-0.6,0.4-0.7,0.9-0.7c-0.3-0.3-0.5-0.8-0.5-1.2c0-1.8,2.3-1.3,4,0.7c0,0,5.4,3.5,5.6,3l1.7,2.4c-0.1,1-0.3,2.2-0.5,3.2
	c-0.1,1.2,0,2.3,0.4,3.5l-6,1.9c-0.5-0.1-4.5-5.7-4.9-6c-0.5-0.8-0.7-1.6-0.8-2.5C172.2,110.1,172.7,109.9,173,109.8z"/>
<path id="Path_6654" class="st18" d="M209.2,61.5c0,0-6.4-0.6-5.4-2.1s9.3-6.4,13.7-6.3c3.5,0.2,7,0.9,10.4,1.8L209.2,61.5z"/>
<path id="Path_6655" class="st19" d="M225.3,67.6c3.9,1,8,0.4,11.5-1.6c2.7-7.2-0.9-15.3-8.1-18.2c-7.3-2.9-15.6,0.6-18.6,7.9l0,0
	c-0.7,1.8-1.1,3.7-1,5.6C211.5,62.9,221.4,66.6,225.3,67.6z"/>
<path id="Path_6656" class="st18" d="M234.6,66.4c4.4-10.8-3.5-16.7-3.5-16.7l-3-1.8c6.3,8,3.7,17.1,2.4,19.2
	C232,67.5,233.5,66.3,234.6,66.4z"/>
<path id="Path_6658" class="st4" d="M334.9,146L334.9,146c-0.8,0.9-2.2,1.1-3.1,0.3l0,0l-10.4-9.1l2.8-3.4l10.5,9.1
	C335.6,143.7,335.7,145.1,334.9,146z"/>
<path id="Path_6940" class="st21" d="M149.1,327.6l45.8-26.5l26.9,15.5c5.8,0.6,11.5,2.3,16.6,5.1c12.6,7.3,12.3,21.5-0.4,28.8
	s-32.9,5-45.5-2.3c-4.4-2.5-7.2-5.7-8.5-8.9l-7.4,4.2L149.1,327.6z"/>
<path id="Path_6941" class="st22" d="M155.8,288.2l23.1,13.3l22.3,11.1l-10.5-6.1c-0.8-0.4-1.6-0.8-2.4-1L156,288.2H155.8z
	 M213.5,320.7l-0.4-0.1l-35-17.4l-25.2-14.6l-0.1-0.3c-0.3-0.6-0.2-1.2,0.2-1.7c0.6-0.7,1.9-0.8,3.9-0.2l32.2,17.3
	c0.9,0.3,1.8,0.6,2.6,1.1l22.6,13c0.7,0.4,0.9,1.2,0.6,1.9C214.6,320.3,214.1,320.7,213.5,320.7z"/>
<path id="Path_6942" class="st23" d="M156,287.2l23,13.3l22.3,11.1l-10.5-6.1c-0.8-0.4-1.6-0.8-2.4-1L156,287.2L156,287.2z
	 M213.5,319.7l-0.4-0.1l-35-17.4l-25-14.4c-1.1-0.8-0.9-1.5-0.8-1.9c0.7-1.4,4.4-0.5,4.5-0.5l32.2,17.3c0.9,0.3,1.8,0.7,2.6,1.1
	l22.6,13c0.7,0.4,0.9,1.2,0.6,1.9C214.6,319.3,214.1,319.7,213.5,319.7z"/>
<path id="Path_6943" class="st24" d="M196.5,260.5l-36.9,58.1c-1.1,2-0.3,4.4,1.6,5.6l19.6,11.3c0.7,0.4,1.6,0.5,2.4,0.3
	c0.8-0.2,1.5-0.8,1.9-1.5l37.3-58.8L196.5,260.5z M182.3,337.8c-0.9,0-1.8-0.2-2.5-0.7l-19.6-11.3c-2.9-1.6-3.9-5.3-2.3-8.2l38-59.8
	l29.2,16.9l-38.4,60.5c-0.6,1.2-1.7,2-3,2.4C183.2,337.8,182.8,337.8,182.3,337.8L182.3,337.8z"/>
<path id="Path_6944" class="st25" d="M160.6,323.6l19.6,11.3c1.5,0.9,3.4,0.4,4.3-1.1v-0.1l37.3-58.8l-25.9-15L159,318
	C158,320,158.7,322.4,160.6,323.6z M181.8,337.2c-0.9,0-1.8-0.2-2.5-0.7l-19.6-11.3c-2.9-1.6-3.9-5.3-2.3-8.2l38-59.8l29.2,16.9
	l-38.4,60.5c-0.6,1.2-1.7,2-3,2.4C182.7,337.2,182.2,337.2,181.8,337.2z"/>
<path id="Path_6945" class="st12" d="M178.1,301.1l-27.6-15.9l4.8-1.8c13.7-5.2,26.4-12.6,37.7-21.9l3.3-2.8l27.5,15.9l-3.6,3
	c-11.3,9.3-24,16.7-37.7,21.8L178.1,301.1z"/>
<path id="Path_6946" class="st21" d="M398.7,321.3l-45.8-26.5L326,310.3c-5.8,0.5-11.5,2.3-16.6,5.1c-12.6,7.3-12.3,21.5,0.4,28.8
	c12.7,7.3,32.9,5,45.5-2.3c4.4-2.5,7.2-5.7,8.5-8.9l7.4,4.2L398.7,321.3z"/>
<path id="Path_6947" class="st22" d="M357.1,300.2l-10.7,6.2l22.5-11.2l23-13.3l-0.3,0.1l-31.9,17.1
	C358.8,299.3,358,299.7,357.1,300.2z M334.3,314.3c-0.6,0-1.1-0.3-1.4-0.9c-0.3-0.7,0-1.5,0.6-1.9l22.6-13c0.9-0.5,1.8-0.9,2.8-1.2
	l31.9-17.1c2.2-0.7,3.5-0.6,4.1,0.1c0.4,0.5,0.5,1.2,0.2,1.7l-0.1,0.3l-25.2,14.5l-34.9,17.4L334.3,314.3z"/>
<path id="Path_6948" class="st23" d="M391.8,280.9l-0.2,0.1l-31.9,17.1c-0.9,0.3-1.8,0.6-2.6,1.1l-10.7,6.2l22.5-11.2L391.8,280.9z
	 M334.3,313.3c-0.6,0-1.1-0.3-1.4-0.9c-0.3-0.7,0-1.5,0.6-1.9l22.6-13c0.9-0.5,1.8-0.9,2.8-1.2l31.9-17.1c0.2-0.1,3.9-1,4.6,0.4
	c0.2,0.3,0.3,1-0.7,1.8l-25,14.5l-34.9,17.4L334.3,313.3z"/>
<path id="Path_6949" class="st24" d="M325.4,269.1l37.3,58.8c0.4,0.8,1.1,1.3,1.9,1.6c0.8,0.2,1.7,0.1,2.4-0.3l19.6-11.3
	c2-1.1,2.7-3.6,1.6-5.6l-36.9-58.1L325.4,269.1z M365.5,331.5c-0.5,0-0.9-0.1-1.4-0.2c-1.3-0.4-2.4-1.2-3.1-2.4l-38.3-60.4
	l29.2-16.9l37.9,59.7c1.6,2.9,0.6,6.6-2.3,8.3L368,330.8C367.3,331.3,366.4,331.5,365.5,331.5z"/>
<path id="Path_6950" class="st25" d="M326,268.5l37.3,58.8c0.4,0.8,1.1,1.3,1.9,1.6c0.8,0.2,1.7,0.1,2.4-0.3l19.6-11.3
	c2-1.1,2.7-3.6,1.6-5.6l-36.9-58.1L326,268.5z M366.1,330.9c-0.5,0-0.9-0.1-1.4-0.2c-1.3-0.4-2.4-1.2-3.1-2.4l-38.3-60.4l29.2-16.9
	l37.9,59.7c1.6,2.9,0.6,6.6-2.3,8.3l-19.6,11.3C367.8,330.6,366.9,330.9,366.1,330.9z"/>
<path id="Path_6951" class="st12" d="M369.7,294.8l27.5-15.9l-4.8-1.8c-13.7-5.2-26.4-12.6-37.7-21.9l-3.3-2.8l-27.5,15.9l3.6,3
	c11.3,9.3,24,16.7,37.7,21.8L369.7,294.8z"/>
<path id="Path_6952" class="st26" d="M215.5,317.8c-0.4,0.8-0.4,1.7,0,2.5c0.2,0.4,3.9,3.4,5.8,3.8c1.9,0.4,8.9,3.2,11,3.8
	s6.5,1.9,9.1,1.3s3.2-1.4,3.8-2.6c0.4-1,0.6-2,0.5-3.1c0,0,0.5-2.9-1.9-3.3C241.3,320.1,216.8,315.7,215.5,317.8z"/>
<path id="Path_6953" class="st26" d="M196.7,332.4c-0.2,0.6-0.3,1.3-0.4,1.9c0,0.6,0.3,2.8,0.2,3.2s1.3,3.6,1.4,4s0.3,5.4,1.4,7.3
	s2.6,4,8.8,4.1s6.9-2.4,6.9-2.6v-4.1l-1.6-2.9L196.7,332.4z"/>
<path id="Path_6954" class="st6" d="M215.7,229.7c-1.4,1.1-2.8,2.1-4.4,2.9c-1.7,0.8-6.6,2.7-6.8,2.9c-0.8,0.1-1.5,0.1-2.3,0
	l-3.9-23.3l0.9-1.3c0,0,4.8,1,6.8,3.6s6,6.6,6.7,9.5C213.4,226,214.4,228,215.7,229.7z"/>
<path id="Path_6955" d="M229.6,313.7l3.1,0.7c0,0,6.2,3.5,8.2,4.3s4.4,2.3,3.6,4.3c-0.8,2-2.5,4.1-8,3.6s-7-2.2-10.8-3.4
	c-3.8-1.3-6.7-1.7-7.9-3s-2-1.2-1.8-2.4c0.1-0.4,0.2-0.8,0.4-1.2c0.6-1.2,1.2-2.4,1.9-3.6l3.9-1.4L229.6,313.7z"/>
<path id="Path_6956" class="st27" d="M238.8,295.4c-5.9,11.2-9.1,17.3-9.1,17.3l1,1.6l0.5,1.6c-1,0.5-2,1.1-3,1.7
	c-0.7,0.5-2.2,0-3.5,0c-1,0-3.9-1.8-5.4-3.1c-0.6-0.5-1-0.9-1-1.1c0.2-0.9,0.6-1.7,1.2-2.5c0.2-0.4,4.2-8.9,5.2-14.4
	c0.5-3.1,1.4-6.2,2.7-9.1c0.4-0.9,2.3-6,2.3-6c-4.3-1.1-7.7-4.5-8.7-8.8c-1.6-6.1,1.5-12.6,9.3-10.3c12.8,3.8,13.5,2.9,15.5,9.3
	C247.7,278.1,244.7,284.1,238.8,295.4z"/>
<path id="Path_6958" class="st5" d="M233.5,266.2c0,0-0.4,3.2-0.9,6.2c-0.2,1.5-0.7,3-1.3,4.4c-1.3,2.2-0.7,5.7-0.7,5.7h-4.8
	c0,0-7.8-1.1-11.9-1.3c-4-0.2-13.8-3.4-14.2-3.4c0,0-0.4-0.1-1.1-0.2c-4.3-0.9-20.3-4.1-22.2-5.4c-2.2-1.5-3.8-12.9-2.8-14.4
	c0.9-1.5,8.8-2.1,11-2.1H195l13,0.5l12.6,1.3l12.1,3.1L233.5,266.2z"/>
<path id="Path_6959" class="st28" d="M230.4,280.4c0-1.3,0.2-2.6,0.8-3.7c0.3-0.6,0.5-1.2,0.7-1.9c-0.2,0.7-0.4,1.3-0.7,1.9
	C230.6,277.9,230.3,279.2,230.4,280.4z"/>
<path id="Path_6960" class="st29" d="M230.6,282.5h-4.8c0,0-2.9-0.4-6-0.8c-0.7-0.1-1.4-0.2-2.1-0.2c-0.7-0.1-1.3-0.1-1.9-0.2
	c-0.6-0.1-1.2-0.1-1.8-0.1h-0.2c-2.6-0.2-7.5-1.5-10.7-2.5c-0.5-1.7-0.9-3.6-0.9-3.6s-0.5-0.5-1.2-1.2h2.9l-7.8-4.9l0,0
	c-2.1-2.5-4.4-4.8-7.1-6.7l0.7-0.2c4.7,1.9,9.5,3.3,14.4,4.4l6.3,4.2l11.4,4l2.8-1.5l0,0c0.9,0.6,1.9,1,2.9,1.4
	c0.4,0.1,0.8,0.1,1.2,0.1c0.5,0,1,0,1.4,0s0.8,0,1,0h0.1l0,0c0.1,0,0.2-0.1,0.3-0.3l0,0c0.1,0.3,0.3,0.5,0.6,0.6
	c-0.2,0.7-0.4,1.3-0.7,1.9c-0.6,1.1-0.9,2.4-0.8,3.7C230.4,281.1,230.4,281.8,230.6,282.5z"/>
<path id="Path_6961" d="M199.5,327.8c-1.1,0.6-1.9,1.4-2.5,2.5c-0.5,1.5-1.2,2.9,0,6.4s1.7,9.1,3.4,10.8c1.6,1.7,4.2,3.3,9.4,2.8
	c5.2-0.4,4.8-2.3,4.8-3.4c0-1.2-2.3-5.9-2.4-6.9s-2.1-6.9-2.1-6.9s-1.5-4.3-2-5.6s-4.1-1.8-4.1-1.8L199.5,327.8z"/>
<path id="Path_6962" class="st27" d="M206.8,326.1c-0.3,1,2.1,6.3,2.1,6.7c0,0.5-4.7,1.8-5.1,1.8c-1.7-0.4-3.2-1.2-4.6-2.2
	c-0.3-0.3-0.5-0.5-0.5-0.8c0-1.3-0.5-4.5-0.5-5.3c-0.1-0.7-5.3-11.8-5-16.3c0.1-3.2-0.1-6.4-0.6-9.6c0,0-0.2-1.2-0.3-2.9
	c-0.1-2.7-0.1-6.4,1.5-7.7c2.5-2.1,7.8-8.1,13.1-0.9c1.7,1.4,2.6,3.5,2.6,5.7c-0.1,3.7-0.1,11.3-0.6,16.1S207,325.1,206.8,326.1z"/>
<path id="Path_6964" class="st5" d="M208,288.5v2.3l-1.2-1.7c-1.5,0-3,0.3-4.3,0.9c-2,1-3,2.5-5,5.4c-1.3,2.1-2.3,4.4-3,6.7
	c-0.7,2.2-1.2,4-1.2,4c-0.4,0-0.8-0.2-1.2-0.4c-0.6-0.4-7.7-8.5-9.5-10.1c-1.8-1.5-14.2-10.5-17-13.9c-1.6-2-1.7-4.8-1.4-6.9
	c0.1-1,0.3-1.9,0.5-2.8c0,0,1.6-3.6,3-6.7c0.6-1.3,1.2-2.5,2-3.7c0.5-0.7,4.8-1,9-1.1c2.7-0.1,5.5,0.1,8.1,0.6
	c0.7,0.2,1.3,0.5,1.9,0.9l0.2,0.2c2.6,2,5,4.2,7.1,6.7c0.4,0.4,6.1,6.1,6.1,6.1s1.5,5.9,1.7,6.1C204,281.5,208,288.5,208,288.5z"/>
<path id="Path_6965" class="st30" d="M203.7,235.3c-0.2,3.3-1.6,14.4-2.3,15.1c-0.7,0.6-0.9,5.1-0.9,5.1l-5.3,5.1c0,0-2,0.4-4,0.9
	h-0.1c-0.9,0.2-1.8,0.4-2.6,0.6c-0.7,0.2-1.4,0.4-2.1,0.6c-0.2,0.1-0.6,0.4-1.2,0.7h-0.1H185c-2.9,1.9-5.9,3.5-9.1,4.8h-0.1l0,0
	c-0.4,0.1-0.7,0.3-1.1,0.4c-1.9,0.7-3.7,1.5-5.4,2.5c-0.5,0.3-1.1,0.6-1.6,0.9l-0.2,0.1c-1.8,1.2-3.2,2.2-3.8,2.6l-0.4,0.2
	c-0.2-0.2-1-2.7-2.4-8.5c-1-4.4-1.4-8.9-1.2-13.5c0.1-2.7-1.3-9.8-0.9-13.7c0.3-2.9,0.6-8.4,1.3-12.9c0.2-1.4,0.4-2.7,0.8-4.1
	c1.2-4.7,4.8-6.6,6.5-7.7c1.7-1.2,9.7-6,9.7-6c2.3-1.4,11.4-0.7,13-0.4s6.3,1.7,8.2,2.2c2,0.5,4,7.8,4.3,9.1
	C203.5,224.8,203.8,230.1,203.7,235.3z"/>
<path id="Path_6966" class="st27" d="M240.1,271.3v1l-1.6,0.8l-1,1.4l-1.2,0.7l-1.3,0.4c-0.1-0.1-0.2,0-0.4,0.1
	c-0.4,0.2-0.9,0.2-1.4-0.1c0,0-1.8-0.8-2-1.5V274l0,0c-0.2-0.6,0.1-0.8,0.1-0.8v-1.1l0.2-0.2l0.7-0.7l0.5-0.2l0.6-0.2
	c0,0,0-0.8,0.5-0.9c1.1,0.1,2.2,0.4,3.2,0.8h0.1l0.3,0.1C238.4,271.1,240.1,271.3,240.1,271.3z"/>
<path id="Path_6967" class="st31" d="M240.6,267.1c0,0,0.5,0.4-0.6,0.7c-0.7,0.2-1.5,0.2-2.3,0c-0.5-0.5-0.9-1.2-1.3-1.8
	c-0.3-0.8-0.7-1.5-1.1-2.3l-1.3,0.6c-1-0.5-1.8-1.3-2.2-2.3c-0.3-1.3,2-2.4,2.6-2.2c1.3,0.7,2.6,1.5,3.8,2.4l1.1,3.1L240.6,267.1z"
	/>
<path id="Path_6968" class="st32" d="M188.8,262.3l-0.2-0.2c0.2-0.1,0.5-0.1,0.7-0.2c0.1,0,0.2,0.1,0.2,0.1L188.8,262.3z"/>
<path id="Path_6969" class="st29" d="M193.2,306.2c-0.4,0-0.8-0.2-1.2-0.4c-0.4-0.3-4.1-4.4-6.8-7.3c-1.2-1.2-2.2-2.3-2.7-2.7
	c-1.8-1.5-14.2-10.5-17-13.9c-0.5-0.6-0.9-1.4-1.1-2.1c-0.3-1-0.4-2-0.4-3c0-0.6,0-1.2,0.1-1.8c0.6-0.4,2-1.4,3.8-2.6l0.2-0.1
	l0.2-0.1l1.4-0.8l6.5-2.9l0,0l-2.7,2.3l-6.2,3.5c0,0-0.5,3.4-0.5,3.6c0,0.3,2.3,4,2.3,4l4.8,3.2l5.2,4.9l7.8,4.3l4.7,4.7l2.9,3.3
	C193.7,304.4,193.2,306.2,193.2,306.2z M185.2,263.5L185.2,263.5l0.1-0.1c0.6-0.4,1-0.6,1.2-0.7c0.7-0.3,1.4-0.5,2.1-0.6l0.2,0.2
	l-3.5,1.2H185.2L185.2,263.5z"/>
<path id="Path_6970" class="st6" d="M163.6,275.1c-0.2-0.2-1-2.7-2.4-8.5c-0.8-3.5-1.2-7.1-1.2-10.6c0-1.1,0-2.1,0-2.8V253
	c0-2.4-0.9-7.9-0.9-11.8c0-0.6,0-1.2,0.1-1.8c0.3-2.9,0.6-8.4,1.3-12.9l17.4,8.3l14.6,14l3.9,4.3c-0.9-0.2-1.8-0.5-2.6-0.9
	c-0.5-0.4-7.1-9.3-9.7-11.3c-2.7-2-7.6-3-7.6-3l-6,6.1l0,0l-0.4,3.5l3.6,2.6c0,0,11.4,9.9,14.1,11.2c0.4,0.2,0.9,0.4,1.4,0.7
	c-0.2,0.1-0.5,0.1-0.7,0.2c-0.7,0.2-1.4,0.4-2.1,0.6c-0.2,0.1-0.6,0.4-1.2,0.7h-0.1H185c-0.3,0.1-0.7,0.2-1,0.1
	c-0.6,0-1.2-0.1-1.7-0.2c-0.8-0.1-2.3-1.3-3.9-2.9c-3-2.9-6.5-6.9-6.5-6.9l-3.2-1.8l-6.1-9.7l0.6,8.4l2.1,5.7l1.3,6.5l0.9,2.6l0.3,1
	l-0.1,6c-1.8,1.2-3.2,2.2-3.8,2.6L163.6,275.1z M167.9,272.2l0.2-0.1L167.9,272.2z"/>
<path id="Path_6971" class="st33" d="M176.2,206.1c0,1.7-0.1,3.4-0.3,5.2c-0.4,1.5,0.1,4.5,3.3,7.2c3.1,2.7,4.2,3.7,8.2,4
	c4,0.2,3.5-3.1,3.5-3.1v-5.1l-4.1-6.6C186.9,207.7,183.3,195.8,176.2,206.1z"/>
<path id="Path_6972" class="st27" d="M243.5,268.5c-0.3,0.7-0.7,1.5-1.2,2.1c0,0-3.8-0.7-6.3-1.2c-1.1-0.2-2-0.4-2.1-0.4
	c-0.3,0-5.5-2.5-6-3.8c-1.2-2.4-2.7-4.7-4.4-6.9c-2.1-2.9-6.3-8.1-7.7-10.5s-9-11.2-9.8-13.2l-0.1-0.5c0.2-2.3,6.8-7.4,9.5-4.2
	c3,3.5,7,8.7,9,10.6c2,2,4.2,6.6,6.1,11c1.9,4.3,3,7,3.4,7.7c1,0.9,2.1,1.6,3.4,2.2C239.1,262.3,243.5,268.3,243.5,268.5z"/>
<path id="Path_6973" class="st6" d="M191.8,219.7c-0.3,0-0.6,0-0.9,0c0-0.1,0-0.2,0-0.3v-5.1l-1.8-2.9c1.1,0,1.8,0,1.8,0l3.9,0.7
	c0.5,0.9,1,1.9,1.3,2.9c0.1,0.6,0.2,3.1-1.3,4C193.9,219.5,192.8,219.7,191.8,219.7z"/>
<path id="Path_6974" class="st33" d="M190.9,219.6c-0.7,0-1.3-0.1-1.7-0.2c-1.4-0.2-2.3-1.7-3.9-2.9c-1.6-1.2-4.2-3.6-4.2-3.6
	c0.7-1.3,4.9-1.5,7.5-1.5c0.2,0,0.3,0,0.5,0l1.8,2.9v5.1C190.9,219.4,190.9,219.5,190.9,219.6z"/>
<path id="Path_6975" class="st27" d="M238.6,268.9l-0.5-0.1c-0.6-0.4-1.1-0.8-1.6-1.2c-0.7-0.6-1.5-1.1-2.3-1.5c0,0-0.7-1.1-1.5-2
	l0,0c0.3,0,0.7-0.1,1-0.1c0.6,0,1.2,0,1.8,0.1c0,0,2.3,2.5,2.6,2.8c0.6,0.4,1.3,0.7,2,1C239.7,268.2,239.2,268.5,238.6,268.9z
	 M226.2,262.2c-0.8-1.1-1.7-2.5-2.7-3.8c-2.1-2.9-6.3-8.1-7.7-10.5c-1.3-2.4-8.5-10.6-9.7-13c0-0.1-0.1-0.1-0.1-0.2l-0.1-0.5
	c1.5-1.4,1.7-1.9,1.7-1.9c1,1.9,2.1,3.8,3.4,5.5c1.3,1.5,2.8,5.4,3.4,6.2c0.8,0.8,1.6,1.6,2.6,2.2c0.8,1.2,1.4,2.6,1.7,4.1
	c0.4,2.2,7.1,9.3,7.4,9.7c0.1,0.2,0.9,1.2,1.7,2.1C227.3,262.2,226.8,262.2,226.2,262.2z"/>
<path id="Path_6976" class="st33" d="M234.1,275.9c-0.3,0-0.6-0.1-0.8-0.2c0,0-1.8-0.8-2-1.5l0,0v-0.1l2.1,1.4l1,0.1l0.6-0.4
	l-2.1-1.2l-1.6-1.5V272l0.2-0.2c0.1,0.2,0.3,0.5,0.5,0.6c0.3,0.1,2.7,1.8,2.7,1.8l1.6,0.5l0.2-0.8l-1.9-1.2c0,0-1.7-0.9-1.9-1.7
	c0.1-0.1,0.1-0.1,0.1-0.2l0.4-0.1l0.9,1l2.1,1.2l2-0.2l0.8-0.6l-0.5-1l-1.5-0.6l0.3,0.1c0.1,0,0.3,0.1,0.4,0.1
	c0.7,0.2,1.3,0.3,2,0.4c0.1,0,0.2,0,0.3,0l0,0v1l-1.6,0.8l-1,1.4l-1.2,0.7l-1.3,0.4c0,0,0,0-0.1,0s-0.2,0.1-0.3,0.1
	C234.5,275.9,234.3,275.9,234.1,275.9z"/>
<path id="Path_6977" class="st27" d="M189.3,187.1c0,0,3.9,3.6,4.8,7.3c0.9,4.1,1.4,8.3,1.3,12.5c-0.2,2.2-0.4,7-0.8,7.9
	c-0.4,0.9-2.2,1.4-3.5,1.6c-1.3,0.3-7.8-2.4-9.2-3.2c-1-0.4-1.7-1.2-2.1-2.2c-0.4-0.9-2.6-7.1-3-8.2s0.1-7,0.9-8.5
	C178.5,192.8,189.3,187.1,189.3,187.1z"/>
<path id="Path_6978" d="M190.9,191.7c0,0-4.8,1.7-5.6,2s-4.2,0.6-4.4,1.4c-0.2,0.8-0.2,4.6-0.3,5c-0.1,0.5-1.8,2.2-1.8,2.9
	s0.3,3.3,0.3,3.3l-1.5-0.6c0,0-1.1-3.2-2-3.1c-0.9,0.1-1.1,2.4-1,2.7s-0.8,0.3-0.8,0.3s-2.3-4.4-3.2-6.4c-1.1-2.9-1.3-6.1-0.8-9.1
	c0.7-2.5,3-5.2,3.9-6.1c0.9-0.9,6.1-1.6,7.8-1.7c1.7-0.1,5.1,1.4,6.9,2.1c1.8,0.7,4.6,2.4,4.8,3.2c0.2,0.9,0.8,4.1,0.8,4.6
	s0.1,2.8,0.1,2.8l-2.8-4.6L190.9,191.7z"/>
<path id="Path_6979" class="st27" d="M177,203.7c0,0-1.1-1.4-1.8-1c-0.7,0.3-1.5,0.4-1.4,1.8c0.2,1.5,2.2,3.9,2.7,4.1
	c0.5,0.2,1.6-0.3,1.6-0.3v-1L177,203.7z"/>
<path id="Path_6982" class="st27" d="M242.7,270c-0.2,0.4-0.4,0.7-0.7,0.9c-0.7,0.3-1.5,0.5-2.2,0.5s-6.8-1.5-6.8-1.5v1.2
	c0,0.4-1.6,0.9-1.6,0.9v1.3c0,0.4,0.1,1.3-0.3,1.2c-0.2,0-0.6,0-1.1,0c-0.9,0.1-1.7,0.1-2.6,0c-0.9-0.2-4.6-2.2-5.7-3.5
	c-1.1-1.3-3.2-1.8-13.5-3.7c-7-1.2-13.8-3.2-20.3-6c-2.7-1.3-14.1-11.2-14.1-11.2l-3.6-2.6l0.4-3.5l0,0l6-6.1c0,0,5,1,7.6,3.1
	c2.6,2,9.2,10.9,9.7,11.3c0.5,0.4,3.5,1,6.7,2.4s15.4,6,17.2,6.5c2.7,0.9,5.5,1.2,8.3,1.1c1.7-0.3,3.4-0.2,5.1,0.2
	c1,0.2,3.2,3.5,3.2,3.5c0.8,0.4,1.6,1,2.3,1.5c0.5,0.5,1,0.9,1.6,1.2L242.7,270z"/>
<path id="Path_6983" class="st27" d="M228.5,274.6c-0.4,0-0.8,0-1.2-0.1c-0.9-0.2-4.6-2.2-5.7-3.5c-1.1-1.3-3.2-1.8-13.5-3.7
	c-1.4-0.3-2.8-0.5-4.1-0.8c-4.9-1.1-9.7-2.5-14.4-4.4c-0.1,0-0.2-0.1-0.3-0.1c-0.6-0.2-1.1-0.5-1.4-0.7
	c-2.7-1.3-14.1-11.2-14.1-11.2l-3.6-2.6l0.4-3.5l0,0c1.1,0.3,2.3,0.6,3.5,1.1c0.7,1.7,1.8,3.2,3.4,4.2c2.5,1.6,9.7,8,9.9,8.1
	c2.2,1.5,4.4,2.9,6.8,4.2c3.4,1.9,12.6,4.6,18.9,5.9s8.2,2.2,8.5,2.5c1.7,1.4,3.5,2.6,5.4,3.8c0.9,0.3,1.9,0.5,2.9,0.6
	c0.3,0,0.6-0.2,0.8-0.4l-1.2-0.6c0,0-0.8-0.9-0.5-0.9s1.7,0,1.7,0l-0.5-0.7l-0.6-0.4c0.2-0.3,0.5-0.4,0.8-0.4h0.1
	c0.6,0.1,1.2,0.2,1.2,0.2l1.5-0.2v0.1c0,0.1-0.1,0.1-0.1,0.2c-0.3,0.2-0.7,0.4-1.1,0.5c-0.2,0.1-0.4,0.1-0.4,0.1v1.3
	c0,0.1,0,0.3,0,0.5c0,0.1,0,0.2,0,0.4v0.1c0,0.2-0.1,0.3-0.3,0.3l0,0h-0.1c-0.2,0-0.6,0-1,0S229,274.6,228.5,274.6z"/>
<path id="Path_6984" class="st6" d="M161,223.8c0,0-1.9,1.8-1.4,6.4s5,10.4,5.1,10.9s5.4,8.3,5.4,8.3l3.6,0.7l-2-2.2
	c2.2-1.6,4.4-3.1,6.8-4.4c1.5-0.7,6.1-2.7,6.1-2.7l-5.8-7.2c0,0-2.4-6.3-5.1-8.4S164.9,221.7,161,223.8z"/>
<path id="Path_6985" class="st34" d="M307.1,263.3c0.2,0.5,0.5,1.1,0.8,1.6l1.4-0.2c0.3,0.6,0.7,1.2,1.3,1.5
	c0.8,0.3,1.6,0.6,1.6,0.6l1.3,0.2c0.5,0.1,1,0.3,1.5,0.4c0.5-0.1,1-0.2,1.5-0.3c0,0,0.4-0.4,0.8-0.9l0,0c0.5-0.6,1-1.2,1.1-1.4
	c0.4-0.7,0.7-1.4,1.1-2.1v-0.1l0.1-0.4l-0.1-0.6c0,0,6.8-4.9,8.5-7c1.9-2.4,3.3-5.2,4.2-8.1c0.7-2.7,6.2-14.5,5.8-15.6
	c-0.2-1.3-0.6-2.6-1.3-3.8c-1.1-1.7-3.3-3-7.8-1.8c0,0-1.2,7-1.9,8.2c-0.7,1.1-3.2,8.2-4.6,10.1c-1.7,2.2-3.2,4.6-4.4,7.1l0,0
	c-0.2,0.4-0.4,0.8-0.6,1.2c-0.8,1.9-2,3.6-3.6,4.9c-0.1,0.1-0.2,0.2-0.4,0.2c0,0-2,0.2-2.6,0.9c-0.4,0.4-0.8,0.8-1.3,1.1l-2.1,1.1
	c0,0-0.2,1.1,0.2,1.2c0.3,0,0.7,0,1-0.1C307.8,261.9,307.4,262.6,307.1,263.3z"/>
<path id="Path_6986" class="st35" d="M313.5,256.9c1.6-1.3,2.9-3,3.6-4.9c0.2-0.4,0.4-0.9,0.6-1.2l0,0l-1,2.8l0.4,2.7
	c0,0-0.5,0.1-1.1,0.2C315.3,256.5,313.5,256.9,313.5,256.9z"/>
<path id="Path_6987" class="st35" d="M319.3,262.7c0-0.6-0.1-1.2-0.2-1.7c-0.2-0.7,3.3-2.4,4-3.5s3.4-3.4,5.2-5.6
	c1.8-2.2,2.5-4.5,3-7.6c0.3-1.9,0.8-3.7,1.4-5.5c0,0,2.3-5.8,2.7-7c0.4-1.3-2-4.2-2-4.2c1-0.2,2-0.3,3-0.3c0.4,2.2,0.9,4.3,1.1,5.5
	c-1.2,3.6-4.9,11.7-5.5,13.9c-0.9,2.9-2.3,5.7-4.2,8.1c-1.7,2.1-8.5,7-8.5,7l0.1,0.6L319.3,262.7z"/>
<path id="Path_6988" class="st35" d="M314.9,267.4L314.9,267.4c-0.5-0.1-1-0.2-1.5-0.4l-1.3-0.2c0,0-0.8-0.3-1.6-0.6
	c-0.6-0.4-1.1-0.9-1.3-1.5l-1.4,0.2c-0.3-0.5-0.5-1-0.8-1.6c0,0,0.5,1.1,1.3,1.1h0.1c0.7-0.2,1.4-0.5,2-0.9l1.6-1.5l1.2-1l-1.9,2.7
	l-1.6,1.1l1.4,1l1.4-0.9l1.6-2.4l1.1-2.5l-0.4,2.2l-1.7,2.8l-0.7,1l1.4,0.2l1.2-1.2l1.6-3.3l-0.6,2.7l-1,2h0.2c0,0,1.1-0.4,1-0.7
	c0.5-0.9,1.1-1.8,1.8-2.6l-1.2,3l0,0c-0.4,0.5-0.8,0.9-0.8,0.9C315.9,267.3,315.4,267.4,314.9,267.4z"/>
<path id="Path_6989" class="st16" d="M327.4,225c0,0,0.3,1.7,3.4,3.8c2.1,1.3,4.5,2.3,6.9,2.9l0.7-13.8l-1.7-7.5
	c-1.4,0.7-2.7,1.5-3.9,2.4c-0.9,0.8-2.7,5.5-2.9,5.9C329.8,219.2,327.4,225,327.4,225z"/>
<path id="Path_6990" class="st30" d="M327.3,316.6c-1.9,1-3.7,2.1-5.4,3.3c-0.9,0.9-5.1,5-7.3,7.1s-2.3,4.6-1.1,5.9
	c1.3,1.3,3.1,1.8,4.9,1.5c1.6-0.3,6-2.9,6.9-4.3c1.2-1.6,2.5-3,4.1-4.2c0.6-0.3,3.4-2.4,3.8-2.6s1.9,0.2,2.8-1s0.4-2.7,0.1-4.6
	c-0.2-2-0.4-2.8-1.3-3.5C333.9,313.4,327.3,316.6,327.3,316.6z"/>
<path id="Path_6991" class="st34" d="M320.1,300.2c1.8,4.7,5,12.2,5.6,15.1c0.7,2.9-2,4.4-2,5.5c0,1.2,3.7,2.2,4.8,1.9
	c1.8-1,3.5-2.2,5-3.7c0.2-0.2,0.4-0.5,0.5-0.9c0.1-1,0.6-1.1,0.5-1.6s-2-11.7-2.2-14.3c-0.2-2.5-2.3-10.4-2.3-10.4l8.3-9.6
	c-0.3-0.8-0.6-1.6-1.1-2.4c-1.8-3.4-6.1-9.3-13.9-6.9c-2.4,1.2-4.4,3-5.9,5.2c-1.9,2.5-2.9,5.6-2.7,8.8
	C314.8,288.8,318.3,295.5,320.1,300.2z"/>
<path id="Path_6992" class="st35" d="M333.5,319c-0.2-0.2-0.3-0.4-0.5-0.6c-0.6-1.3-1-2.7-1.3-4.1c0-0.4-1.4-11-1.6-11.9
	s-2.7-8.7-3.3-9.5c-0.6-0.9-1.2-4.1-1.2-4.1s2.9-2.3,5.7-4.2c1.2-0.9,2.3-1.8,3.4-2.9c0.5,0.5,0.9,1.1,1.2,1.8c-1.5,1-2.9,2.3-4,3.7
	c-1.9,2.8-2.6,7.2-0.8,12.5c0.7,2.1,1.3,3.7,1.8,5.2c0.6,4.2,1.8,11.2,1.8,11.7v0.1c0,0.4-0.4,0.6-0.5,1.5
	C333.9,318.4,333.8,318.7,333.5,319z"/>
<path id="Path_6993" class="st30" d="M321.4,273.7c0,0,3.9,0.3,9.2,4.3c0.9,0.7,1.6,1.3,2.3,1.9c3.1,2.9,3.3,4.6,3.3,4.6l14.6-3
	c0,0,2.4-3.3,4.7-6.8c2.2-3.5,4.2-7.3,3.8-8.6c-0.9-2.8-6.8-6.8-7.2-7c-0.3-0.1-10.8-5.2-13.4-3.4c-2.6,1.8-6.9,7.4-6.9,7.4
	l-5.5,5.6L321.4,273.7z"/>
<path id="Path_6994" class="st36" d="M335.8,283.4c-0.8-1.3-1.8-2.5-2.9-3.5l6.4-2.4l9.8-6.9l0,0c0.3,0.4,0.7,0.8,1.1,1.2l-11.6,9
	l0,0c0.3,0,0.6,0.1,0.9,0.2C338.7,281.4,337.3,282.4,335.8,283.4z"/>
<path id="Path_6995" class="st30" d="M336.2,323.4c-0.2,0-2.7,2.5-3.7,3.2s-8,9.4-8.6,10.9s-1.1,3.2,1.4,4.5s7.6,0.1,9.7-1.3
	s6.9-7.4,6.9-7.4s5.1-5.4,5.2-6.2c0-0.8-0.3-4.3-1.3-5.5C344.8,320.5,336.2,323.4,336.2,323.4z"/>
<path id="Path_6996" class="st34" d="M335.1,312.4c1.5,5.4,1.1,9.1,0.6,10.5s-0.8,2.9-0.9,4.4c1.2,1.3,3,2,4.9,1.8
	c1.8-0.2,3.5-1.1,4.7-2.5l0.2-0.2c0.6-0.8,1.1-1.7,1.3-2.6c0-0.5-0.2-3.2-0.2-3.2c1.5-3.3,2.4-6.8,2.7-10.3c0.4-6-0.3-8.5-1.3-10
	c-0.6-0.9-1-1.9-1.2-3c0,0,8.5-2,10.9-4.6l0.3-0.3c2-2.7-7.2-14.2-16.7-11.9c0,0-6.7,3.9-8.6,6.7c-1.9,2.8-2.6,7.2-0.8,12.5
	S333.6,307.1,335.1,312.4z"/>
<path id="Path_6997" class="st35" d="M344.4,326.7c-0.3-2.4-0.3-4.8-0.2-7.2c0.3-1.4,2.9-10.7,2.7-13.7c-0.2-2.1-1.4-3.9-3.1-5.1
	c-0.8-0.6-1.8-4.5-1.8-4.5c1-1,2.2-1.8,3.5-2.4c1.6-0.8,3.1-1.8,4.6-2.8c0.2,0.3,0.5,0.7,0.7,1c0.7,1.1,1.4,2.2,1.9,3.1
	c-0.3,0.1-0.7,0.3-1,0.4c-1.9,0.7-3.8,1.3-5.7,1.7c0.1,1.1,0.5,2.1,1.2,3c0.8,1.2,1.4,3,1.4,6.7c0,0.2,0,0.4,0,0.6
	c0,0.4,0,0.9,0,1.4c0,0.4,0,0.8-0.1,1.3c-0.3,3.6-1.2,7.1-2.7,10.3c0,0,0.2,2.2,0.2,3c0,0.1,0,0.1,0,0.2c-0.2,1-0.7,1.9-1.3,2.6
	L344.4,326.7z"/>
<path id="Path_6998" class="st30" d="M338.7,280.7c0.9,0.1,1.8,0.4,2.7,0.9c2.3,0.9,5.3,5.3,6.8,6.9c0.9,1.1,1.8,2.3,2.6,3.6
	c1.5,2.4,3,4.9,3,4.9c3.3-2,6.8-3.7,10.4-5c6.4-2.4,14-10.4,17.5-15.2c3.5-4.8,3.4-8.8,2.3-12.8c-0.7-2.4-1.7-4.8-2.8-7.1
	c-0.5-1-0.8-1.6-0.8-1.6l-26.1,5.2c-2.1,1.1-4.1,2.5-5.8,4.1c-0.5,0.4-0.8,1-1,1.6c-0.5,2.4,2.8,5.4,2.8,5.4L338.7,280.7z"/>
<path id="Path_6999" class="st17" d="M338.9,258.4c0.5,1.2,4.3,5.4,7,7.1l0.5,0.3c0.3,0.2,0.7,0.3,1,0.4c3.7,1.4,11.5,2.4,19.5,0.1
	c4.3-1.1,8.2-3.3,11.4-6.4c1.4-1.4,2.2-2.5,2.7-2.9l0.1-0.2c0.8-1.1-1-3.8-1.1-4.2s-6.3-10.6-6.7-15c0-2.1,0.3-4.3,0.9-6.3
	c1.3-5.6,3.5-12.3,3.5-12.3s1.2-4.3,0.8-4.8c-2.6-2.1-5.5-3.8-8.5-5.2c-3.4-1.5-7.7-2.7-9.4-3.5c-1.7-0.7-6.2-1.4-11.1-0.4
	c-5,1.1-9.5,2.6-11.8,4.3c-2.4,1.7-2.1,3.5-3,5.9c-0.8,2.5,2.9,18.3,2.9,18.3s1.6,7.8,1.8,8.8c0.1,1,2.2,6.6,2.2,6.6l-2.3,3.3
	c-0.3,1.5-0.5,3.1-0.6,4.7C338.7,257.6,338.7,258,338.9,258.4z"/>
<path id="Path_7000" class="st36" d="M353.8,296.9c0,0-0.5-0.8-1.1-1.8c-0.5-0.9-1.2-2-1.9-3.1c0.9-0.6,1.8-1,2.8-1.3
	c3.7-1.1,16.7-8.5,18.7-9.8s7.6-9,8.9-11c1.4-2,0.3-4.6,0.5-5.2s-2.4-5.2-2.4-5.2s-0.4,0.1-1.1,0.3c1.4-1.4,2.2-2.5,2.7-2.9l0.1-0.2
	c1.1,2.3,2.1,4.6,2.8,7.1c0.4,1.5,0.7,3,0.7,4.5c0,1.7-0.4,3.4-1,4.9c-0.5,1.2-1.2,2.3-2,3.4c-3.5,4.8-11,12.8-17.5,15.2
	c-0.3,0.1-0.7,0.2-1,0.4C359.9,293.6,356.8,295.1,353.8,296.9z"/>
<path id="Path_7001" class="st36" d="M339.2,266.8c-0.1,0-0.2,0-0.3,0c-0.4-0.1-2.6-0.5-3.4-2.1c-0.7-1.5-0.3-4.8-0.3-4.8v0.3
	c0,0,0.4,0.5,0.8,1.1c0.3,0.4,0.7,0.6,1.1,0.6c0.3,0.1,1.7,0.9,1.7,0.9l0,0c0.3,0.2,0.7,0.4,1.2,0.4c0.1,0,0.1,0,0.2,0
	c0.5-0.1,1.1-0.3,1.6-0.6c0.1,0,0.2-0.1,0.4-0.2c1.1,1.2,2.4,2.2,3.7,3.1l0.5,0.3l-1.2,0.7C345.2,266.5,340.5,266.8,339.2,266.8z"/>
<path id="Path_7002" class="st16" d="M346.4,265.8l-0.5-0.3c-1.3-0.9-2.6-2-3.7-3.1c1.5-1,3-1.8,4.6-2.5c0.7-0.1,8.1-0.4,15.9-0.5
	c7.9-0.1,15.6-2.6,17.1-4.5c0.3-0.4,0.5-0.9,0.7-1.4c0.5,0.8,0.8,1.8,0.9,2.7c0,0.3-0.1,0.5-0.2,0.7l-0.1,0.2
	c-0.5,0.4-1.3,1.5-2.7,2.9c-2.3,0.7-7.5,2.2-9.3,2.4c-2.3,0.3-7.7,0.3-10,0.6c-2.4,0.3-8.3,0.4-8.3,0.4l-2.3,1.3L346.4,265.8z
	 M345,252.9c-0.1,0-0.1,0-0.2,0c-0.6,0-1.7-0.2-2.7-0.4l7.2-1.7c1.7,0.2,3.4,0.4,5.1,0.4c0.1,0,0.1,0,0.2,0c3.8,0,13.7-2.6,13.7-2.6
	l1.1-5.3l0.1-13.1c0.1,0,0.1,0,0.2,0c0.7,0,1.4,0.2,2.1,0.4c-0.5,0.7-1,1.5-1.5,2.2c0,0,0,0.2,0,0.5c0.1,1.7,0.4,7.3,0.5,7.6
	c0,0.3,0.4,6.8-0.1,6.9c-0.5,0.1-8.9,3.1-12.1,3.7C355.7,252.1,346.8,252.9,345,252.9L345,252.9z"/>
<path id="Path_7003" class="st31" d="M358.4,196.3c0,0,1,7.9,1.8,9.7c0.9,1.8,2.9,5.2,1.8,6.3s-1.9,5.4-6.3,6.8
	c-4.4,1.5-5.9,0.9-6.4,0.3c-0.5-0.6-2.3-4.5-2.3-4.5c-0.2-2.2-0.6-4.3-1.1-6.4c-0.3-0.5,0.9-7.7,0.9-7.7L358.4,196.3z"/>
<path id="Path_7004" class="st31" d="M361.2,219.2l1.3-0.5l0.5,0.7l-0.1,0.8l-0.2,0.3l-1.6,0.5l-1.4-0.3l-0.1-0.8l0.3-0.7H361.2z"/>
<path id="Path_7005" class="st31" d="M343.7,215.6l1.6,0.1l0.3,1.1l-0.3,1l-0.4,0.1l-1-0.3l-1.7,0.1l-0.2-0.8l0.5-1.1L343.7,215.6z"
	/>
<path id="Path_7006" class="st34" d="M331.6,258.3c0,0,0.3,0.5,0.7,0.9c0.2,0.3,0.5,0.5,0.8,0.7c0.7,0.1,1.4,0.2,2.1,0.1v0.3
	c0,0,0.4,0.5,0.8,1.1c0.3,0.4,0.7,0.6,1.1,0.6c0.3,0.1,1.7,0.9,1.7,0.9l0,0c0.4,0.3,0.9,0.4,1.4,0.4c0.5-0.1,1.1-0.3,1.6-0.6
	c0.4-0.2,4.3-2.7,5-2.8s8.1-0.4,15.9-0.5c7.9-0.1,15.6-2.6,17.1-4.5s3.2-12.4,3.2-12.4l0.9-15.2c-6.1-7.5-13.5,5.7-13.5,5.7
	s0,0.2,0,0.5c0.1,1.7,0.4,7.3,0.5,7.6c0,0.3,0.4,6.8-0.1,6.9c-0.5,0.1-8.9,3.1-12.1,3.7c-4.6,0.7-9.2,1.1-13.9,1.4
	c-1.1-0.1-3.9-0.7-5.1-0.3c-1.1,0.4-2.1,0.9-3,1.5c-0.9,0.4-1.8,0.7-2.8,0.9c-0.7,0.2-1.3,0.7-1.5,1.4l-0.5-0.3
	c-0.3,0.2-0.6,0.5-0.8,0.9C331,257.3,331.6,258.3,331.6,258.3z"/>
<path id="Path_7007" class="st34" d="M357.2,201c0,0,4.5,5.3,5.3,5.7c1.1,0.4,2.1,1,3.1,1.5c0.3,0.4-0.9,7.5-2,9.9
	s-3.9,9.5-11.8,11.1s-8-12.7-8-12.7l1.1-6.8l3.7-4.2L357.2,201z"/>
<path id="Path_7008" class="st37" d="M343.2,208.9l-0.4,5.5l-0.5,2.8c0,0-1.7,7.2-1.8,7.4c-0.1,0.3-0.9,8.2-0.9,8.5s0.8,5.1,0.9,6.9
	c0.1,1.8,2.4,3.6,2.4,3.6l1.7-4c0,0-0.2-4.8-0.2-5.2c-0.1-0.4,0.1-5.9,0.1-5.9s1.1-4,0.8-4.5s-0.1-6.6-0.1-6.9
	c0-0.3-0.4-8.1-0.4-8.1L343.2,208.9z"/>
<path id="Path_7009" class="st38" d="M345.9,206.2l0.3-0.1l0,0L345.9,206.2z"/>
<path id="Path_7010" class="st16" d="M342.5,215.7c-1.2-0.4-2.4-0.8-2.4-1.1c0.2-1.6,0.5-3.2,0.9-4.7l0.4-2.2l4.5-1.5l0.3-0.1
	c-0.1,0.8-0.2,1.6-0.1,2.4l-1.1,1.2l-0.2,0.9c0-1-0.1-1.7-0.1-1.7l-1.5-0.1l-0.4,5.5L342.5,215.7z"/>
<path id="Path_7011" class="st39" d="M346,208.5c0-0.8,0-1.6,0.1-2.4l0,0l2.2-0.7c0,0,0.2,0,0.7-0.1l-0.4,0.2L346,208.5z"/>
<path id="Path_7012" class="st35" d="M355.3,220.5h-0.1c-0.6-0.3-2-2.4-2.2-2.8c-0.6-0.5-1.3-0.9-2-1.2c-0.4-0.3-0.9-0.5-1.5-0.7
	h-0.1c-0.4,0.2-3.6,0.8-3.6,0.8s-0.3-0.1-0.6-0.2c-0.1-1.3-0.2-4-0.3-5.7l0.2-0.9l1.1-1.2l2.6-3l0.4-0.2c1.1-0.1,3.4-0.3,5.1-0.3
	c1.3,0,2.3,0.1,2.3,0.4c0,0,0.2,2.2-2.4,4.9c-2.6,2.8-3.2,3.7-3.1,4c0.5,0.5,1,0.9,1.6,1.3c0.5,0.1,1,0.4,1.4,0.6
	c0.3,0.9,0.6,1.9,0.6,2.9C354.7,219.5,355.6,220.5,355.3,220.5z"/>
<path id="Path_7013" class="st40" d="M345,216.4c-0.6-0.2-1.6-0.4-2.5-0.7l0.3-1.4l0.4-5.5l1.5,0.1c0,0,0,0.7,0.1,1.7
	C344.9,212.5,345,215.2,345,216.4z"/>
<path id="Path_7014" class="st35" d="M340,263.2c-0.4,0-0.8-0.2-1.2-0.4c0.4,0.1,0.7,0.2,1.1,0.2c0.1,0,0.2,0,0.3-0.1
	c0.3-0.2,3.3-2,3.3-2l2.7-1.8c0,0,1.4-0.2,12.8-1s11.4-1.6,15.8-3.1c4.4-1.4,4.2-3.6,5.5-5.3s1.6-16.4,1.6-16.4s-0.6,0-1.5,0
	c-0.8,0-1.8,0-2.9,0.1c-2.5,0.2-6.7,0.6-6.7,0.6c-0.2-0.3-0.4-0.5-0.5-0.7c0-0.3,0-0.5,0-0.5s4.5-8,9.3-8c1.7,0.1,3.2,0.9,4.2,2.3
	l-0.9,15.2c0,0-1.3,7.6-2.5,11.1c-0.2,0.5-0.4,0.9-0.7,1.4c-1.5,1.9-9.2,4.4-17.1,4.5c-7.8,0.1-15.2,0.4-15.9,0.5
	c-1.6,0.7-3.1,1.6-4.6,2.5c-0.2,0.1-0.3,0.2-0.4,0.2C341.2,262.8,340.7,263,340,263.2C340.2,263.2,340.1,263.2,340,263.2z"/>
<path id="Path_7015" class="st35" d="M338.8,262.8c0,0-1.4-0.8-1.7-0.9c-0.4,0-0.9-0.2-1.1-0.6c-0.4-0.6-0.8-1.1-0.8-1.1v-0.3
	c0,0-0.4,0-0.8,0h-0.1c-0.4,0-0.8,0-1.2-0.1c-0.3-0.2-0.6-0.4-0.8-0.7c0.6,0.2,1.3,0.3,2,0.3c0.1,0,0.2,0,0.4,0
	c0.7-0.2,4.2-1.3,4.2-1.3l1,0.2l-3.2,1.3l-0.3,0.3l3.4,0.7l-0.1,0.6l-3.5-0.8c0,0-0.4,0.4,0.3,0.7s4.5,1.1,4.5,1.1l-1.5,0.2
	L338.8,262.8z"/>
<path id="Path_7016" class="st35" d="M332.9,257.8l-1.8-0.8c0.2-0.4,0.4-0.7,0.8-0.9l0.5,0.3l0.5,0.7l2.4-0.5l3.5-1.4l-2.5,1.6
	L332.9,257.8z"/>
<path id="Path_7017" class="st34" d="M339.4,188.9c-1,2.5-1.4,5.1-1.3,7.8c0.5,3.1,1.3,6.2,2.4,9.2c0.4,1,1,2,1.6,3
	c0.8,1.2,1.7,3.4,2.4,3.8c0.7,0.4,2.1,0.3,3.8-0.2c1.7-0.5,4.5-2.5,6.9-5.1s1.8-4.4,1.9-5.7c0.1-1.2-3.5-10.2-5.1-11.5
	C350.3,189.1,339.4,188.9,339.4,188.9z"/>
<path id="Path_7018" class="st37" d="M341.8,192l0.2,0.1c1,0.2,2,0.3,3,0.3c1.8-0.1,3.5,0.3,5.1,1.2c1.4,0.8,2.5,1.9,3.4,3.2
	c0.6,1.3,2.2,3.9,2.3,4.3c0.5,0.8,0.9,1.7,1.2,2.5c0,0.3,0-1.3,0-1.3l-0.4-2.4l1.3-0.6l2,0.2c0,0,1.8-3.5,1.7-4.2c0-2-0.2-4-0.6-6
	c-0.7-2.9-2.3-5.5-4.7-7.4c-1-0.6-5-1.1-5-1.1c-1.2-0.7-2.6-1-4-0.7c-2.6,0.3-5.6,2.4-7.4,5.3c-1.2,2.1-1.9,4.5-2.2,7l0.4,1.4
	c0,0,2-2.5,2.3-2.1C340.9,191.7,341.4,191.9,341.8,192z"/>
<path id="Path_7019" class="st37" d="M361.3,191.4c0.5,1.2,0.9,2.5,1.2,3.8c0.2,1,0.4,2,0.4,3c0.2,1.3,0.5,2.7,0.8,4
	c0.2,0.9,0.7,2.1,0.5,2.8c-0.3,0.7-0.8,2.2-0.7,2.2c0.1,0.8,0.1,1.6,0,2.5c-0.2,0.4-0.4,0.8-0.7,1.2c0.1,0.5,0.2,1.1,0.2,1.6
	c0,0.6-0.2,0.7-0.2,0.7c0.3,0.8,0.4,1.6,0.3,2.4c-0.1,0.5-0.2,1-0.4,1.4c-0.2,0.6-0.2,1.2-0.2,1.8c0,0.5,0.6,3.9,0.7,5
	s1.1,4.1,0.5,9.2c-0.4,3.8-0.1,7.6,0.9,11.3c0.3,1.2,0.5,2.5,0.6,3.7c0,0-3.1,0.6-3.8-0.1c-0.6-0.7-1.2-1.4-1.9-2
	c-0.5-0.3-2.3-9.7-1.9-11.1c0.4-2.7,0.6-5.4,0.7-8.1c0,0,1.1-5,1.3-5.5c0.2-0.5,0.5-1.4,0.5-1.4s-0.4-3.8-0.7-4.8
	c-0.1-0.8-0.1-1.6,0.1-2.4c0.1-0.6,0-1.3-0.1-1.9c-0.1-0.8-0.1-1.7-0.1-2.5c0,0,0.2-2.9-0.1-3s-0.4-1.5-0.4-1.9s-0.1-3.6-0.1-3.6
	l-0.6-3.3l1.7-2.8L361.3,191.4z"/>
<path id="Path_7020" class="st41" d="M359.7,198.7c0,0,0.1,1.4,0.2,1.8c-0.1,0.6-0.3,1.1-0.6,1.6l-1.3,0.7l-0.4,0.1l-0.8-1.5
	l-0.8-1.7c0-0.1,1.2-1.5,1.7-1.5C358.4,198.2,359,198.4,359.7,198.7z"/>
<path id="Path_7023" class="st16" d="M378.5,214.3c0,0,3.8,5,4.2,6.1c0.4,1.2,2.3,7.5,2.3,7.5c-1.6,1.3-3.3,2.6-5.1,3.7
	c-1.2,0.6-8.3,3.1-8.7,3.1s-1.5,0.2-1.5,0.2s-0.5-10.9-0.6-11.4c0.7-2.4,1.9-4.7,3.6-6.5C374.4,215.6,376.4,214.6,378.5,214.3z"/>
<path id="Path_7024" class="st42" d="M304,332.2c-15.2-8.8-39.8-8.8-54.9-0.1c-15.1,8.7-15,22.9,0.2,31.7
	c15.2,8.8,39.8,8.8,54.9,0.1C319.3,355.2,319.2,341,304,332.2z"/>
<path id="Path_7025" class="st43" d="M276.8,366.2c-8.1,0-16.2-1.8-22.3-5.4c-12.3-7.1-12.4-18.6-0.1-25.6
	c6.1-3.5,14.1-5.3,22.1-5.3c8.1,0,16.2,1.8,22.3,5.4c12.3,7.1,12.4,18.6,0.1,25.6C292.8,364.4,284.8,366.2,276.8,366.2z"/>
<path id="Path_7026" class="st44" d="M262.7,335c-4.7-0.9-9.4-1-14.1-0.4c-0.6,0-1.1,0.2-1.6,0.5c-0.8,0.6-1.4,1.6-1.5,2.6
	c-0.8,3.3-0.6,7.3,2.2,9.4c1.7,1.3,3.9,1.5,6,1.6c2.2,0.1,4.4,0.1,6.6,0.1c1.7,0,4,0.2,5.7-0.2l0.3-0.1c3-0.9,4.8-5.3,4.7-8.1
	C270.7,335.9,266.3,335.7,262.7,335z"/>
<path id="Path_7027" class="st45" d="M256.2,334.7c-0.5,0-1.1,0-1.6-0.1c-2.4-0.2-4.8,0.1-7.1,1l-0.5,0.3l-0.3,0.5
	c-0.2,0.4-0.3,0.9-0.3,1.4s0.2,1,0.5,1.3c0.6,0.4,1.2,0.7,1.9,0.9c1,0.3,2,0.4,3,0.4c1.8,0,3.7,0,5.5,0c0.7,0,1.4,0,2-0.2
	c2.1-0.7,1.9-2.6,0.7-3.8C259.1,335.4,257.7,334.8,256.2,334.7z"/>
<path id="Path_7028" class="st44" d="M299.1,351.7c-3.1-3.6-6.7-6.7-10.8-9.1c-3.2-1.8-6.6-4.6-9.7-1.4c-2,2-3.5,6.5-1.9,9.2
	l0.2,0.3c1,1.4,2.9,2.7,4.2,3.9c1.6,1.5,3.3,2.9,5,4.3c1.6,1.3,3.5,2.6,5.6,2.8c3.4,0.3,6.3-2.6,7.8-5.6c0.6-0.9,0.8-1.9,0.6-3
	C299.8,352.7,299.5,352.2,299.1,351.7z"/>
<path id="Path_7029" class="st44" d="M265.9,342.5l-0.3,0.2c-1.4,1-2.7,2.9-3.9,4.2c-1.5,1.6-2.9,3.3-4.3,5
	c-1.3,1.7-2.6,3.5-2.8,5.6c-0.2,3.4,2.6,6.3,5.6,7.8c0.9,0.6,1.9,0.8,3,0.6c0.5-0.2,1-0.5,1.5-0.9c3.6-3.1,6.7-6.8,9-10.9
	c1.8-3.2,4.6-6.6,1.3-9.7C273,342.4,268.6,340.9,265.9,342.5z"/>
<path id="Path_7030" class="st45" d="M262.3,350.3h-0.5l-0.4,0.3c-1.9,2-5.6,5.1-5.1,8.2c0.2,1.1,0.9,2.2,1.9,2.8
	c1.3,1,2,0.8,2.9-0.5c1.1-1.8,2.1-3.6,2.9-5.6c0.1-0.3,0.3-0.7,0.4-1.1c0.3-0.9,1-2.2,0.5-3C264.1,350.8,263.3,350.4,262.3,350.3z"
	/>
<path id="Path_7031" class="st45" d="M295.8,349.4c-0.9-0.8-1.8-1.7-2.7-2.5c-0.5-0.5-1.5-1.4-2.2-1.3c-0.6,0-1,0.6-1.3,1.2
	c-0.6,0.9-1,1.9-1.2,3c-0.1,0.9,0.8,1.5,1.3,2.1c0.2,0.3,0.5,0.6,0.7,0.9c0.5,0.6,1,1.2,1.5,1.8c0.4-1.8,2-3.2,3.9-3.4
	c0.4,0,1.1-0.1,1-0.7C296.7,350,296.1,349.7,295.8,349.4z"/>
<path id="Path_7032" class="st44" d="M293.1,324.6h-0.3c-1.7,0.2-3.8,1.2-5.4,1.8c-2.1,0.7-4.2,1.4-6.2,2.3c-2,0.8-4,1.8-5.1,3.6
	c-1.8,2.9-0.7,6.7,1.2,9.6c0.5,0.9,1.3,1.6,2.3,1.9c0.6,0.1,1.2,0.1,1.7-0.1c4.7-0.9,9.1-2.7,13.2-5.1c3.1-1.9,7.2-3.5,5.9-7.9
	C299.4,328,296.2,324.5,293.1,324.6z"/>
<path id="Path_7033" class="st45" d="M295.5,325.7c-1.6-0.6-2.6-0.8-4.1,0c-0.9,0.6-1.7,1.3-2.5,2c-0.5,0.5-1.6,1.3-1.6,2
	c0,0.6,0.5,1.1,1,1.5c0.7,0.5,1.1,0.9,2,0.6c2.2-0.9,4.1-2.3,6.3-3c0.3-0.1,0.6-0.2,0.9-0.4l0.2-0.1c0.5-0.5,0-1-0.4-1.4
	C296.8,326.4,296.2,326,295.5,325.7z"/>
<path id="Path_7034" class="st46" d="M282.1,300.9c-3,2.7-4.7,6.6-7.5,9.6c-2.7,2.9-6.1,4.9-9.3,7.2c-8,5.7-11.7,14.7-8.2,24.3
	c0.7,2.1,1.8,3.9,3.4,5.5c2.2,2.1,5.2,3.1,8.1,3.9c7.7,2.1,18.5,1.3,21.9-7.4l0.1-0.1c3.4-9.1,1.5-21.7-0.7-30.8c-0.6-2-0.9-4-1-6.1
	c0.1-4.3,2.8-8,5.4-11.5C289.9,296.7,285.4,297.9,282.1,300.9z"/>
<path id="Path_7035" class="st46" d="M261.3,310c-4.8-1-9.9,1.1-13.6,4.4c5,1,8,6.3,8.7,11.4s-0.3,10.2,0,15.3c0.2,3,1,6.2,3.5,7.8
	c1.6,0.8,3.4,1.1,5.2,1c1.8,0.1,3.5-0.3,5.1-1c7.5-4.2,4.8-20.2,2.2-26.4C270.3,317.4,267,311.1,261.3,310z"/>
<path id="Path_7036" class="st47" d="M274.9,295c-1.7-1.1-3.5-2-5.5-2.5c-3.1-0.9-6.3-1.5-9.6-1.8c1.9,4.4,2.7,9.2,2.3,13.9
	c-0.4,3.5-1.9,6.8-3.1,10.1c-1,3.2-1.6,6.5-1.8,9.9c-0.5,5.3,0.7,10.6,3.4,15.2c2.6,4.1,9.5,5.2,14.2,4.9c0.6,0,1.2-0.1,1.8-0.3
	c4.8-1.4,5.8-8.7,6.3-12.9c0.2-2,0.3-4,0.5-6c1-8.1-0.2-16.3-3.5-23.7C278.9,299.3,277.2,296.9,274.9,295z"/>
<path id="Path_7037" class="st46" d="M274,304.6c-0.5-1.2-2.4-5-1.8-6.3c-2.2,4.1-2.6,9.5,0.1,13.3c1.1,1.4,2.5,2.6,3.4,4.1
	c2.5,4.3-0.1,10.2-0.8,14.7c-0.5,2.2-0.7,4.5-0.5,6.7c0.3,2.2,1.6,4.5,3.7,5.3c-0.7-2.6-1.5-5.4-0.9-8c0.4-1.4,0.8-2.7,1.4-4
	c0.8-2.3,0.8-4.7,1.4-7c1.2-4.5-0.8-8.7-2.9-12.7C276.2,308.7,275,306.7,274,304.6z"/>
<path id="Path_7038" class="st47" d="M284.9,328.8c-0.4,0.8-0.9,1.4-1.5,2c-1.4,1.1-3.5,0.5-5.3,0.5c-3.2,0.1-5.9,2.4-8.2,4.6
	c-1.1,0.9-1.7,2.3-1.6,3.7c0,1.6-0.4,3.2-0.5,4.9c0,0.5,0,1,0.1,1.5c0.2,0.5,0.6,1,1.1,1.4c1.7,1.4,4.1,1.8,6.3,1.9
	c1.6,0.1,3.3,0,4.9-0.2c4.4-0.5,8-5.3,8.6-9.4c0.4-2.7-0.2-5.4-0.3-8.2s0.4-5.7,2.4-7.6C288.7,325.2,286.3,326.6,284.9,328.8z"/>
<path id="Path_7039" class="st46" d="M283.1,333.7c0.1,1.6-0.5,3.2-1.7,4.3c-0.3,0.3-0.6,0.5-0.9,0.6c-0.6,0.1-1.1-0.1-1.6-0.5
	c-2.4-1.7-3-5.1-2.6-8c0.3-2.9,1.5-5.7,1.8-8.6c-1.6,3.3-5.4,5.3-6.4,8.9c-0.4,2-0.3,4.1,0.4,6c0.3,0.8,0.5,1.6,0.5,2.4
	c-0.1,0.9-0.4,1.8-0.9,2.6c-0.6,1-1.4,2.1-2.5,2.1c-2.3,0-3.1-3.6-3.6-5.3c-0.1-0.3-0.2-0.7-0.2-1c-0.7-3-0.3-5.6-0.3-8.6
	c0-6-1.6-11.9-4.6-17.1c0.4,2.5,0.7,5,0.8,7.5c0.1,1.3,0,2.6-0.3,3.8c-0.4,1.3-0.9,2.5-1.5,3.7c-1.2,3.1-1.4,6.6-0.4,9.8
	c0.6,2,1.6,3.9,2.2,5.9c0.5,1.8,0.4,3.6,2.1,4.9c1,0.8,2.3,1.2,3.5,1.3c1.1,0.1,2.1,0.4,3.2,0.5l7.8,0.8c0.8,0.1,1.7,0.1,2.5,0.1
	c1.6-0.1,3.1-0.7,4.3-1.8c-0.4-1.4-2.6-1.9-2.4-3.3c0.1-0.4,0.4-0.8,0.7-1.1c1.3-1.3,2.9-2.6,3.4-4.4
	C286.9,336.7,285.4,334.3,283.1,333.7z"/>
<path id="Path_7040" class="st48" d="M268.5,302.7c-0.5-1-1.1-1.9-1.7-2.8c-0.3-0.4-1.5-1.5-1.5-1.8c0.2,4.3,0.9,8.5-0.2,12.8
	c-0.7,2.6-1.3,5.8-0.6,8.4c0.6,2.5,1.2,4.9,1.9,7.4c-0.5-1.9,0.4-4.8,1.1-6.6c0.7-2.1,1.9-3.7,2.5-5.8c0.5-1.8,0.7-3.6,0.5-5.4
	C270.2,306.7,269.5,304.6,268.5,302.7z"/>
<path id="Path_7041" class="st48" d="M279.6,322.1c-1.7,4.5,0.2,9.5,0.1,14.3c0.1,1.1-0.2,2.2-0.9,3.1c2.5-2.6,3.4-6.2,4.2-9.6
	c0.4-1.6,0.5-3.3,0.8-4.9c0.3-1.8,1.5-3.4,2.2-5.1c1.2-3.5,0.7-7.3,0.1-10.9C286,314.3,281.4,317.5,279.6,322.1z"/>
<path id="Path_7042" class="st47" d="M263.9,344.1c-0.9-1.8-0.2-3.5-0.8-5.3c-0.5-1.9-2.2-3.3-3.7-4.5c-2.5-2.1-5.5-2.8-6.9-6.1
	c0.5,2.9,1.2,5.7,2.2,8.5c0.6,1.3,1.4,2.4,2.2,3.6c0.7,1.3,1.5,2.5,2.5,3.6c0.3,0.3,0.7,0.6,1.1,0.9c2.4,1.5,5.4,2,8.3,2.1
	c-1.5,0-3-0.5-4.2-1.4C264.4,345,264.1,344.6,263.9,344.1z"/>
<path id="Path_7043" class="st47" d="M291.8,333.9c0,1.5-0.5,2.9-1.3,4.2c-0.8,1.2-1.7,2.4-2.7,3.5c-0.9,0.8-1.9,1.4-2.9,1.8
	c-0.9,0.5-1.8,0.8-2.7,1.4c-2.1,1.5-1.5,3.8,1.2,3.7c0.8-0.1,1.6-0.4,2.2-0.9c2.9-1.9,5.3-3.5,6.3-6.3c0.3-1,0.5-2,0.5-3
	c0-0.9,0-1.7,0-2.6C292.5,335,292.3,334.3,291.8,333.9z"/>
<path id="Path_7044" class="st48" d="M279.5,304.9c-0.7-1.2-1.5-2.4-2.4-3.4c-0.4-0.5-0.9-0.9-1.4-1.2c0.7,1,1.1,2.2,1.4,3.4
	c0.1,0.3,0.1,0.6,0.2,0.8c0.3,0.9,0.7,1.8,1,2.6c0.7,1.3,1.1,2.7,1.3,4.2c0.1,1.5,0,3-0.5,4.5c0.7-1.2,1.2-2.6,1.6-4
	c0.3-1.2,0.3-2.4,0.1-3.7C280.5,307,280.1,305.9,279.5,304.9z"/>
<path id="Path_7045" class="st48" d="M273.9,337c0-0.4,0-0.8,0-1.2c0.2-2,0.6-4,1-5.9c0.8-5.1-1.2-10.1-3.7-14.5
	c0.1,0.5,0.1,0.9,0,1.4c-0.1,1.1-0.2,2.2-0.3,3.4c-0.2,2.6-1.1,4.7-1.6,7.1c-0.8,3.7-0.2,6.8,0.7,10.4c0.7,2.9,4,4.6,6.5,5.8
	C274.7,341.8,273.8,339.4,273.9,337z"/>
<path id="Path_7046" class="st46" d="M274.5,285.5c-0.8,0.6-1.3,1.5-1.6,2.5c0,0.4,0,0.9,0.1,1.3c0.2,0.9,0.4,1.9,0.8,2.8
	c0.3,0.7,0.7,1.2,0.6,2c0.2-0.9,0.9-1.8,1.1-2.7c0.1-0.8,0-1.6,0.2-2.4v-0.1c0.5-1.9,0.9-4.1-0.1-5.8
	C275.7,283.8,275.3,284.8,274.5,285.5z"/>
<path id="Path_7047" class="st48" d="M257.2,297c-1.5-1.2-2.5-3-2.6-5c-0.4,1-0.8,2.1-1.1,3.1c-0.2,0.5-0.2,0.9-0.2,1.4
	c0.1,1.2,0.8,2.2,1.7,2.9c0.9,0.7,1.9,1.4,2.7,2.2c0.8,0.9,1.3,1.9,1.7,2.9c0.2,0.7,0.5,1.5,0.8,2.2c0.5-2.4,1.3-6.1-0.6-8.1
	C258.7,298,258,297.5,257.2,297z"/>
</svg>
