<?xml version="1.0" encoding="utf-8"?>
<!-- Generator: Adobe Illustrator 27.6.1, SVG Export Plug-In . SVG Version: 6.00 Build 0)  -->
<svg version="1.1" id="Layer_1" xmlns="http://www.w3.org/2000/svg" xmlns:xlink="http://www.w3.org/1999/xlink" x="0px" y="0px"
	 viewBox="0 0 316.4 296.3" style="enable-background:new 0 0 316.4 296.3;" xml:space="preserve">
<style type="text/css">
	.st0{opacity:0.15;enable-background:new    ;}
	.st1{fill:#BCBEC0;}
	.st2{fill:#A3A8AB;}
	.st3{fill:#919699;}
	.st4{fill:#5498A8;}
	.st5{fill:#C9C8D9;}
	.st6{fill:#E0DFEF;}
	.st7{fill:#8DB03D;}
	.st8{fill:#919599;}
	.st9{fill:#65696B;}
	.st10{fill:#202020;}
	.st11{fill:#242424;}
	.st12{fill:#1C1C1C;}
	.st13{fill:#161616;}
	.st14{fill:#A7A9AC;}
	.st15{fill:#141415;}
	.st16{fill:#939497;}
	.st17{fill:#B6B9BA;}
	.st18{fill:#CBCFD0;}
	.st19{fill:#7F8181;}
	.st20{fill:#E6E6E7;}
	.st21{fill:#D1D3D3;}
	.st22{fill:#252525;}
	.st23{fill:#2B2C30;}
	.st24{fill:#7E8C8D;}
	.st25{fill:#37787F;}
	.st26{fill:#2B656B;}
	.st27{fill:#BCC2C7;}
	.st28{fill:#7C8889;}
	.st29{fill:#6C7778;}
	.st30{fill:#8C9A9A;}
	.st31{fill:#A7B4B4;}
	.st32{fill:#4B5353;}
	.st33{clip-path:url(#SVGID_00000094614166349914290340000010919181142110400176_);}
	.st34{fill:#839393;}
	.st35{fill:#B4C1C1;}
	.st36{fill:#737F7F;}
	.st37{fill:#BC6327;}
	.st38{fill:#5E6868;}
	.st39{fill:#F1F2F2;}
	.st40{fill:#EBF7FD;}
	.st41{fill:#1E170E;}
	.st42{fill:#874121;}
	.st43{fill:#2CA2B5;}
	.st44{fill:#53B7D5;}
	.st45{fill:#060400;}
</style>
<path id="Path_5880" class="st0" d="M16.4,174.6l72.9,41.6l64.6-38.1l-72.6-41.4L16.4,174.6z"/>
<path id="Path_5881" class="st1" d="M89.9,209.4l60.4-35.5l-0.2-100.1l-60.4,35.5L89.9,209.4z"/>
<path id="Path_5882" class="st2" d="M89.7,109.3l60.4-35.5L80.2,33.9L19.8,69.4L89.7,109.3z"/>
<path id="Path_5883" class="st3" d="M19.8,69.4L20,169.5l69.9,39.9l-0.2-100.1L19.8,69.4z"/>
<path id="Path_5884" class="st1" d="M87.7,210.6l1.7-1l-0.2-100.1l-1.7,1L87.7,210.6z"/>
<path id="Path_5885" class="st2" d="M87.5,110.5l1.7-1L19.4,69.6l-1.7,1L87.5,110.5z"/>
<path id="Path_5886" class="st4" d="M17.7,70.6l0.2,100.1l69.9,39.9l-0.2-100.1L17.7,70.6z"/>
<path id="Path_5887" class="st5" d="M16.4,68.8l72.9,41.6v2.8l-72.8-42L16.4,68.8z"/>
<path id="Path_5888" class="st6" d="M16.4,68.8l72.9,41.6l64.6-38.1L81.3,30.8L16.4,68.8z"/>
<path id="Path_5889" class="st7" d="M153.9,72.2v3.5l-64.6,37.4v-2.8L153.9,72.2z"/>
<path id="Path_5891" class="st0" d="M88.5,212.6l73.9,42.5l65.5-39l-73.6-42L88.5,212.6z"/>
<path id="Path_5892" class="st0" d="M160.6,254.2l73.9,42.1l65.5-38.7l-73.6-42L160.6,254.2z"/>
<path id="Path_5893" class="st8" d="M161.7,149.5l60.6-37.3L222,212.3l-60.6,35.1L161.7,149.5z"/>
<path id="Path_5894" class="st9" d="M161.7,149.5l-0.3,97.9l-69.7-40.2l0.3-97.9L161.7,149.5z"/>
<path id="Path_5895" class="st2" d="M98.8,203.1l1.7-1l52.3,30.2l-1.7,1L98.8,203.1z"/>
<path id="Path_5896" class="st10" d="M100.7,158.1l1.7-1l-0.1,44l-1.7,1L100.7,158.1z"/>
<path id="Path_5897" class="st8" d="M98.9,155.1l1.7-1l-0.1,48l-1.7,1L98.9,155.1z"/>
<path id="Path_5898" class="st11" d="M100.5,202.1l1.7-1l48.8,28.2l-1.7,1L100.5,202.1z"/>
<path id="Path_5899" class="st10" d="M100.7,158.1l1.7-1l48.8,28.2l-1.7,1L100.7,158.1z"/>
<path id="Path_5900" class="st12" d="M149.4,186.2l1.7-1l-0.1,44l-1.7,1L149.4,186.2z"/>
<path id="Path_5901" class="st13" d="M149.3,230.3l0.1-44l-48.8-28.2l-0.1,44L149.3,230.3z M98.9,155.1l52.3,30.2l-0.1,48
	l-52.2-30.2V155.1z"/>
<path id="Path_5902" class="st11" d="M98.9,155.1l1.7-1l52.3,30.2l-1.7,1L98.9,155.1z"/>
<path id="Path_5903" class="st10" d="M151.2,185.2l1.7-1l-0.1,48l-1.7,1L151.2,185.2z"/>
<path id="Path_5904" class="st14" d="M151,233.3l0.1-48l-52.3-30.2l-0.1,48L151,233.3z M90.3,140l69.7,40.2l-0.2,68L90.1,208
	L90.3,140z"/>
<path id="Path_5905" class="st15" d="M149.4,186.2l-0.1,44L100.5,202l0.1-44L149.4,186.2z"/>
<path id="Path_5906" class="st16" d="M90.3,140l1.7-1l69.7,40.2l-1.7,1L90.3,140z"/>
<path id="Path_5907" class="st8" d="M159.9,180.3l1.7-1l-0.2,68l-1.7,1L159.9,180.3z"/>
<path id="Path_5908" class="st17" d="M158.2,181.3l1.7-1v4l-1.7,1V181.3z"/>
<path id="Path_5909" class="st18" d="M88.5,141.1l1.7-1l69.7,40.2l-1.7,1L88.5,141.1z"/>
<path id="Path_5910" class="st19" d="M158.2,181.3v4l-69.7-40.2v-4L158.2,181.3z"/>
<path id="Path_5911" class="st2" d="M113.7,141.2l1.7-1l22.9,13.2l-1.7,1L113.7,141.2z"/>
<path id="Path_5912" class="st10" d="M115.4,135.2l1.7-1v5l-1.7,1V135.2z"/>
<path id="Path_5913" class="st8" d="M113.7,132.1l1.7-1v9l-1.7,1V132.1z"/>
<path id="Path_5914" class="st11" d="M115.4,140.2l1.7-1l19.4,11.2l-1.7,1L115.4,140.2z"/>
<path id="Path_5915" class="st10" d="M115.4,135.2l1.7-1l19.4,11.2l-1.7,1L115.4,135.2z"/>
<path id="Path_5916" class="st12" d="M134.8,146.3l1.7-1v5l-1.7,1V146.3z"/>
<path id="Path_5917" class="st13" d="M134.8,151.3v-5l-19.4-11.1v5L134.8,151.3z M113.7,132.1l22.9,13.2v9l-22.9-13.2V132.1z"/>
<path id="Path_5918" class="st11" d="M113.7,132.1l1.7-1l22.9,13.2l-1.7,1L113.7,132.1z"/>
<path id="Path_5919" class="st10" d="M136.6,145.3l1.7-1v9l-1.7,1V145.3z"/>
<path id="Path_5920" class="st14" d="M136.5,154.4v-9l-22.9-13.2v9L136.5,154.4z M90.3,110.3l69.7,40.2l-0.1,27.9l-69.7-40.2
	L90.3,110.3z"/>
<path id="Path_5921" class="st15" d="M134.8,146.3v5l-19.4-11.1v-5L134.8,146.3z"/>
<path id="Path_5922" class="st2" d="M90.3,110.3l1.7-1l69.7,40.2l-1.7,1L90.3,110.3z"/>
<path id="Path_5923" class="st8" d="M160,150.5l1.7-1l-0.1,27.9l-1.7,1L160,150.5z"/>
<path id="Path_5924" class="st20" d="M109.1,132.6c0-0.1,0-0.1,0-0.2c0-0.1,0-0.1,0-0.2c0-0.1,0-0.1,0-0.2c0-0.1,0-0.1,0-0.2l0,0
	c0-0.1,0-0.1,0-0.2c0-0.1,0-0.1,0-0.2c0-0.1,0-0.1-0.1-0.2l-0.1-0.2c0-0.1,0-0.1,0-0.2l0,0l0,0c0-0.1,0-0.1-0.1-0.2
	c0-0.1,0-0.1-0.1-0.2c0-0.1-0.1-0.1-0.1-0.2c0-0.1-0.1-0.1-0.1-0.2c0,0,0-0.1-0.1-0.1l0,0l0,0c0-0.1-0.1-0.1-0.1-0.2
	c0-0.1-0.1-0.1-0.1-0.2c0-0.1-0.1-0.2-0.1-0.2s-0.1-0.2-0.1-0.3l0,0c0,0,0,0,0-0.1c-0.1-0.2-0.2-0.3-0.3-0.5
	c-0.1-0.1-0.2-0.2-0.3-0.4l0,0l0,0c-0.1-0.1-0.1-0.2-0.2-0.2s-0.1-0.1-0.2-0.2s-0.1-0.1-0.2-0.2l-0.2-0.2l0,0l0,0l-0.1-0.1
	c-0.1-0.1-0.1-0.1-0.2-0.2s-0.1-0.1-0.2-0.2s-0.1-0.1-0.2-0.2l-0.1-0.1l0,0c0,0,0,0-0.1-0.1c-0.1,0-0.1-0.1-0.2-0.1
	s-0.1-0.1-0.2-0.1s-0.1-0.1-0.2-0.1s-0.1-0.1-0.2-0.1l0,0l-0.1-0.1c-0.1,0-0.1-0.1-0.2-0.1s-0.1-0.1-0.2-0.1s-0.1,0-0.2-0.1
	c-0.1,0-0.1,0-0.2-0.1l0,0l0,0h-0.1h-0.2c-0.1,0-0.1,0-0.2,0s-0.1,0-0.2,0h-0.1l0,0l0,0c-0.1,0-0.1,0-0.2,0s-0.1,0-0.2,0
	s-0.2,0-0.2,0l0,0l0,0c-0.1,0-0.2,0-0.3,0.1c-0.1,0-0.2,0.1-0.3,0.2l-2.6,1.5c0.2-0.1,0.4-0.2,0.6-0.2l0,0c0.2,0,0.5-0.1,0.7,0l0,0
	c0.3,0,0.5,0.1,0.8,0.2l0,0c0.3,0.1,0.6,0.2,0.8,0.4c0.3,0.2,0.6,0.4,0.8,0.6l0,0c0.3,0.2,0.5,0.5,0.8,0.7l0,0
	c0.2,0.3,0.5,0.5,0.7,0.8l0,0c0.2,0.3,0.4,0.6,0.6,0.9l0,0c0.2,0.3,0.3,0.6,0.5,1l0,0c0.1,0.3,0.3,0.7,0.4,1l0,0
	c0.1,0.3,0.2,0.7,0.2,1l0,0c0.1,0.3,0.1,0.7,0.1,1s0,0.6-0.1,0.9l0,0c0,0.3-0.1,0.5-0.2,0.7l0,0c-0.1,0.1-0.2,0.3-0.2,0.4
	c-0.2,0.3-0.4,0.5-0.6,0.6l2.6-1.5c0.3-0.2,0.5-0.4,0.6-0.6c0,0,0.1,0,0.1-0.1c0.1-0.1,0.1-0.2,0.2-0.3l0,0l0,0
	c0-0.1,0.1-0.1,0.1-0.2c0-0.1,0.1-0.1,0.1-0.2c0-0.1,0-0.1,0.1-0.2V134l0,0v-0.1c0-0.1,0-0.1,0-0.2s0-0.1,0-0.2s0-0.1,0-0.2
	c0-0.1,0-0.1,0-0.2l0,0C109.1,132.7,109.1,132.6,109.1,132.6z"/>
<path id="Path_5925" class="st21" d="M102.4,127.1c2.4,1.6,4,4.2,4.1,7.1c0,2.6-1.9,3.7-4.1,2.4c-2.4-1.6-4-4.2-4.1-7.1
	C98.2,126.9,100.1,125.8,102.4,127.1z"/>
<path id="Path_5926" class="st20" d="M152.5,157.4c0-0.1,0-0.1,0-0.2c0-0.1,0-0.1,0-0.2c0-0.1,0-0.1,0-0.2s0-0.1,0-0.2l0,0l0,0
	c0-0.1,0-0.1,0-0.2s0-0.1,0-0.2c0-0.1,0-0.1-0.1-0.2s0-0.1-0.1-0.2c0-0.1,0-0.1,0-0.2l0,0l0,0c0-0.1,0-0.1-0.1-0.2
	c0-0.1,0-0.1-0.1-0.2s-0.1-0.1-0.1-0.2c0-0.1-0.1-0.1-0.1-0.2c0,0,0-0.1-0.1-0.1l0,0l0,0c0-0.1-0.1-0.1-0.1-0.2
	c0-0.1-0.1-0.1-0.1-0.2s-0.1-0.2-0.1-0.2c0-0.1-0.1-0.2-0.1-0.3c0,0,0,0,0-0.1v-0.1c-0.1-0.2-0.2-0.3-0.3-0.5
	c-0.1-0.1-0.2-0.2-0.3-0.4l0,0l0,0c-0.1-0.1-0.1-0.2-0.2-0.2c-0.1-0.1-0.1-0.1-0.2-0.2s-0.1-0.1-0.2-0.2c-0.1-0.1-0.1-0.1-0.2-0.2
	l0,0l0,0l-0.1-0.1c-0.1-0.1-0.1-0.1-0.2-0.2c-0.1-0.1-0.1-0.1-0.2-0.2c-0.1-0.1-0.1-0.1-0.2-0.2l-0.1-0.1l0,0l-0.1-0.1
	c-0.1,0-0.1-0.1-0.2-0.1c-0.1,0-0.1-0.1-0.2-0.1c-0.1,0-0.1-0.1-0.2-0.1c-0.1,0-0.1-0.1-0.2-0.1l0,0c0,0-0.1,0-0.1-0.1
	c-0.1,0-0.1-0.1-0.2-0.1c-0.1,0-0.1-0.1-0.2-0.1c-0.1,0-0.1,0-0.2-0.1c-0.1,0-0.1,0-0.2-0.1l0,0l0,0h-0.1h-0.2h-0.2
	c-0.1,0-0.1,0-0.2,0h-0.1l0,0l0,0c-0.1,0-0.1,0-0.2,0s-0.1,0-0.2,0s-0.2,0-0.2,0l0,0l0,0c-0.1,0-0.2,0-0.3,0.1
	c-0.1,0-0.2,0.1-0.3,0.2l-2.6,1.5c0.2-0.1,0.4-0.2,0.6-0.2l0,0c0.2,0,0.5-0.1,0.7,0l0,0c0.3,0,0.5,0.1,0.8,0.2l0,0
	c0.3,0.1,0.6,0.2,0.8,0.4c0.3,0.2,0.6,0.4,0.8,0.6l0,0c0.3,0.2,0.5,0.5,0.8,0.7l0,0c0.2,0.3,0.5,0.5,0.7,0.8l0,0
	c0.2,0.3,0.4,0.6,0.6,0.9c0,0,0,0,0,0.1c0.2,0.3,0.3,0.6,0.5,1l0,0c0.1,0.3,0.3,0.7,0.4,1l0,0c0.1,0.3,0.2,0.7,0.2,1l0,0
	c0.1,0.3,0.1,0.7,0.1,1s0,0.6-0.1,0.9l0,0c0,0.3-0.1,0.5-0.2,0.7l0,0c-0.1,0.1-0.2,0.3-0.2,0.4c-0.2,0.3-0.4,0.5-0.6,0.6l2.6-1.5
	c0.3-0.2,0.5-0.4,0.6-0.6c0,0,0.1,0,0.1-0.1c0.1-0.1,0.1-0.2,0.2-0.3l0,0l0,0c0-0.1,0.1-0.1,0.1-0.2c0-0.1,0.1-0.1,0.1-0.2
	c0-0.1,0-0.1,0.1-0.2v-0.1l0,0v-0.1c0-0.1,0-0.1,0-0.2c0-0.1,0-0.1,0-0.2c0-0.1,0-0.1,0-0.2c0-0.1,0-0.1,0-0.2l0,0
	C152.5,157.6,152.5,157.5,152.5,157.4z"/>
<path id="Path_5927" class="st21" d="M145.8,152c2.4,1.6,4,4.2,4.1,7.1c0,2.6-1.9,3.7-4.1,2.4c-2.4-1.6-4-4.2-4.1-7.1
	C141.6,151.7,143.5,150.7,145.8,152z"/>
<path id="Path_5928" class="st22" d="M224.9,113.5v1.2l-65,37.7l-71.1-41v-1.2l71.1,41L224.9,113.5z"/>
<path id="Path_5929" class="st23" d="M153.8,72.5l-1.1,0.6l-63.9,37.1l71.1,41l65-37.7L153.8,72.5z"/>
<path id="Path_5930" class="st24" d="M136.1,104.4c-4.8-2.8-12.6-2.8-17.4,0s-4.8,7.3,0.1,10.1c4.8,2.8,12.6,2.8,17.4,0
	C141,111.7,140.9,107.2,136.1,104.4z M118,114.8c-5.2-3-5.2-7.8-0.1-10.8s13.5-3,18.7,0s5.2,7.8,0.1,10.8
	C131.6,117.8,123.2,117.8,118,114.8L118,114.8z"/>
<path id="Path_5931" class="st24" d="M133.9,105.7c-4.1-2.1-8.9-2.1-13,0c-3.6,2.1-3.6,5.4,0,7.5c4.1,2.1,8.9,2.1,13,0
	C137.5,111.1,137.5,107.7,133.9,105.7z M120.4,113.4c-3.9-2.2-3.9-5.9,0-8.1c4.4-2.2,9.6-2.2,14,0c3.9,2.2,3.9,5.9,0,8.1
	C130,115.7,124.8,115.7,120.4,113.4z"/>
<path id="Path_5932" class="st24" d="M165.1,121.2c-4.8-2.8-12.6-2.8-17.4,0s-4.8,7.3,0.1,10.1c4.8,2.8,12.6,2.8,17.4,0
	C170,128.5,169.9,123.9,165.1,121.2z M147.1,131.6c-5.2-3-5.2-7.8-0.1-10.8c5.1-3,13.5-3,18.7,0s5.2,7.8,0.1,10.8
	S152.3,134.6,147.1,131.6L147.1,131.6z"/>
<path id="Path_5933" class="st24" d="M162.9,122.4c-4.1-2.1-8.9-2.1-13,0c-3.6,2.1-3.6,5.4,0,7.5c4.1,2.1,8.9,2.1,13,0
	C166.5,127.9,166.5,124.5,162.9,122.4z M149.5,130.2c-3.9-2.2-3.9-5.9,0-8.1c4.4-2.2,9.6-2.2,14,0c3.9,2.2,3.9,5.9,0,8.1
	C159,132.4,153.8,132.4,149.5,130.2L149.5,130.2z"/>
<path id="Path_5934" class="st24" d="M164.9,87.7c-4.8-2.8-12.6-2.8-17.4,0c-4.8,2.8-4.8,7.3,0.1,10.1c4.8,2.8,12.6,2.8,17.4,0
	C169.8,95,169.8,90.5,164.9,87.7z M146.9,98.1c-5.2-3-5.2-7.8-0.1-10.8c5.1-3,13.5-3,18.7,0s5.2,7.8,0.1,10.8
	S152.1,101.1,146.9,98.1L146.9,98.1z"/>
<path id="Path_5935" class="st24" d="M162.7,89c-4.1-2.1-8.9-2.1-13,0c-3.6,2.1-3.6,5.4,0,7.5c4.1,2.1,8.9,2.1,13,0
	C166.4,94.4,166.3,91.1,162.7,89z M149.3,96.8c-3.9-2.2-3.9-5.9,0-8.1c4.4-2.2,9.6-2.2,14,0c3.9,2.2,3.9,5.9,0,8.1
	C158.9,99,153.7,99,149.3,96.8z"/>
<path id="Path_5936" class="st24" d="M194,104.5c-4.8-2.8-12.6-2.8-17.4,0s-4.8,7.3,0.1,10.1c4.8,2.8,12.6,2.8,17.4,0
	S198.8,107.3,194,104.5z M176,114.9c-5.2-3-5.2-7.8-0.1-10.8s13.5-3,18.7,0s5.2,7.8,0.1,10.8S181.1,117.9,176,114.9L176,114.9z"/>
<path id="Path_5937" class="st24" d="M191.8,105.8c-4.1-2.1-8.9-2.1-13,0c-3.6,2.1-3.6,5.4,0,7.5c4.1,2.1,8.9,2.1,13,0
	C195.4,111.2,195.4,107.8,191.8,105.8z M178.3,113.5c-3.9-2.2-3.9-5.9,0-8.1c4.4-2.2,9.6-2.2,14,0c3.9,2.2,3.9,5.9,0,8.1
	C187.9,115.8,182.7,115.8,178.3,113.5z"/>
<path id="Path_5938" class="st25" d="M234.7,191.4l60.6-35.2L295,256.3l-60.6,35.2L234.7,191.4z"/>
<path id="Path_5939" class="st2" d="M165,151.2l60.6-35.2l69.7,40.2l-60.6,35.2L165,151.2z"/>
<path id="Path_5940" class="st4" d="M234.7,191.4l-0.3,100.1l-69.7-40.2l0.3-100.1L234.7,191.4z"/>
<path id="Path_5941" class="st20" d="M196.7,172.7l1.7-1l-0.2,80.1l-1.7,1L196.7,172.7z"/>
<path id="Path_5942" class="st2" d="M162.7,153.1l1.7-1l34,19.6l-1.7,1L162.7,153.1z"/>
<path id="Path_5943" class="st26" d="M196.7,172.7l-0.2,80.1l-34-19.6l0.2-80.1L196.7,172.7z"/>
<path id="Path_5944" class="st20" d="M232.4,193.3l1.7-1l-0.2,80.1l-1.7,1L232.4,193.3z"/>
<path id="Path_5945" class="st2" d="M198.4,173.7l1.7-1l34,19.6l-1.7,1L198.4,173.7z"/>
<path id="Path_5946" class="st26" d="M232.4,193.3l-0.2,80.1l-34-19.6l0.2-80.1L232.4,193.3z"/>
<path id="Path_5947" class="st27" d="M297.5,156.3L226.7,116l-63.1,36.6l-1.9-0.1v1.2l72.7,41.5l64.6-38V156L297.5,156.3z"/>
<path id="Path_5948" class="st6" d="M226.7,114.7l-65,37.7l72.7,41.5l64.6-38L226.7,114.7z"/>
<path id="Path_5949" class="st28" d="M133.1,102.2v3.9c0,0-0.2,1.4,0.9,1.7c1.1,0.3,1-4.1,1-4.1L133.1,102.2z"/>
<path id="Path_5950" class="st28" d="M143.7,101.9c0.3-0.1,0.5-0.1,0.8-0.1l0,0c0.3,0,0.5,0,0.7,0.1h0.1c0.2,0.1,0.5,0.1,0.7,0.3V98
	c-0.2-0.1-0.3-0.2-0.5-0.2c-0.1,0-0.1,0-0.2,0h-0.1h-0.1c-0.1,0-0.2,0-0.3,0s-0.2,0-0.2,0h-0.1h-0.1c-0.1,0-0.1,0-0.2,0
	s-0.1,0-0.2,0s-0.1,0-0.2,0h-0.1l0,0h-0.1c-0.1,0-0.2,0.1-0.3,0.1c-0.1,0-0.2,0.1-0.3,0.2v4.2C143.2,102.1,143.4,102,143.7,101.9
	L143.7,101.9z"/>
<path id="Path_5951" class="st29" d="M146,98v4.2l3.9,2.3v-4.2L146,98z"/>
<path id="Path_5952" class="st29" d="M149.9,100.3v4.2l1.8-1v-4.2L149.9,100.3z"/>
<path id="Path_5953" class="st30" d="M136.9,101.5v4.2l6-3.5V98L136.9,101.5z"/>
<path id="Path_5954" class="st29" d="M136.9,101.5c-0.4,0.2-0.6,0.5-0.6,0.9v4.2c0-0.2,0.1-0.3,0.2-0.5c0.1-0.2,0.3-0.3,0.5-0.4
	L136.9,101.5z"/>
<path id="Path_5955" class="st29" d="M134,103.7v4.2l5,2.9v-4.2L134,103.7z"/>
<path id="Path_5956" class="st31" d="M134.1,101.1c-1.3,0.7-1.3,1.9,0,2.6l5,2.9l1.8-1.1l-3.9-2.3c-0.5-0.2-0.7-0.7-0.6-1.2
	c0.1-0.3,0.3-0.5,0.6-0.6l6-3.5c1-0.5,2.1-0.5,3.1,0l3.9,2.3l1.8-1.1l-5-2.9c-1.4-0.7-3.1-0.7-4.5,0L134.1,101.1z"/>
<ellipse id="Ellipse_5" class="st0" cx="84.9" cy="244.2" rx="38.5" ry="21.5"/>
<path id="Path_5957" class="st32" d="M139,106.6v4.2l1.8-1.1v-4.2L139,106.6z"/>
<g>
	<g>
		<g>
			<defs>
				<path id="SVGID_1_" d="M415.9-133.6l-0.4,18.2c0,2.6-1.7,5.1-5.1,7.1c-6.8,3.9-17.9,3.9-24.7,0c-3.4-2-5.2-4.6-5.2-7.2l0.4-18.2
					c0,2.6,1.7,5.2,5.2,7.2c6.8,3.9,17.9,3.9,24.7,0C414.2-128.4,415.9-131,415.9-133.6z"/>
			</defs>
			<clipPath id="SVGID_00000026138698765030872030000010832989064761887153_">
				<use xlink:href="#SVGID_1_"  style="overflow:visible;"/>
			</clipPath>
			
				<g id="Group_1924" transform="translate(121.401 -120.989)" style="clip-path:url(#SVGID_00000026138698765030872030000010832989064761887153_);">
				<path id="Path_5958" class="st30" d="M51.7,229.5c0,0.3,0,0.7-0.1,1s-0.2,0.7-0.3,1s-0.3,0.7-0.5,1c-0.2,0.4-0.4,0.7-0.7,1
					c-0.3,0.4-0.7,0.8-1.1,1.2c-0.7,0.6-1.4,1.2-2.2,1.6l-0.4,18.2c0.8-0.5,1.5-1,2.2-1.6c0.4-0.4,0.8-0.7,1.1-1.2
					c0.3-0.3,0.5-0.7,0.7-1s0.3-0.7,0.5-1c0.1-0.3,0.2-0.6,0.3-1c0.1-0.3,0.1-0.7,0.1-1L51.7,229.5z"/>
				<path id="Path_5959" class="st34" d="M46.7,236.5c-1.2,0.7-2.5,1.3-3.8,1.7c-1.1,0.3-2.2,0.6-3.3,0.8c-0.7,0.1-1.5,0.2-2.2,0.3
					c-0.6,0.1-1.3,0.1-1.9,0.1c-0.6,0-1.2,0-1.8,0s-1.2,0-1.7-0.1s-1.1-0.1-1.7-0.2c-0.6-0.1-1.2-0.2-1.7-0.3
					c-0.6-0.1-1.2-0.3-1.8-0.4c-0.7-0.2-1.4-0.4-2.1-0.7l-0.4,18.2c0.7,0.3,1.4,0.5,2.1,0.7c0.6,0.2,1.2,0.3,1.8,0.4
					s1.1,0.2,1.7,0.3c0.6,0.1,1.1,0.1,1.7,0.2c0.6,0,1.1,0.1,1.7,0.1c0.6,0,1.2,0,1.8,0c0.7,0,1.3-0.1,1.9-0.1
					c0.8-0.1,1.5-0.2,2.2-0.3c1.1-0.2,2.2-0.5,3.3-0.8c1.3-0.4,2.6-1,3.8-1.7l0.2-0.1l0.4-18.2L46.7,236.5z"/>
				<path id="Path_5960" class="st35" d="M41.4,238.5c-0.6,0.2-1.2,0.4-1.9,0.5s-1.5,0.2-2.2,0.3c-0.6,0.1-1.3,0.1-1.9,0.1
					c-0.5,0-1.1,0-1.6,0v18.2c0.4,0,0.8,0,1.2,0c0.7,0,1.3-0.1,1.9-0.1c0.8-0.1,1.5-0.2,2.2-0.3c0.8-0.1,1.5-0.4,2.3-0.6V238.5z"/>
				<path id="Path_5961" class="st36" d="M21.9,236.5c-3.4-2-5.2-4.6-5.2-7.2l-0.3,18.2c0,2.6,1.7,5.2,5.2,7.2
					c0.8,0.5,1.6,0.9,2.5,1.2l0.4-18.2C23.6,237.4,22.7,237,21.9,236.5z"/>
			</g>
		</g>
	</g>
</g>
<path id="Path_5963" class="st34" d="M168,101.2c6.8,3.9,6.9,10.4,0.1,14.3s-17.9,3.9-24.7,0s-6.9-10.4-0.1-14.3
	C150.1,97.2,161.1,97.2,168,101.2z"/>
<path id="Path_5964" class="st37" d="M168,108.1c-6.8-3.9-17.9-3.9-24.7,0c-1.6,0.9-3,2.2-4,3.7c1,1.6,2.4,2.9,4.1,3.8
	c6.8,3.9,17.9,3.9,24.7,0c1.6-0.9,3-2.2,4-3.7C171,110.2,169.6,109,168,108.1z"/>
<path id="Path_5965" class="st29" d="M171.7,115.2v3.6l2.9,1.6v-3.6L171.7,115.2z"/>
<path id="Path_5966" class="st38" d="M175,120.8c0.1,0.1,0.1,0.3,0.1,0.4v-3.6l0,0v-0.1v-0.1v-0.1c0,0,0,0,0-0.1l0,0l0,0l-0.1-0.1
	c-0.1-0.1-0.2-0.1-0.2-0.2l0,0v3.6C174.7,120.6,174.9,120.7,175,120.8L175,120.8z"/>
<path id="Path_5967" class="st28" d="M177.9,117.6L177.9,117.6c0,0.2-0.1,0.4-0.2,0.6c-0.2,0.2-0.4,0.4-0.6,0.5v3.6
	c0.5-0.2,0.8-0.6,0.8-1.1V117.6z"/>
<path id="Path_5968" class="st29" d="M161.7,120.4v3.6l4.3,2.5v-3.6L161.7,120.4z"/>
<path id="Path_5969" class="st30" d="M170,122.9v3.6l7.1-4.1v-3.6L170,122.9z"/>
<path id="Path_5970" class="st28" d="M170,122.9c-0.3,0.2-0.6,0.3-0.9,0.3l0,0c-0.3,0.1-0.7,0.1-1,0.1l0,0c-0.3,0-0.6,0-1-0.1H167
	c-0.3-0.1-0.6-0.2-0.9-0.3v3.6c0.2,0.1,0.4,0.2,0.6,0.3c0.1,0,0.2,0,0.2,0.1h0.1h0.1c0.1,0,0.2,0,0.4,0c0.1,0,0.2,0,0.3,0
	s0.1,0,0.2,0l0,0h0.1c0.1,0,0.2,0,0.3,0s0.2,0,0.3,0s0.2,0,0.3,0h0.1l0,0c0.1,0,0.1,0,0.2,0c0.1,0,0.2-0.1,0.3-0.1
	c0.1-0.1,0.3-0.1,0.4-0.2L170,122.9z"/>
<path id="Path_5971" class="st31" d="M161.7,120.4l4.3,2.5c1.2,0.6,2.7,0.6,3.9,0l7.1-4.1c0.6-0.2,1-0.9,0.8-1.5
	c-0.1-0.4-0.4-0.6-0.8-0.8l-4.3-2.5l-1.1,1.3l2.9,1.6c0.4,0.1,0.7,0.6,0.5,1c-0.1,0.2-0.3,0.4-0.5,0.5l-5.2,3
	c-0.8,0.4-1.8,0.4-2.7,0l-2.8-1.6L161.7,120.4z"/>
<path id="Path_5972" class="st1" d="M144.5,84.9l8.5,29.9l-1.1-0.7l-8.5-29.9L144.5,84.9z"/>
<path id="Path_5973" class="st21" d="M147.4,83.2l8.5,29.9l-2.9,1.7l-8.5-29.9L147.4,83.2z"/>
<path id="Path_5974" class="st39" d="M146.2,82.6l1.1,0.7l-2.9,1.7l-1.1-0.7L146.2,82.6z"/>
<path id="Path_5975" class="st40" d="M85.8,42.6c-0.6-1.6-2.2-2.7-4-2.6c-2.9,0.2-10.9-2.7-12.4-1.5s-1.5,3.5-1.2,4.6L85.8,42.6z"/>
<path id="Path_5976" class="st41" d="M57.9,229.3c-0.6,1.5-3.8,6.8-2.4,12.2c0.5,1.8,1.5,2.8,5.5,2.9c3.2,0.1,7.5-4.7,19.1-8.4
	c1.8-0.6,3.5-1.7,4.8-3.1c1.5-1.8,2.9-4.7,2.1-7.1c-0.6-1.8-2.8-2.8-4.1-2.9c-1.7-0.1-4.2,1.8-9.6,1.7c-2.7-0.1-3.5,0.8-6.2,0.9
	c-1.1,0.1-6-0.3-6,1.5L57.9,229.3z"/>
<path id="Path_5977" class="st26" d="M58.1,184.3c1.4-4.5,1.8-11.7,4-16.3c1.6-3.5,14.7,23.3,14.7,23.3s-6.8,21-4.2,34.8
	c0,0,2.1,11.7-12.6,11.7c-9.4,0-6.3-9.2-6.3-15.6C53.7,211.1,54.3,196.6,58.1,184.3z"/>
<path id="Path_5978" class="st41" d="M88.1,247c-0.6,1.5-3.5,6.9-1.9,12.2c0.5,1.8,1.6,2.8,5.6,2.7c3.2,0,7.3-5,18.8-9.1
	c1.8-0.6,3.4-1.8,4.6-3.3c1.4-1.8,2.7-4.8,1.8-7.2c-0.6-1.7-2.9-2.7-4.2-2.8c-1.7-0.1-4.1,2-9.5,2c-2.7,0-3.5,0.9-6.2,1.2
	c-1.1,0.1-6-0.1-5.9,1.7L88.1,247z"/>
<path id="Path_5979" class="st26" d="M83.5,199.2c0.6-4.7,1.3-8.2,1.2-13.4c0-3.8,18.3,9.8,18.9,19c0,0-5.1,25.9-2.1,37.2
	c0.7,2.3,0.7,4.7,0,6.9c-2.3,7.5-15.6,7.9-17.5,3.9C80.3,244.6,81.6,214.9,83.5,199.2z"/>
<path id="Path_5980" class="st42" d="M51.9,135.3c-0.1-0.8-0.2-1.7-0.3-2.5c-0.1-0.9-0.3-1.7-0.3-2.6c0,0,0-0.1,0-0.2
	c-1.1-3.1-0.4-8-0.6-10.5l6.9-1.1c1.7,1.5,3.3,3.1,4.8,4.9c0.7,0.8,1.7,1.6,1.8,2.7c0.2,1.2,0.4,2.5,0.5,3.7c0,1.2,0.7,2.3,0.8,3.5
	c0,1.1-0.2,2.7-1.8,2c-0.9-0.4-1.1-2.7-1.3-3.5c-0.2-0.7-0.5-1.5-0.9-2.2c-0.2,0.2-0.5,0.4-0.8,0.6c-0.1,0.6,0,1.2,0.1,1.8
	c0,0.6,0.1,1.2,0.1,1.8c0,0.7-0.2,1.6,0.2,2.2c1,1.3,1.8,2.8,2.5,4.3c0.2,0.7-0.2,1.9-1.2,1.5c-0.5-0.2-0.8-0.7-1.1-1.1
	c-0.3-0.4-0.8-0.8-1.1-1.2c-0.1-0.1-0.1-0.1-0.2-0.2c0.2,0.4,0.4,0.8,0.7,1.2c0.4,0.6,1.2,1.7,1.1,2.6c-0.2,1.2-1.2,1.2-2,0.5
	c-0.2-0.2-0.4-0.4-0.6-0.7c0,0.1,0,0.3,0,0.4c0,0.3-0.3,0.9-0.7,0.9c-0.3,0-0.7-0.5-0.9-0.7c-0.4-0.5-0.8-1-1.2-1.4s-0.7-0.9-1-1.4
	c0,0.5,0,1.2-0.5,1.2c-0.2,0-0.6-0.4-0.7-0.6c-0.3-0.2-0.4-0.5-0.6-0.9c-0.5-1-1-2.1-1.4-3.1C52,136.5,51.9,135.9,51.9,135.3z"/>
<path id="Path_5981" class="st26" d="M57,133.7c1.3,7.2,1,14.4,1.2,21.8c0.5,13.3,1.3,24.7-0.1,29.3c-0.8,2.6-1.3,8.2,11.1,9.1
	c5.7,0.4,6.6,1.3,7.5-0.2c3.8-6,4-38.8,4.4-45.2c0.3-5.3,0.2-8.5,0.3-14.4c0,0,1.1-12.7-11.5-11.1S56.8,132.6,57,133.7z"/>
<path id="Path_5982" class="st26" d="M77.1,144.3c2.3,7,1.8,14.9,3.5,22c2.1,8.4,4.1,34.2,4.1,34.2c1.5,2.3,3.2,6.1,10.9,4
	c3.9-1,6.1,9.6,8.1,2.2c2.4-9.1,1.2-44.8,0.2-50.1c-1-5.2,0.1-19.7-2.3-27.1c0,0-3.5-5.7-16-3.2C75.1,128.4,76.7,143.3,77.1,144.3z"
	/>
<path id="Path_5983" class="st43" d="M49.2,54.2c-2.7,14-2.7,36.1-2.1,43.4c0.2,2,10.9-9.1,11.6-13.7c1.7-10.6,6.8-19.3,8.6-28
	c2.7-14,1.8-17-3.3-18S51.9,40.2,49.2,54.2z"/>
<path id="Path_5984" class="st43" d="M47,84.9c-1.3,13.2,2.7,28.5,3.7,37.9c0.2,1.7,8.1,1.1,9.2-3c1.7-6.5-0.4-23.1,1.4-36.7
	c0.4-3-1.5-5.6-6.1-5.9S47.9,75.5,47,84.9z"/>
<path id="Path_5985" class="st44" d="M85.2,46.2c4.9,2.1,9.3,5.5,12.6,9.7c3.5,4.6,3.4,14.9,3.2,16.3c-0.4,4.4-1.2,47.4,0.1,51.3
	c4.3,13.4,4,17.6,3.1,18.4c-8.1,7.4-23.4,6.4-26.3,5.6c-10.7-3.2-20.1-10.7-21.5-15.3c-1.6-4.9,0.2-7,0.6-18.1
	c0.7-17.2-0.2-32.6-0.7-35.6c-0.9-4.9-5.7-27.8,0.7-36.7c1.5-2.1,4-4.1,6.3-3.9C71.5,38.8,83.9,45.8,85.2,46.2z"/>
<path id="Path_5986" class="st43" d="M87.4,75.9c3,14.5,5.9,25.2,5.9,31.1c0,2,15.7-1.6,14.6-6.2c-2.6-10.8-1.4-21.3-3.3-30.4
	c-3-14.6-7.1-16.4-12.2-15.3S84.4,61.3,87.4,75.9z"/>
<path id="Path_5987" class="st42" d="M91.4,9.4c-0.1,2.3,1.6,5.1,2.1,7.3c0.3,1.5,0.5,2-0.1,3.4c-0.8,2-0.8,4.1-0.1,6.1
	c0.6,2.5-0.2,5.1-0.9,7.6c-0.6,1.9-0.9,4.2-2.6,5.4c-4.4,2.9-9.3,1.2-13.8-0.3c-4.4-1.5-3.7-9.3-5-13c-2.5-6.6-0.6-15.8,6.6-18.6
	c3.2-1.3,8.6-1.9,11.9-0.6C90.6,7.1,91.4,9.4,91.4,9.4z"/>
<path id="Path_5988" class="st42" d="M85.3,36c0,0,0.5,8.1-1.2,12c-0.5,1.2-3,3.3-6.6,3.3c-5.6,0.1-12.1-2.9-10.2-7.6
	c1-2.5,3.7-5,2-15.1C68.8,25.4,85.3,36,85.3,36z"/>
<path id="Path_5989" class="st45" d="M68.8,3.1c6.8-4.6,16-4,20.4,1.1c1.5,1.9,2.4,4.2,2.6,6.7c0.8,1.3-3,1.2-3.9,6.6
	c-4.6,27.8-17.6,17.8-18,16.8c-3.3-7.9-5.6-6.1-7.1-10.9C60.5,16.2,59.2,9.6,68.8,3.1z"/>
<path id="Path_5990" class="st42" d="M83.6,28c0.9,2.4,1.5,4.7,2.5,4.3c1.1-0.4,2.2-2.7,1.3-5.1s-1.5-4.8-2.6-4.8
	C82.6,22.3,82.6,25.6,83.6,28z"/>
<path id="Path_5991" class="st42" d="M132,103.6c-1.8,0.3-0.5-6.7,2-7.8c1.9-1.4,9.4-6.6,10-6.8c0.9-0.4,1.8-0.7,2.7-1
	c1.6-0.3,3.2-0.2,4.7,0.3c1.4,0.4,2.8,0.2,4.2,0.8c1,0.4,1.9,1.2,2.9,1.6c0.8,0.3,1.7,0.6,2.6,0.9c0.5,0.2,1,0.4,1.4,0.7
	c-0.1,0.6-0.5,1-1,1.3c0.1,0.5,0.3,0.1,0.8,0.4c0.4,0.2,1.1,0.5,0.9,0.9c-0.5,0.8-1.4,1.2-2.4,1.1c0.2,0.1,0.6,0.1,0.8,0.3
	c-0.3,1.1-1.4,1.9-2.6,1.8c-0.8,0-3.5-0.6-4.4-0.6c-1.6,0.1-3.1,0.4-4.6,0.9c0.7,0.1,1.5,0.2,2.5,0.2c2.1,0.2,3.2-1,4.4,0.9
	c-3.4,3.3-7.6,1.5-11.9,2.1C141.9,104.1,135.3,103.2,132,103.6z"/>
<path id="Path_5992" class="st43" d="M108.1,115.7c12.7-0.9,28-11.2,33.9-12.7c1.7-0.4,0.4-12.1-6.3-8.4c-5.8,3.1-18.5,5.5-31.7,6
	c-2.9,0.1-11.4,1.4-11,6S99.2,116.3,108.1,115.7z"/>
<path id="Path_5993" class="st43" d="M69.5,38.6c0,0-2.4,2.4,1.1,4.9s10.2,3.7,14.8-1.5c0.6-0.6,1,4,0.9,4.9s-2.7,8.8-14.2,5.1
	c-6-1.9-5.2-5.4-5.5-6.7C66.3,44,67.9,40,67.9,40C68.3,39.3,68.8,38.9,69.5,38.6z"/>
</svg>
