<?xml version="1.0" encoding="utf-8"?>
<!-- Generator: Adobe Illustrator 27.6.1, SVG Export Plug-In . SVG Version: 6.00 Build 0)  -->
<svg version="1.1" id="Layer_1" xmlns="http://www.w3.org/2000/svg" xmlns:xlink="http://www.w3.org/1999/xlink" x="0px" y="0px"
	 viewBox="0 0 360 339.7" style="enable-background:new 0 0 360 339.7;" xml:space="preserve">
<style type="text/css">
	.st0{opacity:0.15;}
	.st1{fill:#2B656B;}
	.st2{fill:#FAC4B3;}
	.st3{fill:#DEAF5A;}
	.st4{fill:#F7D046;}
	.st5{fill:#F79E8D;}
	.st6{fill:#2CA2B5;}
	.st7{fill:#53B7D5;}
	.st8{fill:#2B2C30;}
	.st9{fill:#3F4045;}
	.st10{fill:#604220;}
	.st11{fill:#528711;}
	.st12{fill:#FDB929;}
	.st13{fill:#FEE26B;}
	.st14{fill:#7BC043;}
	.st15{fill:#35417D;}
	.st16{fill:#45507B;}
	.st17{fill:#873F1D;}
	.st18{fill:#5498A8;}
	.st19{fill:#6F3014;}
	.st20{fill:#81AF40;}
	.st21{fill:#BB83B9;}
	.st22{fill:#764277;}
	.st23{fill:#986398;}
	.st24{fill:#6459E3;}
	.st25{fill:#FFFFFF;}
	.st26{fill:#5648FE;}
	.st27{fill:#9D562B;}
	.st28{fill:#C6663A;}
	.st29{fill:none;}
	.st30{fill:#713215;}
</style>
<path id="Path_6519" class="st0" d="M153.3,339.7l71.4-41.9l-1.6-1.6l-67.5,35.1l-57.1-28.6l-3,3L153.3,339.7z"/>
<path id="Path_6520" class="st0" d="M67.6,291.2l72.1-43.4l-1.6-1.6l-67.5,35.1l-57.1-28.6l-3.4,4.6L67.6,291.2z"/>
<path id="Path_6521" class="st0" d="M195.9,169.6l-1.2,1l129.5,77.3L360,226l-1.8-2.1l-14.6,3.8l-17,6.9h-4.3l-77.8-41.8l-47.7-25.2
	C196.8,167.5,195.9,169.6,195.9,169.6z"/>
<path id="Path_5994" class="st1" d="M170.5,180.8c0,0-10.2,6.2-13.8,9.7s-5.8,4-9.4,10.8c-3.6,6.8-4.6,12.6-3.9,14.7
	c0.7,2.1,1.5,5.1-1.1,5.5c-2.2,0.3-6-1.2-7.3-3.1c-1.3-2-3.7-6.7-3.9-9.5c-0.2-2.9,1-6.8,1-8.3c-0.1-1.5-2.4-5.8-1.7-7.1
	c1.1-2,5-5.4,6.8-5.9c3.4-0.9,20.7-23.5,20.7-23.5S159.6,177.6,170.5,180.8z"/>
<path id="Path_5995" class="st2" d="M194.4,87.2c-2.5-5.6-4.8-10.7-5.9-12.2l-5.7,8.3c2.2,3,4.2,6.2,5.9,9.6
	C190.6,91,192.5,89.1,194.4,87.2z"/>
<path id="Path_5996" class="st3" d="M178.5,36.6c4.6,4.5,7.4,28.7,8.2,31.5c0.7,2.1,1.7,4.1,2.9,6c-3.6,1.6-6.8,4-9.3,7.1
	c-2.7-4.9-5-10-6.9-15.3L169.2,33C169.3,33.1,173.9,32.1,178.5,36.6z"/>
<path id="Path_5997" class="st4" d="M139.3,50.2c1-4,13.1-12.2,13.1-12.2s6.8,5.4,9.1,7.2s6,0,3.6-6.5c-0.7-2,0.4-8,0.4-8
	s0.9-0.2,2.3-0.5c2.1,2.3,6.1,8.3,8.3,10.8c2.1,2.4,10.3,10,8,17.8c-0.8,2.5-1.7,4.9-2.8,7.2c-1.4,3.2-1.3,9.4-1.1,12.7
	c0.2,3.8,3.8,13.9,3.8,13.9s-8.8,16.5-18.2,16.1c-11-0.5-20.3-10.7-20.3-10.7s4.2-20.5,3.8-27.3C149.3,70.7,136,63.3,139.3,50.2z"/>
<path id="Path_5998" class="st5" d="M166.2,31.7c0.7,1.3,1.1,2.6,1.2,4.1c0.1,2-0.6,4.7,0,6.4c0.4,0.7,0.9,5.6,0.6,7.3
	c-2.6-0.8-5-2-7.2-3.5c-2.5-2.4-7.9-6.5-7.9-6.5s1.1-5.8,1.4-9.4c0.3-4.2,0.2-8.5-0.3-12.7L166.2,31.7z"/>
<path id="Path_5999" class="st3" d="M167.9,49.4l5.8-5.1l-5.1-8.5l-2.8,0.7C165.9,36.5,168.8,47,167.9,49.4z"/>
<path id="Path_6000" class="st3" d="M149.7,84.3c0.6,3.2,1.4,6.4,2.5,9.5c0.4,1.2,0.2,2.4-0.5,3.4c-2.1,2.4-4.7,4.4-7.5,5.9
	c-0.7,0.4-6.6-6.2-7.1-8.2c-1.6-5.9-3.3-26.8-0.8-39.6c1.3-6.9,5.6-10.4,8.8-11.7c2.3-1,5.7,5.1,6.4,9.4
	C153.2,62.6,148.7,76.8,149.7,84.3z"/>
<path id="Path_6001" class="st4" d="M191.1,77.5c-2.1,0.7-4,2-5.4,3.7c-2.1,2.4-2.8,4.7-3.9,3.3s-3.1-3.1-2.7-5.3s4.8-7.5,8.5-8.2
	c1.8-0.3,2.7,1.4,3.5,2.8C192,75.3,192.8,76.7,191.1,77.5z"/>
<path id="Path_6002" class="st3" d="M153.4,36.5l14.5,12.9l-9.5,1.4l-6.7-11.4L153.4,36.5z"/>
<path id="Path_6003" class="st2" d="M195.4,100.6c-1.7,2.1-2.8,4.7-3.2,7.3c-0.3,2.4,0.3,5.4,1.9,3.5c1.6-2,2.4-4.5,2.2-7
	C196.2,101.5,195.4,100.6,195.4,100.6z"/>
<path id="Path_6004" class="st5" d="M161.3,164.3c0.5-0.5,1-1,1.4-1.5c1.6-1.7,3.4-3.4,5.2-4.9c0.3-0.9,0.5-1.7,0.7-2.6
	c2.8-13.5,2.6-25.4,2.3-27.5c-0.4-3.2,14.7-3.6,14.7-3.6s0.1,17.1,0.4,23.3c0.3,6.9,0.3,9.5-3.4,13.5c-3.7,4.1-10.6,10.2-17.1,16
	C164.1,172.7,162.7,168.5,161.3,164.3z"/>
<path id="Path_6005" class="st6" d="M187.7,115.4l-15.6,2.6l-7.3,37.1l-4.2,5c0.7,7.1,5.2,13.3,11.3,16.9c3.9-3.9,7.2-7.1,8.8-8.6
	c5.3-5.3,7.3-8.3,7-16.2S187.7,115.4,187.7,115.4z"/>
<path id="Path_6006" class="st7" d="M156.2,188.6c0.2,1.2,0.8,4.9,1.1,6.3c5.4,5.6,15.2,4,21-0.6c-1-14.1-3.3-30.4-3.2-33.9
	c0.2-5.9-0.4-49.8-0.4-49.8L147.3,98c0,0-5.6,15.7-2,27.5c3.6,11.9,11.4,38,11.4,38S154.8,180,156.2,188.6z"/>
<path id="Path_6007" class="st8" d="M197,92.5l-5.8,29.5h-23.8l-5.8-29.5H197z"/>
<path id="Path_6008" class="st8" d="M167.5,122c0,3.7,5.3,6.7,11.9,6.7c6.6,0,11.9-3,11.9-6.7s-5.3-6.7-11.9-6.7
	S167.5,118.3,167.5,122z"/>
<path id="Path_6009" class="st9" d="M161.7,92.5c0,5.5,7.9,10,17.7,10s17.7-4.5,17.7-10s-7.9-10-17.7-10S161.7,87,161.7,92.5z"/>
<path id="Path_6010" class="st8" d="M179.3,87c-7.3,0-13.4,2.9-14.8,6.8c-0.2-0.5-0.3-1.1-0.3-1.7c0-4.7,6.7-8.5,15.1-8.5
	c8.3,0,15.1,3.8,15.1,8.5c0,0.6-0.1,1.2-0.3,1.7C192.7,89.9,186.6,87,179.3,87z"/>
<path id="Path_6011" class="st10" d="M179.3,100.6c-7.3,0-13.4-2.9-14.8-6.8c1.4-3.9,7.5-6.8,14.8-6.8s13.4,2.9,14.8,6.8
	C192.7,97.7,186.6,100.6,179.3,100.6z"/>
<path id="Path_6012" class="st11" d="M195.1,53.5c-2,2.4-3.6,5.1-4.9,8c-2.3,5.1-8.6,34.5-8.6,34.5c-0.8-0.6-1.7-1.1-2.7-1.4
	c-0.9-0.3-1.7-0.8-2.4-1.4c0,0,4.4-21.8,7.5-27.8C189.5,54.9,195.1,53.5,195.1,53.5z"/>
<path id="Path_6013" class="st12" d="M192.6,47c0,0,2.6-2.2,3.2-2.7c1.9-1.7,4-4.2,5.9-5.8c-4.1-0.4-11.9,5.2-11.9,5.2L192.6,47z"/>
<path id="Path_6014" class="st12" d="M190.2,42.1c0,0-1.1-7.3-5.2-10.2c0.2,4,0.8,7.9,1.6,11.8L190.2,42.1z"/>
<path id="Path_6015" class="st13" d="M194.6,49.3c2-2.3,9.7-5,9.7-5c-1.8-0.9-3.8-1.3-5.8-1.3c-2-0.1-4,0.4-5.7,1.3
	c0.8-1.5,1.5-3.1,1.9-4.8c0.8-3.8-1.6-9.4-1.6-9.4s-2.8,4.6-3.1,6.4c-0.3,1.9-1.4,5.3-1.4,5.3c-0.8-1.8-2-3.3-3.3-4.7
	c-1.5-1.4-3.2-2.6-5.1-3.5c1.5,1.6,2.6,3.7,2.9,5.9c0.6,4.8-2.5,10.5,1.2,13.4C188.4,56.2,192.7,51.5,194.6,49.3z"/>
<path id="Path_6016" class="st14" d="M184.2,52.9c0,0,1.5-1,1.9,1c-0.7,1.6-4.3,8.8-5,14.8s-2.2,24.1-2.2,24.1l-1.8-0.4
	c0,0,1.5-19.8,3-27.1C181,61.1,182.4,56.9,184.2,52.9z"/>
<path id="Path_6017" class="st14" d="M191.7,69.3c-1.7,1.6-3.2,3.5-4.3,5.6c-1.9,3.5-6.8,23.4-6.8,23.4h-1.5c0,0,4.7-19.1,6.3-23
	c1.2-2.8,2.9-5.3,5-7.6L191.7,69.3z"/>
<path id="Path_6018" class="st12" d="M200.7,66.6c0,0-5.3,4.8-7.6,4.5s-3.8-1.9-3.7-3.9c0.2-2,7.2-7.5,7.2-7.5L200.7,66.6z"/>
<path id="Path_6019" class="st13" d="M201.7,59.4c0.5-2.2,0.5-4.5,0-6.8c-0.7-2.2-2.1-4-4-5.3c-0.2,2-0.5,4-1,6c-0.7,3-1.2,6-1.2,6
	c-1.4-0.7-3-1-4.6-1c-2.6,0-6,2.3-6,2.3c1.3,1.1,2.8,2,4.5,2.4c2.6,0.7,5.5,1.5,5.5,1.5s-1.2,3.1-1.8,5.5c-0.5,2.3-0.9,4.6-1,6.9
	c0,0,4.4-3.2,5.6-5s3-4.3,3-4.3c1.7,0.7,3.2,1.9,4.3,3.4c1.3,1.6,2.2,3.6,2.6,5.6c0,0,2.4-4.9,1.1-7.3s-5.2-4.8-5.2-4.8
	s2.3-0.8,4.1-1.4c1.8-0.7,4.1-1.9,4.1-1.9s-1.3-2.8-4.1-2.8C205.6,58.5,203.6,58.8,201.7,59.4z"/>
<path id="Path_6020" class="st12" d="M200.8,61.9c1.1-0.4,2.2-0.7,3.3-0.8c0.8-0.1,1.7-0.1,2.5,0.2c0,0-1.6,0.9-2.9,1.7
	c-0.9,0.4-1.8,0.8-2.8,1c0,0,1.8,1,2.4,1.4c0.6,0.5,1.2,1.1,1.7,1.7c0,0-3.8-1.4-4.1-1.5c-0.4-0.2-0.9-0.4-1.3-0.7
	c-0.4,1.1-1,2.2-1.7,3.3c-0.6,0.8-1.3,1.5-2,2.2c0,0,0.5-2.8,0.8-3.8s0.6-2.3,0.6-2.3c-0.6-0.8-1.5-1.4-2.5-1.8
	c-2-0.7-3.8-1.2-3.8-1.2c1.3-0.4,2.6-0.7,3.9-0.7c1,0.3,2,0.7,3,1.3c0.8-2,1.3-4.1,1.6-6.2C200.1,57.7,200.6,59.8,200.8,61.9z"/>
<path id="Path_6021" class="st14" d="M206.6,83.5c-1.9-2.4-4.7-3.8-7.8-3.8c-5.2-0.1-13.8,9.1-16.4,14c-0.3,0.7-3.4,4.5-3.4,4.5
	s1.8,1.3,4.9-2.5S197,81.2,206.6,83.5z"/>
<path id="Path_6022" class="st14" d="M179,95.2c0-4.8-0.3-9.5-1-14.2c-1.2-7.1-5.2-16.7-9-20.7S158.9,55,158.9,55s7.3,10.4,8.7,13.8
	s5.2,17.8,5.7,20c0.5,2.3,1.4,5.9,1.4,5.9C175.8,95.8,177.6,96,179,95.2z"/>
<path id="Path_6023" class="st11" d="M165.4,61.5c0,0,5.9,8.6,7.3,14.8s4.5,19.3,4.5,19.3l-1.3-0.3c0,0-3.1-14.1-4.4-19.1
	S165.4,61.5,165.4,61.5z"/>
<path id="Path_6024" class="st11" d="M199.2,83c-1.7,0.3-3.2,0.9-4.6,1.9c-2.2,1.6-9.2,10.9-13.3,13.2c-0.4,0.2-0.8,0.3-1.2,0.4
	c0,0,6.2-5.2,8.3-8.2C191.2,86.2,194.9,81.7,199.2,83z"/>
<path id="Path_6025" class="st2" d="M152.2,93.8c2.7,1.9,14.3,13.8,15.6,14.2c5.1,1.6,8.8,0.6,11.2,1.1s2.8,0.7,1.2,1.6
	c-1.4,0.6-2.8,1-4.3,1.3c0,0,5.4,1.7,7.3,4.5c1.2,1.7,0.6,4.4-6.2,4.4c-4.8,0-12.8-6.2-15.5-7.1c-1.1-0.4-12.5-8.1-16.1-9.7
	C147.1,100.2,149.4,96.8,152.2,93.8z"/>
<path id="Path_6026" class="st4" d="M152.4,89.1c1.1,1.2,2.8,3.5,4.5,5.3c1.6,1.9,2.2,1.8-0.4,5.7c-2.6,3.9-5.3,9.2-7.1,8.6
	c-2.8-1-5.7-4.1-7.8-5.9S149.7,86.2,152.4,89.1z"/>
<path id="Path_6027" class="st1" d="M178.3,194.4c0,0-1.2,11.9-0.6,16.9s-0.3,7.1,3,14c3.3,7,7.3,11.2,9.4,12s5,1.9,3.7,4.2
	c-1.1,2-4.6,4.1-6.9,3.9c-2.3-0.2-7.5-1.1-9.9-2.6s-4.8-4.9-6-5.8c-1.3-0.9-6.1-1.5-6.7-2.9c-0.9-2.1-1.3-7.3-0.6-9
	c1.3-3.3-6.3-30.7-6.3-30.7S169.2,201.1,178.3,194.4z"/>
<path id="Path_6028" class="st15" d="M67.7,288.2l70.1-40.7v-14.4l-70.1,40.7C67.7,273.8,67.7,288.2,67.7,288.2z"/>
<path id="Path_6029" class="st16" d="M67.7,273.8l-56.4-32.7v14.4l56.4,32.7V273.8z"/>
<path id="Path_6030" class="st15" d="M81.3,202.6L15,240.8l10.6,6.2l55.7-32.1l41.9,24.3l10.6-6.1L81.3,202.6z"/>
<path id="Path_6031" class="st17" d="M20.5,244l47.1,27.3l60.8-35l-47-27.3L20.5,244z"/>
<path id="Path_6032" class="st18" d="M67.5,271.3L25.7,247L15,240.8l66.3-38.2l52.5,30.5l-10.6,6.1L67.5,271.3z M81.5,200.4
	l-70.1,40.7l56.4,32.7l70.1-40.7L81.5,200.4z"/>
<path id="Path_6033" class="st19" d="M43.6,246.1c0,1.9-2.7,3.4-6,3.4s-6-1.5-6-3.4s2.7-3.4,6-3.4S43.6,244.2,43.6,246.1z"/>
<path id="Path_6034" class="st19" d="M61.6,254.2c0,1.9-2.7,3.4-6,3.4s-6-1.5-6-3.4s2.7-3.4,6-3.4S61.6,252.4,61.6,254.2z"/>
<path id="Path_6035" class="st19" d="M56,239.3c0,1.8-2.7,3.4-6,3.4s-6-1.5-6-3.4s2.7-3.4,6-3.4C53.3,235.9,56,237.4,56,239.3z"/>
<path id="Path_6036" class="st19" d="M86.9,256.7c0,1.9-2.7,3.4-6,3.4s-6-1.5-6-3.4s2.7-3.4,6-3.4S86.9,254.9,86.9,256.7z"/>
<path id="Path_6037" class="st19" d="M82.1,221.9c0,1.9-2.7,3.4-6,3.4s-6-1.5-6-3.4s2.7-3.4,6-3.4S82.1,220.1,82.1,221.9z"/>
<path id="Path_6038" class="st19" d="M101.8,246.9c0,1.9-2.7,3.4-6,3.4s-6-1.5-6-3.4s2.7-3.4,6-3.4S101.8,245.1,101.8,246.9z"/>
<path id="Path_6039" class="st19" d="M101.8,229c0,1.8-2.7,3.4-6,3.4s-6-1.5-6-3.4s2.7-3.4,6-3.4S101.8,227.2,101.8,229z"/>
<path id="Path_6040" class="st19" d="M116.6,238.6c0,1.9-2.7,3.4-6,3.4s-6-1.5-6-3.4s2.7-3.4,6-3.4S116.6,236.7,116.6,238.6z"/>
<path id="Path_6041" class="st19" d="M71.7,263.4c0,1.9-2.7,3.4-6,3.4s-6-1.5-6-3.4s2.7-3.4,6-3.4C69,260,71.7,261.6,71.7,263.4z"/>
<path id="Path_6042" class="st19" d="M49.8,248.5c0,0.6-0.9,1.1-1.9,1.1s-1.9-0.5-1.9-1.1s0.9-1.1,1.9-1.1
	C48.9,247.4,49.8,247.9,49.8,248.5z"/>
<path id="Path_6043" class="st19" d="M58.8,245.9c0,0.8-1.2,1.5-2.6,1.5c-1.5,0-2.6-0.7-2.6-1.5s1.2-1.5,2.6-1.5
	S58.8,245.1,58.8,245.9z"/>
<path id="Path_6044" class="st19" d="M76.1,251.5c0,0.8-1.2,1.5-2.6,1.5s-2.6-0.7-2.6-1.5s1.2-1.5,2.6-1.5S76.1,250.6,76.1,251.5z"
	/>
<path id="Path_6045" class="st19" d="M90.2,238.6c0,0.8-1.2,1.5-2.6,1.5c-1.5,0-2.6-0.7-2.6-1.5s1.2-1.5,2.6-1.5
	S90.2,237.8,90.2,238.6z"/>
<path id="Path_6046" class="st19" d="M88.8,231.6c0,0.6-0.9,1.1-1.9,1.1c-1.1,0-1.9-0.5-1.9-1.1s0.9-1.1,1.9-1.1
	C88,230.5,88.8,231,88.8,231.6z"/>
<path id="Path_6047" class="st19" d="M61.8,237.1c0,0.6-0.9,1.1-1.9,1.1c-1.1,0-1.9-0.5-1.9-1.1s0.9-1.1,1.9-1.1
	C60.9,236,61.8,236.5,61.8,237.1z"/>
<path id="Path_6048" class="st19" d="M76.9,243.6c0,0.6-0.9,1.1-1.9,1.1c-1.1,0-1.9-0.5-1.9-1.1s0.9-1.1,1.9-1.1
	S76.9,243,76.9,243.6z"/>
<path id="Path_6049" class="st19" d="M89.5,251.5c0,0.6-0.9,1.1-1.9,1.1s-1.9-0.5-1.9-1.1s0.9-1.1,1.9-1.1
	C88.7,250.4,89.5,250.9,89.5,251.5z"/>
<path id="Path_6050" class="st20" d="M76.2,110.1c0,0,0.4,13.4,3.6,23.7c3.3,10.3,3.4,35.1,2.2,47c-1,10.2-2.2,36.9-2.2,46.8
	c-1.2,1.4-2,0.1-2,0.1s1.8-43.6,2-46.9c0.9-17,1.3-33.6-2.3-47C74,120.4,76.2,110.1,76.2,110.1z"/>
<path id="Path_6051" class="st14" d="M63.6,178.5c2.7-0.3,5.5,0.2,7.9,1.5c3.8,2.2,4.1,6.7,4.4,10s1.2,3.2,3.8,5.4
	c2.6,2.2,5.2,7.7,2.5,10.3s-6.2,6.5-3.4,9.7c1.6,1.9,1.5,5.8,0.6,9.1c-0.6,2.2-1.8,4.2-3.4,5.7c-0.6,0.4-1.4,0.3-1.8-0.2
	c0,0,3.8-4,2.9-7.3c-0.8-3.3-8.5-2.2-7.4-7.2c1.1-5.1,1.2-4.9-3.3-8.3c-4.8-3.6-6.2-6.1-2.8-12.2C66.8,188.8,68.8,184.8,63.6,178.5z
	"/>
<path id="Path_6052" class="st11" d="M67.8,180.8c0,0,3.7,3.6,3,8.5c-0.7,4.8-3.1,8.7-0.4,12.8c2.6,4.1,4,5,3.6,7.1
	s-2.3,4.5-0.8,6.2c1.3,1.2,2.8,2.3,4.4,3c0,0-4.8-2.6-3.6-5.9s2.5-5.1,1.2-7.4s-6.3-3.7-5.2-7.5s3.4-8.5,1.6-12.4
	C69.8,181.4,67.8,180.8,67.8,180.8z"/>
<path id="Path_6053" class="st21" d="M82,163.5c0.6-1.7,3.8,1.1,6.3,1.1s4.7,1.1,4.1,4s-2.4,5-4.4,4.1
	C86.1,171.9,79.9,169.9,82,163.5z"/>
<path id="Path_6054" class="st22" d="M90.6,167c1,0.4,1,2.2,0.1,3.8c-0.9,1.5-2.7,2.3-3.1-0.5C87.3,167.8,89,166.4,90.6,167z"/>
<path id="Path_6055" class="st23" d="M80.9,145.3c0.2-1.6,3.6,0.2,5.9-0.3s4.4,0.1,4.4,2.7c0,2.7-1.1,4.9-3.1,4.5
	C86.2,151.9,80.3,151.4,80.9,145.3z"/>
<path id="Path_6056" class="st22" d="M89.2,146.7c1,0.2,1.3,1.8,0.8,3.3c-0.5,1.6-2,2.6-2.8,0.2C86.4,148.1,87.7,146.4,89.2,146.7z"
	/>
<path id="Path_6057" class="st23" d="M79.7,157.9c-0.5-1.4-3.2,0.9-5.4,1c-2.1,0-3.9,1-3.4,3.4s2,4.2,3.7,3.5S81.5,163.2,79.7,157.9
	z"/>
<path id="Path_6058" class="st22" d="M72.4,160.8c-0.9,0.4-0.8,1.9-0.1,3.2c0.8,1.3,2.3,1.9,2.6-0.4
	C75.2,161.5,73.8,160.2,72.4,160.8z"/>
<path id="Path_6059" class="st21" d="M80.6,166.4c-0.8-1.6-3.6,1.7-6.1,2.1s-4.4,1.9-3.4,4.6c1.1,2.7,3.2,4.5,5,3.4
	C77.9,175.3,83.7,172.3,80.6,166.4z"/>
<path id="Path_6060" class="st22" d="M72.7,171.2c-1,0.6-0.6,2.4,0.5,3.7c1.2,1.4,3,1.8,2.9-1C76.1,171.5,74.2,170.3,72.7,171.2z"/>
<path id="Path_6061" class="st23" d="M79.5,150.9c-0.2-1.4-3.1,0.2-5.1-0.2s-3.8,0.1-3.8,2.4s1.1,4.2,2.7,3.9
	C75,156.7,80.1,156.2,79.5,150.9z"/>
<path id="Path_6062" class="st22" d="M72.4,152.2c-0.9,0.2-1.1,1.6-0.7,2.9c0.4,1.3,1.7,2.2,2.4,0.1C74.8,153.4,73.7,152,72.4,152.2
	z"/>
<path id="Path_6063" class="st23" d="M78.9,138.7c-0.6-1.4-3.1,1.2-5.2,1.5c-2.1,0.2-3.8,1.3-3.1,3.7s2.4,4,4,3.1
	C76.2,146,81.2,143.8,78.9,138.7z"/>
<path id="Path_6064" class="st22" d="M72,142.2c-0.8,0.4-0.7,2,0.2,3.2c0.9,1.2,2.5,1.7,2.5-0.7C74.8,142.7,73.3,141.6,72,142.2z"/>
<path id="Path_6065" class="st23" d="M75.3,124.1c-0.4-1-2.2,0.9-3.8,1.1s-2.8,1-2.2,2.7c0.5,1.7,1.8,2.9,2.9,2.2
	S76.9,127.8,75.3,124.1z"/>
<path id="Path_6066" class="st22" d="M70.3,126.7c-0.6,0.3-0.5,1.4,0.2,2.3c0.6,0.9,1.8,1.2,1.8-0.5C72.3,127,71.2,126.2,70.3,126.7
	z"/>
<path id="Path_6067" class="st21" d="M81.6,137.6c0.1-1.5,3.3,0.1,5.4-0.4s4,0,4.1,2.4c0.1,2.5-1,4.6-2.7,4.2
	C86.6,143.6,81.1,143.2,81.6,137.6z"/>
<path id="Path_6068" class="st22" d="M89.3,138.6c0.9,0.1,1.3,1.6,0.8,3.1c-0.4,1.5-1.8,2.4-2.6,0.2C86.8,140,87.8,138.4,89.3,138.6
	z"/>
<path id="Path_6069" class="st23" d="M78.2,131.6c-0.3-1.5,3.2-0.9,5-2s3.8-1.2,4.7,1.1s0.5,4.6-1.3,4.9
	C84.8,135.8,79.5,137.1,78.2,131.6z"/>
<path id="Path_6070" class="st22" d="M85.8,130.3c0.9-0.2,1.7,1.2,1.7,2.7s-0.9,2.8-2.4,1C83.9,132.3,84.4,130.5,85.8,130.3z"/>
<path id="Path_6071" class="st23" d="M77.6,124.4c-0.2-1.1,2.3-0.6,3.6-1.4s2.8-0.9,3.4,0.8s0.3,3.3-0.9,3.5
	C82.3,127.4,78.5,128.4,77.6,124.4z"/>
<path id="Path_6072" class="st22" d="M83.1,123.5c0.7-0.1,1.2,0.8,1.3,1.9c0,1.1-0.7,2-1.7,0.7C81.7,124.9,82.1,123.6,83.1,123.5z"
	/>
<path id="Path_6073" class="st21" d="M81.8,172.4c0.9-1.7,3.8,1.8,6.4,2.3s4.7,2,3.6,4.9s-3.4,4.8-5.3,3.5
	C84.7,181.8,78.5,178.6,81.8,172.4z"/>
<path id="Path_6074" class="st22" d="M90.2,177.4c1,0.6,0.7,2.5-0.6,4c-1.2,1.5-3.2,1.9-3.1-1C86.6,177.7,88.6,176.5,90.2,177.4z"/>
<path id="Path_6075" class="st23" d="M81,177.4c2.7,0.6,4.9,7,1.5,9.5c-4.4,3.2-7.5-2.9-6.9-5.3S78.1,176.7,81,177.4z"/>
<path id="Path_6076" class="st22" d="M80.2,178.7c1.5,0.2,2.4,1.7,2.2,4.1c-0.2,2.5-1.3,4.2-3.6,2.9
	C76.4,184.5,77.4,178.3,80.2,178.7z"/>
<path id="Path_6077" class="st21" d="M87.4,159.8c-0.2,0-3.7-6.7-5.7-6.7s-2.1,3.2-2.1,5.4c0,1.4,0.4,2.8,1,4.1L87.4,159.8z"/>
<path id="Path_6078" class="st23" d="M83.7,157.3c2.3-0.3,5.9,4.3,3.8,7.2c-2.6,3.8-6.8-0.3-7-2.3C80.3,160,81.3,157.6,83.7,157.3z"
	/>
<path id="Path_6079" class="st22" d="M83.5,158.5c1.3-0.2,2.4,0.7,2.9,2.7s0.1,3.7-2.1,3.3C82.1,164.2,81.1,159,83.5,158.5z"/>
<path id="Path_6080" class="st21" d="M80.3,134.6c-0.2,0-2-5.6-3.5-5.8s-2,2.2-2.2,3.9c-0.1,1.1,0,2.2,0.3,3.3L80.3,134.6z"/>
<path id="Path_6081" class="st23" d="M77.8,132.2c1.8,0.1,4,4,2,5.9c-2.5,2.6-5.1-1-5.1-2.6C74.9,133.9,75.9,132.2,77.8,132.2z"/>
<path id="Path_6082" class="st22" d="M77.5,133.2c1,0,1.7,0.8,1.9,2.4c0.2,1.6-0.3,2.8-2,2.3S75.6,133.2,77.5,133.2z"/>
<path id="Path_6083" class="st21" d="M78.3,121.5c-0.1,0-1.8-4-2.9-4c-1.1-0.1-1.3,1.7-1.4,3c0,0.8,0.1,1.6,0.4,2.4L78.3,121.5z"/>
<path id="Path_6084" class="st23" d="M76.4,119.9c1.3-0.1,3.1,2.7,1.8,4.2c-1.7,2-3.8-0.5-3.9-1.7C74.2,121.3,75.1,120.1,76.4,119.9
	L76.4,119.9z"/>
<path id="Path_6085" class="st22" d="M76.2,120.6c0.7-0.1,1.3,0.5,1.5,1.7s-0.1,2.1-1.3,1.8C75.1,123.8,74.8,120.8,76.2,120.6z"/>
<path id="Path_6086" class="st21" d="M81.9,148.2c-0.1-0.1,0.6-5.9-0.7-6.7c-1.2-0.8-2.7,1.1-3.7,2.5c-0.6,0.9-1,2-1.1,3.1
	L81.9,148.2z"/>
<path id="Path_6087" class="st23" d="M80.7,145c1.6,0.8,1.9,5.3-0.7,6.2c-3.3,1.3-4.2-3.1-3.4-4.6C77.3,145.3,79,144.1,80.7,145z"/>
<path id="Path_6088" class="st22" d="M80,145.8c0.9,0.4,1.2,1.5,0.7,3s-1.5,2.4-2.8,1.2C76.6,148.7,78.3,145,80,145.8z"/>
<path id="Path_6089" class="st11" d="M85.1,200.7c-1-1.7-5.8-2.9-7.4-1.1c-1.6,1.8-2.8,4.9-6.8,4.9s-6.7,1.4-7.3,5
	c-0.6,3.6,1.2,4.2-2.6,4.7c-3.7,0.5-8.3,1.2-8.1,5.2c0.2,4,2.4,7.6,1.3,9c-1.8,3-3,6.2-3.8,9.6c-0.4,2.6-0.6,6-0.6,6s1,1.8,2.2,0.2
	c0.4-1.9-0.9-6.9,1.6-10.4s3.9-2.6,7.4-3.7c3.5-1.1,7.5-3.1,8.7-5.1s-1.7-5.9,2-7.4s7.8,1.7,9.6-2.7c1.2-2.8,0.3-7-0.1-8.8
	C80.5,203.5,79.4,201.2,85.1,200.7z"/>
<path id="Path_6090" class="st11" d="M11.7,200.1c1-1.8,6.1-3,7.8-1.1c1.7,1.8,2.9,5.1,7.1,5.2s7.1,1.5,7.7,5.2s-1.2,4.4,2.7,5
	s8.6,1.2,8.5,5.4s-2.5,7.9-1.3,9.4c1.8,3.1,3.2,6.5,4,10c0.4,2.7,0.6,6.2,0.6,6.2s-1.1,1.9-2.3,0.2c-0.4-2,0.9-7.2-1.6-10.9
	s-4.1-2.7-7.8-3.9s-7.8-3.2-9.1-5.4c-1.3-2.2,1.7-6.2-2.1-7.7s-8.1,1.8-10.1-2.8c-1.3-3-0.3-7.4,0.1-9.2
	C16.5,203,17.7,200.5,11.7,200.1z"/>
<path id="Path_6091" class="st14" d="M56.6,246.1c0,0,3.4-5.8,6-8.3c2.5-2.5,5.4-6.2,9.6-4.6c3.5,1.3,7.4,3.8,9.7,3.2
	c2.3-0.6,5.3-2.8,8-3c6.5-0.5,7.1,5.2,7.1,5.2c1.4-3.5,1-7.5-1.1-10.6c-1.9-2.9-7.5-5.3-11-4.2s-6.2,0.7-6.9-0.2
	c-1.1-1.5-3.2-1.8-4.7-0.7c-0.4,0.3-0.7,0.6-0.9,1.1c-0.9,1.6-2.8,2.1-4.7,1c-2.2-1.2-4.4,1.1-5.1,2.8c-0.7,1.7,0.6,5.2,0.3,6.5
	c-0.4,1.3-6.1,8.3-7.6,10.7C54.6,245.9,55.8,246.6,56.6,246.1z"/>
<path id="Path_6092" class="st11" d="M65.3,228.6c2.9-3.1,8.4-1.7,12.4-0.7c1.9,0.5,5.5-0.3,9.5-1c3.4-0.6,6.2,0.1,8,3.5
	c-3.9-5-9.9-2.2-13.1-1.5c-5.7,1.1-13.8-4.3-17.7,1.9C64.5,229.9,64.8,229.2,65.3,228.6z"/>
<path id="Path_6093" class="st11" d="M39.8,245.3c0,0-2.7-6.4-4.9-9.3c-2.2-2.9-4.6-7.1-9.1-6.1c-3.7,0.8-7.9,2.7-10.1,1.7
	s-4.9-3.7-7.6-4.3c-6.4-1.5-7.7,4.2-7.7,4.2c-1-3.7-0.1-7.7,2.4-10.5c2.3-2.6,8.2-4.3,11.5-2.5c3.4,1.7,6.1,1.6,6.9,0.8
	c2.1-2.2,4.9-0.5,5.6,1.3s2.5,2.5,4.6,1.8c2.4-0.9,4.3,1.8,4.8,3.6s-1.3,5.2-1.1,6.5s5.1,9.3,6.3,12C41.8,245.5,40.6,246,39.8,245.3
	z"/>
<path id="Path_6094" class="st14" d="M33.3,226.3c-2.5-3.6-8.2-3-12.4-2.6c-1.9,0.2-5.4-1.2-9.3-2.5c-3.4-1.1-6.2-0.8-8.5,2.3
	c4.5-4.5,10.1-0.7,13.3,0.4c5.6,2,14.4-2.3,17.5,4.6C33.9,227.8,33.7,227,33.3,226.3z"/>
<path id="Path_6095" class="st20" d="M48.7,128.1c0,0-0.4,13.4-3.6,23.7c-3.3,10.3-3.4,35.1-2.2,47c1,10.2,2.2,36.9,2.2,46.8
	c1.2,1.4,2,0.1,2,0.1s-1.8-43.6-2-46.9c-0.9-17-1.3-33.6,2.3-47C50.9,138.4,48.7,128.1,48.7,128.1z"/>
<path id="Path_6096" class="st14" d="M61.3,196.5c-2.7-0.3-5.5,0.2-7.9,1.5c-3.8,2.2-4.1,6.7-4.4,10c-0.3,3.3-1.2,3.2-3.8,5.4
	s-5.2,7.7-2.5,10.3s6.2,6.5,3.4,9.7c-1.6,1.9-1.5,5.8-0.6,9.1c0.6,2.2,1.8,4.1,3.4,5.7c0.6,0.4,1.4,0.3,1.9-0.2c0,0-3.8-4-2.9-7.3
	c0.8-3.3,8.5-2.2,7.4-7.2c-1.1-5.1-1.2-4.9,3.3-8.3c4.8-3.6,6.2-6.1,2.8-12.2C58.1,206.7,56.1,202.8,61.3,196.5z"/>
<path id="Path_6097" class="st11" d="M57.1,198.8c0,0-3.7,3.6-3,8.5c0.7,4.8,3.1,8.7,0.4,12.8c-2.6,4.1-4,5-3.6,7.1s2.3,4.5,0.8,6.2
	c-1.3,1.2-2.8,2.3-4.4,3c0,0,4.8-2.6,3.6-5.9c-1.1-3.3-2.5-5.1-1.2-7.4s6.3-3.7,5.2-7.5s-3.4-8.5-1.6-12.4
	C55.1,199.4,57.1,198.8,57.1,198.8z"/>
<path id="Path_6098" class="st23" d="M42.9,181.5c-0.6-1.7-3.8,1.1-6.3,1.1s-4.7,1.2-4.1,4c0.6,2.9,2.4,5,4.4,4.1
	C38.8,189.9,45,187.9,42.9,181.5z"/>
<path id="Path_6099" class="st22" d="M34.3,185c-1,0.4-1,2.2-0.1,3.8c0.9,1.5,2.7,2.3,3.1-0.5C37.6,185.8,35.9,184.3,34.3,185z"/>
<path id="Path_6100" class="st23" d="M44,163.3c-0.2-1.6-3.6,0.2-5.9-0.3s-4.4,0.1-4.4,2.7c0,2.7,1.1,4.9,3.1,4.5
	S44.6,169.4,44,163.3z"/>
<path id="Path_6101" class="st22" d="M35.7,164.6c-1,0.2-1.3,1.8-0.8,3.3c0.5,1.6,2,2.6,2.8,0.2C38.5,166.1,37.3,164.4,35.7,164.6z"
	/>
<path id="Path_6102" class="st23" d="M45.2,175.8c0.5-1.4,3.2,0.9,5.4,1s3.9,1,3.4,3.4s-2,4.2-3.7,3.5
	C48.7,182.9,43.4,181.2,45.2,175.8z"/>
<path id="Path_6103" class="st22" d="M52.5,178.7c0.9,0.4,0.8,1.9,0.1,3.2c-0.8,1.3-2.3,1.9-2.6-0.4
	C49.7,179.5,51.2,178.2,52.5,178.7z"/>
<path id="Path_6104" class="st21" d="M44.3,184.4c0.8-1.6,3.6,1.7,6.1,2.1s4.4,1.9,3.4,4.6c-1.1,2.7-3.2,4.5-5,3.4
	C47,193.3,41.2,190.3,44.3,184.4z"/>
<path id="Path_6105" class="st22" d="M52.2,189.2c1,0.6,0.6,2.4-0.5,3.8c-1.1,1.4-3,1.8-2.9-1C48.8,189.5,50.7,188.3,52.2,189.2z"/>
<path id="Path_6106" class="st23" d="M45.4,168.9c0.2-1.4,3.1,0.2,5.1-0.2s3.8,0.1,3.8,2.4c0,2.3-1.1,4.2-2.7,3.9
	C49.9,174.7,44.8,174.1,45.4,168.9z"/>
<path id="Path_6107" class="st22" d="M52.5,170.2c0.9,0.2,1.1,1.6,0.7,2.9c-0.5,1.3-1.7,2.2-2.4,0.1
	C50.1,171.4,51.2,169.9,52.5,170.2z"/>
<path id="Path_6108" class="st23" d="M46,156.6c0.6-1.4,3.1,1.2,5.2,1.4c2.1,0.2,3.8,1.3,3.1,3.7c-0.7,2.3-2.4,4-4,3.1
	S43.7,161.8,46,156.6z"/>
<path id="Path_6109" class="st22" d="M52.9,160.2c0.8,0.4,0.7,2-0.2,3.2s-2.5,1.7-2.5-0.7C50.1,160.6,51.6,159.5,52.9,160.2z"/>
<path id="Path_6110" class="st23" d="M49.6,142.1c0.4-1,2.2,0.9,3.8,1.1c1.5,0.2,2.8,1,2.2,2.7c-0.5,1.7-1.8,2.9-2.9,2.2
	C51.6,147.4,48,145.8,49.6,142.1z"/>
<path id="Path_6111" class="st22" d="M54.6,144.7c0.6,0.3,0.5,1.4-0.2,2.3s-1.8,1.2-1.8-0.5C52.6,145,53.7,144.2,54.6,144.7z"/>
<path id="Path_6112" class="st21" d="M43.3,155.6c-0.1-1.5-3.3,0.1-5.4-0.4c-2.1-0.5-4,0-4.1,2.4c-0.1,2.5,0.9,4.6,2.7,4.2
	C38.3,161.5,43.8,161.2,43.3,155.6z"/>
<path id="Path_6113" class="st22" d="M35.7,156.6c-0.9,0.1-1.3,1.6-0.8,3.1c0.4,1.4,1.8,2.4,2.6,0.2C38.2,158,37.1,156.4,35.7,156.6
	z"/>
<path id="Path_6114" class="st23" d="M46.7,149.6c0.3-1.5-3.2-0.9-5-2s-3.8-1.2-4.7,1.1c-0.8,2.3-0.5,4.6,1.3,4.9
	S45.4,155,46.7,149.6z"/>
<path id="Path_6115" class="st22" d="M39.1,148.3c-0.9-0.2-1.7,1.2-1.7,2.7s0.9,2.8,2.4,1C41,150.3,40.5,148.5,39.1,148.3z"/>
<path id="Path_6116" class="st23" d="M47.3,142.4c0.2-1.1-2.3-0.6-3.6-1.4c-1.3-0.8-2.8-0.9-3.4,0.8c-0.6,1.7-0.3,3.3,0.9,3.5
	S46.4,146.3,47.3,142.4z"/>
<path id="Path_6117" class="st22" d="M41.8,141.4c-0.7-0.1-1.2,0.8-1.2,1.9c0,1.1,0.7,2,1.7,0.7C43.2,142.9,42.8,141.6,41.8,141.4z"
	/>
<path id="Path_6118" class="st23" d="M48.8,135c0.2-0.9-2.1-0.6-3.3-1.3s-2.5-0.8-3,0.7s-0.3,3,0.8,3.2
	C44.5,137.7,47.9,138.5,48.8,135z"/>
<path id="Path_6119" class="st22" d="M43.8,134.1c-0.6-0.1-1.1,0.8-1.1,1.7c0,1,0.6,1.8,1.6,0.6C45.1,135.5,44.7,134.3,43.8,134.1z"
	/>
<path id="Path_6120" class="st21" d="M43.1,190.3c-0.9-1.7-3.8,1.8-6.4,2.3c-2.6,0.5-4.7,2-3.6,4.9c1.1,2.9,3.4,4.8,5.3,3.5
	C40.3,199.8,46.4,196.6,43.1,190.3z"/>
<path id="Path_6121" class="st22" d="M34.8,195.4c-1,0.6-0.7,2.5,0.6,4c1.2,1.5,3.2,1.9,3.1-1C38.3,195.7,36.3,194.4,34.8,195.4z"/>
<path id="Path_6122" class="st23" d="M43.9,195.3c-2.7,0.6-4.9,7-1.5,9.5c4.4,3.2,7.5-2.9,6.9-5.3S46.8,194.7,43.9,195.3z"/>
<path id="Path_6123" class="st22" d="M44.7,196.7c-1.5,0.2-2.4,1.7-2.2,4.1c0.2,2.5,1.3,4.1,3.6,2.9
	C48.5,202.4,47.5,196.3,44.7,196.7z"/>
<path id="Path_6124" class="st21" d="M37.6,177.8c0.2,0,3.7-6.7,5.7-6.7c1.9,0,2.1,3.2,2.1,5.4c0,1.4-0.4,2.8-1,4.1L37.6,177.8z"/>
<path id="Path_6125" class="st23" d="M41.2,175.2c-2.3-0.3-5.9,4.3-3.8,7.2c2.6,3.8,6.8-0.3,7-2.3C44.6,178,43.7,175.5,41.2,175.2z"
	/>
<path id="Path_6126" class="st22" d="M41.4,176.5c-1.3-0.2-2.4,0.7-2.9,2.7s-0.1,3.7,2.1,3.3C42.8,182.2,43.8,177,41.4,176.5z"/>
<path id="Path_6127" class="st21" d="M44.6,152.6c0.2,0,2-5.6,3.5-5.8s2,2.2,2.2,3.9c0.1,1.1,0,2.2-0.3,3.3L44.6,152.6z"/>
<path id="Path_6128" class="st23" d="M47.1,150.2c-1.8,0.1-4,4-2,5.9c2.5,2.6,5.1-1,5.1-2.6C50,151.9,49,150.1,47.1,150.2z"/>
<path id="Path_6129" class="st22" d="M47.4,151.2c-1,0-1.7,0.8-1.9,2.4c-0.2,1.6,0.3,2.8,2,2.3S49.3,151.2,47.4,151.2z"/>
<path id="Path_6130" class="st21" d="M46.6,139.5c0.1,0,1.8-4,2.9-4c1.1-0.1,1.3,1.7,1.4,3c0,0.8-0.1,1.6-0.4,2.4L46.6,139.5z"/>
<path id="Path_6131" class="st23" d="M48.5,137.9c-1.3,0-3.1,2.7-1.8,4.2c1.7,2,3.8-0.5,3.9-1.7C50.7,139.2,49.8,138.1,48.5,137.9
	L48.5,137.9z"/>
<path id="Path_6132" class="st22" d="M48.7,138.6c-0.7-0.1-1.3,0.5-1.5,1.7s0.1,2.1,1.3,1.8S50.1,138.8,48.7,138.6z"/>
<path id="Path_6133" class="st21" d="M43,166.2c0.1-0.1-0.6-5.9,0.7-6.7c1.2-0.8,2.7,1.1,3.7,2.5c0.6,0.9,1,2,1.1,3.1L43,166.2z"/>
<path id="Path_6134" class="st23" d="M44.2,163c-1.6,0.8-1.9,5.3,0.7,6.2c3.3,1.3,4.2-3.1,3.4-4.6C47.6,163.3,45.9,162.1,44.2,163z"
	/>
<path id="Path_6135" class="st22" d="M44.9,163.7c-0.9,0.4-1.2,1.5-0.7,3s1.5,2.4,2.8,1.2S46.6,163,44.9,163.7z"/>
<path id="Path_6136" class="st20" d="M106.7,123.9c0,0,0.4,13.4,3.6,23.7c3.3,10.3,3.4,35.1,2.2,47c-1,10.2-2.2,36.9-2.2,46.8
	c-1.2,1.4-1.9,0.1-1.9,0.1s1.8-43.6,1.9-46.9c0.9-17,1.3-33.6-2.3-47S106.7,123.9,106.7,123.9z"/>
<path id="Path_6137" class="st14" d="M94.1,192.3c2.7-0.3,5.5,0.2,7.9,1.5c3.8,2.2,4.1,6.7,4.4,10s1.2,3.2,3.8,5.4
	c2.6,2.2,5.2,7.7,2.5,10.3s-6.2,6.5-3.4,9.7c1.6,1.9,1.5,5.8,0.6,9.1c-0.6,2.2-1.8,4.2-3.4,5.7c-0.6,0.4-1.4,0.3-1.9-0.2
	c0,0,3.8-4,2.9-7.3c-0.8-3.3-8.5-2.2-7.4-7.2s1.2-4.9-3.3-8.3c-4.8-3.6-6.2-6.1-2.8-12.2C97.3,202.5,99.3,198.6,94.1,192.3z"/>
<path id="Path_6138" class="st11" d="M98.3,194.6c0,0,3.7,3.6,3,8.5c-0.7,4.8-3.1,8.7-0.4,12.8c2.6,4.1,4,5,3.6,7.1
	s-2.3,4.5-0.8,6.2c1.3,1.2,2.8,2.3,4.4,3c0,0-4.8-2.6-3.6-5.9c1.1-3.3,2.5-5.1,1.2-7.4s-6.3-3.7-5.2-7.5c1.1-3.8,3.4-8.5,1.6-12.4
	C100.3,195.2,98.3,194.6,98.3,194.6z"/>
<path id="Path_6139" class="st21" d="M112.5,177.3c0.6-1.7,3.8,1.1,6.3,1.1s4.7,1.2,4.1,4c-0.6,2.9-2.4,5-4.4,4.1
	C116.6,185.7,110.4,183.7,112.5,177.3z"/>
<path id="Path_6140" class="st22" d="M121.1,180.8c1,0.4,1,2.2,0.1,3.8s-2.7,2.3-3.1-0.5C117.8,181.6,119.5,180.1,121.1,180.8z"/>
<path id="Path_6141" class="st23" d="M111.4,159.1c0.2-1.6,3.6,0.2,5.9-0.3s4.4,0.1,4.4,2.8s-1.1,4.9-3.1,4.5
	C116.7,165.7,110.8,165.2,111.4,159.1z"/>
<path id="Path_6142" class="st22" d="M119.7,160.5c1,0.2,1.3,1.8,0.8,3.3s-2,2.6-2.8,0.2C117,161.9,118.2,160.2,119.7,160.5z"/>
<path id="Path_6143" class="st23" d="M110.2,171.7c-0.5-1.4-3.2,0.9-5.4,1c-2.1,0-3.9,1-3.4,3.4s2.1,4.2,3.7,3.5
	S112,177,110.2,171.7z"/>
<path id="Path_6144" class="st22" d="M103,174.6c-0.9,0.4-0.8,1.9-0.1,3.2c0.8,1.3,2.3,1.9,2.6-0.4C105.7,175.3,104.3,174,103,174.6
	z"/>
<path id="Path_6145" class="st21" d="M111.1,180.2c-0.8-1.6-3.6,1.7-6.1,2.1s-4.4,1.9-3.4,4.6c1.1,2.7,3.2,4.5,5,3.4
	C108.5,189.1,114.2,186.1,111.1,180.2z"/>
<path id="Path_6146" class="st22" d="M103.2,185c-1,0.6-0.6,2.4,0.5,3.7c1.2,1.4,3,1.8,2.9-1C106.6,185.3,104.7,184.1,103.2,185z"/>
<path id="Path_6147" class="st23" d="M110,164.7c-0.2-1.4-3.1,0.2-5.1-0.2s-3.8,0.1-3.8,2.4s1.1,4.2,2.7,3.9
	C105.6,170.5,110.7,170,110,164.7z"/>
<path id="Path_6148" class="st22" d="M102.9,166c-0.9,0.2-1.1,1.6-0.7,2.9c0.5,1.3,1.7,2.2,2.4,0.1
	C105.3,167.2,104.2,165.8,102.9,166z"/>
<path id="Path_6149" class="st23" d="M109.4,152.5c-0.6-1.4-3.1,1.2-5.2,1.4s-3.8,1.3-3.1,3.7c0.7,2.3,2.4,4,4,3.1
	C106.7,159.8,111.7,157.6,109.4,152.5z"/>
<path id="Path_6150" class="st22" d="M102.6,156c-0.8,0.4-0.7,1.9,0.2,3.2c0.9,1.2,2.5,1.7,2.5-0.7
	C105.4,156.5,103.8,155.4,102.6,156z"/>
<path id="Path_6151" class="st23" d="M105.8,137.9c-0.4-1-2.2,0.9-3.8,1.1s-2.8,1-2.2,2.7c0.5,1.7,1.8,2.9,2.9,2.2
	S107.5,141.6,105.8,137.9z"/>
<path id="Path_6152" class="st22" d="M100.8,140.5c-0.6,0.3-0.5,1.4,0.2,2.3c0.6,0.9,1.8,1.2,1.8-0.5
	C102.8,140.8,101.7,140,100.8,140.5z"/>
<path id="Path_6153" class="st21" d="M112.1,151.4c0.1-1.5,3.3,0.1,5.4-0.4s4,0,4.1,2.4c0.1,2.5-1,4.6-2.7,4.2
	C117.1,157.4,111.7,157,112.1,151.4z"/>
<path id="Path_6154" class="st22" d="M119.8,152.4c0.9,0.1,1.3,1.6,0.8,3.1c-0.4,1.5-1.8,2.4-2.6,0.2
	C117.3,153.8,118.4,152.2,119.8,152.4z"/>
<path id="Path_6155" class="st23" d="M108.7,145.4c-0.3-1.5,3.2-0.9,5-2s3.8-1.2,4.7,1.1s0.5,4.6-1.3,4.9
	C115.3,149.6,110,150.9,108.7,145.4z"/>
<path id="Path_6156" class="st22" d="M116.3,144.1c0.9-0.2,1.7,1.2,1.7,2.7s-0.9,2.8-2.4,1C114.4,146.1,114.9,144.3,116.3,144.1z"/>
<path id="Path_6157" class="st23" d="M108.1,138.2c-0.2-1.1,2.3-0.6,3.6-1.4c1.3-0.8,2.8-0.9,3.4,0.8s0.3,3.3-0.9,3.5
	C112.9,141.2,109,142.2,108.1,138.2z"/>
<path id="Path_6158" class="st22" d="M113.6,137.3c0.7-0.1,1.2,0.8,1.3,1.9c0,1.1-0.7,2-1.7,0.7
	C112.2,138.7,112.6,137.4,113.6,137.3z"/>
<path id="Path_6159" class="st23" d="M106.7,130.8c-0.2-0.9,2.1-0.6,3.3-1.3s2.5-0.8,3,0.7s0.3,3-0.8,3.2S107.5,134.4,106.7,130.8z"
	/>
<path id="Path_6160" class="st22" d="M111.6,130c0.6-0.1,1.1,0.8,1.1,1.7s-0.6,1.8-1.6,0.6C110.3,131.3,110.7,130.1,111.6,130z"/>
<path id="Path_6161" class="st21" d="M112.3,186.2c0.9-1.7,3.8,1.8,6.4,2.3s4.7,2,3.6,4.9s-3.4,4.8-5.3,3.5
	C115.2,195.6,109,192.4,112.3,186.2z"/>
<path id="Path_6162" class="st22" d="M120.7,191.2c1,0.6,0.7,2.5-0.6,4c-1.2,1.5-3.2,1.9-3.1-1C117.1,191.5,119.1,190.3,120.7,191.2
	z"/>
<path id="Path_6163" class="st23" d="M111.5,191.2c2.7,0.6,4.9,7,1.5,9.5c-4.4,3.2-7.5-2.9-6.9-5.3S108.6,190.5,111.5,191.2z"/>
<path id="Path_6164" class="st22" d="M110.8,192.5c1.5,0.2,2.4,1.7,2.2,4.1c-0.2,2.5-1.3,4.2-3.6,2.9
	C106.9,198.3,107.9,192.1,110.8,192.5z"/>
<path id="Path_6165" class="st21" d="M117.9,173.6c-0.2,0-3.7-6.7-5.7-6.7c-1.9,0-2.1,3.2-2.1,5.4c0,1.4,0.4,2.8,1,4.1L117.9,173.6z
	"/>
<path id="Path_6166" class="st23" d="M114.2,171.1c2.3-0.3,5.9,4.3,3.8,7.2c-2.6,3.8-6.8-0.3-7-2.3
	C110.8,173.8,111.8,171.3,114.2,171.1z"/>
<path id="Path_6167" class="st22" d="M114,172.3c1.3-0.2,2.4,0.7,2.9,2.7s0.1,3.7-2.1,3.3C112.6,178,111.6,172.8,114,172.3z"/>
<path id="Path_6168" class="st21" d="M110.8,148.4c-0.2,0-2-5.6-3.5-5.8s-2,2.2-2.2,3.9c-0.1,1.1,0,2.2,0.3,3.3L110.8,148.4z"/>
<path id="Path_6169" class="st23" d="M108.3,146c1.8,0.1,4,4,2.1,5.9c-2.5,2.6-5.1-1-5.1-2.6C105.4,147.7,106.4,146,108.3,146z"/>
<path id="Path_6170" class="st22" d="M108,147c1,0,1.7,0.8,1.9,2.4c0.2,1.6-0.3,2.8-2,2.3S106.1,147,108,147z"/>
<path id="Path_6171" class="st21" d="M108.9,135.3c-0.1,0-1.8-4-2.9-4c-1.1-0.1-1.3,1.7-1.4,3c0,0.8,0.1,1.6,0.4,2.4L108.9,135.3z"
	/>
<path id="Path_6172" class="st23" d="M106.9,133.7c1.3,0,3.1,2.7,1.8,4.2c-1.7,2-3.8-0.5-3.9-1.7
	C104.7,135.1,105.6,133.9,106.9,133.7L106.9,133.7z"/>
<path id="Path_6173" class="st22" d="M106.7,134.4c0.7-0.1,1.3,0.5,1.5,1.7s-0.1,2.1-1.3,1.8C105.7,137.6,105.4,134.6,106.7,134.4z"
	/>
<path id="Path_6174" class="st21" d="M112.4,162c-0.1-0.1,0.6-5.9-0.7-6.7c-1.2-0.8-2.7,1.1-3.7,2.5c-0.6,0.9-1,2-1.1,3.1L112.4,162
	z"/>
<path id="Path_6175" class="st23" d="M111.2,158.8c1.6,0.8,1.9,5.3-0.7,6.2c-3.3,1.3-4.2-3.1-3.4-4.6
	C107.8,159.1,109.5,157.9,111.2,158.8z"/>
<path id="Path_6176" class="st22" d="M110.5,159.6c0.9,0.4,1.2,1.5,0.7,3s-1.5,2.4-2.8,1.2C107.1,162.5,108.8,158.8,110.5,159.6z"/>
<path id="Path_6177" class="st11" d="M114.4,212.2c-1-1.8-6.1-3-7.8-1.1c-1.7,1.8-2.9,5.1-7.1,5.2s-7.1,1.5-7.7,5.2s1.2,4.4-2.7,5
	c-3.9,0.6-8.6,1.2-8.5,5.4s2.5,7.9,1.3,9.4c-1.8,3.1-3.2,6.5-4,10c-0.4,2.7-0.6,6.2-0.6,6.2s1.1,1.9,2.3,0.2c0.4-2-0.9-7.2,1.6-10.9
	c2.6-3.7,4.1-2.7,7.8-3.9c3.7-1.1,7.8-3.2,9.1-5.4c1.3-2.2-1.7-6.2,2.1-7.7c3.8-1.5,8.1,1.8,10.1-2.8c1.3-3,0.3-7.4-0.1-9.2
	C109.6,215.1,108.4,212.6,114.4,212.2z"/>
<path id="Path_6178" class="st11" d="M65.2,265.7c0,0-3.4-5.8-6-8.3s-5.4-6.2-9.6-4.6c-3.5,1.3-7.4,3.8-9.7,3.2
	c-2.3-0.6-5.3-2.8-8-3c-6.5-0.5-7.1,5.2-7.1,5.2c-1.4-3.5-1-7.5,1.1-10.6c1.9-2.9,7.5-5.3,11-4.2c3.5,1.2,6.2,0.7,6.9-0.2
	c1.1-1.5,3.2-1.8,4.7-0.7c0.4,0.3,0.7,0.6,0.9,1.1c0.9,1.6,2.8,2.1,4.7,1c2.2-1.2,4.4,1.1,5.1,2.8c0.7,1.7-0.6,5.2-0.3,6.5
	s6.1,8.3,7.6,10.7C67.1,265.6,66,266.3,65.2,265.7z"/>
<path id="Path_6179" class="st14" d="M56.5,248.2c-2.9-3.1-8.4-1.7-12.4-0.7c-1.9,0.5-5.5-0.3-9.5-1c-3.4-0.6-6.1,0.1-8.1,3.5
	c3.9-5,9.9-2.2,13.1-1.5c5.7,1.1,13.8-4.4,17.7,1.9C57.3,249.6,57,248.8,56.5,248.2z"/>
<path id="Path_6180" class="st11" d="M111.8,238.9c0,0,2.7-6.4,4.9-9.3c2.2-2.9,4.6-7.1,9.1-6.1c3.7,0.8,7.9,2.7,10.1,1.7
	c2.3-1,4.9-3.7,7.6-4.3c6.4-1.5,7.7,4.2,7.7,4.2c1-3.7,0.1-7.7-2.4-10.5c-2.3-2.6-8.2-4.3-11.5-2.5c-3.4,1.7-6.1,1.6-6.9,0.8
	c-2.1-2.2-4.9-0.5-5.6,1.3s-2.5,2.5-4.6,1.8c-2.4-0.9-4.3,1.8-4.8,3.6s1.3,5.2,1.1,6.5c-0.2,1.4-5.1,9.3-6.3,12
	C109.8,239,111,239.6,111.8,238.9z"/>
<path id="Path_6181" class="st14" d="M118.3,219.9c2.5-3.6,8.2-3,12.4-2.6c1.9,0.2,5.4-1.1,9.3-2.5c3.4-1.1,6.2-0.8,8.5,2.3
	c-4.5-4.5-10.2-0.7-13.3,0.4c-5.6,2-14.4-2.3-17.5,4.6C117.7,221.4,117.9,220.6,118.3,219.9z"/>
<path id="Path_6182" class="st20" d="M71.9,143.8c0,0,0.4,13.4,3.7,23.7s3.4,35.1,2.2,47c-1,10.2-2.2,36.9-2.2,46.8
	c-1.2,1.4-2,0.1-2,0.1s1.8-43.6,2-46.9c0.9-17,1.2-33.6-2.3-47C69.8,154.1,71.9,143.8,71.9,143.8z"/>
<path id="Path_6183" class="st14" d="M59.3,212.2c2.7-0.3,5.5,0.2,7.9,1.5c3.8,2.2,4.1,6.7,4.4,10s1.2,3.2,3.8,5.4
	c2.6,2.2,5.2,7.7,2.5,10.3s-6.2,6.5-3.4,9.7c1.6,1.9,1.5,5.8,0.6,9.1c-0.6,2.2-1.8,4.2-3.4,5.7c-0.6,0.4-1.4,0.3-1.8-0.2
	c0,0,3.8-4,2.9-7.3c-0.8-3.3-8.5-2.2-7.4-7.2s1.2-4.9-3.3-8.3c-4.8-3.6-6.2-6.1-2.8-12.2C62.5,222.4,64.5,218.5,59.3,212.2z"/>
<path id="Path_6184" class="st11" d="M63.5,214.5c0,0,3.7,3.6,3,8.5c-0.7,4.8-3.1,8.7-0.4,12.8c2.6,4.1,4,5,3.6,7.1
	s-2.3,4.5-0.8,6.2c1.3,1.2,2.8,2.3,4.4,3c0,0-4.8-2.6-3.6-5.9s2.5-5.1,1.2-7.4c-1.3-2.4-6.3-3.7-5.2-7.5c1.1-3.8,3.4-8.5,1.6-12.4
	S63.5,214.5,63.5,214.5z"/>
<path id="Path_6185" class="st23" d="M77.7,197.2c0.6-1.7,3.8,1.1,6.3,1.1s4.7,1.2,4.1,4c-0.6,2.9-2.4,5-4.4,4.1
	C81.8,205.6,75.6,203.6,77.7,197.2z"/>
<path id="Path_6186" class="st22" d="M86.3,200.7c1,0.4,1,2.2,0.1,3.8c-0.9,1.5-2.7,2.3-3.1-0.5C83,201.5,84.7,200,86.3,200.7z"/>
<path id="Path_6187" class="st23" d="M76.6,179c0.2-1.6,3.6,0.2,5.9-0.3s4.4,0.1,4.4,2.8s-1.2,4.9-3.1,4.5
	C81.9,185.7,76,185.1,76.6,179z"/>
<path id="Path_6188" class="st22" d="M84.9,180.4c1,0.2,1.3,1.8,0.8,3.3s-2,2.6-2.8,0.2C82.2,181.8,83.4,180.1,84.9,180.4z"/>
<path id="Path_6189" class="st23" d="M75.4,191.6c-0.5-1.4-3.2,0.9-5.4,1c-2.1,0-3.9,1-3.4,3.4s2.1,4.2,3.7,3.5
	S77.2,196.9,75.4,191.6z"/>
<path id="Path_6190" class="st22" d="M68.2,194.5c-0.9,0.4-0.8,1.9-0.1,3.2c0.8,1.3,2.3,1.9,2.6-0.4
	C70.9,195.2,69.5,193.9,68.2,194.5z"/>
<path id="Path_6191" class="st21" d="M76.3,200.1c-0.8-1.6-3.6,1.7-6.1,2.1c-2.5,0.4-4.4,1.9-3.4,4.6c1.1,2.7,3.2,4.5,5,3.4
	S79.5,206,76.3,200.1z"/>
<path id="Path_6192" class="st22" d="M68.5,204.9c-1,0.6-0.6,2.4,0.5,3.7c1.2,1.4,3,1.8,2.9-1C71.8,205.2,69.9,204,68.5,204.9z"/>
<path id="Path_6193" class="st23" d="M75.3,184.6c-0.2-1.4-3.1,0.2-5.1-0.2s-3.8,0.1-3.8,2.4s1.1,4.2,2.7,3.9
	C70.8,190.4,75.9,189.9,75.3,184.6z"/>
<path id="Path_6194" class="st22" d="M68.1,185.9c-0.9,0.2-1.1,1.6-0.7,2.9c0.5,1.3,1.7,2.2,2.4,0.1
	C70.5,187.1,69.4,185.7,68.1,185.9z"/>
<path id="Path_6195" class="st23" d="M74.6,172.4c-0.6-1.4-3.1,1.2-5.2,1.4s-3.8,1.3-3.1,3.7s2.4,4,4,3.1S76.9,177.5,74.6,172.4z"/>
<path id="Path_6196" class="st22" d="M67.8,175.9c-0.8,0.4-0.7,2,0.2,3.2c0.9,1.2,2.5,1.7,2.5-0.7C70.6,176.4,69,175.3,67.8,175.9z"
	/>
<path id="Path_6197" class="st23" d="M71,157.8c-0.4-1-2.2,0.9-3.8,1.1s-2.8,1-2.2,2.7c0.5,1.7,1.8,2.9,2.9,2.2S72.7,161.5,71,157.8
	z"/>
<path id="Path_6198" class="st22" d="M66,160.4c-0.6,0.3-0.5,1.4,0.2,2.3c0.6,0.9,1.8,1.2,1.8-0.5C68,160.7,66.9,159.9,66,160.4z"/>
<path id="Path_6199" class="st21" d="M77.3,171.3c0.1-1.5,3.3,0.1,5.4-0.4s4,0,4.1,2.4s-1,4.6-2.7,4.2
	C82.3,177.3,76.9,176.9,77.3,171.3z"/>
<path id="Path_6200" class="st22" d="M85,172.3c0.9,0.1,1.3,1.6,0.8,3.1c-0.4,1.4-1.8,2.4-2.6,0.2C82.5,173.7,83.6,172.1,85,172.3z"
	/>
<path id="Path_6201" class="st23" d="M73.9,165.3c-0.3-1.5,3.2-0.9,5-2s3.8-1.2,4.7,1.1s0.5,4.6-1.3,4.9
	C80.5,169.5,75.2,170.8,73.9,165.3z"/>
<path id="Path_6202" class="st22" d="M81.6,164c0.9-0.2,1.7,1.2,1.7,2.7s-0.9,2.8-2.4,1C79.6,166,80.2,164.2,81.6,164z"/>
<path id="Path_6203" class="st23" d="M73.3,158.1c-0.2-1.1,2.3-0.6,3.6-1.4c1.3-0.8,2.8-0.9,3.4,0.8s0.3,3.3-0.9,3.5
	C78.1,161.1,74.2,162.1,73.3,158.1z"/>
<path id="Path_6204" class="st22" d="M78.8,157.2c0.7-0.1,1.2,0.8,1.3,1.9c0,1.1-0.7,2-1.7,0.7C77.4,158.6,77.8,157.3,78.8,157.2z"
	/>
<path id="Path_6205" class="st23" d="M71.9,150.7c-0.2-0.9,2.1-0.6,3.3-1.3s2.5-0.8,3,0.7s0.3,3-0.8,3.2S72.7,154.3,71.9,150.7z"/>
<path id="Path_6206" class="st22" d="M76.8,149.9c0.6-0.1,1.1,0.8,1.1,1.7s-0.6,1.8-1.6,0.6C75.6,151.2,75.9,150,76.8,149.9z"/>
<path id="Path_6207" class="st21" d="M77.5,206.1c0.9-1.7,3.8,1.8,6.4,2.3s4.7,2,3.6,4.9s-3.4,4.8-5.3,3.6
	C80.4,215.5,74.2,212.3,77.5,206.1z"/>
<path id="Path_6208" class="st22" d="M85.9,211.1c1,0.6,0.7,2.5-0.6,4c-1.2,1.5-3.2,1.9-3.1-1C82.3,211.4,84.4,210.2,85.9,211.1z"/>
<path id="Path_6209" class="st23" d="M76.7,211.1c2.7,0.6,4.9,7,1.5,9.5c-4.4,3.2-7.5-2.9-6.9-5.3C71.8,212.8,73.8,210.4,76.7,211.1
	z"/>
<path id="Path_6210" class="st22" d="M76,212.4c1.5,0.2,2.4,1.7,2.2,4.1c-0.2,2.5-1.3,4.2-3.6,2.9C72.2,218.2,73.1,212,76,212.4z"/>
<path id="Path_6211" class="st21" d="M83.1,193.5c-0.2,0-3.7-6.7-5.7-6.7c-1.9,0-2.1,3.2-2.1,5.4c0,1.4,0.4,2.8,1,4.1L83.1,193.5z"
	/>
<path id="Path_6212" class="st23" d="M79.4,191c2.3-0.3,5.9,4.3,3.8,7.2c-2.6,3.8-6.8-0.3-7-2.3S77,191.2,79.4,191z"/>
<path id="Path_6213" class="st22" d="M79.2,192.2c1.3-0.2,2.4,0.7,2.9,2.7s0.1,3.7-2.1,3.3C77.8,197.9,76.8,192.7,79.2,192.2z"/>
<path id="Path_6214" class="st21" d="M76,168.3c-0.2,0-2-5.6-3.5-5.8s-2,2.2-2.2,3.9c-0.1,1.1,0,2.2,0.3,3.3L76,168.3z"/>
<path id="Path_6215" class="st23" d="M73.6,165.9c1.8,0.1,4,4,2,5.9c-2.5,2.6-5.1-1-5.1-2.6C70.6,167.6,71.7,165.9,73.6,165.9z"/>
<path id="Path_6216" class="st22" d="M73.2,166.9c1,0,1.7,0.8,1.9,2.4s-0.3,2.8-2,2.3S71.4,166.9,73.2,166.9z"/>
<path id="Path_6217" class="st21" d="M74.1,155.2c-0.1,0-1.8-4-2.9-4c-1.1-0.1-1.3,1.7-1.4,3c0,0.8,0.1,1.6,0.4,2.4L74.1,155.2z"/>
<path id="Path_6218" class="st23" d="M72.1,153.6c1.3,0,3.1,2.7,1.8,4.2c-1.7,2-3.8-0.5-3.9-1.7C69.9,155,70.8,153.8,72.1,153.6
	L72.1,153.6z"/>
<path id="Path_6219" class="st22" d="M71.9,154.3c0.7-0.1,1.3,0.5,1.5,1.7s-0.1,2.1-1.3,1.8C70.9,157.5,70.6,154.5,71.9,154.3z"/>
<path id="Path_6220" class="st21" d="M77.6,181.9c-0.1-0.1,0.6-5.9-0.7-6.7c-1.2-0.8-2.7,1.1-3.7,2.5c-0.6,0.9-1,2-1.1,3.1
	L77.6,181.9z"/>
<path id="Path_6221" class="st23" d="M76.4,178.7c1.6,0.8,1.9,5.3-0.7,6.2c-3.3,1.3-4.2-3.1-3.4-4.6C73,179,74.7,177.8,76.4,178.7z"
	/>
<path id="Path_6222" class="st22" d="M75.7,179.5c0.9,0.4,1.2,1.5,0.7,3s-1.5,2.4-2.8,1.2C72.3,182.4,74,178.7,75.7,179.5z"/>
<path id="Path_6223" class="st15" d="M153.1,337.3l70.1-40.7v-14.4l-70.1,40.7V337.3z"/>
<path id="Path_6224" class="st16" d="M153.1,322.8l-56.4-32.7v14.4l56.4,32.7V322.8z"/>
<path id="Path_6225" class="st15" d="M166.7,251.7l-66.3,38.2l10.6,6.2l55.7-32.1l41.9,24.3l10.6-6.1L166.7,251.7z"/>
<path id="Path_6226" class="st17" d="M105.9,293l47.1,27.3l60.8-35l-47-27.3L105.9,293z"/>
<path id="Path_6227" class="st18" d="M153,320.3L111.1,296l-10.6-6.2l66.3-38.2l52.5,30.5l-10.6,6.1L153,320.3z M166.9,249.4
	l-70.1,40.7l56.4,32.7l70.1-40.7L166.9,249.4z"/>
<path id="Path_6228" class="st19" d="M129,295.1c0,1.9-2.7,3.4-6,3.4s-6-1.5-6-3.4s2.7-3.4,6-3.4S129,293.2,129,295.1z"/>
<path id="Path_6229" class="st19" d="M147,303.2c0,1.9-2.7,3.4-6,3.4s-6-1.5-6-3.4s2.7-3.4,6-3.4C144.3,299.9,147,301.4,147,303.2z"
	/>
<path id="Path_6230" class="st19" d="M141.4,288.3c0,1.9-2.7,3.4-6,3.4s-6-1.5-6-3.4s2.7-3.4,6-3.4S141.4,286.5,141.4,288.3z"/>
<path id="Path_6231" class="st19" d="M172.3,305.7c0,1.9-2.7,3.4-6,3.4s-6-1.5-6-3.4s2.7-3.4,6-3.4
	C169.6,302.4,172.3,303.9,172.3,305.7z"/>
<path id="Path_6232" class="st19" d="M167.5,270.9c0,1.9-2.7,3.4-6,3.4s-6-1.5-6-3.4s2.7-3.4,6-3.4S167.5,269.1,167.5,270.9z"/>
<path id="Path_6233" class="st19" d="M187.3,295.9c0,1.9-2.7,3.4-6,3.4s-6-1.5-6-3.4s2.7-3.4,6-3.4
	C184.6,292.6,187.3,294.1,187.3,295.9z"/>
<path id="Path_6234" class="st19" d="M187.3,278c0,1.9-2.7,3.4-6,3.4s-6-1.5-6-3.4s2.7-3.4,6-3.4C184.6,274.7,187.3,276.2,187.3,278
	z"/>
<path id="Path_6235" class="st19" d="M202,287.6c0,1.9-2.7,3.4-6,3.4s-6-1.5-6-3.4s2.7-3.4,6-3.4C199.4,284.2,202,285.7,202,287.6z"
	/>
<path id="Path_6236" class="st19" d="M157.2,312.4c0,1.9-2.7,3.4-6,3.4s-6-1.5-6-3.4s2.7-3.4,6-3.4
	C154.5,309.1,157.2,310.6,157.2,312.4z"/>
<path id="Path_6237" class="st19" d="M135.2,297.5c0,0.6-0.9,1.1-1.9,1.1c-1.1,0-1.9-0.5-1.9-1.1s0.9-1.1,1.9-1.1
	S135.2,296.9,135.2,297.5z"/>
<path id="Path_6238" class="st19" d="M144.2,294.9c0,0.8-1.2,1.5-2.6,1.5c-1.5,0-2.6-0.7-2.6-1.5s1.2-1.5,2.6-1.5
	S144.2,294.1,144.2,294.9z"/>
<path id="Path_6239" class="st19" d="M161.5,300.5c0,0.8-1.2,1.5-2.6,1.5c-1.5,0-2.6-0.7-2.6-1.5s1.2-1.5,2.6-1.5
	S161.5,299.6,161.5,300.5z"/>
<path id="Path_6240" class="st19" d="M175.6,287.6c0,0.8-1.2,1.5-2.6,1.5s-2.6-0.7-2.6-1.5s1.2-1.5,2.6-1.5S175.6,286.8,175.6,287.6
	z"/>
<path id="Path_6241" class="st19" d="M174.2,280.6c0,0.6-0.9,1.1-1.9,1.1c-1.1,0-1.9-0.5-1.9-1.1s0.9-1.1,1.9-1.1
	C173.4,279.5,174.2,280,174.2,280.6z"/>
<path id="Path_6242" class="st19" d="M147.2,286.1c0,0.6-0.9,1.1-1.9,1.1s-1.9-0.5-1.9-1.1s0.9-1.1,1.9-1.1S147.2,285.5,147.2,286.1
	z"/>
<path id="Path_6243" class="st19" d="M162.3,292.6c0,0.6-0.9,1.1-1.9,1.1c-1.1,0-1.9-0.5-1.9-1.1s0.9-1.1,1.9-1.1
	C161.5,291.5,162.3,292,162.3,292.6z"/>
<path id="Path_6244" class="st19" d="M174.9,300.5c0,0.6-0.9,1.1-1.9,1.1s-1.9-0.5-1.9-1.1s0.9-1.1,1.9-1.1
	C174.1,299.4,174.9,299.9,174.9,300.5z"/>
<path id="Path_6245" class="st11" d="M156.2,224.4c0,0,2.2,6.6,4.1,24c1.5,13.4-0.6,21.6-0.6,21.6c0.1,0.6,0.7,1.1,1.4,1
	c1.7,0,1.5-1,1.5-1s1.9-12.9-0.5-25c-1.8-8.8-4.8-22.7-4.8-22.7L156.2,224.4z"/>
<path id="Path_6246" class="st24" d="M165.4,219.5c-0.4-1.8-2.2-1.9-3.9-1.5c2.2-2.8,3.5-6.6-0.5-8.6c-4.3-2.1-6.7,2.7-7.6,6.7
	c-1.1-1.5-6.5-7.1-8.5-4.7c-1.8,2.2,2,6,4.7,8.1c-2.8,0-6.8,0.7-7.3,3.1c-0.6,2.9,4.7,2.3,7.2,1.9c-0.8,2.2-1.6,5.6,0.5,6.7
	c2.2,1.2,4.2-1.6,5.3-3.7c0.7,2,3.3,5,4.7,4.4c3-1.4,2.1-5,0.7-7.4C162.9,223.6,165.9,221.9,165.4,219.5z"/>
<path id="Path_6247" class="st25" d="M156.3,219.3c-1.4-0.6-2.8,1.2-2.6,2.2s1.1,1.6,2.1,1.5c0.3,0,0.5-0.2,0.7-0.3
	C157.4,222,157.5,219.9,156.3,219.3z"/>
<path id="Path_6248" class="st14" d="M162.1,265.2c0,0-1.5-14.2,2.5-23.6c4-9.4,6.7-17.2,6.7-17.2s-1.1,8.4-2.4,15.1
	C167.5,246.1,164.5,260.5,162.1,265.2z"/>
<path id="Path_6249" class="st11" d="M140.6,242.4c0,0-2.2,6.6-4.1,24c-1.5,13.4,0.6,21.6,0.6,21.6c-0.1,0.6-0.7,1.1-1.4,1
	c-1.7,0-1.5-1-1.5-1s-1.9-12.9,0.5-25c1.8-8.8,4.8-22.7,4.8-22.7L140.6,242.4z"/>
<path id="Path_6250" class="st26" d="M131.5,237.5c0.4-1.8,2.2-1.9,3.9-1.5c-2.2-2.8-3.5-6.6,0.5-8.6c4.3-2.1,6.7,2.7,7.6,6.7
	c1.1-1.5,6.5-7.1,8.5-4.7c1.8,2.2-2,6-4.6,8.1c2.8,0,6.8,0.7,7.3,3.1c0.6,2.9-4.7,2.3-7.2,1.9c0.8,2.2,1.6,5.6-0.5,6.7
	c-2.2,1.2-4.2-1.6-5.3-3.7c-0.7,2-3.4,5-4.7,4.4c-3-1.4-2.1-5-0.7-7.4C133.9,241.6,130.9,240,131.5,237.5z"/>
<path id="Path_6251" class="st25" d="M140.6,237.4c1.4-0.6,2.8,1.2,2.6,2.2s-1.1,1.6-2.1,1.5c-0.3,0-0.5-0.2-0.7-0.3
	C139.4,240,139.4,237.9,140.6,237.4z"/>
<path id="Path_6252" class="st11" d="M134.8,283.2c0,0,1.5-14.2-2.5-23.6s-6.7-17.2-6.7-17.2s1.1,8.4,2.4,15.1
	C129.3,264.2,132.3,278.5,134.8,283.2z"/>
<path id="Path_6253" class="st11" d="M107.4,252.9c0,0,0.6,9.3,4.7,17s10.3,15.9,10.6,18.3s2.1-2,1.5-3.7c-0.6-1.8-7.3-11.2-10-15.9
	C111.5,264,107.4,252.9,107.4,252.9z"/>
<path id="Path_6254" class="st11" d="M118.3,249.4c0,0,2.2,6.6,4.1,24c1.5,13.4-0.7,21.6-0.7,21.6c0.1,0.6,0.7,1.1,1.4,1
	c1.7,0,1.5-1,1.5-1s1.9-12.9-0.5-25c-1.8-8.8-4.8-22.7-4.8-22.7L118.3,249.4z"/>
<path id="Path_6255" class="st26" d="M127.5,244.5c-0.4-1.8-2.2-1.9-3.9-1.5c2.2-2.8,3.5-6.6-0.5-8.6c-4.3-2.1-6.7,2.7-7.6,6.7
	c-1.1-1.5-6.5-7.1-8.5-4.7c-1.8,2.2,2,6,4.6,8.1c-2.8,0-6.8,0.7-7.3,3.1c-0.6,2.9,4.7,2.3,7.2,1.9c-0.8,2.2-1.6,5.6,0.5,6.7
	c2.2,1.2,4.2-1.6,5.3-3.7c0.7,2,3.4,5,4.7,4.4c3-1.4,2.1-5,0.7-7.4C125,248.6,128,246.9,127.5,244.5z"/>
<path id="Path_6256" class="st25" d="M118.3,244.4c-1.4-0.6-2.8,1.2-2.6,2.2c0.2,1,1.1,1.6,2.1,1.5c0.3,0,0.5-0.2,0.7-0.3
	C119.5,247,119.5,244.9,118.3,244.4z"/>
<path id="Path_6257" class="st14" d="M124.1,290.2c0,0-1.5-14.2,2.5-23.6c4-9.4,6.7-17.2,6.7-17.2s-1.1,8.4-2.4,15.1
	S126.6,285.5,124.1,290.2z"/>
<path id="Path_6258" class="st11" d="M175.7,231.7c0,0,2.2,6.6,4.1,24c1.5,13.4-0.6,21.6-0.6,21.6c0.1,0.6,0.7,1.1,1.4,1
	c1.7,0,1.5-1,1.5-1s1.9-12.9-0.5-25c-1.8-8.8-4.8-22.7-4.8-22.7L175.7,231.7z"/>
<path id="Path_6259" class="st26" d="M184.9,226.8c-0.4-1.8-2.2-1.9-3.9-1.5c2.2-2.8,3.5-6.6-0.5-8.6c-4.3-2.1-6.7,2.7-7.6,6.7
	c-1.1-1.5-6.5-7.1-8.5-4.7c-1.8,2.2,2,6,4.6,8.1c-2.8,0-6.8,0.7-7.3,3.1c-0.6,2.9,4.7,2.3,7.2,1.9c-0.8,2.2-1.6,5.6,0.5,6.7
	c2.2,1.2,4.2-1.6,5.3-3.7c0.7,2,3.3,5,4.7,4.4c3-1.4,2.1-5,0.8-7.4C182.4,231,185.4,229.3,184.9,226.8z"/>
<path id="Path_6260" class="st25" d="M175.8,226.7c-1.4-0.6-2.8,1.2-2.6,2.2s1.1,1.6,2.1,1.5c0.3,0,0.5-0.2,0.7-0.3
	C176.9,229.3,177,227.2,175.8,226.7z"/>
<path id="Path_6261" class="st14" d="M181.6,272.6c0,0-1.5-14.2,2.5-23.6s6.7-17.2,6.7-17.2s-1.1,8.4-2.4,15.1
	C187,253.5,184,267.8,181.6,272.6z"/>
<path id="Path_6262" class="st11" d="M200.4,242.1c0,0-2.2,6.6-4.1,24c-1.5,13.4,0.6,21.6,0.6,21.6c-0.1,0.6-0.7,1.1-1.4,1
	c-1.7,0-1.5-1-1.5-1s-1.9-12.9,0.5-25c1.8-8.8,4.8-22.7,4.8-22.7L200.4,242.1z"/>
<path id="Path_6263" class="st24" d="M191.2,237.2c0.4-1.8,2.2-1.9,3.9-1.5c-2.2-2.8-3.5-6.6,0.5-8.6c4.3-2.1,6.7,2.7,7.6,6.7
	c1.1-1.5,6.5-7.1,8.5-4.7c1.8,2.2-2,6-4.6,8.1c2.8,0,6.8,0.7,7.3,3.1c0.6,2.9-4.7,2.3-7.2,1.9c0.8,2.2,1.6,5.6-0.5,6.7
	c-2.2,1.2-4.2-1.6-5.3-3.7c-0.7,2-3.3,5-4.7,4.4c-3-1.4-2.1-5-0.8-7.4C193.7,241.3,190.7,239.6,191.2,237.2z"/>
<path id="Path_6264" class="st25" d="M200.3,237.1c1.4-0.6,2.8,1.2,2.6,2.2s-1.1,1.6-2.1,1.5c-0.3,0-0.5-0.2-0.7-0.3
	C199.2,239.7,199.1,237.6,200.3,237.1z"/>
<path id="Path_6265" class="st11" d="M194.5,282.9c0,0,1.5-14.2-2.5-23.6s-6.7-17.2-6.7-17.2s1.1,8.4,2.4,15.1
	C189.1,263.9,192.1,278.2,194.5,282.9z"/>
<path id="Path_6266" class="st11" d="M177,249.7c0,0,2.2,6.6,4.1,24c1.5,13.4-0.7,21.6-0.7,21.6c0.1,0.6,0.7,1.1,1.4,1
	c1.7,0,1.5-1,1.5-1s1.9-12.9-0.5-25c-1.8-8.8-4.8-22.7-4.8-22.7L177,249.7z"/>
<path id="Path_6267" class="st26" d="M186.2,244.8c-0.4-1.8-2.2-1.9-3.9-1.5c2.2-2.8,3.5-6.6-0.5-8.6c-4.3-2.1-6.7,2.7-7.6,6.7
	c-1.1-1.5-6.5-7.1-8.5-4.7c-1.8,2.2,2,6,4.7,8.1c-2.8,0-6.8,0.7-7.3,3.1c-0.6,2.9,4.7,2.3,7.2,1.9c-0.8,2.2-1.6,5.6,0.5,6.7
	c2.2,1.2,4.2-1.6,5.3-3.7c0.7,2,3.3,5,4.7,4.4c3-1.4,2.1-5,0.7-7.4C183.7,248.9,186.7,247.2,186.2,244.8z"/>
<path id="Path_6268" class="st25" d="M177.1,244.7c-1.4-0.6-2.8,1.2-2.6,2.2s1.1,1.6,2.1,1.5c0.3,0,0.5-0.2,0.8-0.3
	C178.2,247.3,178.3,245.2,177.1,244.7z"/>
<path id="Path_6269" class="st14" d="M182.9,290.5c0,0-1.5-14.2,2.5-23.6s6.7-17.2,6.7-17.2s-1.1,8.4-2.4,15.1
	C188.3,271.5,185.3,285.8,182.9,290.5z"/>
<path id="Path_6270" class="st11" d="M145.7,257.6c0,0-2.2,6.6-4.1,24c-1.5,13.4,0.7,21.6,0.7,21.6c-0.1,0.6-0.7,1.1-1.4,1
	c-1.7,0-1.5-1-1.5-1s-1.9-12.9,0.5-25c1.8-8.8,4.8-22.7,4.8-22.7L145.7,257.6z"/>
<path id="Path_6271" class="st24" d="M136.5,252.7c0.4-1.8,2.2-1.9,3.9-1.5c-2.2-2.8-3.5-6.6,0.5-8.6c4.3-2.1,6.7,2.7,7.6,6.7
	c1.1-1.5,6.5-7.1,8.5-4.7c1.8,2.2-2,6-4.6,8.1c2.8,0,6.8,0.7,7.3,3.1c0.6,2.9-4.7,2.3-7.2,1.9c0.8,2.2,1.6,5.6-0.5,6.7
	c-2.2,1.2-4.2-1.6-5.3-3.7c-0.7,2-3.4,5-4.7,4.4c-3-1.4-2.1-5-0.8-7.4C139,256.9,136,255.2,136.5,252.7z"/>
<path id="Path_6272" class="st25" d="M145.7,252.6c1.4-0.6,2.8,1.2,2.6,2.2s-1.1,1.6-2.1,1.5c-0.3,0-0.5-0.2-0.7-0.3
	C144.5,255.2,144.5,253.1,145.7,252.6z"/>
<path id="Path_6273" class="st14" d="M139.9,298.4c0,0,1.5-14.2-2.5-23.6s-6.7-17.2-6.7-17.2s1.1,8.4,2.4,15.1
	C134.4,279.4,137.4,293.7,139.9,298.4z"/>
<path id="Path_6274" class="st11" d="M171.9,260c0,0-2.2,6.6-4.1,24c-1.5,13.4,0.7,21.6,0.7,21.6c-0.1,0.6-0.7,1.1-1.4,1
	c-1.7,0-1.5-1-1.5-1s-1.9-12.9,0.5-25c1.8-8.8,4.8-22.7,4.8-22.7L171.9,260z"/>
<path id="Path_6275" class="st24" d="M162.7,255.1c0.4-1.8,2.2-1.9,3.9-1.5c-2.2-2.8-3.5-6.6,0.5-8.6c4.3-2.1,6.7,2.7,7.6,6.7
	c1.1-1.5,6.5-7.1,8.5-4.7c1.8,2.2-2,6-4.6,8.1c2.8,0,6.8,0.7,7.3,3.1c0.6,2.9-4.7,2.3-7.2,1.9c0.8,2.2,1.6,5.6-0.5,6.7
	c-2.2,1.2-4.2-1.6-5.3-3.7c-0.7,2-3.3,5-4.7,4.4c-3-1.4-2.1-5-0.7-7.4C165.2,259.2,162.2,257.5,162.7,255.1z"/>
<path id="Path_6276" class="st25" d="M171.9,255c1.4-0.6,2.8,1.2,2.6,2.2s-1.1,1.6-2.1,1.5c-0.3,0-0.5-0.2-0.7-0.3
	C170.7,257.6,170.6,255.5,171.9,255z"/>
<path id="Path_6277" class="st14" d="M166.1,300.8c0,0,1.5-14.2-2.5-23.6s-6.7-17.2-6.7-17.2s1.1,8.4,2.4,15.1
	C160.6,281.8,163.6,296.1,166.1,300.8z"/>
<path id="Path_6278" class="st11" d="M146.1,266.5c0,0,2.2,6.6,4.1,24c1.5,13.4-0.6,21.6-0.6,21.6c0.1,0.6,0.7,1.1,1.4,1
	c1.7,0,1.5-1,1.5-1s1.9-12.9-0.5-25c-1.8-8.8-4.8-22.7-4.8-22.7L146.1,266.5z"/>
<path id="Path_6279" class="st26" d="M155.2,261.6c-0.4-1.8-2.2-1.9-3.9-1.5c2.2-2.8,3.5-6.6-0.5-8.6c-4.3-2.1-6.7,2.7-7.6,6.7
	c-1.1-1.5-6.5-7.1-8.5-4.7c-1.8,2.2,2,6,4.6,8.1c-2.8,0-6.8,0.7-7.3,3.1c-0.6,2.9,4.7,2.3,7.2,1.9c-0.8,2.2-1.6,5.6,0.5,6.7
	c2.2,1.2,4.2-1.6,5.3-3.7c0.7,2,3.3,5,4.7,4.4c3-1.4,2.1-5,0.8-7.4C152.7,265.8,155.7,264.1,155.2,261.6z"/>
<path id="Path_6280" class="st25" d="M146.1,261.5c-1.4-0.6-2.8,1.2-2.6,2.2s1.1,1.6,2.1,1.5c0.3,0,0.5-0.2,0.7-0.3
	C147.2,264.1,147.3,262.1,146.1,261.5z"/>
<path id="Path_6281" class="st14" d="M151.9,307.4c0,0-1.5-14.2,2.5-23.6s6.7-17.2,6.7-17.2s-1.1,8.4-2.4,15.1
	S154.3,302.6,151.9,307.4z"/>
<path id="Path_6282" class="st27" d="M358.3,211.5L230.5,137v12.5L358.3,224V211.5z"/>
<path id="Path_6283" class="st15" d="M323.7,244.1l34.6-20v-12.5l-34.6,20V244.1z"/>
<path id="Path_6284" class="st17" d="M196.1,169.5l34.6-20V137l-34.6,20V169.5z"/>
<path id="Path_6285" class="st16" d="M323.7,231.5L195.9,157v12.5L323.7,244V231.5z"/>
<path id="Path_6286" class="st18" d="M195.9,157l34.8-20l127.6,74.5l-34.6,20L195.9,157z"/>
<path id="Path_6287" class="st15" d="M351.4,213.8l3.8-2.2l-124.6-72.9L198.9,157l3.9,2.3l27.9-16.1L351.4,213.8z"/>
<path id="Path_6288" class="st17" d="M351.4,213.8l-120.8-70.6l-27.8,16.1l120.9,70.6L351.4,213.8z"/>
<path id="Path_6289" class="st19" d="M322.4,202.9c0,2.8-4.1,5.1-9.1,5.1s-9.1-2.3-9.1-5.1s4.1-5.1,9.1-5.1S322.4,200,322.4,202.9z"
	/>
<path id="Path_6290" class="st19" d="M334,221c0,2.8-4.1,5.1-9.1,5.1s-9.1-2.3-9.1-5.1s4.1-5.1,9.1-5.1
	C329.9,215.8,334,218.1,334,221z"/>
<path id="Path_6291" class="st19" d="M274.1,180.1c0,2.8-4.1,5.1-9.1,5.1s-9.1-2.3-9.1-5.1s4.1-5.1,9.1-5.1S274.1,177.2,274.1,180.1
	z"/>
<path id="Path_6292" class="st19" d="M246.3,171.6c0,2.5-3.7,4.6-8.2,4.6s-8.2-2.1-8.2-4.6s3.7-4.6,8.2-4.6
	C242.7,167,246.3,169,246.3,171.6z"/>
<path id="Path_6293" class="st19" d="M253.4,175.9c0,1.1-1.6,2-3.5,2s-3.5-0.9-3.5-2s1.6-2,3.5-2
	C251.8,173.9,253.4,174.8,253.4,175.9z"/>
<path id="Path_6294" class="st19" d="M301.5,192.3c0,1.1-1.6,2-3.5,2s-3.5-0.9-3.5-2s1.6-2,3.5-2S301.5,191.2,301.5,192.3z"/>
<path id="Path_6295" class="st19" d="M221.2,159.6c0,0.8-1.1,1.4-2.6,1.4s-2.6-0.6-2.6-1.4c0-0.8,1.1-1.4,2.6-1.4
	C220.1,158.2,221.2,158.8,221.2,159.6z"/>
<path id="Path_6296" class="st19" d="M261.5,168.1c0,0.8-1.1,1.4-2.6,1.4c-1.4,0-2.6-0.6-2.6-1.4c0-0.8,1.1-1.4,2.6-1.4
	S261.5,167.4,261.5,168.1z"/>
<path id="Path_6297" class="st19" d="M298.9,199.1c0,0.8-1.1,1.4-2.6,1.4s-2.6-0.6-2.6-1.4s1.1-1.4,2.6-1.4S298.9,198.4,298.9,199.1
	z"/>
<path id="Path_6298" class="st19" d="M332.9,211.5c0,0.8-1.1,1.4-2.6,1.4s-2.5-0.6-2.5-1.4c0-0.8,1.1-1.4,2.6-1.4
	S332.9,210.7,332.9,211.5z"/>
<path id="Path_6299" class="st19" d="M309.2,213c0,0.8-1.1,1.4-2.6,1.4s-2.6-0.6-2.6-1.4s1.1-1.4,2.6-1.4S309.2,212.2,309.2,213z"/>
<path id="Path_6300" class="st19" d="M229.7,152.6c0,0.6-0.8,1-1.9,1c-1,0-1.9-0.5-1.9-1c0-0.6,0.8-1,1.9-1
	C228.9,151.5,229.7,152,229.7,152.6z"/>
<path id="Path_6301" class="st19" d="M284.8,184.3c0,0.6-0.8,1-1.9,1c-1,0-1.9-0.5-1.9-1s0.8-1,1.9-1
	C284,183.2,284.8,183.7,284.8,184.3z"/>
<path id="Path_6302" class="st19" d="M282.5,198.1c0,0.6-0.8,1-1.9,1c-1,0-1.9-0.5-1.9-1s0.8-1,1.9-1S282.5,197.5,282.5,198.1z"/>
<path id="Path_6303" class="st19" d="M235.9,161.1c0,0.6-0.8,1-1.9,1c-1,0-1.9-0.5-1.9-1s0.8-1,1.9-1
	C235.1,160,235.9,160.5,235.9,161.1z"/>
<path id="Path_6304" class="st19" d="M340.1,215.8c0,0.6-0.8,1-1.9,1c-1,0-1.9-0.5-1.9-1c0-0.6,0.8-1,1.9-1
	C339.2,214.8,340.1,215.2,340.1,215.8z"/>
<path id="Path_6305" class="st11" d="M246.9,104.3c0,0,1.1,6,0,10.3s-3,3-2.7,5.1s2.2,3.7,1.9,5.3c-0.6,3.9-3.3,2.9-3.2,4.3
	c0.1,1.5,2,1.8,0.2,6.2c-1.3,2.9-3.2,5.5-5.6,7.5v-2.1c0,0,3.7-5.9,3.4-8.1c-0.3-2.2-2.4-7.7-1.6-15.2S246.9,104.3,246.9,104.3z"/>
<path id="Path_6306" class="st14" d="M212.6,119.8c2.5-2,8.4-1.4,13.5,1.5s4.2,7.7,6.6,10.7c2.2,2.7,3.6,7,4.6,11.4
	c-0.1,0.2-0.2,0.4-0.2,0.6c-0.1,2.3-0.3,4.7-0.5,7c-1.3-3.6-1.3-12.5-4.9-12.8c-4.8-0.3-4.9-3.4-7.5-6.3c-2.7-2.8-3,1.3-5.7-2
	s-1.5-5.8-3.4-6.7c-2-0.8-5.8,1.9-5.8,1.9C209.8,123.1,211,121.2,212.6,119.8z"/>
<path id="Path_6307" class="st11" d="M230.3,133.2c-0.1-0.1-1-7-3.4-8.9s-7.3-4.3-10-4.2c-1.4,0-2.8,0.5-3.8,1.5c0,0,1.7-1,4.9-0.3
	c2.9,0.5,5.6,1.7,7.9,3.5C228.1,126.7,230.3,133.2,230.3,133.2z"/>
<path id="Path_6308" class="st11" d="M237.4,171.8c0,0,1.5-40.2,0.6-50c-1-10.9-3.1-14.2-8.6-18.2c-2.6-1.8-5.5-3.3-8.5-4.3l-0.5,4
	c3.5,1.1,6.7,2.8,9.6,5c5.1,3.8,5.8,9.7,5.9,20.3s-1.1,43.2-1.1,43.2S235.4,173.5,237.4,171.8z"/>
<path id="Path_6309" class="st13" d="M237.9,85.9c-1.5,2.4-3.4,4.4-5.6,6.1c-3.8,3.1-7,3.3-7,3.3l-0.9-4.3c1.5-1.7,3.4-2.9,5.5-3.7
	C232.4,86.4,235.1,85.9,237.9,85.9z"/>
<path id="Path_6310" class="st13" d="M226.9,76.6c0.7,2.4,0.7,5,0.1,7.4c-0.7,2-1.5,3.9-2.6,5.8l-3.6-0.9c0.8-2.3,1.7-4.5,2.9-6.6
	C225.4,79.1,226.9,76.6,226.9,76.6z"/>
<path id="Path_6311" class="st13" d="M213.7,76.6c2.2,1.3,4,3.1,5.2,5.3c0.9,1.9,1.6,3.9,2.1,6l-3.2,1.9c-1-2.2-1.9-4.4-2.5-6.8
	C214.4,79.5,213.7,76.6,213.7,76.6z"/>
<path id="Path_6312" class="st13" d="M237.7,99.2c0,0-2.6-2.6-5.5-2.7c-1.5-0.1-3,0.1-4.5,0.4l-1.8,2.9c1.1,1.4,3,2,4.7,1.6
	C233,100.9,235.4,100.1,237.7,99.2z"/>
<path id="Path_6313" class="st13" d="M232.9,110.1c-1.2-2.4-2.6-4.6-4.3-6.6l-2.1-2.3l-2.4,2.4c0,0,1.1,3,3.1,4.2
	C229,108.7,230.9,109.5,232.9,110.1z"/>
<path id="Path_6314" class="st13" d="M224.3,106.2c0.6,1.7,1,3.5,1.1,5.3c-0.1,1.7-0.8,3.3-1.8,4.6c-0.7-1.5-1.2-3.1-1.7-4.7
	c-0.4-1.8-1.4-4.4-1.4-4.4L224.3,106.2z"/>
<path id="Path_6315" class="st13" d="M220.7,106.7c-0.4,1.8-1.1,3.5-2,5c-1.3,1.9-2.8,3.8-2.8,3.8s-0.7-4.1-0.1-5.8s1.4-4.4,1.4-4.4
	L220.7,106.7z"/>
<path id="Path_6316" class="st13" d="M216.7,104.5c0,0,0.9,1-1.7,4s-5.3,1.9-5.3,1.9c1.2-1.4,2.2-2.9,3-4.5c0.5-1.2,1.2-2.2,2.2-3
	L216.7,104.5z"/>
<path id="Path_6317" class="st13" d="M216.5,90.5c-0.9-1.6-2.3-2.8-4.1-3.2c-2-0.6-4-0.9-6-1c0.9,1.5,2.1,2.7,3.5,3.7
	c2.2,1.5,4.6,3,4.6,3L216.5,90.5z"/>
<path id="Path_6318" class="st13" d="M214,95.2c-1.5-0.8-3.2-1.3-5-1.5c-2.9-0.3-3.7,1.4-3.7,1.4s2.7,2.2,4.6,2.6c2,0.3,4,0.8,4,0.8
	L214,95.2z"/>
<path id="Path_6319" class="st13" d="M214.6,99.3c0,0-1.3-0.8-4,1.4c-1.5,1.2-2.7,2.8-3.5,4.7c1.7,0,3.3-0.4,4.7-1.3
	c1-0.8,2.1-1.4,3.3-1.8L214.6,99.3z"/>
<path id="Path_6320" class="st12" d="M233.9,79.5c-0.5,2.7-1.5,5.4-2.9,7.8c-2.4,4.3-5.2,5.7-5.2,5.7l-2.5-3.6c0.8-2.1,2-4,3.7-5.5
	C229.1,82.2,231.4,80.7,233.9,79.5z"/>
<path id="Path_6321" class="st12" d="M222.3,75.2c1.2,2.2,1.8,4.7,1.8,7.2c-0.2,2.1-0.6,4.2-1.2,6.2h-3.7c0.2-2.4,0.6-4.8,1.3-7.1
	C221.4,78,222.3,75.2,222.3,75.2z"/>
<path id="Path_6322" class="st12" d="M236.6,91.3c0,0-3.6-0.8-6.1,0.7c-1.3,0.8-2.5,1.7-3.6,2.8v3.4c1.7,0.5,3.6,0.1,4.8-1.2
	C233.5,95.3,235.1,93.4,236.6,91.3z"/>
<path id="Path_6323" class="st12" d="M235.6,105.2c-2-1.7-4.2-3.3-6.5-4.5l-2.8-1.3l-1.3,3.1c0,0,2.2,2.4,4.5,2.7
	C231.5,105.3,233.6,105.3,235.6,105.2z"/>
<path id="Path_6324" class="st12" d="M225.3,104c1.3,1.3,2.4,2.7,3.3,4.3c0.6,1.6,0.7,3.3,0.3,5c-1.3-1.1-2.4-2.3-3.5-3.5
	c-1.1-1.4-3.1-3.5-3.1-3.5L225.3,104z"/>
<path id="Path_6325" class="st12" d="M221.9,106.7c-0.4,0.3,0.8,2.1,0,4.9c-0.6,1.8-1.6,3.3-3.1,4.5c-0.2-1.8-0.2-3.7,0-5.5
	c0.2-1.3,0.2-2.6,0-3.9H221.9z"/>
<path id="Path_6326" class="st12" d="M217.9,106.5c0,0-1.2,2.2-2.1,4.2c-0.6,1.4-1.1,2.9-1.5,4.3c0,0-2.4-2.8-0.9-6
	c0.5-1.3,1.2-2.6,2-3.7L217.9,106.5z"/>
<path id="Path_6327" class="st12" d="M215.1,104.3c0,0,0.4,1.3-3,3.2s-5.7,0-5.7,0c1.6-0.9,3-2,4.3-3.2c0.8-0.9,1.9-1.7,3.1-2.1
	L215.1,104.3z"/>
<path id="Path_6328" class="st12" d="M218.2,89.8c-0.3-1.8-1.2-3.4-2.7-4.4c-1.7-1.2-3.4-2.2-5.3-3.1c0.3,1.7,1,3.3,2,4.7
	c1.6,2.2,3.3,4.4,3.3,4.4L218.2,89.8z"/>
<path id="Path_6329" class="st12" d="M214.9,93c-1.2-1.3-2.6-2.4-4.2-3.1c-2.6-1.2-3.9,0-3.9,0s1.7,3,3.5,4s3.5,2.1,3.5,2.1
	L214.9,93z"/>
<path id="Path_6330" class="st12" d="M214.7,97.9c0,0-0.9-1.2-4.2,0c-1.9,0.6-3.5,1.7-4.9,3.2c1.6,0.6,3.2,0.7,4.9,0.4
	c1.2-0.4,2.4-0.6,3.7-0.5L214.7,97.9z"/>
<path id="Path_6331" class="st17" d="M213.3,96.8c-0.8,5.3,1.7,10.1,5.6,10.7s7.8-3.2,8.6-8.6c0.8-5.3-1.7-10.1-5.6-10.7
	S214.1,91.5,213.3,96.8z"/>
<path id="Path_6332" class="st28" d="M214,96.9c-0.7,4.3,1.4,8.3,4.6,8.8s6.4-2.6,7-7c0.7-4.4-1.4-8.3-4.6-8.8S214.7,92.6,214,96.9z
	"/>
<path id="Path_6333" class="st17" d="M223.3,97.8c0,0,2.1-0.9,1.7,0.6C224.7,99.5,223.3,97.8,223.3,97.8z"/>
<path id="Path_6334" class="st17" d="M220.2,97c0,0,2.1-0.9,1.7,0.6C221.6,98.6,220.2,97,220.2,97z"/>
<path id="Path_6335" class="st17" d="M221.9,100.7c0,0,2.2,0.4,1,1.4C222.1,102.9,221.9,100.7,221.9,100.7z"/>
<path id="Path_6336" class="st17" d="M220.3,99.3c0,0,1.9,1.1,0.5,1.7C219.8,101.4,220.3,99.3,220.3,99.3z"/>
<path id="Path_6337" class="st17" d="M221.4,98.6c0,0,1.4-0.2,1.9,0.1c0.5,0.4,0.3,1.3-0.4,1C222.4,99.4,221.9,99,221.4,98.6z"/>
<path id="Path_6338" class="st17" d="M220.8,93.4c0,0-0.1-1.4,0.3-1.9c0.4-0.5,1.4-0.1,0.9,0.5C221.6,92.5,221.2,93,220.8,93.4z"/>
<path id="Path_6339" class="st17" d="M221.2,102c0,0,0.6,1.3,0.4,1.9c-0.2,0.6-1.2,0.6-1.1-0.1C220.7,103.1,220.9,102.5,221.2,102z"
	/>
<path id="Path_6340" class="st17" d="M222.8,96.3c0,0,1.3,0.4,1.8,0.1s0.3-1.1-0.3-1C223.7,95.6,223.2,95.9,222.8,96.3z"/>
<path id="Path_6341" class="st17" d="M222.1,94.3c0,0,1.3-0.2,1.6-0.7s-0.2-1.2-0.7-0.8C222.6,93.2,222.3,93.7,222.1,94.3z"/>
<path id="Path_6342" class="st17" d="M220.5,95.9c0,0,1.3,0.4,1.8,0.1s0.3-1.1-0.2-1C221.4,95.2,220.9,95.5,220.5,95.9z"/>
<path id="Path_6343" class="st17" d="M219.2,93c0,0,0.6-1.2,0.4-1.8s-1.1-0.5-1.1,0.1C218.7,91.9,218.9,92.5,219.2,93z"/>
<path id="Path_6344" class="st17" d="M218.2,94.3c-0.2-0.6-0.4-1.1-0.8-1.5c-0.5-0.4-1,0.3-0.5,0.7C217.3,93.8,217.7,94,218.2,94.3z
	"/>
<path id="Path_6345" class="st17" d="M216,96.3c-0.6-0.5-1.4,0.5-0.5,0.7s1.6,0.2,1.6,0.2L216,96.3z"/>
<path id="Path_6346" class="st17" d="M218.1,96.1c-0.6-0.5-1.4,0.5-0.5,0.7s1.6,0.2,1.6,0.2L218.1,96.1z"/>
<path id="Path_6347" class="st17" d="M215.2,98.3c-0.8-0.1-0.8,1.2,0,0.8s1.4-0.7,1.4-0.7L215.2,98.3z"/>
<path id="Path_6348" class="st17" d="M219.8,96c0.3-0.4,0.4-0.9,0.4-1.4c0-0.3-0.2-0.5-0.5-0.5s-0.5,0.2-0.5,0.5c0,0.1,0,0.1,0,0.2
	C219.3,95.2,219.5,95.6,219.8,96z"/>
<path id="Path_6349" class="st17" d="M219.3,100.4c0,0.2,0.7,1.3,0.3,1.9s-0.8,0.2-0.8-0.1C219,101.6,219.1,101,219.3,100.4z"/>
<path id="Path_6350" class="st17" d="M219.3,97.8c0.2,0.4,0.3,0.9,0.2,1.3c-0.2,0.6-1,0.7-0.8,0.1C218.8,98.7,219,98.3,219.3,97.8z"
	/>
<path id="Path_6351" class="st17" d="M217.9,98.3c-0.1,0.5-0.3,1-0.6,1.4c-0.5,0.5-1.2,0.6-0.8-0.2C216.9,99,217.3,98.5,217.9,98.3z
	"/>
<path id="Path_6352" class="st17" d="M218.3,101.8c-0.1,0.5-1,0.6-0.8-0.1c0.2-0.6,0.6-1.1,1.1-1.4L218.3,101.8z"/>
<path id="Path_6353" class="st17" d="M218.9,103.1c0.2,0.3,0.4,0.8,0.3,1.2c-0.1,0.7-0.5,0.5-0.7,0S218.9,103.1,218.9,103.1z"/>
<path id="Path_6354" class="st17" d="M216.9,101.4c0.1,0.4,0,0.8-0.3,1.2c-0.4,0.6-0.7,0.2-0.6-0.3S216.9,101.4,216.9,101.4z"/>
<path id="Path_6355" class="st17" d="M216.9,95.3c-0.4,0-0.8-0.2-1.1-0.4c-0.6-0.5-0.1-0.7,0.4-0.6
	C216.7,94.4,216.9,95.3,216.9,95.3z"/>
<path id="Path_6356" class="st14" d="M259.1,128.6c0,0-6.9,3.2-10.6,7s-7.1,13.6-7.6,17.2c-0.5,3.6-1.8,19.6-1.8,19.6s2.1,1,2.6-0.8
	s0-14.4,0.6-18.5c0.6-4.2,9-9.4,12.4-12.4C258.5,137.4,259.1,128.6,259.1,128.6z"/>
<path id="Path_6357" class="st14" d="M256.6,112.2c0,0-1.1,6,0,10.3s3.1,3,2.7,5.1c-0.3,2.1-2.2,3.7-1.9,5.3
	c0.6,3.9,3.3,2.9,3.2,4.3c-0.1,1.5-2,1.8-0.2,6.2c1.3,2.9,3.2,5.5,5.6,7.5v-2.1c0,0-3.7-5.9-3.4-8.1s2.4-7.7,1.6-15.2
	C263.5,117.9,256.6,112.2,256.6,112.2z"/>
<path id="Path_6358" class="st14" d="M290.9,127.8c-2.5-2-8.4-1.4-13.5,1.5c-5.1,2.9-4.2,7.7-6.6,10.7c-2.2,2.7-3.6,7-4.6,11.4
	c0.1,0.2,0.2,0.4,0.2,0.6c0.1,2.3,0.3,4.7,0.5,7c1.3-3.6,1.3-12.5,4.9-12.8c4.8-0.3,4.9-3.5,7.5-6.3s3,1.3,5.7-2
	c2.6-3.3,1.5-5.8,3.4-6.7c2-0.8,5.8,1.9,5.8,1.9C293.6,131.1,292.5,129.2,290.9,127.8z"/>
<path id="Path_6359" class="st11" d="M273.2,141.1c0.1-0.1,1-7,3.4-8.9s7.3-4.3,10-4.2c1.4,0,2.8,0.5,3.8,1.5c0,0-1.7-1-4.9-0.3
	c-2.9,0.5-5.6,1.7-7.9,3.5C275.3,134.6,273.2,141.1,273.2,141.1z"/>
<path id="Path_6360" class="st11" d="M266.1,179.7c0,0-1.5-40.2-0.6-50c1-10.9,3.1-14.2,8.6-18.2c2.6-1.8,5.5-3.3,8.5-4.3l0.5,4
	c-3.5,1.1-6.7,2.8-9.6,5c-5.1,3.8-5.8,9.7-5.9,20.3s1.1,43.2,1.1,43.2S268.1,181.5,266.1,179.7z"/>
<path id="Path_6361" class="st13" d="M265.6,93.8c1.5,2.4,3.4,4.4,5.6,6.2c3.9,3.1,7,3.3,7,3.3l0.9-4.3c-1.5-1.7-3.4-2.9-5.5-3.7
	C271,94.4,268.3,93.9,265.6,93.8z"/>
<path id="Path_6362" class="st13" d="M276.6,84.6c-0.7,2.4-0.7,5-0.1,7.4c0.7,2,1.5,3.9,2.6,5.8l3.6-0.9c-0.8-2.3-1.7-4.5-2.9-6.6
	C278.1,87.1,276.6,84.6,276.6,84.6z"/>
<path id="Path_6363" class="st29" d="M289.8,84.6"/>
<path id="Path_6364" class="st13" d="M284.6,89.9c-0.9,1.9-1.6,3.9-2.1,6l3.2,1.9c1-2.2,1.9-4.4,2.5-6.8c0.9-3.5,1.6-6.4,1.6-6.4
	C287.6,85.9,285.8,87.7,284.6,89.9z"/>
<path id="Path_6365" class="st13" d="M265.8,107.2c0,0,2.6-2.6,5.5-2.7c1.5-0.1,3,0.1,4.5,0.4l1.8,2.9c-1.1,1.4-3,2-4.7,1.6
	C270.5,108.8,268.1,108.1,265.8,107.2z"/>
<path id="Path_6366" class="st13" d="M270.6,118.1c1.2-2.4,2.6-4.6,4.3-6.6l2.1-2.3l2.4,2.4c0,0-1.1,3-3.1,4.2
	C274.5,116.7,272.6,117.5,270.6,118.1z"/>
<path id="Path_6367" class="st13" d="M279.2,114.1c-0.6,1.7-1,3.5-1.1,5.3c0.1,1.7,0.8,3.3,1.8,4.6c0.7-1.5,1.3-3.1,1.7-4.7
	c0.4-1.8,1.4-4.4,1.4-4.4L279.2,114.1z"/>
<path id="Path_6368" class="st13" d="M282.7,114.7c0.4,1.8,1.1,3.5,2,5c1.3,1.9,2.8,3.8,2.8,3.8s0.7-4.1,0.1-5.8
	c-0.6-1.7-1.3-4.4-1.3-4.4L282.7,114.7z"/>
<path id="Path_6369" class="st13" d="M286.7,112.5c0,0-0.9,1,1.7,4c2.5,3,5.3,1.9,5.3,1.9c-1.2-1.4-2.2-2.9-3-4.5
	c-0.5-1.2-1.2-2.2-2.2-3L286.7,112.5z"/>
<path id="Path_6370" class="st13" d="M287,98.5c0.9-1.6,2.3-2.8,4.1-3.2c2-0.6,4-0.9,6-1c-0.9,1.5-2.1,2.7-3.5,3.7
	c-2.2,1.5-4.6,3-4.6,3L287,98.5z"/>
<path id="Path_6371" class="st13" d="M289.5,103.2c1.5-0.8,3.2-1.3,5-1.5c2.9-0.3,3.7,1.4,3.7,1.4s-2.7,2.2-4.6,2.6s-4,0.8-4,0.8
	L289.5,103.2z"/>
<path id="Path_6372" class="st13" d="M288.9,107.3c0,0,1.3-0.8,4,1.5c1.5,1.2,2.7,2.8,3.5,4.7c-1.7,0-3.3-0.4-4.7-1.3
	c-1-0.8-2.1-1.4-3.3-1.8L288.9,107.3z"/>
<path id="Path_6373" class="st12" d="M269.5,87.5c0.5,2.7,1.5,5.4,2.9,7.8c2.4,4.3,5.2,5.7,5.2,5.7l2.5-3.6c-0.8-2.1-2-4-3.7-5.5
	C274.4,90.1,272,88.7,269.5,87.5z"/>
<path id="Path_6374" class="st12" d="M281.2,83.1c-1.2,2.2-1.8,4.7-1.8,7.2c0.2,2.1,0.6,4.2,1.2,6.2h3.7c-0.2-2.4-0.6-4.8-1.3-7.1
	C282,85.9,281.2,83.1,281.2,83.1z"/>
<path id="Path_6375" class="st12" d="M266.9,99.3c0,0,3.6-0.8,6.1,0.7c1.3,0.8,2.5,1.7,3.6,2.8v3.4c-1.7,0.5-3.6,0.1-4.8-1.2
	C270,103.3,268.3,101.3,266.9,99.3z"/>
<path id="Path_6376" class="st12" d="M267.8,113.2c2-1.7,4.2-3.3,6.5-4.5l2.8-1.3l1.3,3.1c0,0-2.2,2.4-4.5,2.7
	C272,113.3,269.9,113.3,267.8,113.2z"/>
<path id="Path_6377" class="st12" d="M278.2,112c-1.3,1.3-2.4,2.7-3.3,4.3c-0.6,1.6-0.7,3.3-0.3,5c1.3-1.1,2.4-2.3,3.5-3.5
	c1.1-1.4,3.1-3.5,3.1-3.5L278.2,112z"/>
<path id="Path_6378" class="st12" d="M281.6,114.7c0.4,0.3-0.8,2.1,0,4.9c0.6,1.8,1.6,3.3,3.1,4.5c0.2-1.8,0.2-3.7,0-5.5
	c-0.2-1.3-0.2-2.6,0-3.9H281.6z"/>
<path id="Path_6379" class="st12" d="M285.5,114.5c0,0,1.2,2.2,2.1,4.2c0.6,1.4,1.1,2.9,1.5,4.3c0,0,2.4-2.8,0.9-6
	c-0.5-1.3-1.2-2.6-2-3.7L285.5,114.5z"/>
<path id="Path_6380" class="st12" d="M288.4,112.3c0,0-0.4,1.3,3,3.2s5.7,0,5.7,0c-1.6-0.9-3-2-4.3-3.2c-0.8-0.9-1.9-1.7-3.1-2.1
	L288.4,112.3z"/>
<path id="Path_6381" class="st12" d="M285.3,97.8c0.2-1.8,1.2-3.4,2.7-4.4c1.7-1.2,3.4-2.2,5.3-3.1c-0.3,1.7-1,3.3-2,4.7
	c-1.6,2.2-3.3,4.4-3.3,4.4L285.3,97.8z"/>
<path id="Path_6382" class="st12" d="M288.6,101c1.2-1.3,2.6-2.4,4.2-3.1c2.6-1.2,3.9,0,3.9,0s-1.7,3-3.5,4s-3.5,2.1-3.5,2.1
	L288.6,101z"/>
<path id="Path_6383" class="st12" d="M288.8,105.8c0,0,0.9-1.2,4.2,0c1.9,0.6,3.5,1.7,4.9,3.2c-1.6,0.6-3.2,0.7-4.9,0.4
	c-1.2-0.4-2.4-0.6-3.7-0.5L288.8,105.8z"/>
<path id="Path_6384" class="st17" d="M290.2,104.8c0.8,5.3-1.7,10.1-5.6,10.7s-7.8-3.2-8.6-8.6s1.7-10.1,5.6-10.7
	C285.5,95.6,289.3,99.5,290.2,104.8z"/>
<path id="Path_6385" class="st28" d="M289.5,104.9c0.7,4.4-1.4,8.3-4.6,8.8s-6.4-2.6-7-7c-0.7-4.4,1.4-8.3,4.6-8.8
	S288.8,100.6,289.5,104.9z"/>
<path id="Path_6386" class="st17" d="M280.1,105.8c0,0-2.1-0.9-1.7,0.6C278.7,107.5,280.1,105.8,280.1,105.8z"/>
<path id="Path_6387" class="st17" d="M283.3,105c0,0-2.1-0.9-1.7,0.6C281.9,106.6,283.3,105,283.3,105z"/>
<path id="Path_6388" class="st17" d="M281.5,108.7c0,0-2.2,0.4-1,1.4C281.3,110.8,281.5,108.7,281.5,108.7z"/>
<path id="Path_6389" class="st17" d="M283.2,107.3c0,0-2,1.1-0.5,1.7C283.7,109.4,283.2,107.3,283.2,107.3z"/>
<path id="Path_6390" class="st17" d="M282,106.6c0,0-1.4-0.2-1.9,0.1c-0.5,0.4-0.3,1.3,0.4,1C281,107.4,281.6,107,282,106.6z"/>
<path id="Path_6391" class="st17" d="M282.7,101.4c0,0,0.1-1.4-0.3-1.9s-1.4-0.1-1,0.5C281.8,100.5,282.3,101,282.7,101.4z"/>
<path id="Path_6392" class="st17" d="M282.3,109.9c0,0-0.6,1.3-0.4,1.9s1.2,0.6,1-0.1C282.8,111.1,282.5,110.5,282.3,109.9z"/>
<path id="Path_6393" class="st17" d="M280.7,104.3c0,0-1.3,0.4-1.8,0.1s-0.3-1.1,0.3-1C279.7,103.6,280.3,103.9,280.7,104.3z"/>
<path id="Path_6394" class="st17" d="M281.4,102.2c0,0-1.3-0.2-1.6-0.7s0.2-1.2,0.7-0.8C280.9,101.2,281.2,101.7,281.4,102.2z"/>
<path id="Path_6395" class="st17" d="M283,103.9c0,0-1.3,0.4-1.8,0.1s-0.4-1.1,0.2-1C282,103.2,282.6,103.5,283,103.9z"/>
<path id="Path_6396" class="st17" d="M284.2,101c0,0-0.6-1.2-0.4-1.8s1.1-0.5,1.1,0.1C284.8,99.9,284.6,100.5,284.2,101z"/>
<path id="Path_6397" class="st17" d="M285.3,102.2c0.2-0.6,0.4-1.1,0.8-1.5c0.5-0.4,1,0.3,0.5,0.7
	C286.2,101.7,285.8,102,285.3,102.2z"/>
<path id="Path_6398" class="st17" d="M287.4,104.3c0.6-0.5,1.4,0.5,0.5,0.7s-1.6,0.2-1.6,0.2L287.4,104.3z"/>
<path id="Path_6399" class="st17" d="M285.4,104.1c0.6-0.5,1.4,0.5,0.5,0.7s-1.6,0.2-1.6,0.2L285.4,104.1z"/>
<path id="Path_6400" class="st17" d="M288.3,106.3c0.8-0.1,0.8,1.2,0,0.8s-1.4-0.7-1.4-0.7L288.3,106.3z"/>
<path id="Path_6401" class="st17" d="M283.7,103.9c-0.3-0.4-0.4-0.9-0.4-1.4c0-0.3,0.2-0.5,0.5-0.5s0.5,0.2,0.5,0.5
	c0,0.1,0,0.1,0,0.2C284.2,103.2,284,103.6,283.7,103.9z"/>
<path id="Path_6402" class="st17" d="M284.1,108.4c0,0.2-0.7,1.3-0.3,1.9c0.4,0.6,0.8,0.2,0.8-0.1
	C284.5,109.6,284.3,109,284.1,108.4z"/>
<path id="Path_6403" class="st17" d="M284.2,105.8c-0.2,0.4-0.3,0.9-0.2,1.3c0.2,0.6,1,0.7,0.8,0.1
	C284.7,106.7,284.4,106.2,284.2,105.8z"/>
<path id="Path_6404" class="st17" d="M285.5,106.3c0.1,0.5,0.3,1,0.6,1.4c0.5,0.5,1.2,0.6,0.8-0.2
	C286.6,107,286.1,106.5,285.5,106.3z"/>
<path id="Path_6405" class="st17" d="M285.2,109.8c0.1,0.5,1,0.6,0.8-0.1c-0.2-0.6-0.6-1-1.1-1.4L285.2,109.8z"/>
<path id="Path_6406" class="st17" d="M284.6,111.1c-0.2,0.3-0.4,0.7-0.3,1.2c0.1,0.8,0.5,0.5,0.7,0S284.6,111.1,284.6,111.1z"/>
<path id="Path_6407" class="st17" d="M286.6,109.4c-0.1,0.4,0,0.8,0.3,1.2c0.4,0.6,0.7,0.2,0.6-0.3
	C287.4,109.8,286.6,109.4,286.6,109.4z"/>
<path id="Path_6408" class="st17" d="M286.5,103.3c0.4,0,0.8-0.2,1.1-0.4c0.6-0.5,0.1-0.7-0.4-0.6
	C286.8,102.4,286.5,103.3,286.5,103.3z"/>
<path id="Path_6409" class="st11" d="M244.3,136.6c0,0,6.9,3.2,10.6,7c3.7,3.8,7.1,13.6,7.6,17.2s1.8,19.6,1.8,19.6s-2.1,1-2.6-0.8
	s0-14.4-0.6-18.5s-9-9.4-12.4-12.4C245,145.3,244.3,136.6,244.3,136.6z"/>
<path id="Path_6410" class="st11" d="M307.4,154.2c0,0-6.9,3.2-10.6,7s-7.1,13.6-7.6,17.2s-1.8,19.6-1.8,19.6s2.1,1,2.6-0.8
	s0-14.4,0.6-18.5c0.6-4.2,9-9.4,12.4-12.4C306.7,162.9,307.4,154.2,307.4,154.2z"/>
<path id="Path_6411" class="st14" d="M268.1,160.1c0,0,6.9,3.2,10.6,7s7.1,13.6,7.6,17.2c0.5,3.6,1.8,19.6,1.8,19.6s-2.1,1-2.6-0.8
	s0-14.4-0.6-18.5s-9-9.4-12.4-12.4C268.7,168.9,268.1,160.1,268.1,160.1z"/>
<path id="Path_6412" class="st11" d="M322.6,135.5c0,0,1.1,6,0,10.3s-3,3-2.7,5.1s2.2,3.7,1.9,5.3c-0.6,3.9-3.3,2.9-3.2,4.3
	c0.1,1.5,2,1.8,0.2,6.2c-1.3,2.9-3.2,5.5-5.6,7.5V172c0,0,3.7-5.9,3.4-8.1c-0.3-2.2-2.4-7.7-1.6-15.2
	C315.7,141.2,322.6,135.5,322.6,135.5z"/>
<path id="Path_6413" class="st14" d="M288.3,151c2.5-2,8.4-1.4,13.5,1.5c5.2,2.8,4.2,7.7,6.6,10.7c2.2,2.7,3.7,7,4.6,11.4
	c-0.1,0.2-0.2,0.4-0.2,0.6c-0.1,2.3-0.3,4.7-0.5,7c-1.3-3.6-1.3-12.5-4.9-12.8c-4.8-0.3-4.9-3.5-7.5-6.3c-2.7-2.8-3,1.3-5.7-2
	c-2.6-3.3-1.5-5.8-3.4-6.7s-5.8,1.9-5.8,1.9C285.6,154.3,286.7,152.4,288.3,151z"/>
<path id="Path_6414" class="st11" d="M306.1,164.4c-0.1-0.1-1-7-3.4-8.9s-7.3-4.3-10-4.2c-1.4,0-2.8,0.5-3.8,1.5c0,0,1.7-1,4.9-0.3
	c2.9,0.5,5.6,1.7,7.9,3.5C303.9,157.9,306.1,164.4,306.1,164.4z"/>
<path id="Path_6415" class="st11" d="M313.1,203c0,0,1.5-40.2,0.6-50c-1-10.9-3.1-14.2-8.6-18.2c-2.6-1.8-5.5-3.3-8.5-4.3l-0.5,4
	c3.5,1.1,6.7,2.8,9.6,5c5.1,3.8,5.8,9.7,5.9,20.3s-1.1,43.2-1.1,43.2S311.1,204.7,313.1,203z"/>
<path id="Path_6416" class="st13" d="M313.6,117c-1.5,2.4-3.4,4.4-5.6,6.2c-3.8,3.1-7,3.3-7,3.3l-0.9-4.3c1.5-1.7,3.4-2.9,5.5-3.7
	C308.2,117.6,310.9,117.1,313.6,117z"/>
<path id="Path_6417" class="st13" d="M302.6,107.8c0.7,2.4,0.7,5,0.1,7.4c-0.7,2-1.5,3.9-2.6,5.8l-3.6-0.9c0.8-2.3,1.7-4.5,2.9-6.6
	C301.2,110.3,302.6,107.8,302.6,107.8z"/>
<path id="Path_6418" class="st13" d="M289.4,107.8c2.2,1.3,4,3.1,5.2,5.3c0.9,1.9,1.6,3.9,2.1,6l-3.2,1.9c-1-2.2-1.9-4.4-2.5-6.8
	C290.1,110.6,289.4,107.8,289.4,107.8z"/>
<path id="Path_6419" class="st13" d="M313.4,130.4c0,0-2.6-2.6-5.5-2.7c-1.5-0.1-3,0.1-4.5,0.4l-1.8,2.9c1.1,1.4,3,2,4.7,1.6
	C308.7,132.1,311.1,131.3,313.4,130.4z"/>
<path id="Path_6420" class="st13" d="M308.6,141.3c-1.2-2.4-2.6-4.6-4.3-6.6l-2.1-2.3l-2.4,2.4c0,0,1.1,3,3.1,4.2
	C304.8,139.9,306.7,140.7,308.6,141.3z"/>
<path id="Path_6421" class="st13" d="M300,137.4c0.6,1.7,1,3.5,1.1,5.3c-0.1,1.7-0.8,3.3-1.8,4.6c-0.7-1.5-1.3-3.1-1.7-4.7
	c-0.4-1.8-1.4-4.4-1.4-4.4L300,137.4z"/>
<path id="Path_6422" class="st13" d="M296.5,137.9c-0.4,1.8-1.1,3.5-2,5c-1.3,1.9-2.8,3.8-2.8,3.8s-0.7-4.1-0.1-5.8s1.3-4.4,1.3-4.4
	L296.5,137.9z"/>
<path id="Path_6423" class="st13" d="M292.5,135.7c0,0,0.8,1-1.7,4s-5.3,1.9-5.3,1.9c1.2-1.4,2.2-2.9,3-4.5c0.5-1.2,1.2-2.2,2.2-3.1
	L292.5,135.7z"/>
<path id="Path_6424" class="st13" d="M292.2,121.7c-0.9-1.6-2.3-2.8-4.1-3.2c-2-0.6-4-0.9-6-1c0.9,1.5,2.1,2.7,3.5,3.7
	c2.2,1.5,4.6,3,4.6,3L292.2,121.7z"/>
<path id="Path_6425" class="st13" d="M289.7,126.4c-1.5-0.8-3.2-1.3-5-1.5c-2.9-0.3-3.7,1.4-3.7,1.4s2.6,2.2,4.6,2.6
	c2,0.3,4,0.8,4,0.8L289.7,126.4z"/>
<path id="Path_6426" class="st13" d="M290.4,130.5c0,0-1.3-0.8-4,1.4c-1.5,1.2-2.7,2.8-3.5,4.7c1.7,0,3.3-0.4,4.7-1.3
	c1-0.8,2.1-1.4,3.2-1.8L290.4,130.5z"/>
<path id="Path_6427" class="st12" d="M309.7,110.7c-0.5,2.7-1.5,5.4-2.9,7.8c-2.4,4.3-5.2,5.7-5.2,5.7l-2.5-3.6c0.8-2.1,2-4,3.7-5.5
	C304.9,113.4,307.2,111.9,309.7,110.7z"/>
<path id="Path_6428" class="st12" d="M298,106.4c1.2,2.2,1.8,4.7,1.8,7.2c-0.2,2.1-0.6,4.2-1.2,6.2h-3.7c0.2-2.4,0.6-4.8,1.3-7.1
	C297.2,109.2,298,106.4,298,106.4z"/>
<path id="Path_6429" class="st12" d="M312.3,122.5c0,0-3.6-0.8-6.1,0.7c-1.3,0.8-2.5,1.7-3.6,2.8v3.4c1.7,0.5,3.6,0.1,4.8-1.2
	C309.3,126.5,310.9,124.6,312.3,122.5z"/>
<path id="Path_6430" class="st12" d="M311.4,136.4c-2-1.7-4.2-3.3-6.5-4.5l-2.8-1.3l-1.3,3.1c0,0,2.2,2.4,4.5,2.7
	C307.3,136.5,309.3,136.5,311.4,136.4z"/>
<path id="Path_6431" class="st12" d="M301,135.2c1.3,1.3,2.4,2.7,3.3,4.3c0.6,1.6,0.7,3.3,0.3,5c-1.3-1.1-2.4-2.3-3.5-3.5
	c-1.1-1.4-3.1-3.5-3.1-3.5L301,135.2z"/>
<path id="Path_6432" class="st12" d="M297.6,137.9c-0.4,0.3,0.8,2.1,0,4.9c-0.6,1.8-1.6,3.3-3.1,4.5c-0.2-1.8-0.2-3.7,0-5.5
	c0.2-1.3,0.2-2.6,0-3.9H297.6z"/>
<path id="Path_6433" class="st12" d="M293.7,137.7c0,0-1.2,2.2-2.1,4.2c-0.6,1.4-1.1,2.9-1.5,4.3c0,0-2.4-2.8-0.9-6
	c0.5-1.3,1.2-2.6,2-3.7L293.7,137.7z"/>
<path id="Path_6434" class="st12" d="M290.9,135.5c0,0,0.4,1.3-3,3.2s-5.7,0-5.7,0c1.6-0.9,3-2,4.3-3.2c0.8-0.9,1.9-1.7,3.1-2.1
	L290.9,135.5z"/>
<path id="Path_6435" class="st12" d="M294,121c-0.2-1.8-1.2-3.4-2.7-4.4c-1.7-1.2-3.4-2.2-5.3-3.1c0.3,1.7,1,3.3,2,4.7
	c1.6,2.2,3.3,4.4,3.3,4.4L294,121z"/>
<path id="Path_6436" class="st12" d="M290.6,124.2c-1.2-1.3-2.6-2.3-4.2-3.1c-2.6-1.2-3.9,0-3.9,0s1.7,3,3.5,4s3.5,2.1,3.5,2.1
	L290.6,124.2z"/>
<path id="Path_6437" class="st12" d="M290.5,129.1c0,0-0.9-1.2-4.2,0c-1.9,0.6-3.5,1.7-4.9,3.2c1.6,0.6,3.2,0.7,4.9,0.4
	c1.2-0.4,2.4-0.6,3.7-0.5L290.5,129.1z"/>
<path id="Path_6438" class="st17" d="M289.1,128c-0.8,5.3,1.7,10.1,5.6,10.7c3.9,0.6,7.8-3.2,8.6-8.6s-1.7-10.1-5.6-10.7
	S289.9,122.7,289.1,128z"/>
<path id="Path_6439" class="st28" d="M289.7,128.1c-0.7,4.4,1.4,8.3,4.6,8.8s6.4-2.6,7-7c0.7-4.4-1.4-8.3-4.6-8.8
	S290.4,123.8,289.7,128.1z"/>
<path id="Path_6440" class="st17" d="M299.1,129c0,0,2.1-0.9,1.7,0.6C300.5,130.7,299.1,129,299.1,129z"/>
<path id="Path_6441" class="st17" d="M296,128.2c0,0,2.1-0.9,1.7,0.6C297.3,129.8,296,128.2,296,128.2z"/>
<path id="Path_6442" class="st17" d="M297.7,131.9c0,0,2.2,0.4,1,1.4C297.9,134.1,297.7,131.9,297.7,131.9z"/>
<path id="Path_6443" class="st17" d="M296,130.5c0,0,2,1.1,0.5,1.7C295.5,132.6,296,130.5,296,130.5z"/>
<path id="Path_6444" class="st17" d="M297.2,129.8c0,0,1.4-0.2,1.9,0.1c0.5,0.4,0.3,1.3-0.4,1C298.2,130.6,297.7,130.2,297.2,129.8z
	"/>
<path id="Path_6445" class="st17" d="M296.5,124.6c0,0-0.1-1.4,0.3-1.9s1.4-0.1,1,0.5C297.4,123.7,297,124.2,296.5,124.6z"/>
<path id="Path_6446" class="st17" d="M297,133.2c0,0,0.6,1.3,0.4,1.9c-0.2,0.6-1.2,0.6-1-0.1C296.5,134.3,296.7,133.7,297,133.2z"/>
<path id="Path_6447" class="st17" d="M298.5,127.5c0,0,1.3,0.4,1.8,0.1s0.3-1.1-0.3-1C299.5,126.8,299,127.1,298.5,127.5z"/>
<path id="Path_6448" class="st17" d="M297.8,125.5c0,0,1.3-0.2,1.6-0.7s-0.2-1.2-0.7-0.8C298.4,124.4,298,124.9,297.8,125.5z"/>
<path id="Path_6449" class="st17" d="M296.2,127.1c0,0,1.3,0.4,1.8,0.1s0.4-1.1-0.2-1C297.2,126.4,296.7,126.7,296.2,127.1z"/>
<path id="Path_6450" class="st17" d="M295,124.2c0,0,0.6-1.2,0.4-1.8c-0.2-0.6-1.1-0.5-1.1,0.1C294.4,123.1,294.7,123.7,295,124.2z"
	/>
<path id="Path_6451" class="st17" d="M293.9,125.5c-0.2-0.6-0.4-1.1-0.8-1.5c-0.5-0.4-1,0.3-0.5,0.7
	C293,125,293.5,125.2,293.9,125.5z"/>
<path id="Path_6452" class="st17" d="M291.8,127.5c-0.6-0.5-1.4,0.5-0.5,0.7s1.6,0.2,1.6,0.2L291.8,127.5z"/>
<path id="Path_6453" class="st17" d="M293.9,127.3c-0.6-0.5-1.4,0.5-0.5,0.7s1.6,0.2,1.6,0.2L293.9,127.3z"/>
<path id="Path_6454" class="st17" d="M290.9,129.5c-0.8-0.1-0.8,1.2,0,0.8s1.4-0.7,1.4-0.7L290.9,129.5z"/>
<path id="Path_6455" class="st17" d="M295.6,127.2c0.3-0.4,0.4-0.9,0.4-1.4c0-0.3-0.2-0.5-0.5-0.5s-0.5,0.2-0.5,0.5
	c0,0.1,0,0.1,0,0.2C295,126.4,295.3,126.8,295.6,127.2z"/>
<path id="Path_6456" class="st17" d="M295.1,131.6c0,0.2,0.7,1.3,0.3,1.9c-0.4,0.6-0.8,0.2-0.8-0.1
	C294.7,132.8,294.9,132.2,295.1,131.6z"/>
<path id="Path_6457" class="st17" d="M295.1,129c0.2,0.4,0.3,0.9,0.2,1.3c-0.2,0.6-1,0.7-0.8,0.1C294.6,129.9,294.8,129.5,295.1,129
	z"/>
<path id="Path_6458" class="st17" d="M293.7,129.5c-0.1,0.5-0.3,1-0.6,1.4c-0.5,0.5-1.2,0.6-0.8-0.2
	C292.6,130.2,293.1,129.7,293.7,129.5z"/>
<path id="Path_6459" class="st17" d="M294,133c-0.1,0.5-1,0.6-0.8-0.1c0.2-0.6,0.6-1,1.1-1.4L294,133z"/>
<path id="Path_6460" class="st17" d="M294.6,134.3c0.2,0.3,0.4,0.8,0.3,1.2c-0.1,0.8-0.5,0.5-0.7,0C294,135,294.6,134.3,294.6,134.3
	z"/>
<path id="Path_6461" class="st17" d="M292.7,132.6c0.1,0.4,0,0.8-0.3,1.2c-0.4,0.6-0.7,0.2-0.6-0.3
	C291.8,133,292.7,132.6,292.7,132.6z"/>
<path id="Path_6462" class="st17" d="M292.7,126.5c-0.4,0-0.8-0.2-1.1-0.4c-0.6-0.5-0.1-0.7,0.4-0.6S292.7,126.5,292.7,126.5z"/>
<path id="Path_6463" class="st14" d="M334.9,159.8c0,0-6.9,3.2-10.6,7s-7.1,13.6-7.6,17.2c-0.5,3.6-1.8,19.6-1.8,19.6s2.1,1,2.6-0.8
	s0-14.4,0.6-18.5c0.6-4.2,9-9.4,12.4-12.4C334.2,168.5,334.9,159.8,334.9,159.8z"/>
<path id="Path_6464" class="st14" d="M318.3,155.2c0,0-1.1,6,0,10.3s3,3,2.7,5.1s-2.2,3.7-1.9,5.3c0.6,3.9,3.3,2.9,3.3,4.3
	c-0.1,1.5-2,1.8-0.2,6.2c1.3,2.9,3.2,5.5,5.6,7.5v-2.1c0,0-3.7-5.9-3.4-8.1c0.3-2.2,2.4-7.7,1.6-15.2
	C325.2,160.9,318.3,155.2,318.3,155.2z"/>
<path id="Path_6465" class="st14" d="M352.6,170.8c-2.5-2-8.4-1.4-13.5,1.5c-5.2,2.8-4.2,7.7-6.6,10.7c-2.2,2.7-3.6,7-4.6,11.4
	c0.1,0.2,0.2,0.4,0.2,0.6c0.1,2.3,0.3,4.7,0.5,7c1.3-3.6,1.3-12.5,4.9-12.8c4.8-0.3,4.9-3.4,7.5-6.3c2.7-2.8,3,1.3,5.7-2
	c2.6-3.3,1.5-5.8,3.4-6.7c2-0.8,5.8,1.9,5.8,1.9C355.3,174.1,354.2,172.2,352.6,170.8z"/>
<path id="Path_6466" class="st11" d="M334.8,184.1c0.1-0.1,1-7,3.4-8.9s7.3-4.3,10-4.2c1.4,0,2.8,0.5,3.8,1.5c0,0-1.7-1-4.9-0.3
	c-2.9,0.5-5.6,1.7-7.9,3.5C337,177.6,334.8,184.1,334.8,184.1z"/>
<path id="Path_6467" class="st11" d="M327.7,222.7c0,0-1.5-40.2-0.6-50c1-10.9,3.1-14.2,8.6-18.2c2.6-1.8,5.5-3.3,8.5-4.3l0.5,4
	c-3.5,1.1-6.7,2.8-9.6,5c-5.1,3.8-5.8,9.7-5.9,20.3s1.1,43.2,1.1,43.2S329.8,224.5,327.7,222.7z"/>
<path id="Path_6468" class="st13" d="M327.2,136.8c1.5,2.4,3.4,4.4,5.6,6.1c3.9,3.1,7,3.3,7,3.3l0.9-4.3c-1.5-1.7-3.4-2.9-5.5-3.7
	C332.7,137.4,330,136.9,327.2,136.8z"/>
<path id="Path_6469" class="st13" d="M338.3,127.5c-0.7,2.4-0.7,5-0.1,7.4c0.7,2,1.5,3.9,2.6,5.8l3.6-0.9c-0.8-2.3-1.7-4.5-2.9-6.6
	C339.7,130.1,338.3,127.5,338.3,127.5z"/>
<path id="Path_6470" class="st13" d="M351.4,127.5c-2.2,1.3-4,3.1-5.2,5.3c-0.9,1.9-1.6,3.9-2.1,6l3.2,1.9c1-2.2,1.9-4.4,2.5-6.8
	C350.7,130.4,351.4,127.5,351.4,127.5z"/>
<path id="Path_6471" class="st13" d="M327.5,150.1c0,0,2.6-2.6,5.5-2.7c1.5-0.1,3,0.1,4.5,0.4l1.8,2.9c-1.1,1.4-3,2-4.7,1.6
	C332.2,151.8,329.8,151.1,327.5,150.1z"/>
<path id="Path_6472" class="st13" d="M332.3,161.1c1.2-2.4,2.6-4.6,4.3-6.6l2.1-2.3l2.4,2.4c0,0-1.1,3-3.1,4.2
	C336.1,159.7,334.2,160.4,332.3,161.1z"/>
<path id="Path_6473" class="st13" d="M340.9,157.1c-0.6,1.7-1,3.5-1.1,5.3c0.1,1.7,0.8,3.3,1.8,4.6c0.7-1.5,1.3-3.1,1.7-4.7
	c0.4-1.8,1.4-4.4,1.4-4.4L340.9,157.1z"/>
<path id="Path_6474" class="st13" d="M344.4,157.7c0.4,1.8,1.1,3.5,2,5c1.3,1.9,2.8,3.8,2.8,3.8s0.7-4.1,0.1-5.8s-1.3-4.4-1.3-4.4
	L344.4,157.7z"/>
<path id="Path_6475" class="st13" d="M348.4,155.4c0,0-0.9,1,1.7,4c2.5,3,5.3,1.9,5.3,1.9c-1.2-1.4-2.2-2.9-3-4.5
	c-0.5-1.2-1.2-2.2-2.2-3L348.4,155.4z"/>
<path id="Path_6476" class="st13" d="M348.7,141.5c0.8-1.6,2.3-2.8,4.1-3.2c2-0.6,4-0.9,6-1c-0.9,1.5-2.1,2.7-3.5,3.7
	c-2.2,1.5-4.6,3-4.6,3L348.7,141.5z"/>
<path id="Path_6477" class="st13" d="M351.2,146.1c1.5-0.8,3.2-1.3,5-1.5c2.9-0.3,3.7,1.4,3.7,1.4s-2.7,2.2-4.6,2.6
	c-2,0.3-4,0.8-4,0.8L351.2,146.1z"/>
<path id="Path_6478" class="st13" d="M350.5,150.3c0,0,1.3-0.8,4,1.5c1.5,1.2,2.7,2.8,3.5,4.7c-1.7,0-3.3-0.4-4.7-1.3
	c-1-0.8-2.1-1.4-3.2-1.8L350.5,150.3z"/>
<path id="Path_6479" class="st12" d="M331.2,130.5c0.5,2.7,1.5,5.4,2.9,7.8c2.4,4.3,5.2,5.7,5.2,5.7l2.5-3.6c-0.8-2.1-2-4-3.7-5.5
	C336,133.1,333.7,131.6,331.2,130.5z"/>
<path id="Path_6480" class="st12" d="M342.9,126.1c-1.2,2.2-1.8,4.7-1.8,7.2c0.2,2.1,0.6,4.2,1.2,6.2h3.7c-0.2-2.4-0.6-4.8-1.3-7.1
	C343.7,128.9,342.9,126.1,342.9,126.1z"/>
<path id="Path_6481" class="st12" d="M328.6,142.3c0,0,3.6-0.8,6.1,0.7c1.3,0.8,2.5,1.7,3.6,2.8v3.4c-1.7,0.5-3.6,0.1-4.8-1.2
	C331.6,146.2,330,144.3,328.6,142.3z"/>
<path id="Path_6482" class="st12" d="M329.5,156.1c2-1.7,4.2-3.3,6.5-4.5l2.8-1.3l1.3,3.1c0,0-2.2,2.4-4.5,2.7
	C333.6,156.3,331.6,156.3,329.5,156.1z"/>
<path id="Path_6483" class="st12" d="M339.8,155c-1.3,1.3-2.4,2.7-3.3,4.3c-0.6,1.6-0.7,3.3-0.3,5c1.3-1.1,2.4-2.3,3.5-3.5
	c1.1-1.4,3.1-3.5,3.1-3.5L339.8,155z"/>
<path id="Path_6484" class="st12" d="M343.2,157.7c0.4,0.3-0.8,2.1,0,4.9c0.6,1.8,1.6,3.3,3.1,4.5c0.2-1.8,0.2-3.7,0-5.5
	c-0.2-1.3-0.2-2.6,0-3.9H343.2z"/>
<path id="Path_6485" class="st12" d="M347.2,157.4c0,0,1.2,2.2,2.1,4.2c0.6,1.4,1.1,2.9,1.5,4.3c0,0,2.4-2.8,0.9-6
	c-0.5-1.3-1.2-2.6-2-3.7L347.2,157.4z"/>
<path id="Path_6486" class="st12" d="M350,155.2c0,0-0.4,1.3,3,3.2s5.7,0,5.7,0c-1.6-0.9-3-2-4.3-3.2c-0.8-0.9-1.9-1.7-3.1-2.1
	L350,155.2z"/>
<path id="Path_6487" class="st12" d="M346.9,140.8c0.3-1.8,1.2-3.4,2.7-4.4c1.7-1.2,3.4-2.2,5.3-3.1c-0.3,1.7-1,3.3-2,4.7
	c-1.6,2.2-3.3,4.4-3.3,4.4L346.9,140.8z"/>
<path id="Path_6488" class="st12" d="M350.3,144c1.2-1.3,2.6-2.4,4.2-3.1c2.6-1.2,3.9,0,3.9,0s-1.7,3-3.5,4s-3.5,2.1-3.5,2.1
	L350.3,144z"/>
<path id="Path_6489" class="st12" d="M350.4,148.8c0,0,0.9-1.2,4.2,0c1.9,0.6,3.5,1.7,4.9,3.2c-1.6,0.6-3.2,0.7-4.9,0.4
	c-1.2-0.4-2.4-0.6-3.7-0.5L350.4,148.8z"/>
<path id="Path_6490" class="st17" d="M351.8,147.8c0.8,5.3-1.7,10.1-5.6,10.7c-3.9,0.6-7.8-3.2-8.6-8.6s1.7-10.1,5.6-10.7
	C347.1,138.6,351,142.4,351.8,147.8z"/>
<path id="Path_6491" class="st28" d="M351.1,147.9c0.7,4.3-1.4,8.3-4.6,8.8s-6.4-2.6-7-7c-0.7-4.4,1.4-8.3,4.6-8.8
	C347.3,140.4,350.5,143.5,351.1,147.9z"/>
<path id="Path_6492" class="st17" d="M341.8,148.8c0,0-2.1-0.9-1.7,0.6C340.4,150.4,341.8,148.8,341.8,148.8z"/>
<path id="Path_6493" class="st17" d="M344.9,147.9c0,0-2.1-0.9-1.7,0.6C343.5,149.6,344.9,147.9,344.9,147.9z"/>
<path id="Path_6494" class="st17" d="M343.2,151.7c0,0-2.2,0.4-1,1.4C343,153.8,343.2,151.7,343.2,151.7z"/>
<path id="Path_6495" class="st17" d="M344.8,150.3c0,0-2,1.1-0.5,1.7C345.3,152.4,344.8,150.3,344.8,150.3z"/>
<path id="Path_6496" class="st17" d="M343.7,149.5c0,0-1.4-0.2-1.9,0.1c-0.5,0.4-0.3,1.3,0.4,1C342.7,150.3,343.2,150,343.7,149.5z"
	/>
<path id="Path_6497" class="st17" d="M344.4,144.4c0,0,0.1-1.4-0.3-1.9s-1.4-0.1-0.9,0.5C343.5,143.5,343.9,143.9,344.4,144.4z"/>
<path id="Path_6498" class="st17" d="M343.9,152.9c0,0-0.6,1.3-0.4,1.9c0.2,0.6,1.2,0.6,1-0.1C344.4,154.1,344.2,153.5,343.9,152.9z
	"/>
<path id="Path_6499" class="st17" d="M342.4,147.3c0,0-1.3,0.4-1.8,0.1c-0.5-0.3-0.3-1.1,0.3-1C341.4,146.5,341.9,146.9,342.4,147.3
	z"/>
<path id="Path_6500" class="st17" d="M343,145.2c0,0-1.3-0.2-1.6-0.7c-0.3-0.5,0.2-1.2,0.7-0.8C342.5,144.1,342.8,144.6,343,145.2z"
	/>
<path id="Path_6501" class="st17" d="M344.7,146.8c0,0-1.3,0.4-1.8,0.1c-0.5-0.3-0.4-1.1,0.2-1C343.7,146.1,344.2,146.4,344.7,146.8
	z"/>
<path id="Path_6502" class="st17" d="M345.9,143.9c0,0-0.6-1.2-0.4-1.8s1.1-0.5,1.1,0.1C346.4,142.9,346.2,143.4,345.9,143.9z"/>
<path id="Path_6503" class="st17" d="M347,145.2c0.2-0.6,0.4-1.1,0.8-1.5c0.5-0.4,1,0.3,0.5,0.7C347.8,144.7,347.4,145,347,145.2z"
	/>
<path id="Path_6504" class="st17" d="M349.1,147.3c0.6-0.5,1.4,0.5,0.5,0.7s-1.6,0.2-1.6,0.2L349.1,147.3z"/>
<path id="Path_6505" class="st17" d="M347,147c0.6-0.5,1.4,0.5,0.5,0.7s-1.6,0.2-1.6,0.2L347,147z"/>
<path id="Path_6506" class="st17" d="M349.9,149.3c0.8-0.1,0.8,1.2,0,0.8s-1.4-0.7-1.4-0.7L349.9,149.3z"/>
<path id="Path_6507" class="st17" d="M345.3,146.9c-0.3-0.4-0.4-0.9-0.4-1.4c0-0.3,0.2-0.5,0.5-0.5s0.5,0.2,0.5,0.5
	c0,0.1,0,0.1,0,0.2C345.8,146.2,345.6,146.6,345.3,146.9z"/>
<path id="Path_6508" class="st17" d="M345.8,151.4c0,0.2-0.7,1.3-0.3,1.9c0.4,0.6,0.8,0.2,0.8-0.1
	C346.2,152.5,346,151.9,345.8,151.4z"/>
<path id="Path_6509" class="st17" d="M345.8,148.8c-0.2,0.4-0.3,0.9-0.2,1.3c0.2,0.6,1,0.7,0.8,0.1
	C346.3,149.7,346.1,149.2,345.8,148.8z"/>
<path id="Path_6510" class="st17" d="M347.2,149.3c0.1,0.5,0.3,1,0.6,1.4c0.5,0.5,1.2,0.6,0.8-0.2
	C348.3,149.9,347.8,149.5,347.2,149.3z"/>
<path id="Path_6511" class="st17" d="M346.9,152.7c0.1,0.5,1,0.6,0.8-0.1c-0.2-0.6-0.6-1-1.1-1.4L346.9,152.7z"/>
<path id="Path_6512" class="st17" d="M346.3,154.1c-0.2,0.3-0.4,0.8-0.3,1.2c0.1,0.8,0.5,0.5,0.7,0
	C346.9,154.8,346.3,154.1,346.3,154.1z"/>
<path id="Path_6513" class="st17" d="M348.2,152.4c-0.1,0.4,0,0.8,0.3,1.2c0.4,0.6,0.7,0.2,0.6-0.3
	C349.1,152.7,348.2,152.4,348.2,152.4z"/>
<path id="Path_6514" class="st17" d="M348.2,146.2c0.4,0,0.8-0.2,1.1-0.4c0.6-0.5,0.1-0.7-0.4-0.6
	C348.4,145.3,348.2,146.2,348.2,146.2z"/>
<path id="Path_6515" class="st14" d="M306,179.5c0,0,6.9,3.2,10.6,7s7.1,13.6,7.6,17.2s1.8,19.6,1.8,19.6s-2.1,1-2.6-0.8
	s0-14.4-0.6-18.5c-0.6-4.2-9-9.4-12.4-12.4C306.7,188.3,306,179.5,306,179.5z"/>
<path id="Path_6516" class="st30" d="M177.6,16.1c0.3,3.1,0.2,6.3-0.5,9.4c-0.5,2.1-1.3,4.2-2.3,6.1L162.6,26L177.6,16.1z"/>
<path id="Path_6517" class="st2" d="M157,7.2c4.7-3.2,15.4-3.8,18.8,7.4c3.5,11.8-7.7,25.8-13.1,23c-3.1-1.5-9.4-6.7-11-12.9
	C149.9,17.8,153.3,9.7,157,7.2z"/>
<path id="Path_6518" class="st30" d="M147.5,9.9c2-3.4,6.7-7.9,10-9c6.6-2.4,11,0.2,16.8,6.1c3.5,3.6,5,7.6,4.7,13.9
	c0,0-9.8,6.3-15.5,7.2c-2.7,0.4-6.2-1.3-8.3-2.5c-0.4,2.9-0.8,6.2-0.9,7.7c0,2.6,0.2,5.2,0.6,7.7c0,0-8.4-2-10.7-5.8
	S143.8,16,147.5,9.9z"/>
</svg>
