<?xml version="1.0" encoding="utf-8"?>
<!-- Generator: Adobe Illustrator 27.6.1, SVG Export Plug-In . SVG Version: 6.00 Build 0)  -->
<svg version="1.1" id="Layer_1" xmlns="http://www.w3.org/2000/svg" xmlns:xlink="http://www.w3.org/1999/xlink" x="0px" y="0px"
	 viewBox="0 0 352.2 206.4" style="enable-background:new 0 0 352.2 206.4;" xml:space="preserve">
<style type="text/css">
	.st0{fill:#EDEDED;}
	.st1{fill:#FFFFFF;}
	.st2{fill:#2CA2B5;}
	.st3{fill:#53B7D5;}
	.st4{fill:#F7D046;}
	.st5{fill:#DEAF5A;}
	.st6{fill:none;stroke:#FF76C6;stroke-width:1;stroke-miterlimit:4;}
	.st7{fill-rule:evenodd;clip-rule:evenodd;fill:#E0DFEF;}
</style>
<g id="Group_3_2_" transform="translate(51 371)">
	<path id="Path_1_1_" class="st0" d="M248.2-287.7c-4.8-30.1-30.7-52.3-61.2-52.3c-11.5,0-22.7,3.2-32.5,9.2
		c-14.8-25-41.7-40.2-70.7-40.2c-45.5,0-82.6,37-82.6,82.6c0,0.3,0,0.6,0,0.9C-28-282.7-51-257.2-51-226.5
		c0,34.1,28.5,61.9,62.6,61.9h227c34.1,0,62.6-27.8,62.6-61.9C301.2-257.4,277.8-283.1,248.2-287.7z"/>
</g>
<g id="Group_11" transform="translate(1410 329)">
	<path id="Path_5_1_" class="st1" d="M-1249.4-275l16.1-0.6l-18.1-19.3l0.6,18.5C-1250.8-275.6-1250.2-275-1249.4-275z
		 M-1258.2-306.7l-62.5,2.2c-1.8,0.1-3.2,1.7-3.1,3.5l4.7,132.8c0,1.8,1.5,3.3,3.3,3.3l92.9-3.3c1.8-0.1,3.2-1.7,3.1-3.5l-3.4-97.5
		l-25.8,0.9c-4.3,0.1-7.8-3.4-8-8L-1258.2-306.7L-1258.2-306.7z"/>
</g>
<g id="Group_14" transform="translate(1410 329)">
	<g id="Group_15" transform="translate(0 0)">
		<path id="Path_5-2" class="st2" d="M-1249.4-275l16.1-0.6l-18.1-19.3l0.6,18.5C-1250.8-275.6-1250.2-275-1249.4-275z
			 M-1258.2-306.7l-62.5,2.2c-1.8,0.1-3.2,1.7-3.1,3.5l4.7,132.8c0,1.8,1.5,3.3,3.3,3.3l92.9-3.3c1.8-0.1,3.2-1.7,3.1-3.5l-3.4-97.5
			l-25.8,0.9c-4.3,0.1-7.8-3.4-8-8L-1258.2-306.7L-1258.2-306.7z M-1304.6-185.1c-0.1-1.8,1.3-3.4,3.1-3.5l56-2
			c1.8,0,3.3,1.5,3.3,3.3c0.1,1.8-1.3,3.4-3.1,3.5l-56,2C-1303.1-181.8-1304.5-183.3-1304.6-185.1z M-1305.3-206
			c-0.1-1.8,1.3-3.4,3.1-3.5l56-2c1.8,0,3.3,1.5,3.3,3.3c0.1,1.8-1.3,3.4-3.1,3.5l-56,2C-1303.8-202.7-1305.3-204.1-1305.3-206
			L-1305.3-206z M-1306-226.9c-0.1-1.8,1.3-3.4,3.1-3.5l46-1.6c1.8,0,3.3,1.5,3.3,3.3c0.1,1.8-1.3,3.4-3.1,3.5l-46,1.6
			C-1304.5-223.5-1306-225-1306-226.9L-1306-226.9z M-1303.7-251.3l63.8-2.2c1.8,0,3.3,1.5,3.3,3.3c0.1,1.8-1.3,3.4-3.1,3.5
			l-63.8,2.2c-1.8,0-3.3-1.5-3.3-3.3C-1306.9-249.6-1305.5-251.1-1303.7-251.3z"/>
	</g>
</g>
<rect id="Rectangle_2" x="38.1" y="28.8" transform="matrix(0.9563 -0.2924 0.2924 0.9563 -25.8974 29.7067)" class="st3" width="96.6" height="145.5"/>
<path id="Path_2_1_" class="st4" d="M51.8,51.3l19.5,17.3C72,78.8,64.2,87.6,54,88.2C43.9,88.8,35.1,81,34.5,70.9
	C33.9,60.7,41.6,52,51.8,51.3z"/>
<path id="Path_3_1_" class="st5" d="M71.3,68.6C70.7,58.4,62,50.7,51.8,51.3l1.1,18.4L71.3,68.6z"/>
<rect id="Rectangle_3" x="74.1" y="47.1" transform="matrix(0.9563 -0.2924 0.2924 0.9563 -10.6054 25.5042)" class="st1" width="11.8" height="2.4"/>
<rect id="Rectangle_4" x="87.4" y="41" transform="matrix(0.9563 -0.2924 0.2924 0.9563 -7.9808 31.0068)" class="st1" width="24.7" height="2.4"/>
<rect id="Rectangle_5" x="75.5" y="50.5" transform="matrix(0.9563 -0.2924 0.2924 0.9563 -11.2028 28.298)" class="st1" width="27.1" height="2.4"/>
<rect id="Rectangle_6" x="108.7" y="43.7" transform="matrix(0.9563 -0.2924 0.2924 0.9563 -8.2782 34.4294)" class="st1" width="4.7" height="2.4"/>
<rect id="Rectangle_7" x="77.3" y="56.8" transform="matrix(0.9563 -0.2924 0.2924 0.9563 -13.0748 28.4189)" class="st1" width="22.4" height="2.4"/>
<rect id="Rectangle_8" x="79.3" y="64" transform="matrix(0.9563 -0.2924 0.2924 0.9563 -15.3219 27.7539)" class="st1" width="11.8" height="2.4"/>
<rect id="Rectangle_9" x="92.5" y="57.9" transform="matrix(0.9563 -0.2924 0.2924 0.9563 -12.6973 33.2565)" class="st1" width="24.7" height="2.4"/>
<rect id="Rectangle_10" x="80.7" y="67.4" transform="matrix(0.9563 -0.2924 0.2924 0.9563 -15.9191 30.5476)" class="st1" width="27.1" height="2.4"/>
<rect id="Rectangle_11" x="113.9" y="60.6" transform="matrix(0.9563 -0.2924 0.2924 0.9563 -12.9946 36.679)" class="st1" width="4.7" height="2.4"/>
<rect id="Rectangle_12" x="55.2" y="109" transform="matrix(0.9563 -0.2924 0.2924 0.9563 -38.2249 23.4327)" class="st4" width="8.2" height="61.3"/>
<rect id="Rectangle_13" x="75.8" y="120.7" transform="matrix(0.9563 -0.2924 0.2924 0.9563 -38.1835 29.5883)" class="st4" width="8.2" height="43.6"/>
<rect id="Rectangle_14" x="92.4" y="106" transform="matrix(0.9563 -0.2924 0.2924 0.9563 -34.5262 34.0193)" class="st4" width="8.2" height="53"/>
<rect id="Rectangle_15" x="109.8" y="95.9" transform="matrix(0.9563 -0.2924 0.2924 0.9563 -31.4978 38.7501)" class="st4" width="8.2" height="57.7"/>
<rect id="Rectangle_16" x="129.9" y="104.2" transform="matrix(0.9563 -0.2924 0.2924 0.9563 -30.9847 44.6808)" class="st4" width="8.2" height="43.6"/>
<path id="Path_4_1_" class="st6" d="M64.3,170.1l80-24.5"/>
<g id="Group_11-2" transform="translate(1410 329)">
	<path id="Path_5-3" class="st1" d="M-1158.9-254.5l15.5,4.4l-11.3-23.9l-5.1,17.8C-1160-255.5-1159.6-254.7-1158.9-254.5z
		 M-1157.5-287.3l-60.2-17.3c-1.8-0.4-3.6,0.6-4,2.4l-36.7,127.8c-0.6,1.7,0.4,3.6,2.1,4.2l89.4,25.6c1.8,0.4,3.6-0.6,4-2.4
		l26.9-93.8l-24.9-7.1c-4.1-1.2-6.4-5.7-5.1-10.1L-1157.5-287.3L-1157.5-287.3z"/>
</g>
<g id="Group_14-2" transform="translate(1410 329)">
	<g id="Group_15-2" transform="translate(0 0)">
		<path id="Path_5-4" class="st2" d="M-1158.9-254.5l15.5,4.4l-11.3-23.9l-5.1,17.8C-1160-255.5-1159.6-254.7-1158.9-254.5z
			 M-1157.5-287.3l-60.2-17.3c-1.8-0.4-3.6,0.6-4,2.4l-36.7,127.8c-0.6,1.7,0.4,3.6,2.1,4.2l89.4,25.6c1.8,0.4,3.6-0.6,4-2.4
			l26.9-93.8l-24.9-7.1c-4.1-1.2-6.4-5.7-5.1-10.1L-1157.5-287.3L-1157.5-287.3z M-1239.1-186c0.4-1.8,2.2-2.9,4-2.4l53.9,15.5
			c1.7,0.6,2.7,2.4,2.1,4.2c-0.4,1.8-2.2,2.9-4,2.4l-53.9-15.5C-1238.7-182.4-1239.7-184.2-1239.1-186z M-1233.4-206.1
			c0.4-1.8,2.2-2.9,4-2.4l53.9,15.5c1.7,0.6,2.7,2.4,2.1,4.2c-0.4,1.8-2.2,2.9-4,2.4l-53.9-15.5
			C-1233-202.5-1233.9-204.3-1233.4-206.1L-1233.4-206.1z M-1227.6-226.2c0.4-1.8,2.2-2.9,4-2.4l44.3,12.7c1.7,0.6,2.7,2.4,2.1,4.2
			c-0.4,1.8-2.2,2.9-4,2.4l-44.3-12.7C-1227.2-222.6-1228.2-224.4-1227.6-226.2L-1227.6-226.2z M-1217.8-248.7l61.4,17.6
			c1.7,0.6,2.7,2.4,2.1,4.2c-0.4,1.8-2.2,2.9-4,2.4l-61.4-17.6c-1.7-0.6-2.7-2.4-2.1-4.2C-1221.4-248-1219.6-249.1-1217.8-248.7z"/>
	</g>
</g>
<rect id="Rectangle_2-2" x="189.1" y="68.3" transform="matrix(0.5 -0.866 0.866 0.5 29.7534 285.8773)" class="st3" width="146.7" height="97.8"/>
<path id="Path_7_1_" class="st5" d="M257.6,42.2l72.2,41.7l-26.2,45.5l-72.2-41.7L257.6,42.2z"/>
<path id="Path_6_1_" class="st4" d="M234.9,89.6l15.7-11.6l4.9,11.1l20.3-9.4l6.8,20.6l23.2-16l-6.2,42.6L234.9,89.6z"/>
<ellipse id="Ellipse_1_1_" transform="matrix(0.5 -0.866 0.866 0.5 73.2382 264.5209)" class="st4" cx="265.7" cy="68.8" rx="9.8" ry="9.5"/>
<rect id="Rectangle_18" x="259.6" y="75.5" transform="matrix(0.5 -0.866 0.866 0.5 29.7531 285.8777)" class="st1" width="5.7" height="83.4"/>
<rect id="Rectangle_19" x="252.8" y="86.9" transform="matrix(0.5 -0.866 0.866 0.5 16.631 285.8777)" class="st1" width="6.2" height="83.4"/>
<rect id="Rectangle_20" x="246.1" y="98.4" transform="matrix(0.5 -0.866 0.866 0.5 3.251 285.8777)" class="st1" width="6.2" height="83.4"/>
<rect id="Rectangle_21" x="239.7" y="109.6" transform="matrix(0.5 -0.866 0.866 0.5 -9.6144 285.8777)" class="st1" width="6.2" height="83.4"/>
<rect id="Rectangle_22" x="218.5" y="129.5" transform="matrix(0.5 -0.866 0.866 0.5 -22.9944 269.1526)" class="st1" width="6.2" height="49.9"/>
<path id="Path_8_1_" class="st3" d="M289.4,39.7l31.2,18l-6.7,11.6l-31.2-18L289.4,39.7z"/>
<rect id="Rectangle_24" x="297.5" y="41.7" transform="matrix(0.5 -0.866 0.866 0.5 103.086 288.1933)" class="st1" width="7.2" height="26.2"/>
<g id="Group_20_1_" transform="translate(9)">
	<circle id="Ellipse_2_1_" class="st4" cx="160" cy="92.9" r="31.9"/>
	<g id="Group_19_1_" transform="translate(337 716)">
		<path id="Path_10_1_" class="st3" d="M-164.5-627.6h-2.2v-2.9c0-5.6-4.6-10.2-10.2-10.2c-5.6,0-10.2,4.6-10.2,10.2v2.9h-2.2
			c-0.4,0-0.7,0.3-0.7,0.7c0,0,0,0,0,0v18.2c0,1.6,1.3,2.9,2.9,2.9h20.4c1.6,0,2.9-1.3,2.9-2.9v-18.2
			C-163.8-627.3-164.1-627.6-164.5-627.6C-164.5-627.6-164.5-627.6-164.5-627.6z M-174.7-612.4c0,0.2,0,0.4-0.2,0.6
			c-0.1,0.2-0.3,0.2-0.5,0.2h-2.9c-0.2,0-0.4-0.1-0.5-0.2c-0.1-0.2-0.2-0.4-0.2-0.6l0.5-4.1c-0.8-0.5-1.2-1.4-1.2-2.3
			c0-1.6,1.3-2.9,2.9-2.9c1.6,0,2.9,1.3,2.9,2.9c0,0.9-0.4,1.8-1.2,2.3L-174.7-612.4z M-171.1-627.6h-11.6v-2.9
			c0-3.2,2.6-5.8,5.8-5.8c3.2,0,5.8,2.6,5.8,5.8V-627.6z"/>
	</g>
</g>
<g id="Group_18" transform="translate(139.257 374.648)">
	<path id="Path_9_1_" class="st7" d="M-88.3-168.3h230.5c0,0,4-9.6-5.8-11.6c0,0-3.5-15.2-20.1-9.1c0,0-8.6-7.2-16.2,2.6
		c0,0,10.2-24.4-16.4-34c0,0-5.6-40.6-43.5-23.3c0,0-49.7-24.8-67.1,16.9c0,0-23.3-4.3-29.3,15.9c0,0-21.2-3.2-23.9,19
		C-80.3-192-90.4-188.3-88.3-168.3z"/>
</g>
<g>
</g>
<g>
</g>
<g>
</g>
<g>
</g>
<g>
</g>
<g>
</g>
</svg>
